<?xml version="1.0" encoding="utf-8" standalone="no"?>
<!DOCTYPE svg PUBLIC "-//W3C//DTD SVG 1.1//EN"
  "http://www.w3.org/Graphics/SVG/1.1/DTD/svg11.dtd">
<svg xmlns:xlink="http://www.w3.org/1999/xlink" width="460.8pt" height="345.6pt" viewBox="0 0 460.8 345.6" xmlns="http://www.w3.org/2000/svg" version="1.1">
 <metadata>
  <rdf:RDF xmlns:dc="http://purl.org/dc/elements/1.1/" xmlns:cc="http://creativecommons.org/ns#" xmlns:rdf="http://www.w3.org/1999/02/22-rdf-syntax-ns#">
   <cc:Work>
    <dc:type rdf:resource="http://purl.org/dc/dcmitype/StillImage"/>
    <dc:date>2023-09-15T17:47:22.402652</dc:date>
    <dc:format>image/svg+xml</dc:format>
    <dc:creator>
     <cc:Agent>
      <dc:title>Matplotlib v3.7.1, https://matplotlib.org/</dc:title>
     </cc:Agent>
    </dc:creator>
   </cc:Work>
  </rdf:RDF>
 </metadata>
 <defs>
  <style type="text/css">*{stroke-linejoin: round; stroke-linecap: butt}</style>
 </defs>
 <g id="figure_1">
  <g id="patch_1">
   <path d="M 0 345.6 
L 460.8 345.6 
L 460.8 0 
L 0 0 
z
" style="fill: #ffffff"/>
  </g>
  <g id="axes_1">
   <g id="patch_2">
    <path d="M 57.6 307.584 
L 414.72 307.584 
L 414.72 41.472 
L 57.6 41.472 
z
" style="fill: #ffffff"/>
   </g>
   <g id="matplotlib.axis_1">
    <g id="xtick_1">
     <g id="line2d_1">
      <defs>
       <path id="md5ae7ebbd3" d="M 0 0 
L 0 3.5 
" style="stroke: #000000; stroke-width: 0.8"/>
      </defs>
      <g>
       <use xlink:href="#md5ae7ebbd3" x="57.6" y="307.584" style="stroke: #000000; stroke-width: 0.8"/>
      </g>
     </g>
     <g id="text_1">
      <!-- 0.500 -->
      <g transform="translate(43.285938 322.182437) scale(0.1 -0.1)">
       <defs>
        <path id="DejaVuSans-30" d="M 2034 4250 
Q 1547 4250 1301 3770 
Q 1056 3291 1056 2328 
Q 1056 1369 1301 889 
Q 1547 409 2034 409 
Q 2525 409 2770 889 
Q 3016 1369 3016 2328 
Q 3016 3291 2770 3770 
Q 2525 4250 2034 4250 
z
M 2034 4750 
Q 2819 4750 3233 4129 
Q 3647 3509 3647 2328 
Q 3647 1150 3233 529 
Q 2819 -91 2034 -91 
Q 1250 -91 836 529 
Q 422 1150 422 2328 
Q 422 3509 836 4129 
Q 1250 4750 2034 4750 
z
" transform="scale(0.015625)"/>
        <path id="DejaVuSans-2e" d="M 684 794 
L 1344 794 
L 1344 0 
L 684 0 
L 684 794 
z
" transform="scale(0.015625)"/>
        <path id="DejaVuSans-35" d="M 691 4666 
L 3169 4666 
L 3169 4134 
L 1269 4134 
L 1269 2991 
Q 1406 3038 1543 3061 
Q 1681 3084 1819 3084 
Q 2600 3084 3056 2656 
Q 3513 2228 3513 1497 
Q 3513 744 3044 326 
Q 2575 -91 1722 -91 
Q 1428 -91 1123 -41 
Q 819 9 494 109 
L 494 744 
Q 775 591 1075 516 
Q 1375 441 1709 441 
Q 2250 441 2565 725 
Q 2881 1009 2881 1497 
Q 2881 1984 2565 2268 
Q 2250 2553 1709 2553 
Q 1456 2553 1204 2497 
Q 953 2441 691 2322 
L 691 4666 
z
" transform="scale(0.015625)"/>
       </defs>
       <use xlink:href="#DejaVuSans-30"/>
       <use xlink:href="#DejaVuSans-2e" x="63.623047"/>
       <use xlink:href="#DejaVuSans-35" x="95.410156"/>
       <use xlink:href="#DejaVuSans-30" x="159.033203"/>
       <use xlink:href="#DejaVuSans-30" x="222.65625"/>
      </g>
     </g>
    </g>
    <g id="xtick_2">
     <g id="line2d_2">
      <g>
       <use xlink:href="#md5ae7ebbd3" x="102.24" y="307.584" style="stroke: #000000; stroke-width: 0.8"/>
      </g>
     </g>
     <g id="text_2">
      <!-- 0.525 -->
      <g transform="translate(87.925938 322.182437) scale(0.1 -0.1)">
       <defs>
        <path id="DejaVuSans-32" d="M 1228 531 
L 3431 531 
L 3431 0 
L 469 0 
L 469 531 
Q 828 903 1448 1529 
Q 2069 2156 2228 2338 
Q 2531 2678 2651 2914 
Q 2772 3150 2772 3378 
Q 2772 3750 2511 3984 
Q 2250 4219 1831 4219 
Q 1534 4219 1204 4116 
Q 875 4013 500 3803 
L 500 4441 
Q 881 4594 1212 4672 
Q 1544 4750 1819 4750 
Q 2544 4750 2975 4387 
Q 3406 4025 3406 3419 
Q 3406 3131 3298 2873 
Q 3191 2616 2906 2266 
Q 2828 2175 2409 1742 
Q 1991 1309 1228 531 
z
" transform="scale(0.015625)"/>
       </defs>
       <use xlink:href="#DejaVuSans-30"/>
       <use xlink:href="#DejaVuSans-2e" x="63.623047"/>
       <use xlink:href="#DejaVuSans-35" x="95.410156"/>
       <use xlink:href="#DejaVuSans-32" x="159.033203"/>
       <use xlink:href="#DejaVuSans-35" x="222.65625"/>
      </g>
     </g>
    </g>
    <g id="xtick_3">
     <g id="line2d_3">
      <g>
       <use xlink:href="#md5ae7ebbd3" x="146.88" y="307.584" style="stroke: #000000; stroke-width: 0.8"/>
      </g>
     </g>
     <g id="text_3">
      <!-- 0.550 -->
      <g transform="translate(132.565938 322.182437) scale(0.1 -0.1)">
       <use xlink:href="#DejaVuSans-30"/>
       <use xlink:href="#DejaVuSans-2e" x="63.623047"/>
       <use xlink:href="#DejaVuSans-35" x="95.410156"/>
       <use xlink:href="#DejaVuSans-35" x="159.033203"/>
       <use xlink:href="#DejaVuSans-30" x="222.65625"/>
      </g>
     </g>
    </g>
    <g id="xtick_4">
     <g id="line2d_4">
      <g>
       <use xlink:href="#md5ae7ebbd3" x="191.52" y="307.584" style="stroke: #000000; stroke-width: 0.8"/>
      </g>
     </g>
     <g id="text_4">
      <!-- 0.575 -->
      <g transform="translate(177.205938 322.182437) scale(0.1 -0.1)">
       <defs>
        <path id="DejaVuSans-37" d="M 525 4666 
L 3525 4666 
L 3525 4397 
L 1831 0 
L 1172 0 
L 2766 4134 
L 525 4134 
L 525 4666 
z
" transform="scale(0.015625)"/>
       </defs>
       <use xlink:href="#DejaVuSans-30"/>
       <use xlink:href="#DejaVuSans-2e" x="63.623047"/>
       <use xlink:href="#DejaVuSans-35" x="95.410156"/>
       <use xlink:href="#DejaVuSans-37" x="159.033203"/>
       <use xlink:href="#DejaVuSans-35" x="222.65625"/>
      </g>
     </g>
    </g>
    <g id="xtick_5">
     <g id="line2d_5">
      <g>
       <use xlink:href="#md5ae7ebbd3" x="236.16" y="307.584" style="stroke: #000000; stroke-width: 0.8"/>
      </g>
     </g>
     <g id="text_5">
      <!-- 0.600 -->
      <g transform="translate(221.845938 322.182437) scale(0.1 -0.1)">
       <defs>
        <path id="DejaVuSans-36" d="M 2113 2584 
Q 1688 2584 1439 2293 
Q 1191 2003 1191 1497 
Q 1191 994 1439 701 
Q 1688 409 2113 409 
Q 2538 409 2786 701 
Q 3034 994 3034 1497 
Q 3034 2003 2786 2293 
Q 2538 2584 2113 2584 
z
M 3366 4563 
L 3366 3988 
Q 3128 4100 2886 4159 
Q 2644 4219 2406 4219 
Q 1781 4219 1451 3797 
Q 1122 3375 1075 2522 
Q 1259 2794 1537 2939 
Q 1816 3084 2150 3084 
Q 2853 3084 3261 2657 
Q 3669 2231 3669 1497 
Q 3669 778 3244 343 
Q 2819 -91 2113 -91 
Q 1303 -91 875 529 
Q 447 1150 447 2328 
Q 447 3434 972 4092 
Q 1497 4750 2381 4750 
Q 2619 4750 2861 4703 
Q 3103 4656 3366 4563 
z
" transform="scale(0.015625)"/>
       </defs>
       <use xlink:href="#DejaVuSans-30"/>
       <use xlink:href="#DejaVuSans-2e" x="63.623047"/>
       <use xlink:href="#DejaVuSans-36" x="95.410156"/>
       <use xlink:href="#DejaVuSans-30" x="159.033203"/>
       <use xlink:href="#DejaVuSans-30" x="222.65625"/>
      </g>
     </g>
    </g>
    <g id="xtick_6">
     <g id="line2d_6">
      <g>
       <use xlink:href="#md5ae7ebbd3" x="280.8" y="307.584" style="stroke: #000000; stroke-width: 0.8"/>
      </g>
     </g>
     <g id="text_6">
      <!-- 0.625 -->
      <g transform="translate(266.485938 322.182437) scale(0.1 -0.1)">
       <use xlink:href="#DejaVuSans-30"/>
       <use xlink:href="#DejaVuSans-2e" x="63.623047"/>
       <use xlink:href="#DejaVuSans-36" x="95.410156"/>
       <use xlink:href="#DejaVuSans-32" x="159.033203"/>
       <use xlink:href="#DejaVuSans-35" x="222.65625"/>
      </g>
     </g>
    </g>
    <g id="xtick_7">
     <g id="line2d_7">
      <g>
       <use xlink:href="#md5ae7ebbd3" x="325.44" y="307.584" style="stroke: #000000; stroke-width: 0.8"/>
      </g>
     </g>
     <g id="text_7">
      <!-- 0.650 -->
      <g transform="translate(311.125938 322.182437) scale(0.1 -0.1)">
       <use xlink:href="#DejaVuSans-30"/>
       <use xlink:href="#DejaVuSans-2e" x="63.623047"/>
       <use xlink:href="#DejaVuSans-36" x="95.410156"/>
       <use xlink:href="#DejaVuSans-35" x="159.033203"/>
       <use xlink:href="#DejaVuSans-30" x="222.65625"/>
      </g>
     </g>
    </g>
    <g id="xtick_8">
     <g id="line2d_8">
      <g>
       <use xlink:href="#md5ae7ebbd3" x="370.08" y="307.584" style="stroke: #000000; stroke-width: 0.8"/>
      </g>
     </g>
     <g id="text_8">
      <!-- 0.675 -->
      <g transform="translate(355.765938 322.182437) scale(0.1 -0.1)">
       <use xlink:href="#DejaVuSans-30"/>
       <use xlink:href="#DejaVuSans-2e" x="63.623047"/>
       <use xlink:href="#DejaVuSans-36" x="95.410156"/>
       <use xlink:href="#DejaVuSans-37" x="159.033203"/>
       <use xlink:href="#DejaVuSans-35" x="222.65625"/>
      </g>
     </g>
    </g>
    <g id="xtick_9">
     <g id="line2d_9">
      <g>
       <use xlink:href="#md5ae7ebbd3" x="414.72" y="307.584" style="stroke: #000000; stroke-width: 0.8"/>
      </g>
     </g>
     <g id="text_9">
      <!-- 0.700 -->
      <g transform="translate(400.405938 322.182437) scale(0.1 -0.1)">
       <use xlink:href="#DejaVuSans-30"/>
       <use xlink:href="#DejaVuSans-2e" x="63.623047"/>
       <use xlink:href="#DejaVuSans-37" x="95.410156"/>
       <use xlink:href="#DejaVuSans-30" x="159.033203"/>
       <use xlink:href="#DejaVuSans-30" x="222.65625"/>
      </g>
     </g>
    </g>
    <g id="text_10">
     <!-- $x = (R_r^{int} + l_m)/R_s^{ext}$ -->
     <g transform="translate(192.31 337.462125) scale(0.1 -0.1)">
      <defs>
       <path id="DejaVuSans-Oblique-78" d="M 3841 3500 
L 2234 1784 
L 3219 0 
L 2559 0 
L 1819 1388 
L 531 0 
L -166 0 
L 1556 1844 
L 641 3500 
L 1300 3500 
L 1972 2234 
L 3144 3500 
L 3841 3500 
z
" transform="scale(0.015625)"/>
       <path id="DejaVuSans-3d" d="M 678 2906 
L 4684 2906 
L 4684 2381 
L 678 2381 
L 678 2906 
z
M 678 1631 
L 4684 1631 
L 4684 1100 
L 678 1100 
L 678 1631 
z
" transform="scale(0.015625)"/>
       <path id="DejaVuSans-28" d="M 1984 4856 
Q 1566 4138 1362 3434 
Q 1159 2731 1159 2009 
Q 1159 1288 1364 580 
Q 1569 -128 1984 -844 
L 1484 -844 
Q 1016 -109 783 600 
Q 550 1309 550 2009 
Q 550 2706 781 3412 
Q 1013 4119 1484 4856 
L 1984 4856 
z
" transform="scale(0.015625)"/>
       <path id="DejaVuSans-Oblique-52" d="M 1613 4147 
L 1294 2491 
L 2106 2491 
Q 2584 2491 2879 2755 
Q 3175 3019 3175 3444 
Q 3175 3784 2976 3965 
Q 2778 4147 2406 4147 
L 1613 4147 
z
M 2772 2241 
Q 2972 2194 3105 2009 
Q 3238 1825 3413 1275 
L 3809 0 
L 3144 0 
L 2778 1197 
Q 2638 1659 2453 1815 
Q 2269 1972 1888 1972 
L 1191 1972 
L 806 0 
L 172 0 
L 1081 4666 
L 2503 4666 
Q 3150 4666 3495 4373 
Q 3841 4081 3841 3531 
Q 3841 3044 3547 2687 
Q 3253 2331 2772 2241 
z
" transform="scale(0.015625)"/>
       <path id="DejaVuSans-Oblique-69" d="M 1172 4863 
L 1747 4863 
L 1606 4134 
L 1031 4134 
L 1172 4863 
z
M 909 3500 
L 1484 3500 
L 800 0 
L 225 0 
L 909 3500 
z
" transform="scale(0.015625)"/>
       <path id="DejaVuSans-Oblique-6e" d="M 3566 2113 
L 3156 0 
L 2578 0 
L 2988 2091 
Q 3016 2238 3031 2350 
Q 3047 2463 3047 2528 
Q 3047 2791 2881 2937 
Q 2716 3084 2419 3084 
Q 1956 3084 1622 2776 
Q 1288 2469 1184 1941 
L 800 0 
L 225 0 
L 903 3500 
L 1478 3500 
L 1363 2950 
Q 1603 3253 1940 3418 
Q 2278 3584 2650 3584 
Q 3113 3584 3367 3334 
Q 3622 3084 3622 2631 
Q 3622 2519 3608 2391 
Q 3594 2263 3566 2113 
z
" transform="scale(0.015625)"/>
       <path id="DejaVuSans-Oblique-74" d="M 2706 3500 
L 2619 3053 
L 1472 3053 
L 1100 1153 
Q 1081 1047 1072 975 
Q 1063 903 1063 863 
Q 1063 663 1183 572 
Q 1303 481 1569 481 
L 2150 481 
L 2053 0 
L 1503 0 
Q 991 0 739 200 
Q 488 400 488 806 
Q 488 878 497 964 
Q 506 1050 525 1153 
L 897 3053 
L 409 3053 
L 500 3500 
L 978 3500 
L 1172 4494 
L 1747 4494 
L 1556 3500 
L 2706 3500 
z
" transform="scale(0.015625)"/>
       <path id="DejaVuSans-Oblique-72" d="M 2853 2969 
Q 2766 3016 2653 3041 
Q 2541 3066 2413 3066 
Q 1953 3066 1609 2717 
Q 1266 2369 1153 1784 
L 800 0 
L 225 0 
L 909 3500 
L 1484 3500 
L 1375 2956 
Q 1603 3259 1920 3421 
Q 2238 3584 2597 3584 
Q 2691 3584 2781 3573 
Q 2872 3563 2963 3538 
L 2853 2969 
z
" transform="scale(0.015625)"/>
       <path id="DejaVuSans-2b" d="M 2944 4013 
L 2944 2272 
L 4684 2272 
L 4684 1741 
L 2944 1741 
L 2944 0 
L 2419 0 
L 2419 1741 
L 678 1741 
L 678 2272 
L 2419 2272 
L 2419 4013 
L 2944 4013 
z
" transform="scale(0.015625)"/>
       <path id="DejaVuSans-Oblique-6c" d="M 1172 4863 
L 1747 4863 
L 800 0 
L 225 0 
L 1172 4863 
z
" transform="scale(0.015625)"/>
       <path id="DejaVuSans-Oblique-6d" d="M 5747 2113 
L 5338 0 
L 4763 0 
L 5166 2094 
Q 5191 2228 5203 2325 
Q 5216 2422 5216 2491 
Q 5216 2772 5059 2928 
Q 4903 3084 4622 3084 
Q 4203 3084 3875 2770 
Q 3547 2456 3450 1953 
L 3066 0 
L 2491 0 
L 2900 2094 
Q 2925 2209 2937 2307 
Q 2950 2406 2950 2484 
Q 2950 2769 2794 2926 
Q 2638 3084 2363 3084 
Q 1938 3084 1609 2770 
Q 1281 2456 1184 1953 
L 800 0 
L 225 0 
L 909 3500 
L 1484 3500 
L 1375 2956 
Q 1609 3263 1923 3423 
Q 2238 3584 2597 3584 
Q 2978 3584 3223 3384 
Q 3469 3184 3519 2828 
Q 3781 3197 4126 3390 
Q 4472 3584 4856 3584 
Q 5306 3584 5551 3325 
Q 5797 3066 5797 2591 
Q 5797 2488 5784 2364 
Q 5772 2241 5747 2113 
z
" transform="scale(0.015625)"/>
       <path id="DejaVuSans-29" d="M 513 4856 
L 1013 4856 
Q 1481 4119 1714 3412 
Q 1947 2706 1947 2009 
Q 1947 1309 1714 600 
Q 1481 -109 1013 -844 
L 513 -844 
Q 928 -128 1133 580 
Q 1338 1288 1338 2009 
Q 1338 2731 1133 3434 
Q 928 4138 513 4856 
z
" transform="scale(0.015625)"/>
       <path id="DejaVuSans-2f" d="M 1625 4666 
L 2156 4666 
L 531 -594 
L 0 -594 
L 1625 4666 
z
" transform="scale(0.015625)"/>
       <path id="DejaVuSans-Oblique-65" d="M 3078 2063 
Q 3088 2113 3092 2166 
Q 3097 2219 3097 2272 
Q 3097 2653 2873 2875 
Q 2650 3097 2266 3097 
Q 1838 3097 1509 2826 
Q 1181 2556 1013 2059 
L 3078 2063 
z
M 3578 1613 
L 903 1613 
Q 884 1494 878 1425 
Q 872 1356 872 1306 
Q 872 872 1139 634 
Q 1406 397 1894 397 
Q 2269 397 2603 481 
Q 2938 566 3225 728 
L 3116 159 
Q 2806 34 2476 -28 
Q 2147 -91 1806 -91 
Q 1078 -91 686 257 
Q 294 606 294 1247 
Q 294 1794 489 2264 
Q 684 2734 1063 3103 
Q 1306 3334 1642 3459 
Q 1978 3584 2356 3584 
Q 2950 3584 3301 3228 
Q 3653 2872 3653 2272 
Q 3653 2128 3634 1964 
Q 3616 1800 3578 1613 
z
" transform="scale(0.015625)"/>
       <path id="DejaVuSans-Oblique-73" d="M 3200 3397 
L 3091 2853 
Q 2863 2978 2609 3040 
Q 2356 3103 2088 3103 
Q 1634 3103 1373 2948 
Q 1113 2794 1113 2528 
Q 1113 2219 1719 2053 
Q 1766 2041 1788 2034 
L 1972 1978 
Q 2547 1819 2739 1644 
Q 2931 1469 2931 1166 
Q 2931 609 2489 259 
Q 2047 -91 1331 -91 
Q 1053 -91 747 -37 
Q 441 16 72 128 
L 184 722 
Q 500 559 806 475 
Q 1113 391 1394 391 
Q 1816 391 2080 572 
Q 2344 753 2344 1031 
Q 2344 1331 1650 1516 
L 1591 1531 
L 1394 1581 
Q 956 1697 753 1886 
Q 550 2075 550 2369 
Q 550 2928 970 3256 
Q 1391 3584 2113 3584 
Q 2397 3584 2667 3537 
Q 2938 3491 3200 3397 
z
" transform="scale(0.015625)"/>
      </defs>
      <use xlink:href="#DejaVuSans-Oblique-78" transform="translate(0 0.529687)"/>
      <use xlink:href="#DejaVuSans-3d" transform="translate(78.662109 0.529687)"/>
      <use xlink:href="#DejaVuSans-28" transform="translate(181.933594 0.529687)"/>
      <use xlink:href="#DejaVuSans-Oblique-52" transform="translate(220.947266 0.529687)"/>
      <use xlink:href="#DejaVuSans-Oblique-69" transform="translate(297.446458 38.810938) scale(0.7)"/>
      <use xlink:href="#DejaVuSans-Oblique-6e" transform="translate(316.894701 38.810938) scale(0.7)"/>
      <use xlink:href="#DejaVuSans-Oblique-74" transform="translate(361.259935 38.810938) scale(0.7)"/>
      <use xlink:href="#DejaVuSans-Oblique-72" transform="translate(290.429688 -26.814063) scale(0.7)"/>
      <use xlink:href="#DejaVuSans-2b" transform="translate(410.923021 0.529687)"/>
      <use xlink:href="#DejaVuSans-Oblique-6c" transform="translate(514.194505 0.529687)"/>
      <use xlink:href="#DejaVuSans-Oblique-6d" transform="translate(541.977708 -15.876563) scale(0.7)"/>
      <use xlink:href="#DejaVuSans-29" transform="translate(612.90056 0.529687)"/>
      <use xlink:href="#DejaVuSans-2f" transform="translate(651.914232 0.529687)"/>
      <use xlink:href="#DejaVuSans-Oblique-52" transform="translate(685.605638 0.529687)"/>
      <use xlink:href="#DejaVuSans-Oblique-65" transform="translate(762.104831 38.810937) scale(0.7)"/>
      <use xlink:href="#DejaVuSans-Oblique-78" transform="translate(805.171237 38.810937) scale(0.7)"/>
      <use xlink:href="#DejaVuSans-Oblique-74" transform="translate(846.597018 38.810937) scale(0.7)"/>
      <use xlink:href="#DejaVuSans-Oblique-73" transform="translate(755.08806 -26.814063) scale(0.7)"/>
     </g>
    </g>
   </g>
   <g id="matplotlib.axis_2">
    <g id="ytick_1">
     <g id="line2d_10">
      <defs>
       <path id="mbff82e60be" d="M 0 0 
L -3.5 0 
" style="stroke: #000000; stroke-width: 0.8"/>
      </defs>
      <g>
       <use xlink:href="#mbff82e60be" x="57.6" y="307.584" style="stroke: #000000; stroke-width: 0.8"/>
      </g>
     </g>
     <g id="text_11">
      <!-- 3.50 -->
      <g transform="translate(28.334375 311.383219) scale(0.1 -0.1)">
       <defs>
        <path id="DejaVuSans-33" d="M 2597 2516 
Q 3050 2419 3304 2112 
Q 3559 1806 3559 1356 
Q 3559 666 3084 287 
Q 2609 -91 1734 -91 
Q 1441 -91 1130 -33 
Q 819 25 488 141 
L 488 750 
Q 750 597 1062 519 
Q 1375 441 1716 441 
Q 2309 441 2620 675 
Q 2931 909 2931 1356 
Q 2931 1769 2642 2001 
Q 2353 2234 1838 2234 
L 1294 2234 
L 1294 2753 
L 1863 2753 
Q 2328 2753 2575 2939 
Q 2822 3125 2822 3475 
Q 2822 3834 2567 4026 
Q 2313 4219 1838 4219 
Q 1578 4219 1281 4162 
Q 984 4106 628 3988 
L 628 4550 
Q 988 4650 1302 4700 
Q 1616 4750 1894 4750 
Q 2613 4750 3031 4423 
Q 3450 4097 3450 3541 
Q 3450 3153 3228 2886 
Q 3006 2619 2597 2516 
z
" transform="scale(0.015625)"/>
       </defs>
       <use xlink:href="#DejaVuSans-33"/>
       <use xlink:href="#DejaVuSans-2e" x="63.623047"/>
       <use xlink:href="#DejaVuSans-35" x="95.410156"/>
       <use xlink:href="#DejaVuSans-30" x="159.033203"/>
      </g>
     </g>
    </g>
    <g id="ytick_2">
     <g id="line2d_11">
      <g>
       <use xlink:href="#mbff82e60be" x="57.6" y="274.32" style="stroke: #000000; stroke-width: 0.8"/>
      </g>
     </g>
     <g id="text_12">
      <!-- 3.75 -->
      <g transform="translate(28.334375 278.119219) scale(0.1 -0.1)">
       <use xlink:href="#DejaVuSans-33"/>
       <use xlink:href="#DejaVuSans-2e" x="63.623047"/>
       <use xlink:href="#DejaVuSans-37" x="95.410156"/>
       <use xlink:href="#DejaVuSans-35" x="159.033203"/>
      </g>
     </g>
    </g>
    <g id="ytick_3">
     <g id="line2d_12">
      <g>
       <use xlink:href="#mbff82e60be" x="57.6" y="241.056" style="stroke: #000000; stroke-width: 0.8"/>
      </g>
     </g>
     <g id="text_13">
      <!-- 4.00 -->
      <g transform="translate(28.334375 244.855219) scale(0.1 -0.1)">
       <defs>
        <path id="DejaVuSans-34" d="M 2419 4116 
L 825 1625 
L 2419 1625 
L 2419 4116 
z
M 2253 4666 
L 3047 4666 
L 3047 1625 
L 3713 1625 
L 3713 1100 
L 3047 1100 
L 3047 0 
L 2419 0 
L 2419 1100 
L 313 1100 
L 313 1709 
L 2253 4666 
z
" transform="scale(0.015625)"/>
       </defs>
       <use xlink:href="#DejaVuSans-34"/>
       <use xlink:href="#DejaVuSans-2e" x="63.623047"/>
       <use xlink:href="#DejaVuSans-30" x="95.410156"/>
       <use xlink:href="#DejaVuSans-30" x="159.033203"/>
      </g>
     </g>
    </g>
    <g id="ytick_4">
     <g id="line2d_13">
      <g>
       <use xlink:href="#mbff82e60be" x="57.6" y="207.792" style="stroke: #000000; stroke-width: 0.8"/>
      </g>
     </g>
     <g id="text_14">
      <!-- 4.25 -->
      <g transform="translate(28.334375 211.591219) scale(0.1 -0.1)">
       <use xlink:href="#DejaVuSans-34"/>
       <use xlink:href="#DejaVuSans-2e" x="63.623047"/>
       <use xlink:href="#DejaVuSans-32" x="95.410156"/>
       <use xlink:href="#DejaVuSans-35" x="159.033203"/>
      </g>
     </g>
    </g>
    <g id="ytick_5">
     <g id="line2d_14">
      <g>
       <use xlink:href="#mbff82e60be" x="57.6" y="174.528" style="stroke: #000000; stroke-width: 0.8"/>
      </g>
     </g>
     <g id="text_15">
      <!-- 4.50 -->
      <g transform="translate(28.334375 178.327219) scale(0.1 -0.1)">
       <use xlink:href="#DejaVuSans-34"/>
       <use xlink:href="#DejaVuSans-2e" x="63.623047"/>
       <use xlink:href="#DejaVuSans-35" x="95.410156"/>
       <use xlink:href="#DejaVuSans-30" x="159.033203"/>
      </g>
     </g>
    </g>
    <g id="ytick_6">
     <g id="line2d_15">
      <g>
       <use xlink:href="#mbff82e60be" x="57.6" y="141.264" style="stroke: #000000; stroke-width: 0.8"/>
      </g>
     </g>
     <g id="text_16">
      <!-- 4.75 -->
      <g transform="translate(28.334375 145.063219) scale(0.1 -0.1)">
       <use xlink:href="#DejaVuSans-34"/>
       <use xlink:href="#DejaVuSans-2e" x="63.623047"/>
       <use xlink:href="#DejaVuSans-37" x="95.410156"/>
       <use xlink:href="#DejaVuSans-35" x="159.033203"/>
      </g>
     </g>
    </g>
    <g id="ytick_7">
     <g id="line2d_16">
      <g>
       <use xlink:href="#mbff82e60be" x="57.6" y="108" style="stroke: #000000; stroke-width: 0.8"/>
      </g>
     </g>
     <g id="text_17">
      <!-- 5.00 -->
      <g transform="translate(28.334375 111.799219) scale(0.1 -0.1)">
       <use xlink:href="#DejaVuSans-35"/>
       <use xlink:href="#DejaVuSans-2e" x="63.623047"/>
       <use xlink:href="#DejaVuSans-30" x="95.410156"/>
       <use xlink:href="#DejaVuSans-30" x="159.033203"/>
      </g>
     </g>
    </g>
    <g id="ytick_8">
     <g id="line2d_17">
      <g>
       <use xlink:href="#mbff82e60be" x="57.6" y="74.736" style="stroke: #000000; stroke-width: 0.8"/>
      </g>
     </g>
     <g id="text_18">
      <!-- 5.25 -->
      <g transform="translate(28.334375 78.535219) scale(0.1 -0.1)">
       <use xlink:href="#DejaVuSans-35"/>
       <use xlink:href="#DejaVuSans-2e" x="63.623047"/>
       <use xlink:href="#DejaVuSans-32" x="95.410156"/>
       <use xlink:href="#DejaVuSans-35" x="159.033203"/>
      </g>
     </g>
    </g>
    <g id="ytick_9">
     <g id="line2d_18">
      <g>
       <use xlink:href="#mbff82e60be" x="57.6" y="41.472" style="stroke: #000000; stroke-width: 0.8"/>
      </g>
     </g>
     <g id="text_19">
      <!-- 5.50 -->
      <g transform="translate(28.334375 45.271219) scale(0.1 -0.1)">
       <use xlink:href="#DejaVuSans-35"/>
       <use xlink:href="#DejaVuSans-2e" x="63.623047"/>
       <use xlink:href="#DejaVuSans-35" x="95.410156"/>
       <use xlink:href="#DejaVuSans-30" x="159.033203"/>
      </g>
     </g>
    </g>
    <g id="text_20">
     <!-- $l_m/g$ -->
     <g transform="translate(22.234375 184.328) rotate(-90) scale(0.1 -0.1)">
      <defs>
       <path id="DejaVuSans-Oblique-67" d="M 3816 3500 
L 3219 434 
Q 3047 -456 2561 -893 
Q 2075 -1331 1253 -1331 
Q 950 -1331 690 -1286 
Q 431 -1241 206 -1147 
L 313 -588 
Q 525 -725 762 -790 
Q 1000 -856 1269 -856 
Q 1816 -856 2167 -557 
Q 2519 -259 2631 300 
L 2681 563 
Q 2441 288 2122 144 
Q 1803 0 1434 0 
Q 903 0 598 351 
Q 294 703 294 1319 
Q 294 1803 478 2267 
Q 663 2731 997 3091 
Q 1219 3328 1514 3456 
Q 1809 3584 2131 3584 
Q 2484 3584 2746 3420 
Q 3009 3256 3138 2956 
L 3238 3500 
L 3816 3500 
z
M 2950 2216 
Q 2950 2641 2750 2872 
Q 2550 3103 2181 3103 
Q 1953 3103 1747 3012 
Q 1541 2922 1394 2759 
Q 1156 2491 1023 2127 
Q 891 1763 891 1375 
Q 891 944 1092 712 
Q 1294 481 1672 481 
Q 2219 481 2584 976 
Q 2950 1472 2950 2216 
z
" transform="scale(0.015625)"/>
      </defs>
      <use xlink:href="#DejaVuSans-Oblique-6c" transform="translate(0 0.015625)"/>
      <use xlink:href="#DejaVuSans-Oblique-6d" transform="translate(27.783203 -16.390625) scale(0.7)"/>
      <use xlink:href="#DejaVuSans-2f" transform="translate(98.706055 0.015625)"/>
      <use xlink:href="#DejaVuSans-Oblique-67" transform="translate(132.397461 0.015625)"/>
     </g>
    </g>
   </g>
   <g id="PathCollection_1"/>
   <g id="PathCollection_2">
    <path d="M 408.762578 307.584 
L 410.694529 302.153143 
L 412.567511 296.722286 
L 414.384387 291.291429 
L 414.72 290.263356 
" clip-path="url(#pfe07ac6a0c)" style="fill: none; stroke: #24dbff; stroke-width: 1.5"/>
   </g>
   <g id="PathCollection_3">
    <path d="M 375.50449 307.584 
L 378.279184 302.65203 
L 378.537279 302.153143 
L 381.277656 296.722286 
L 383.934007 291.291429 
L 385.567347 287.857211 
L 386.443775 285.860571 
L 388.767747 280.429714 
L 391.024772 274.998857 
L 392.85551 270.470293 
L 393.193203 269.568 
L 394.064176 267.187271 
" clip-path="url(#pfe07ac6a0c)" style="fill: none; stroke: #49b6ff; stroke-width: 1.5"/>
    <path d="M 403.412698 239.193515 
L 404.074337 236.982857 
L 405.659763 231.552 
L 407.206884 226.121143 
L 407.431837 225.315803 
L 408.634364 220.690286 
L 410.014545 215.259429 
L 411.363297 209.828571 
L 412.6819 204.397714 
L 413.971572 198.966857 
L 414.72 195.751779 
" clip-path="url(#pfe07ac6a0c)" style="fill: none; stroke: #49b6ff; stroke-width: 1.5"/>
    <path d="M 57.6 254.235164 
L 60.716091 258.706286 
L 64.570552 264.137143 
L 64.888163 264.576948 
L 68.603117 269.568 
L 70.30688 271.815287 
" clip-path="url(#pfe07ac6a0c)" style="fill: none; stroke: #49b6ff; stroke-width: 1.5"/>
    <path d="M 89.102712 294.566745 
L 91.043356 296.722286 
L 94.040816 299.990444 
L 96.098192 302.153143 
L 101.32898 307.550853 
L 101.362362 307.584 
" clip-path="url(#pfe07ac6a0c)" style="fill: none; stroke: #49b6ff; stroke-width: 1.5"/>
   </g>
   <g id="PathCollection_4">
    <path d="M 322.21157 307.584 
L 327.262041 303.373823 
L 328.559156 302.153143 
L 334.170815 296.722286 
L 334.550204 296.345329 
L 339.099332 291.291429 
L 341.838367 288.158831 
L 343.648793 285.860571 
L 347.811625 280.429714 
L 349.126531 278.668729 
L 351.611494 274.998857 
L 355.187806 269.568 
L 356.391899 267.692863 
" clip-path="url(#pfe07ac6a0c)" style="fill: none; stroke: #6d92ff; stroke-width: 1.5"/>
    <path d="M 370.216123 241.626717 
L 370.99102 239.988142 
L 372.298417 236.982857 
L 374.606872 231.552 
L 376.857672 226.121143 
L 378.279184 222.61164 
L 378.997643 220.690286 
L 380.986619 215.259429 
L 382.928846 209.828571 
L 384.826228 204.397714 
L 385.567347 202.233494 
L 386.60337 198.966857 
L 388.290846 193.536 
L 389.941607 188.105143 
L 391.557089 182.674286 
L 392.85551 178.21922 
L 393.119616 177.243429 
L 394.564483 171.812571 
L 395.980226 166.381714 
L 397.36794 160.950857 
L 398.728671 155.52 
L 400.063417 150.089143 
L 400.143673 149.757543 
L 401.292696 144.658286 
L 402.494262 139.227429 
L 403.674176 133.796571 
L 404.833211 128.365714 
L 405.972108 122.934857 
L 407.091575 117.504 
L 407.431837 115.829049 
L 408.143688 112.073143 
L 409.157147 106.642286 
L 410.15429 101.211429 
L 411.135672 95.780571 
L 412.101827 90.349714 
L 413.053268 84.918857 
L 413.990485 79.488 
L 414.72 75.200358 
" clip-path="url(#pfe07ac6a0c)" style="fill: none; stroke: #6d92ff; stroke-width: 1.5"/>
    <path d="M 57.6 179.484822 
L 59.378577 182.674286 
L 62.454785 188.105143 
L 64.888163 192.332974 
L 65.602247 193.536 
L 68.876012 198.966857 
L 72.176327 204.352566 
L 72.204901 204.397714 
L 75.695561 209.828571 
L 79.244711 215.259429 
L 79.46449 215.590478 
L 82.966783 220.690286 
L 85.312161 224.04882 
" clip-path="url(#pfe07ac6a0c)" style="fill: none; stroke: #6d92ff; stroke-width: 1.5"/>
    <path d="M 103.261634 247.474283 
L 103.570667 247.844571 
L 108.179192 253.275429 
L 108.617143 253.7831 
L 113.04556 258.706286 
L 115.905306 261.832639 
L 118.10894 264.137143 
L 123.193469 269.366401 
L 123.398968 269.568 
L 129.026874 274.998857 
L 130.481633 276.379378 
L 134.969665 280.429714 
L 137.769796 282.914995 
L 141.271915 285.860571 
L 145.057959 288.992607 
L 148.00215 291.291429 
L 152.346122 294.627756 
L 155.248786 296.722286 
L 159.634286 299.835387 
L 163.127917 302.153143 
L 166.922449 304.629859 
L 171.795083 307.584 
" clip-path="url(#pfe07ac6a0c)" style="fill: none; stroke: #6d92ff; stroke-width: 1.5"/>
   </g>
   <g id="PathCollection_5">
    <path d="M 57.6 87.258982 
L 58.961247 90.349714 
L 61.385726 95.780571 
L 63.84451 101.211429 
L 64.888163 103.485507 
L 66.38302 106.642286 
L 68.990472 112.073143 
L 71.635501 117.504 
L 72.176327 118.599398 
L 74.388424 122.934857 
L 77.199237 128.365714 
L 79.46449 132.680036 
L 80.071378 133.796571 
L 83.064524 139.227429 
L 86.101998 144.658286 
L 86.752653 145.805347 
L 89.272751 150.089143 
L 92.514779 155.52 
L 94.040816 158.039595 
L 95.87323 160.950857 
L 99.341669 166.381714 
L 101.32898 169.448027 
L 102.925118 171.812571 
L 106.645056 177.243429 
L 108.617143 180.080271 
L 110.499915 182.674286 
L 114.500289 188.105143 
L 115.905306 189.984586 
L 118.684751 193.536 
L 122.999116 198.966857 
L 123.193469 199.207932 
L 127.586769 204.397714 
L 130.481633 207.766617 
L 132.348552 209.828571 
L 137.339047 215.259429 
L 137.769796 215.721283 
L 142.671263 220.690286 
L 145.057959 223.07427 
L 148.298489 226.121143 
L 152.346122 229.87141 
L 154.282942 231.552 
L 159.634286 236.128355 
L 160.707597 236.982857 
L 166.922449 241.860011 
L 167.685665 242.413714 
L 174.210612 247.080533 
L 175.375814 247.844571 
L 181.498776 251.803329 
L 184.007583 253.275429 
L 188.786939 256.041056 
L 193.926029 258.706286 
L 196.075102 259.805616 
L 203.363265 263.091801 
L 206.05272 264.137143 
L 210.651429 265.901093 
L 217.939592 268.239268 
L 223.125838 269.568 
L 225.227755 270.099747 
L 232.515918 271.461768 
L 239.804082 272.328809 
L 247.092245 272.681457 
L 254.380408 272.498157 
L 261.668571 271.75497 
L 268.956735 270.42528 
L 272.179078 269.568 
L 276.244898 268.462108 
L 283.533061 265.82582 
L 287.238955 264.137143 
L 290.821224 262.466806 
L 297.452806 258.706286 
L 298.109388 258.325152 
L 305.397551 253.314953 
L 305.44704 253.275429 
L 312.087774 247.844571 
L 312.685714 247.343598 
L 317.827606 242.413714 
L 319.973878 240.304405 
L 322.962151 236.982857 
L 327.262041 232.081149 
L 327.676354 231.552 
L 331.837864 226.121143 
L 334.550204 222.491964 
L 335.761901 220.690286 
L 339.334765 215.259429 
L 341.838367 211.361416 
L 342.730287 209.828571 
L 345.8254 204.397714 
L 348.845957 198.966857 
L 349.126531 198.452628 
L 351.571231 193.536 
L 354.210862 188.105143 
L 356.414694 183.4695 
L 356.760852 182.674286 
L 359.082472 177.243429 
L 361.35398 171.812571 
L 363.577304 166.381714 
L 363.702857 166.069792 
L 365.597808 160.950857 
L 367.56787 155.52 
L 369.498594 150.089143 
L 370.99102 145.810788 
L 371.362079 144.658286 
L 373.082477 139.227429 
L 374.77049 133.796571 
L 376.427275 128.365714 
L 377.049079 126.289729 
" clip-path="url(#pfe07ac6a0c)" style="fill: none; stroke: #926dff; stroke-width: 1.5"/>
    <path d="M 384.730251 97.788887 
L 385.242869 95.780571 
L 385.567347 94.491425 
L 386.5354 90.349714 
L 387.785484 84.918857 
L 389.016003 79.488 
L 390.227601 74.057143 
L 391.420894 68.626286 
L 392.596474 63.195429 
L 392.85551 61.983656 
L 393.695081 57.764571 
L 394.761011 52.333714 
L 395.811991 46.902857 
L 396.848489 41.472 
" clip-path="url(#pfe07ac6a0c)" style="fill: none; stroke: #926dff; stroke-width: 1.5"/>
   </g>
   <g id="PathCollection_6">
    <path d="M 84.555647 41.472 
L 86.752653 46.422843 
L 86.973737 46.902857 
L 89.505412 52.333714 
L 92.069904 57.764571 
L 94.040816 61.885432 
L 94.692493 63.195429 
L 97.427828 68.626286 
L 100.199127 74.057143 
L 101.32898 76.243375 
L 103.077186 79.488 
L 106.041181 84.918857 
L 108.007336 88.474405 
" clip-path="url(#pfe07ac6a0c)" style="fill: none; stroke: #b649ff; stroke-width: 1.5"/>
    <path d="M 123.374082 113.672666 
L 125.979816 117.504 
L 129.722581 122.934857 
L 130.481633 124.021996 
L 133.683091 128.365714 
L 137.739191 133.796571 
L 137.769796 133.837019 
L 142.093136 139.227429 
L 145.057959 142.875634 
L 146.601094 144.658286 
L 151.363676 150.089143 
L 152.346122 151.194905 
L 156.461744 155.52 
L 159.634286 158.811213 
L 161.857839 160.950857 
L 166.922449 165.762663 
L 167.630427 166.381714 
L 173.920017 171.812571 
L 174.210612 172.06032 
L 180.876716 177.243429 
L 181.498776 177.721113 
L 188.653378 182.674286 
L 188.786939 182.765625 
L 196.075102 187.192882 
L 197.798769 188.105143 
L 203.363265 191.015926 
L 209.036431 193.536 
L 210.651429 194.245219 
L 217.939592 196.859767 
L 225.227755 198.875583 
L 225.705605 198.966857 
L 232.515918 200.254175 
L 239.804082 200.998332 
L 247.092245 201.084352 
L 254.380408 200.484549 
L 261.668571 199.168198 
L 262.382049 198.966857 
L 268.956735 197.075405 
L 276.244898 194.180454 
L 277.508544 193.536 
L 283.533061 190.40132 
L 287.114454 188.105143 
L 290.821224 185.679665 
L 294.663999 182.674286 
L 298.109388 179.923256 
L 300.979669 177.243429 
L 305.397551 173.030687 
L 306.508232 171.812571 
L 311.362373 166.381714 
L 312.685714 164.871225 
L 315.712026 160.950857 
L 319.81491 155.52 
L 319.973878 155.305816 
L 323.421608 150.089143 
L 326.934211 144.658286 
L 327.262041 144.142644 
L 330.068628 139.227429 
L 333.10748 133.796571 
L 334.550204 131.171124 
L 335.944568 128.365714 
L 338.596549 122.934857 
L 341.197699 117.504 
L 341.838367 116.144656 
L 343.584612 112.073143 
L 345.873386 106.642286 
L 348.120957 101.211429 
L 349.126531 98.742635 
L 350.230079 95.780571 
L 352.221661 90.349714 
L 354.17949 84.918857 
L 356.104697 79.488 
L 356.414694 78.60132 
L 357.874363 74.057143 
L 359.591842 68.626286 
L 361.282331 63.195429 
L 362.946702 57.764571 
L 363.702857 55.263041 
L 364.519492 52.333714 
L 366.012969 46.902857 
L 367.484654 41.472 
" clip-path="url(#pfe07ac6a0c)" style="fill: none; stroke: #b649ff; stroke-width: 1.5"/>
   </g>
   <g id="PathCollection_7">
    <path d="M 143.395738 41.472 
L 145.057959 44.018308 
L 147.068242 46.902857 
L 150.896759 52.333714 
L 152.346122 54.366188 
L 154.948905 57.764571 
L 159.156173 63.195429 
L 159.634286 63.805587 
L 163.720106 68.626286 
L 166.922449 72.362101 
L 168.507663 74.057143 
L 173.643419 79.488 
L 174.210612 80.081088 
L 174.587971 80.439072 
" clip-path="url(#pfe07ac6a0c)" style="fill: none; stroke: #db24ff; stroke-width: 1.5"/>
    <path d="M 197.340937 99.166306 
L 200.617251 101.211429 
L 203.363265 102.908122 
L 210.595598 106.642286 
L 210.651429 106.670827 
L 217.939592 109.641569 
L 225.227755 111.840871 
L 226.438245 112.073143 
L 232.515918 113.229008 
L 239.804082 113.798008 
L 247.092245 113.519056 
L 254.380408 112.357216 
L 255.378033 112.073143 
L 261.668571 110.252675 
L 268.956735 107.169207 
L 269.89618 106.642286 
L 276.244898 103.020891 
L 278.769645 101.211429 
L 283.533061 97.738604 
L 285.750399 95.780571 
L 290.821224 91.224149 
L 291.645548 90.349714 
L 296.68195 84.918857 
L 298.109388 83.353575 
L 301.153729 79.488 
L 305.355288 74.057143 
L 305.397551 74.001704 
L 308.989134 68.626286 
L 312.553447 63.195429 
L 312.685714 62.991032 
L 315.684466 57.764571 
L 318.748455 52.333714 
L 319.973878 50.129485 
L 321.579285 46.902857 
L 324.241581 41.472 
" clip-path="url(#pfe07ac6a0c)" style="fill: none; stroke: #db24ff; stroke-width: 1.5"/>
   </g>
   <g id="PathCollection_8"/>
   <g id="PathCollection_9"/>
   <g id="PathCollection_10">
    <path d="M 57.6 276.824842 
L 63.426078 280.429714 
L 64.888163 281.317303 
L 71.347072 285.256012 
" clip-path="url(#pfe07ac6a0c)" style="fill: none; stroke: #209066; stroke-width: 1.5"/>
    <path d="M 102.234003 303.57216 
L 108.617143 307.276325 
L 109.144004 307.584 
" clip-path="url(#pfe07ac6a0c)" style="fill: none; stroke: #209066; stroke-width: 1.5"/>
   </g>
   <g id="PathCollection_11">
    <path d="M 57.6 222.667294 
L 62.316267 226.121143 
L 64.888163 227.973964 
L 69.839008 231.552 
L 72.176327 233.213388 
L 77.459707 236.982857 
L 79.46449 238.389341 
L 85.176453 242.413714 
L 86.752653 243.50549 
L 92.987121 247.844571 
L 94.040816 248.565398 
L 100.889383 253.275429 
L 101.32898 253.572529 
L 108.272326 258.291515 
" clip-path="url(#pfe07ac6a0c)" style="fill: none; stroke: #40a066; stroke-width: 1.5"/>
    <path d="M 138.194663 278.144534 
L 141.678933 280.429714 
L 145.057959 282.605248 
L 150.069201 285.860571 
L 152.346122 287.312215 
L 158.528778 291.291429 
L 159.634286 291.98957 
L 166.922449 296.637787 
L 167.053719 296.722286 
L 174.210612 301.241842 
L 175.638006 302.153143 
L 181.498776 305.823023 
L 184.27895 307.584 
" clip-path="url(#pfe07ac6a0c)" style="fill: none; stroke: #40a066; stroke-width: 1.5"/>
   </g>
   <g id="PathCollection_12">
    <path d="M 57.6 152.539722 
L 60.93649 155.52 
L 64.888163 159.00266 
L 67.09557 160.950857 
L 72.176327 165.37448 
L 73.330954 166.381714 
L 79.46449 171.659284 
L 79.642205 171.812571 
L 86.031326 177.243429 
L 86.752653 177.847869 
L 92.494714 182.674286 
L 94.040816 183.955437 
L 99.030791 188.105143 
L 101.32898 189.988971 
L 105.63852 193.536 
L 108.617143 195.952111 
L 109.202125 196.428809 
" clip-path="url(#pfe07ac6a0c)" style="fill: none; stroke: #60b066; stroke-width: 1.5"/>
    <path d="M 137.292951 218.797977 
L 137.769796 219.170177 
L 139.704357 220.690286 
L 145.057959 224.832642 
L 146.711314 226.121143 
L 152.346122 230.444612 
L 153.778324 231.552 
L 159.634286 236.009108 
L 160.903175 236.982857 
L 166.922449 241.529073 
L 168.083542 242.413714 
L 174.210612 247.007371 
L 175.316986 247.844571 
L 181.498776 252.446798 
L 182.600968 253.275429 
L 188.786939 257.850076 
L 189.932854 258.706286 
L 196.075102 263.219857 
L 197.309926 264.137143 
L 203.363265 268.558727 
L 204.729385 269.568 
L 210.651429 273.869209 
L 212.188367 274.998857 
L 217.939592 279.15376 
L 219.683948 280.429714 
L 225.227755 284.414778 
L 227.213152 285.860571 
L 232.515918 289.654598 
L 234.772965 291.291429 
L 239.804082 294.875501 
L 242.360337 296.722286 
L 247.092245 300.079709 
L 249.972196 302.153143 
L 254.380408 305.26939 
L 257.605458 307.584 
" clip-path="url(#pfe07ac6a0c)" style="fill: none; stroke: #60b066; stroke-width: 1.5"/>
   </g>
   <g id="PathCollection_13">
    <path d="M 57.6 56.89659 
L 58.36064 57.764571 
L 63.177236 63.195429 
L 64.888163 65.103298 
L 68.049453 68.626286 
L 72.176327 73.178101 
L 72.973425 74.057143 
L 77.958114 79.488 
L 79.46449 81.110455 
L 82.998873 84.918857 
L 86.752653 88.920669 
L 88.091905 90.349714 
L 93.24144 95.780571 
L 94.040816 96.613143 
L 98.449111 101.211429 
L 101.32898 104.182361 
L 103.708773 106.642286 
L 108.617143 111.65961 
L 109.020699 112.073143 
L 114.390201 117.504 
L 115.905306 119.018241 
L 119.812137 122.934857 
L 123.193469 126.285703 
L 125.284957 128.365714 
L 130.481633 133.473966 
L 130.8085 133.796571 
L 136.385626 139.227429 
L 137.769796 140.558729 
L 142.012356 144.658286 
L 145.057959 147.565903 
L 147.687383 150.089143 
L 152.346122 154.505615 
L 153.410142 155.52 
L 159.18047 160.950857 
L 159.634286 161.372102 
L 164.997552 166.381714 
L 166.922449 168.157127 
L 170.858983 171.812571 
L 174.210612 174.885491 
L 176.763833 177.243429 
L 181.498776 181.560405 
L 182.711076 182.674286 
L 188.699565 188.105143 
L 188.786939 188.183217 
L 194.727256 193.536 
L 196.075102 194.734463 
L 200.792909 198.966857 
L 203.363265 201.241971 
L 206.895202 204.397714 
L 210.651429 207.708669 
L 213.032745 209.828571 
L 217.939592 214.137436 
L 219.204077 215.259429 
L 225.227755 220.5311 
L 225.407676 220.690286 
L 226.241646 221.417034 
" clip-path="url(#pfe07ac6a0c)" style="fill: none; stroke: #80c066; stroke-width: 1.5"/>
    <path d="M 253.411073 244.897479 
L 254.380408 245.724194 
L 256.834185 247.844571 
L 261.668571 251.961124 
L 263.19116 253.275429 
L 268.956735 258.179022 
L 269.567971 258.706286 
L 275.961517 264.137143 
L 276.244898 264.373975 
L 282.368142 269.568 
L 283.533061 270.541004 
L 288.788683 274.998857 
L 290.821224 276.696229 
L 295.221337 280.429714 
L 298.109388 282.842008 
L 301.664308 285.860571 
L 305.397551 288.98068 
L 308.115811 291.291429 
L 312.685714 295.114565 
L 314.574075 296.722286 
L 319.973878 301.245968 
L 321.037353 302.153143 
L 327.262041 307.377184 
L 327.503925 307.584 
" clip-path="url(#pfe07ac6a0c)" style="fill: none; stroke: #80c066; stroke-width: 1.5"/>
   </g>
   <g id="PathCollection_14">
    <path d="M 148.651848 41.472 
L 152.346122 46.040882 
L 153.040945 46.902857 
L 157.468696 52.333714 
L 159.634286 54.964889 
L 161.930158 57.764571 
L 166.425057 63.195429 
L 166.922449 63.789255 
L 170.956866 68.626286 
L 174.210612 72.493357 
L 175.520227 74.057143 
L 180.117708 79.488 
L 181.498776 81.101793 
L 184.748213 84.918857 
L 188.786939 89.620557 
L 189.409702 90.349714 
L 194.103993 95.780571 
L 196.075102 98.037919 
L 198.828746 101.211429 
L 203.363265 106.389146 
L 203.583461 106.642286 
L 208.36835 112.073143 
L 210.651429 114.639061 
L 213.181823 117.504 
L 217.939592 122.839652 
L 218.023822 122.934857 
L 222.892695 128.365714 
L 225.227755 130.94458 
L 227.788379 133.796571 
L 232.515918 139.010587 
L 232.710782 139.227429 
L 237.656673 144.658286 
L 239.804082 146.991869 
L 242.627187 150.089143 
L 247.092245 154.938535 
L 247.622291 155.52 
L 252.637938 160.950857 
L 254.380408 162.816437 
L 257.675156 166.381714 
L 261.668571 170.658241 
L 262.734562 171.812571 
L 267.812467 177.243429 
L 268.956735 178.451996 
L 272.907645 182.674286 
L 276.244898 186.202683 
L 278.022396 188.105143 
L 283.154889 193.536 
L 283.533061 193.930523 
L 288.298812 198.966857 
L 290.821224 201.60314 
L 293.459536 204.397714 
L 298.109388 209.268631 
L 298.636548 209.828571 
L 303.821971 215.259429 
L 305.397551 216.889244 
L 307.021584 218.593801 
" clip-path="url(#pfe07ac6a0c)" style="fill: none; stroke: #9fcf66; stroke-width: 1.5"/>
    <path d="M 331.908237 244.481435 
L 334.550204 247.212197 
L 335.151851 247.844571 
L 340.396072 253.275429 
L 341.838367 254.749108 
L 345.644227 258.706286 
L 349.126531 262.28302 
L 350.899528 264.137143 
L 356.159651 269.568 
L 356.414694 269.827035 
L 361.412401 274.998857 
L 363.702857 277.339297 
L 366.669616 280.429714 
L 370.99102 284.874554 
L 371.930874 285.860571 
L 377.186731 291.291429 
L 378.279184 292.403174 
L 382.437019 296.722286 
L 385.567347 299.93161 
L 387.688949 302.153143 
L 392.85551 307.492423 
L 392.942226 307.584 
" clip-path="url(#pfe07ac6a0c)" style="fill: none; stroke: #9fcf66; stroke-width: 1.5"/>
   </g>
   <g id="PathCollection_15">
    <path d="M 258.017408 41.472 
L 261.668571 46.765452 
L 261.7626 46.902857 
L 265.523424 52.333714 
L 268.956735 57.263808 
L 269.302525 57.764571 
L 273.096169 63.195429 
L 276.244898 67.675064 
L 276.907498 68.626286 
L 280.732545 74.057143 
L 283.533061 78.005712 
L 284.574324 79.488 
L 288.429326 84.918857 
L 290.821224 88.262083 
L 292.299686 90.349714 
L 294.911303 94.001927 
" clip-path="url(#pfe07ac6a0c)" style="fill: none; stroke: #bfdf66; stroke-width: 1.5"/>
    <path d="M 315.92717 123.119792 
L 319.752252 128.365714 
L 319.973878 128.665736 
L 323.716759 133.796571 
L 327.262041 138.626647 
L 327.697318 139.227429 
L 331.681843 144.658286 
L 334.550204 148.539462 
L 335.679997 150.089143 
L 339.683841 155.52 
L 341.838367 158.416138 
L 343.697362 160.950857 
L 347.719001 166.381714 
L 349.126531 168.261768 
L 351.745651 171.812571 
L 355.783576 177.243429 
L 356.414694 178.081289 
L 359.821113 182.674286 
L 363.702857 187.873819 
L 363.872814 188.105143 
L 367.920025 193.536 
L 370.99102 197.627464 
L 371.979755 198.966857 
L 376.038717 204.397714 
L 378.279184 207.367292 
L 380.10428 209.828571 
L 384.173581 215.259429 
L 385.567347 217.097622 
L 388.242822 220.690286 
L 392.321097 226.121143 
L 392.85551 226.822608 
L 396.391909 231.552 
L 400.143673 236.534054 
L 400.475222 236.982857 
L 404.548186 242.413714 
L 407.431837 246.227377 
L 408.630554 247.844571 
L 412.708434 253.275429 
L 414.72 255.925323 
" clip-path="url(#pfe07ac6a0c)" style="fill: none; stroke: #bfdf66; stroke-width: 1.5"/>
   </g>
   <g id="PathCollection_16">
    <path d="M 366.4064 41.472 
L 369.216609 46.902857 
L 370.99102 50.307896 
L 372.033635 52.333714 
L 374.854217 57.764571 
L 377.686058 63.195429 
L 378.279184 64.320816 
L 380.518714 68.626286 
L 383.359799 74.057143 
L 383.568888 74.454453 
" clip-path="url(#pfe07ac6a0c)" style="fill: none; stroke: #dfef66; stroke-width: 1.5"/>
    <path d="M 400.306692 106.225 
L 400.524886 106.642286 
L 403.398578 112.073143 
L 406.283693 117.504 
L 407.431837 119.644264 
L 409.169495 122.934857 
L 412.059565 128.365714 
L 414.72 133.341 
" clip-path="url(#pfe07ac6a0c)" style="fill: none; stroke: #dfef66; stroke-width: 1.5"/>
   </g>
   <g id="PathCollection_17"/>
   <g id="patch_3">
    <path d="M 57.6 307.584 
L 57.6 41.472 
" style="fill: none; stroke: #000000; stroke-width: 0.8; stroke-linejoin: miter; stroke-linecap: square"/>
   </g>
   <g id="patch_4">
    <path d="M 414.72 307.584 
L 414.72 41.472 
" style="fill: none; stroke: #000000; stroke-width: 0.8; stroke-linejoin: miter; stroke-linecap: square"/>
   </g>
   <g id="patch_5">
    <path d="M 57.6 307.584 
L 414.72 307.584 
" style="fill: none; stroke: #000000; stroke-width: 0.8; stroke-linejoin: miter; stroke-linecap: square"/>
   </g>
   <g id="patch_6">
    <path d="M 57.6 41.472 
L 414.72 41.472 
" style="fill: none; stroke: #000000; stroke-width: 0.8; stroke-linejoin: miter; stroke-linecap: square"/>
   </g>
   <g id="text_21">
    <!-- x-b plane -->
    <g transform="translate(208.080938 35.472) scale(0.12 -0.12)">
     <defs>
      <path id="DejaVuSans-78" d="M 3513 3500 
L 2247 1797 
L 3578 0 
L 2900 0 
L 1881 1375 
L 863 0 
L 184 0 
L 1544 1831 
L 300 3500 
L 978 3500 
L 1906 2253 
L 2834 3500 
L 3513 3500 
z
" transform="scale(0.015625)"/>
      <path id="DejaVuSans-2d" d="M 313 2009 
L 1997 2009 
L 1997 1497 
L 313 1497 
L 313 2009 
z
" transform="scale(0.015625)"/>
      <path id="DejaVuSans-62" d="M 3116 1747 
Q 3116 2381 2855 2742 
Q 2594 3103 2138 3103 
Q 1681 3103 1420 2742 
Q 1159 2381 1159 1747 
Q 1159 1113 1420 752 
Q 1681 391 2138 391 
Q 2594 391 2855 752 
Q 3116 1113 3116 1747 
z
M 1159 2969 
Q 1341 3281 1617 3432 
Q 1894 3584 2278 3584 
Q 2916 3584 3314 3078 
Q 3713 2572 3713 1747 
Q 3713 922 3314 415 
Q 2916 -91 2278 -91 
Q 1894 -91 1617 61 
Q 1341 213 1159 525 
L 1159 0 
L 581 0 
L 581 4863 
L 1159 4863 
L 1159 2969 
z
" transform="scale(0.015625)"/>
      <path id="DejaVuSans-20" transform="scale(0.015625)"/>
      <path id="DejaVuSans-70" d="M 1159 525 
L 1159 -1331 
L 581 -1331 
L 581 3500 
L 1159 3500 
L 1159 2969 
Q 1341 3281 1617 3432 
Q 1894 3584 2278 3584 
Q 2916 3584 3314 3078 
Q 3713 2572 3713 1747 
Q 3713 922 3314 415 
Q 2916 -91 2278 -91 
Q 1894 -91 1617 61 
Q 1341 213 1159 525 
z
M 3116 1747 
Q 3116 2381 2855 2742 
Q 2594 3103 2138 3103 
Q 1681 3103 1420 2742 
Q 1159 2381 1159 1747 
Q 1159 1113 1420 752 
Q 1681 391 2138 391 
Q 2594 391 2855 752 
Q 3116 1113 3116 1747 
z
" transform="scale(0.015625)"/>
      <path id="DejaVuSans-6c" d="M 603 4863 
L 1178 4863 
L 1178 0 
L 603 0 
L 603 4863 
z
" transform="scale(0.015625)"/>
      <path id="DejaVuSans-61" d="M 2194 1759 
Q 1497 1759 1228 1600 
Q 959 1441 959 1056 
Q 959 750 1161 570 
Q 1363 391 1709 391 
Q 2188 391 2477 730 
Q 2766 1069 2766 1631 
L 2766 1759 
L 2194 1759 
z
M 3341 1997 
L 3341 0 
L 2766 0 
L 2766 531 
Q 2569 213 2275 61 
Q 1981 -91 1556 -91 
Q 1019 -91 701 211 
Q 384 513 384 1019 
Q 384 1609 779 1909 
Q 1175 2209 1959 2209 
L 2766 2209 
L 2766 2266 
Q 2766 2663 2505 2880 
Q 2244 3097 1772 3097 
Q 1472 3097 1187 3025 
Q 903 2953 641 2809 
L 641 3341 
Q 956 3463 1253 3523 
Q 1550 3584 1831 3584 
Q 2591 3584 2966 3190 
Q 3341 2797 3341 1997 
z
" transform="scale(0.015625)"/>
      <path id="DejaVuSans-6e" d="M 3513 2113 
L 3513 0 
L 2938 0 
L 2938 2094 
Q 2938 2591 2744 2837 
Q 2550 3084 2163 3084 
Q 1697 3084 1428 2787 
Q 1159 2491 1159 1978 
L 1159 0 
L 581 0 
L 581 3500 
L 1159 3500 
L 1159 2956 
Q 1366 3272 1645 3428 
Q 1925 3584 2291 3584 
Q 2894 3584 3203 3211 
Q 3513 2838 3513 2113 
z
" transform="scale(0.015625)"/>
      <path id="DejaVuSans-65" d="M 3597 1894 
L 3597 1613 
L 953 1613 
Q 991 1019 1311 708 
Q 1631 397 2203 397 
Q 2534 397 2845 478 
Q 3156 559 3463 722 
L 3463 178 
Q 3153 47 2828 -22 
Q 2503 -91 2169 -91 
Q 1331 -91 842 396 
Q 353 884 353 1716 
Q 353 2575 817 3079 
Q 1281 3584 2069 3584 
Q 2775 3584 3186 3129 
Q 3597 2675 3597 1894 
z
M 3022 2063 
Q 3016 2534 2758 2815 
Q 2500 3097 2075 3097 
Q 1594 3097 1305 2825 
Q 1016 2553 972 2059 
L 3022 2063 
z
" transform="scale(0.015625)"/>
     </defs>
     <use xlink:href="#DejaVuSans-78"/>
     <use xlink:href="#DejaVuSans-2d" x="59.179688"/>
     <use xlink:href="#DejaVuSans-62" x="95.263672"/>
     <use xlink:href="#DejaVuSans-20" x="158.740234"/>
     <use xlink:href="#DejaVuSans-70" x="190.527344"/>
     <use xlink:href="#DejaVuSans-6c" x="254.003906"/>
     <use xlink:href="#DejaVuSans-61" x="281.787109"/>
     <use xlink:href="#DejaVuSans-6e" x="343.066406"/>
     <use xlink:href="#DejaVuSans-65" x="406.445312"/>
    </g>
   </g>
   <g id="text_22">
    <g clip-path="url(#pfe07ac6a0c)">
     <!-- 54.0 -->
     <g style="fill: #49b6ff" transform="translate(398.079099 264.708519) rotate(-71.501149) scale(0.1 -0.1)">
      <use xlink:href="#DejaVuSans-35"/>
      <use xlink:href="#DejaVuSans-34" x="63.623047"/>
      <use xlink:href="#DejaVuSans-2e" x="127.246094"/>
      <use xlink:href="#DejaVuSans-30" x="159.033203"/>
     </g>
    </g>
   </g>
   <g id="text_23">
    <g clip-path="url(#pfe07ac6a0c)">
     <!-- 54.0 -->
     <g style="fill: #49b6ff" transform="translate(70.249329 276.560733) rotate(-309.538742) scale(0.1 -0.1)">
      <use xlink:href="#DejaVuSans-35"/>
      <use xlink:href="#DejaVuSans-34" x="63.623047"/>
      <use xlink:href="#DejaVuSans-2e" x="127.246094"/>
      <use xlink:href="#DejaVuSans-30" x="159.033203"/>
     </g>
    </g>
   </g>
   <g id="text_24">
    <g clip-path="url(#pfe07ac6a0c)">
     <!-- 55.5 -->
     <g style="fill: #6d92ff" transform="translate(360.930781 266.001065) rotate(-62.093093) scale(0.1 -0.1)">
      <use xlink:href="#DejaVuSans-35"/>
      <use xlink:href="#DejaVuSans-35" x="63.623047"/>
      <use xlink:href="#DejaVuSans-2e" x="127.246094"/>
      <use xlink:href="#DejaVuSans-35" x="159.033203"/>
     </g>
    </g>
   </g>
   <g id="text_25">
    <g clip-path="url(#pfe07ac6a0c)">
     <!-- 55.5 -->
     <g style="fill: #6d92ff" transform="translate(85.081211 228.789186) rotate(-307.445714) scale(0.1 -0.1)">
      <use xlink:href="#DejaVuSans-35"/>
      <use xlink:href="#DejaVuSans-35" x="63.623047"/>
      <use xlink:href="#DejaVuSans-2e" x="127.246094"/>
      <use xlink:href="#DejaVuSans-35" x="159.033203"/>
     </g>
    </g>
   </g>
   <g id="text_26">
    <g clip-path="url(#pfe07ac6a0c)">
     <!-- 57.0 -->
     <g style="fill: #926dff" transform="translate(380.807261 123.540976) rotate(-75.049729) scale(0.1 -0.1)">
      <use xlink:href="#DejaVuSans-35"/>
      <use xlink:href="#DejaVuSans-37" x="63.623047"/>
      <use xlink:href="#DejaVuSans-2e" x="127.246094"/>
      <use xlink:href="#DejaVuSans-30" x="159.033203"/>
     </g>
    </g>
   </g>
   <g id="text_27">
    <g clip-path="url(#pfe07ac6a0c)">
     <!-- 58.5 -->
     <g style="fill: #b649ff" transform="translate(107.309489 93.146229) rotate(-301.396911) scale(0.1 -0.1)">
      <defs>
       <path id="DejaVuSans-38" d="M 2034 2216 
Q 1584 2216 1326 1975 
Q 1069 1734 1069 1313 
Q 1069 891 1326 650 
Q 1584 409 2034 409 
Q 2484 409 2743 651 
Q 3003 894 3003 1313 
Q 3003 1734 2745 1975 
Q 2488 2216 2034 2216 
z
M 1403 2484 
Q 997 2584 770 2862 
Q 544 3141 544 3541 
Q 544 4100 942 4425 
Q 1341 4750 2034 4750 
Q 2731 4750 3128 4425 
Q 3525 4100 3525 3541 
Q 3525 3141 3298 2862 
Q 3072 2584 2669 2484 
Q 3125 2378 3379 2068 
Q 3634 1759 3634 1313 
Q 3634 634 3220 271 
Q 2806 -91 2034 -91 
Q 1263 -91 848 271 
Q 434 634 434 1313 
Q 434 1759 690 2068 
Q 947 2378 1403 2484 
z
M 1172 3481 
Q 1172 3119 1398 2916 
Q 1625 2713 2034 2713 
Q 2441 2713 2670 2916 
Q 2900 3119 2900 3481 
Q 2900 3844 2670 4047 
Q 2441 4250 2034 4250 
Q 1625 4250 1398 4047 
Q 1172 3844 1172 3481 
z
" transform="scale(0.015625)"/>
      </defs>
      <use xlink:href="#DejaVuSans-35"/>
      <use xlink:href="#DejaVuSans-38" x="63.623047"/>
      <use xlink:href="#DejaVuSans-2e" x="127.246094"/>
      <use xlink:href="#DejaVuSans-35" x="159.033203"/>
     </g>
    </g>
   </g>
   <g id="text_28">
    <g clip-path="url(#pfe07ac6a0c)">
     <!-- 60.0 -->
     <g style="fill: #db24ff" transform="translate(175.18449 85.372493) rotate(-320.361004) scale(0.1 -0.1)">
      <use xlink:href="#DejaVuSans-36"/>
      <use xlink:href="#DejaVuSans-30" x="63.623047"/>
      <use xlink:href="#DejaVuSans-2e" x="127.246094"/>
      <use xlink:href="#DejaVuSans-30" x="159.033203"/>
     </g>
    </g>
   </g>
   <g id="text_29">
    <g clip-path="url(#pfe07ac6a0c)">
     <!-- 0.870 -->
     <g style="fill: #209066" transform="translate(73.034323 289.547088) rotate(-329.318252) scale(0.1 -0.1)">
      <use xlink:href="#DejaVuSans-30"/>
      <use xlink:href="#DejaVuSans-2e" x="63.623047"/>
      <use xlink:href="#DejaVuSans-38" x="95.410156"/>
      <use xlink:href="#DejaVuSans-37" x="159.033203"/>
      <use xlink:href="#DejaVuSans-30" x="222.65625"/>
     </g>
    </g>
   </g>
   <g id="text_30">
    <g clip-path="url(#pfe07ac6a0c)">
     <!-- 0.885 -->
     <g style="fill: #40a066" transform="translate(109.741521 262.661326) rotate(-326.424947) scale(0.1 -0.1)">
      <use xlink:href="#DejaVuSans-30"/>
      <use xlink:href="#DejaVuSans-2e" x="63.623047"/>
      <use xlink:href="#DejaVuSans-38" x="95.410156"/>
      <use xlink:href="#DejaVuSans-38" x="159.033203"/>
      <use xlink:href="#DejaVuSans-35" x="222.65625"/>
     </g>
    </g>
   </g>
   <g id="text_31">
    <g clip-path="url(#pfe07ac6a0c)">
     <!-- 0.900 -->
     <g style="fill: #60b066" transform="translate(110.275747 200.925618) rotate(-321.480222) scale(0.1 -0.1)">
      <defs>
       <path id="DejaVuSans-39" d="M 703 97 
L 703 672 
Q 941 559 1184 500 
Q 1428 441 1663 441 
Q 2288 441 2617 861 
Q 2947 1281 2994 2138 
Q 2813 1869 2534 1725 
Q 2256 1581 1919 1581 
Q 1219 1581 811 2004 
Q 403 2428 403 3163 
Q 403 3881 828 4315 
Q 1253 4750 1959 4750 
Q 2769 4750 3195 4129 
Q 3622 3509 3622 2328 
Q 3622 1225 3098 567 
Q 2575 -91 1691 -91 
Q 1453 -91 1209 -44 
Q 966 3 703 97 
z
M 1959 2075 
Q 2384 2075 2632 2365 
Q 2881 2656 2881 3163 
Q 2881 3666 2632 3958 
Q 2384 4250 1959 4250 
Q 1534 4250 1286 3958 
Q 1038 3666 1038 3163 
Q 1038 2656 1286 2365 
Q 1534 2075 1959 2075 
z
" transform="scale(0.015625)"/>
      </defs>
      <use xlink:href="#DejaVuSans-30"/>
      <use xlink:href="#DejaVuSans-2e" x="63.623047"/>
      <use xlink:href="#DejaVuSans-39" x="95.410156"/>
      <use xlink:href="#DejaVuSans-30" x="159.033203"/>
      <use xlink:href="#DejaVuSans-30" x="222.65625"/>
     </g>
    </g>
   </g>
   <g id="text_32">
    <g clip-path="url(#pfe07ac6a0c)">
     <!-- 0.915 -->
     <g style="fill: #80c066" transform="translate(227.171941 225.907377) rotate(-319.14825) scale(0.1 -0.1)">
      <defs>
       <path id="DejaVuSans-31" d="M 794 531 
L 1825 531 
L 1825 4091 
L 703 3866 
L 703 4441 
L 1819 4666 
L 2450 4666 
L 2450 531 
L 3481 531 
L 3481 0 
L 794 0 
L 794 531 
z
" transform="scale(0.015625)"/>
      </defs>
      <use xlink:href="#DejaVuSans-30"/>
      <use xlink:href="#DejaVuSans-2e" x="63.623047"/>
      <use xlink:href="#DejaVuSans-39" x="95.410156"/>
      <use xlink:href="#DejaVuSans-31" x="159.033203"/>
      <use xlink:href="#DejaVuSans-35" x="222.65625"/>
     </g>
    </g>
   </g>
   <g id="text_33">
    <g clip-path="url(#pfe07ac6a0c)">
     <!-- 0.930 -->
     <g style="fill: #9fcf66" transform="translate(307.539183 223.147257) rotate(-313.880352) scale(0.1 -0.1)">
      <use xlink:href="#DejaVuSans-30"/>
      <use xlink:href="#DejaVuSans-2e" x="63.623047"/>
      <use xlink:href="#DejaVuSans-39" x="95.410156"/>
      <use xlink:href="#DejaVuSans-33" x="159.033203"/>
      <use xlink:href="#DejaVuSans-30" x="222.65625"/>
     </g>
    </g>
   </g>
   <g id="text_34">
    <g clip-path="url(#pfe07ac6a0c)">
     <!-- 0.945 -->
     <g style="fill: #bfdf66" transform="translate(294.781927 98.58575) rotate(-305.825654) scale(0.1 -0.1)">
      <use xlink:href="#DejaVuSans-30"/>
      <use xlink:href="#DejaVuSans-2e" x="63.623047"/>
      <use xlink:href="#DejaVuSans-39" x="95.410156"/>
      <use xlink:href="#DejaVuSans-34" x="159.033203"/>
      <use xlink:href="#DejaVuSans-35" x="222.65625"/>
     </g>
    </g>
   </g>
   <g id="text_35">
    <g clip-path="url(#pfe07ac6a0c)">
     <!-- 0.960 -->
     <g style="fill: #dfef66" transform="translate(382.8086 78.969475) rotate(-297.767135) scale(0.1 -0.1)">
      <use xlink:href="#DejaVuSans-30"/>
      <use xlink:href="#DejaVuSans-2e" x="63.623047"/>
      <use xlink:href="#DejaVuSans-39" x="95.410156"/>
      <use xlink:href="#DejaVuSans-36" x="159.033203"/>
      <use xlink:href="#DejaVuSans-30" x="222.65625"/>
     </g>
    </g>
   </g>
  </g>
 </g>
 <defs>
  <clipPath id="pfe07ac6a0c">
   <rect x="57.6" y="41.472" width="357.12" height="266.112"/>
  </clipPath>
 </defs>
</svg>
