<?xml version="1.0" encoding="utf-8" standalone="no"?>
<!DOCTYPE svg PUBLIC "-//W3C//DTD SVG 1.1//EN"
  "http://www.w3.org/Graphics/SVG/1.1/DTD/svg11.dtd">
<svg xmlns:xlink="http://www.w3.org/1999/xlink" width="576pt" height="288pt" viewBox="0 0 576 288" xmlns="http://www.w3.org/2000/svg" version="1.1">
 <metadata>
  <rdf:RDF xmlns:dc="http://purl.org/dc/elements/1.1/" xmlns:cc="http://creativecommons.org/ns#" xmlns:rdf="http://www.w3.org/1999/02/22-rdf-syntax-ns#">
   <cc:Work>
    <dc:type rdf:resource="http://purl.org/dc/dcmitype/StillImage"/>
    <dc:date>2023-09-20T13:30:55.219260</dc:date>
    <dc:format>image/svg+xml</dc:format>
    <dc:creator>
     <cc:Agent>
      <dc:title>Matplotlib v3.7.1, https://matplotlib.org/</dc:title>
     </cc:Agent>
    </dc:creator>
   </cc:Work>
  </rdf:RDF>
 </metadata>
 <defs>
  <style type="text/css">*{stroke-linejoin: round; stroke-linecap: butt}</style>
 </defs>
 <g id="figure_1">
  <g id="patch_1">
   <path d="M 0 288 
L 576 288 
L 576 0 
L 0 0 
z
" style="fill: #ffffff"/>
  </g>
  <g id="axes_1">
   <g id="patch_2">
    <path d="M 163.499077 -258.320586 
L 161.122248 -260.683457 
L 158.73154 -263.032285 
L 156.327039 -265.366991 
L 153.908827 -267.687493 
L 151.476988 -269.993709 
L 149.031607 -272.285562 
L 146.572768 -274.56297 
L 144.100556 -276.825855 
L 141.615059 -279.074138 
L 139.116361 -281.307742 
L 136.604549 -283.526588 
L 134.079711 -285.7306 
L 131.541934 -287.919702 
L 128.991306 -290.093816 
L 126.427916 -292.252869 
L 123.851853 -294.396785 
L 121.263205 -296.525489 
L 118.662064 -298.638909 
L 116.048519 -300.736969 
L 113.42266 -302.819598 
L 110.78458 -304.886724 
L 108.134369 -306.938274 
L 105.472119 -308.974178 
L 102.797923 -310.994365 
L 100.111874 -312.998764 
L 97.414065 -314.987306 
L 94.704589 -316.959923 
L 91.98354 -318.916545 
L 89.251013 -320.857106 
L 86.507103 -322.781536 
L 83.751904 -324.689771 
L 80.985513 -326.581743 
L 78.208026 -328.457387 
L 75.419538 -330.316637 
L 72.620147 -332.15943 
L 69.80995 -333.985702 
L 66.989043 -335.795388 
L 64.157526 -337.588427 
L 61.315496 -339.364755 
L 58.463052 -341.124312 
L 55.600293 -342.867036 
L 52.727318 -344.592867 
L 49.844227 -346.301745 
L 46.95112 -347.99361 
L 44.048097 -349.668405 
L 41.13526 -351.32607 
L 38.212708 -352.966549 
L 35.280545 -354.589784 
L 32.33887 -356.195719 
L 29.387787 -357.784298 
L 26.427397 -359.355467 
L 23.457804 -360.90917 
L 20.47911 -362.445354 
L 17.49142 -363.963966 
L 14.494836 -365.464953 
L 11.489462 -366.948262 
L 8.475403 -368.413842 
L 5.452763 -369.861643 
L 2.421648 -371.291614 
L -0.617838 -372.703706 
L -3.665589 -374.097869 
L -6.721499 -375.474055 
L -9.785463 -376.832217 
L -12.857374 -378.172307 
L -15.937125 -379.494278 
L -19.02461 -380.798086 
L -22.119721 -382.083685 
L -25.222351 -383.351029 
L -28.332393 -384.600076 
L -31.449738 -385.830781 
L -34.574279 -387.043103 
L -37.705906 -388.236998 
L -40.844512 -389.412427 
L -43.989987 -390.569347 
L -47.142222 -391.707718 
L -50.301108 -392.827502 
L -53.466536 -393.928659 
L -56.638394 -395.011151 
L -59.816574 -396.074941 
L -63.000966 -397.119991 
L -66.191457 -398.146266 
L -69.387939 -399.153729 
L -72.590299 -400.142346 
L -75.798428 -401.112083 
L -79.012213 -402.062906 
L -82.231543 -402.994781 
L -85.456306 -403.907677 
L -88.686391 -404.801562 
L -91.921685 -405.676405 
L -95.162076 -406.532175 
L -98.407451 -407.368843 
L -101.657699 -408.186379 
L -104.912706 -408.984756 
L -108.17236 -409.763946 
L -111.436546 -410.523921 
L -114.705153 -411.264656 
L -117.978066 -411.986124 
L -121.255172 -412.688301 
L -124.536358 -413.371162 
L -127.821509 -414.034684 
L -127.821509 -414.034684 
L -136.043731 -372.698781 
L -144.265953 -331.362879 
L -144.265953 -331.362879 
L -146.133423 -331.730531 
L -148.002322 -332.090847 
L -149.872622 -332.443822 
L -151.744294 -332.789448 
L -153.617308 -333.127723 
L -155.491637 -333.458639 
L -157.36725 -333.782192 
L -159.244119 -334.098378 
L -161.122216 -334.40719 
L -163.001511 -334.708625 
L -164.881975 -335.002677 
L -166.76358 -335.289343 
L -168.646295 -335.568618 
L -170.530093 -335.840496 
L -172.414944 -336.104976 
L -174.300819 -336.362051 
L -176.187689 -336.611719 
L -178.075525 -336.853975 
L -179.964298 -337.088815 
L -181.853978 -337.316237 
L -183.744537 -337.536236 
L -185.635945 -337.748809 
L -187.528173 -337.953953 
L -189.421193 -338.151665 
L -191.314974 -338.341942 
L -193.209488 -338.52478 
L -195.104705 -338.700177 
L -197.000596 -338.86813 
L -198.897133 -339.028636 
L -200.794285 -339.181694 
L -202.692023 -339.327301 
L -204.590319 -339.465454 
L -206.489142 -339.596151 
L -208.388464 -339.719391 
L -210.288256 -339.835171 
L -212.188487 -339.94349 
L -214.089129 -340.044346 
L -215.990153 -340.137737 
L -217.891528 -340.223663 
L -219.793227 -340.302121 
L -221.695218 -340.37311 
L -223.597474 -340.43663 
L -225.499965 -340.492679 
L -227.402661 -340.541257 
L -229.305533 -340.582362 
L -231.208552 -340.615995 
L -233.111689 -340.642154 
L -235.014913 -340.660839 
L -236.918196 -340.672051 
L -238.821509 -340.675788 
L -240.724821 -340.672051 
L -242.628104 -340.660839 
L -244.531329 -340.642154 
L -246.434465 -340.615995 
L -248.337484 -340.582362 
L -250.240356 -340.541257 
L -252.143052 -340.492679 
L -254.045543 -340.43663 
L -255.947799 -340.37311 
L -257.849791 -340.302121 
L -259.751489 -340.223663 
L -261.652865 -340.137737 
L -263.553888 -340.044346 
L -265.45453 -339.94349 
L -267.354762 -339.835171 
L -269.254553 -339.719391 
L -271.153875 -339.596151 
L -273.052699 -339.465454 
L -274.950994 -339.327301 
L -276.848733 -339.181694 
L -278.745885 -339.028636 
L -280.642421 -338.86813 
L -282.538312 -338.700177 
L -284.43353 -338.52478 
L -286.328043 -338.341942 
L -288.221825 -338.151665 
L -290.114844 -337.953953 
L -292.007072 -337.748809 
L -293.898481 -337.536236 
L -295.789039 -337.316237 
L -297.67872 -337.088815 
L -299.567492 -336.853975 
L -301.455328 -336.611719 
L -303.342198 -336.362051 
L -305.228073 -336.104976 
L -307.112924 -335.840496 
L -308.996722 -335.568618 
L -310.879438 -335.289343 
L -312.761042 -335.002677 
L -314.641506 -334.708625 
L -316.520801 -334.40719 
L -318.398898 -334.098378 
L -320.275767 -333.782192 
L -322.151381 -333.458639 
L -324.025709 -333.127723 
L -325.898724 -332.789448 
L -327.770395 -332.443822 
L -329.640695 -332.090847 
L -331.509594 -331.730531 
L -333.377064 -331.362879 
L -333.377064 -331.362879 
L -341.599286 -372.698781 
L -349.821509 -414.034684 
L -349.821509 -414.034684 
L -356.387845 -412.688301 
L -362.937864 -411.264656 
L -369.470658 -409.763946 
L -375.985318 -408.186379 
L -382.480942 -406.532175 
L -388.956627 -404.801562 
L -395.411475 -402.994781 
L -401.84459 -401.112083 
L -408.255079 -399.153729 
L -414.642052 -397.119991 
L -421.004623 -395.011151 
L -427.341909 -392.827502 
L -433.65303 -390.569347 
L -439.937111 -388.236998 
L -446.193279 -385.830781 
L -452.420666 -383.351029 
L -458.618408 -380.798086 
L -464.785644 -378.172307 
L -470.921518 -375.474055 
L -477.02518 -372.703706 
L -483.095781 -369.861643 
L -489.132479 -366.948262 
L -495.134437 -363.963966 
L -501.100821 -360.90917 
L -507.030804 -357.784298 
L -512.923562 -354.589784 
L -518.778277 -351.32607 
L -524.594138 -347.99361 
L -530.370335 -344.592867 
L -536.106069 -341.124312 
L -541.800543 -337.588427 
L -547.452967 -333.985702 
L -553.062556 -330.316637 
L -558.628531 -326.581743 
L -564.15012 -322.781536 
L -569.626557 -318.916545 
L -575.057082 -314.987306 
L -580.440941 -310.994365 
L -585.777386 -306.938274 
L -591.065678 -302.819598 
L -596.305081 -298.638909 
L -601.49487 -294.396785 
L -606.634323 -290.093816 
L -611.722728 -285.7306 
L -616.759378 -281.307742 
L -621.743574 -276.825855 
L -626.674624 -272.285562 
L -631.551844 -267.687493 
L -636.374558 -263.032285 
L -641.142095 -258.320586 
L -645.853794 -253.553049 
L -650.509001 -248.730336 
L -655.10707 -243.853115 
L -659.647364 -238.922065 
L -664.12925 -233.937869 
L -668.552109 -228.901219 
L -672.915325 -223.812815 
L -677.218294 -218.673361 
L -681.460417 -213.483573 
L -685.641107 -208.244169 
L -689.759783 -202.955878 
L -693.815873 -197.619432 
L -697.808815 -192.235573 
L -701.738054 -186.805049 
L -705.603045 -181.328612 
L -709.403252 -175.807022 
L -713.138146 -170.241047 
L -716.80721 -164.631458 
L -720.409935 -158.979035 
L -723.945821 -153.284561 
L -727.414376 -147.548827 
L -730.815119 -141.772629 
L -734.147579 -135.956769 
L -737.411293 -130.102053 
L -740.605807 -124.209295 
L -743.730679 -118.279313 
L -746.785475 -112.312928 
L -749.76977 -106.310971 
L -752.683152 -100.274272 
L -755.525214 -94.203671 
L -758.295564 -88.10001 
L -760.993815 -81.964135 
L -763.619595 -75.796899 
L -766.172538 -69.599157 
L -768.65229 -63.371771 
L -771.058507 -57.115603 
L -773.390855 -50.831522 
L -775.649011 -44.5204 
L -777.83266 -38.183114 
L -779.9415 -31.820543 
L -781.975238 -25.43357 
L -783.933592 -19.023081 
L -785.81629 -12.589966 
L -787.623071 -6.135118 
L -789.353683 0.340567 
L -791.007888 6.836191 
L -792.585455 13.350851 
L -794.086165 19.883644 
L -795.50981 26.433664 
L -796.856192 33 
L -796.856192 33 
L -755.52029 41.222222 
L -714.184387 49.444444 
L -714.184387 49.444444 
L -714.55204 51.311914 
L -714.912356 53.180814 
L -715.26533 55.051114 
L -715.610957 56.922785 
L -715.949231 58.795799 
L -716.280148 60.670128 
L -716.603701 62.545741 
L -716.919886 64.422611 
L -717.228699 66.300707 
L -717.530133 68.180002 
L -717.824186 70.060467 
L -718.110852 71.942071 
L -718.390126 73.824787 
L -718.662005 75.708584 
L -718.926484 77.593435 
L -719.18356 79.47931 
L -719.433227 81.36618 
L -719.675483 83.254016 
L -719.910324 85.142789 
L -720.137746 87.032469 
L -720.357745 88.923028 
L -720.570318 90.814436 
L -720.775462 92.706665 
L -720.973174 94.599684 
L -721.16345 96.493465 
L -721.346288 98.387979 
L -721.521685 100.283196 
L -721.689638 102.179088 
L -721.850145 104.075624 
L -722.003203 105.972776 
L -722.14881 107.870514 
L -722.286963 109.76881 
L -722.41766 111.667633 
L -722.5409 113.566955 
L -722.65668 115.466747 
L -722.764999 117.366978 
L -722.865855 119.26762 
L -722.959246 121.168644 
L -723.045171 123.070019 
L -723.123629 124.971718 
L -723.194619 126.87371 
L -723.258138 128.775966 
L -723.314188 130.678456 
L -723.362765 132.581152 
L -723.403871 134.484025 
L -723.437503 136.387044 
L -723.463663 138.29018 
L -723.482348 140.193404 
L -723.49356 142.096688 
L -723.497297 144 
L -723.49356 145.903312 
L -723.482348 147.806596 
L -723.463663 149.70982 
L -723.437503 151.612956 
L -723.403871 153.515975 
L -723.362765 155.418848 
L -723.314188 157.321544 
L -723.258138 159.224034 
L -723.194619 161.12629 
L -723.123629 163.028282 
L -723.045171 164.929981 
L -722.959246 166.831356 
L -722.865855 168.73238 
L -722.764999 170.633022 
L -722.65668 172.533253 
L -722.5409 174.433045 
L -722.41766 176.332367 
L -722.286963 178.23119 
L -722.14881 180.129486 
L -722.003203 182.027224 
L -721.850145 183.924376 
L -721.689638 185.820912 
L -721.521685 187.716804 
L -721.346288 189.612021 
L -721.16345 191.506535 
L -720.973174 193.400316 
L -720.775462 195.293335 
L -720.570318 197.185564 
L -720.357745 199.076972 
L -720.137746 200.967531 
L -719.910324 202.857211 
L -719.675483 204.745984 
L -719.433227 206.63382 
L -719.18356 208.52069 
L -718.926484 210.406565 
L -718.662005 212.291416 
L -718.390126 214.175213 
L -718.110852 216.057929 
L -717.824186 217.939533 
L -717.530133 219.819998 
L -717.228699 221.699293 
L -716.919886 223.577389 
L -716.603701 225.454259 
L -716.280148 227.329872 
L -715.949231 229.204201 
L -715.610957 231.077215 
L -715.26533 232.948886 
L -714.912356 234.819186 
L -714.55204 236.688086 
L -714.184387 238.555556 
L -714.184387 238.555556 
L -755.52029 246.777778 
L -796.856192 255 
L -796.856192 255 
L -795.50981 261.566336 
L -794.086165 268.116356 
L -792.585455 274.649149 
L -791.007888 281.163809 
L -789.353683 287.659433 
L -787.623071 294.135118 
L -785.81629 300.589966 
L -783.933592 307.023081 
L -781.975238 313.43357 
L -779.9415 319.820543 
L -777.83266 326.183114 
L -775.649011 332.5204 
L -773.390855 338.831522 
L -771.058507 345.115603 
L -768.65229 351.371771 
L -766.172538 357.599157 
L -763.619595 363.796899 
L -760.993815 369.964135 
L -758.295564 376.10001 
L -755.525214 382.203671 
L -752.683152 388.274272 
L -749.76977 394.310971 
L -746.785475 400.312928 
L -743.730679 406.279313 
L -740.605807 412.209295 
L -737.411293 418.102053 
L -734.147579 423.956769 
L -730.815119 429.772629 
L -727.414376 435.548827 
L -723.945821 441.284561 
L -720.409935 446.979035 
L -716.80721 452.631458 
L -713.138146 458.241047 
L -709.403252 463.807022 
L -705.603045 469.328612 
L -701.738054 474.805049 
L -697.808815 480.235573 
L -693.815873 485.619432 
L -689.759783 490.955878 
L -685.641107 496.244169 
L -681.460417 501.483573 
L -677.218294 506.673361 
L -672.915325 511.812815 
L -668.552109 516.901219 
L -664.12925 521.937869 
L -659.647364 526.922065 
L -655.10707 531.853115 
L -650.509001 536.730336 
L -645.853794 541.553049 
L -641.142095 546.320586 
L -636.374558 551.032285 
L -631.551844 555.687493 
L -626.674624 560.285562 
L -621.743574 564.825855 
L -616.759378 569.307742 
L -611.722728 573.7306 
L -606.634323 578.093816 
L -601.49487 582.396785 
L -596.305081 586.638909 
L -591.065678 590.819598 
L -585.777386 594.938274 
L -580.440941 598.994365 
L -575.057082 602.987306 
L -569.626557 606.916545 
L -564.15012 610.781536 
L -558.628531 614.581743 
L -553.062556 618.316637 
L -547.452967 621.985702 
L -541.800543 625.588427 
L -536.106069 629.124312 
L -530.370335 632.592867 
L -524.594138 635.99361 
L -518.778277 639.32607 
L -512.923562 642.589784 
L -507.030804 645.784298 
L -501.100821 648.90917 
L -495.134437 651.963966 
L -489.132479 654.948262 
L -483.095781 657.861643 
L -477.02518 660.703706 
L -470.921518 663.474055 
L -464.785644 666.172307 
L -458.618408 668.798086 
L -452.420666 671.351029 
L -446.193279 673.830781 
L -439.937111 676.236998 
L -433.65303 678.569347 
L -427.341909 680.827502 
L -421.004623 683.011151 
L -414.642052 685.119991 
L -408.255079 687.153729 
L -401.84459 689.112083 
L -395.411475 690.994781 
L -388.956627 692.801562 
L -382.480942 694.532175 
L -375.985318 696.186379 
L -369.470658 697.763946 
L -362.937864 699.264656 
L -356.387845 700.688301 
L -349.821509 702.034684 
L -349.821509 702.034684 
L -341.599286 660.698781 
L -333.377064 619.362879 
L -333.377064 619.362879 
L -331.509594 619.730531 
L -329.640695 620.090847 
L -327.770395 620.443822 
L -325.898724 620.789448 
L -324.025709 621.127723 
L -322.151381 621.458639 
L -320.275767 621.782192 
L -318.398898 622.098378 
L -316.520801 622.40719 
L -314.641506 622.708625 
L -312.761042 623.002677 
L -310.879438 623.289343 
L -308.996722 623.568618 
L -307.112924 623.840496 
L -305.228073 624.104976 
L -303.342198 624.362051 
L -301.455328 624.611719 
L -299.567492 624.853975 
L -297.67872 625.088815 
L -295.789039 625.316237 
L -293.898481 625.536236 
L -292.007072 625.748809 
L -290.114844 625.953953 
L -288.221825 626.151665 
L -286.328043 626.341942 
L -284.43353 626.52478 
L -282.538312 626.700177 
L -280.642421 626.86813 
L -278.745885 627.028636 
L -276.848733 627.181694 
L -274.950994 627.327301 
L -273.052699 627.465454 
L -271.153875 627.596151 
L -269.254553 627.719391 
L -267.354762 627.835171 
L -265.45453 627.94349 
L -263.553888 628.044346 
L -261.652865 628.137737 
L -259.751489 628.223663 
L -257.849791 628.302121 
L -255.947799 628.37311 
L -254.045543 628.43663 
L -252.143052 628.492679 
L -250.240356 628.541257 
L -248.337484 628.582362 
L -246.434465 628.615995 
L -244.531329 628.642154 
L -242.628104 628.660839 
L -240.724821 628.672051 
L -238.821509 628.675788 
L -236.918196 628.672051 
L -235.014913 628.660839 
L -233.111689 628.642154 
L -231.208552 628.615995 
L -229.305533 628.582362 
L -227.402661 628.541257 
L -225.499965 628.492679 
L -223.597474 628.43663 
L -221.695218 628.37311 
L -219.793227 628.302121 
L -217.891528 628.223663 
L -215.990153 628.137737 
L -214.089129 628.044346 
L -212.188487 627.94349 
L -210.288256 627.835171 
L -208.388464 627.719391 
L -206.489142 627.596151 
L -204.590319 627.465454 
L -202.692023 627.327301 
L -200.794285 627.181694 
L -198.897133 627.028636 
L -197.000596 626.86813 
L -195.104705 626.700177 
L -193.209488 626.52478 
L -191.314974 626.341942 
L -189.421193 626.151665 
L -187.528173 625.953953 
L -185.635945 625.748809 
L -183.744537 625.536236 
L -181.853978 625.316237 
L -179.964298 625.088815 
L -178.075525 624.853975 
L -176.187689 624.611719 
L -174.300819 624.362051 
L -172.414944 624.104976 
L -170.530093 623.840496 
L -168.646295 623.568618 
L -166.76358 623.289343 
L -164.881975 623.002677 
L -163.001511 622.708625 
L -161.122216 622.40719 
L -159.244119 622.098378 
L -157.36725 621.782192 
L -155.491637 621.458639 
L -153.617308 621.127723 
L -151.744294 620.789448 
L -149.872622 620.443822 
L -148.002322 620.090847 
L -146.133423 619.730531 
L -144.265953 619.362879 
L -144.265953 619.362879 
L -136.043731 660.698781 
L -127.821509 702.034684 
L -127.821509 702.034684 
L -121.255172 700.688301 
L -114.705153 699.264656 
L -108.17236 697.763946 
L -101.657699 696.186379 
L -95.162076 694.532175 
L -88.686391 692.801562 
L -82.231543 690.994781 
L -75.798428 689.112083 
L -69.387939 687.153729 
L -63.000966 685.119991 
L -56.638394 683.011151 
L -50.301108 680.827502 
L -43.989987 678.569347 
L -37.705906 676.236998 
L -31.449738 673.830781 
L -25.222351 671.351029 
L -19.02461 668.798086 
L -12.857374 666.172307 
L -6.721499 663.474055 
L -0.617838 660.703706 
L 5.452763 657.861643 
L 11.489462 654.948262 
L 17.49142 651.963966 
L 23.457804 648.90917 
L 29.387787 645.784298 
L 35.280545 642.589784 
L 41.13526 639.32607 
L 46.95112 635.99361 
L 52.727318 632.592867 
L 58.463052 629.124312 
L 64.157526 625.588427 
L 69.80995 621.985702 
L 75.419538 618.316637 
L 80.985513 614.581743 
L 86.507103 610.781536 
L 91.98354 606.916545 
L 97.414065 602.987306 
L 102.797923 598.994365 
L 108.134369 594.938274 
L 113.42266 590.819598 
L 118.662064 586.638909 
L 123.851853 582.396785 
L 128.991306 578.093816 
L 134.079711 573.7306 
L 139.116361 569.307742 
L 144.100556 564.825855 
L 149.031607 560.285562 
L 153.908827 555.687493 
L 158.73154 551.032285 
L 163.499077 546.320586 
L 168.210777 541.553049 
L 172.865984 536.730336 
L 177.464053 531.853115 
L 182.004346 526.922065 
L 186.486233 521.937869 
L 190.909091 516.901219 
L 195.272308 511.812815 
L 199.575276 506.673361 
L 203.8174 501.483573 
L 207.99809 496.244169 
L 212.116766 490.955878 
L 216.172856 485.619432 
L 220.165798 480.235573 
L 224.095037 474.805049 
L 227.960028 469.328612 
L 231.760234 463.807022 
L 235.495129 458.241047 
L 239.164193 452.631458 
L 242.766918 446.979035 
L 246.302803 441.284561 
L 249.771358 435.548827 
L 253.172102 429.772629 
L 256.504562 423.956769 
L 259.768275 418.102053 
L 262.96279 412.209295 
L 266.087662 406.279313 
L 269.142457 400.312928 
L 272.126753 394.310971 
L 275.040134 388.274272 
L 277.882197 382.203671 
L 280.652546 376.10001 
L 283.350798 369.964135 
L 285.976578 363.796899 
L 288.529521 357.599157 
L 291.009273 351.371771 
L 293.41549 345.115603 
L 295.747838 338.831522 
L 298.005993 332.5204 
L 300.189642 326.183114 
L 302.298482 319.820543 
L 304.33222 313.43357 
L 306.290574 307.023081 
L 308.173272 300.589966 
L 309.980053 294.135118 
L 311.710666 287.659433 
L 313.364871 281.163809 
L 314.942437 274.649149 
L 316.443147 268.116356 
L 317.866792 261.566336 
L 319.213175 255 
L 319.213175 255 
L 277.877272 246.777778 
L 236.54137 238.555556 
L 236.54137 238.555556 
L 236.909022 236.688086 
L 237.269339 234.819186 
L 237.622313 232.948886 
L 237.96794 231.077215 
L 238.306214 229.204201 
L 238.63713 227.329872 
L 238.960684 225.454259 
L 239.276869 223.577389 
L 239.585681 221.699293 
L 239.887116 219.819998 
L 240.181169 217.939533 
L 240.467834 216.057929 
L 240.747109 214.175213 
L 241.018988 212.291416 
L 241.283467 210.406565 
L 241.540542 208.52069 
L 241.79021 206.63382 
L 242.032466 204.745984 
L 242.267307 202.857211 
L 242.494728 200.967531 
L 242.714727 199.076972 
L 242.927301 197.185564 
L 243.132445 195.293335 
L 243.330157 193.400316 
L 243.520433 191.506535 
L 243.703271 189.612021 
L 243.878668 187.716804 
L 244.046621 185.820912 
L 244.207128 183.924376 
L 244.360186 182.027224 
L 244.505792 180.129486 
L 244.643945 178.23119 
L 244.774643 176.332367 
L 244.897882 174.433045 
L 245.013663 172.533253 
L 245.121981 170.633022 
L 245.222837 168.73238 
L 245.316229 166.831356 
L 245.402154 164.929981 
L 245.480612 163.028282 
L 245.551601 161.12629 
L 245.615121 159.224034 
L 245.67117 157.321544 
L 245.719748 155.418848 
L 245.760853 153.515975 
L 245.794486 151.612956 
L 245.820645 149.70982 
L 245.839331 147.806596 
L 245.850542 145.903312 
L 245.854279 144 
L 245.850542 142.096688 
L 245.839331 140.193404 
L 245.820645 138.29018 
L 245.794486 136.387044 
L 245.760853 134.484025 
L 245.719748 132.581152 
L 245.67117 130.678456 
L 245.615121 128.775966 
L 245.551601 126.87371 
L 245.480612 124.971718 
L 245.402154 123.070019 
L 245.316229 121.168644 
L 245.222837 119.26762 
L 245.121981 117.366978 
L 245.013663 115.466747 
L 244.897882 113.566955 
L 244.774643 111.667633 
L 244.643945 109.76881 
L 244.505792 107.870514 
L 244.360186 105.972776 
L 244.207128 104.075624 
L 244.046621 102.179088 
L 243.878668 100.283196 
L 243.703271 98.387979 
L 243.520433 96.493465 
L 243.330157 94.599684 
L 243.132445 92.706665 
L 242.927301 90.814436 
L 242.714727 88.923028 
L 242.494728 87.032469 
L 242.267307 85.142789 
L 242.032466 83.254016 
L 241.79021 81.36618 
L 241.540542 79.47931 
L 241.283467 77.593435 
L 241.018988 75.708584 
L 240.747109 73.824787 
L 240.467834 71.942071 
L 240.181169 70.060467 
L 239.887116 68.180002 
L 239.585681 66.300707 
L 239.276869 64.422611 
L 238.960684 62.545741 
L 238.63713 60.670128 
L 238.306214 58.795799 
L 237.96794 56.922785 
L 237.622313 55.051114 
L 237.269339 53.180814 
L 236.909022 51.311914 
L 236.54137 49.444444 
L 236.54137 49.444444 
L 277.877272 41.222222 
L 319.213175 33 
L 319.213175 33 
L 318.549653 29.714849 
L 317.866792 26.433664 
L 317.164616 23.156558 
L 316.443147 19.883644 
L 315.702413 16.615038 
L 314.942437 13.350851 
L 314.163248 10.091198 
L 313.364871 6.836191 
L 312.547334 3.585943 
L 311.710666 0.340567 
L 310.854896 -2.899824 
L 309.980053 -6.135118 
L 309.086168 -9.365203 
L 308.173272 -12.589966 
L 307.241397 -15.809296 
L 306.290574 -19.023081 
L 305.320838 -22.231209 
L 304.33222 -25.43357 
L 303.324757 -28.630051 
L 302.298482 -31.820543 
L 301.253432 -35.004934 
L 300.189642 -38.183114 
L 299.10715 -41.354973 
L 298.005993 -44.5204 
L 296.886209 -47.679286 
L 295.747838 -50.831522 
L 294.590918 -53.976997 
L 293.41549 -57.115603 
L 292.221594 -60.24723 
L 291.009273 -63.371771 
L 289.778567 -66.489116 
L 288.529521 -69.599157 
L 287.262176 -72.701788 
L 285.976578 -75.796899 
L 284.67277 -78.884384 
L 283.350798 -81.964135 
L 282.010708 -85.036046 
L 280.652546 -88.10001 
L 279.27636 -91.15592 
L 277.882197 -94.203671 
L 276.470105 -97.243157 
L 275.040134 -100.274272 
L 273.592333 -103.296912 
L 272.126753 -106.310971 
L 270.643444 -109.316344 
L 269.142457 -112.312928 
L 267.623846 -115.300619 
L 266.087662 -118.279313 
L 264.533958 -121.248906 
L 262.96279 -124.209295 
L 261.37421 -127.160379 
L 259.768275 -130.102053 
L 258.14504 -133.034217 
L 256.504562 -135.956769 
L 254.846896 -138.869606 
L 253.172102 -141.772629 
L 251.480236 -144.665736 
L 249.771358 -147.548827 
L 248.045527 -150.421802 
L 246.302803 -153.284561 
L 244.543246 -156.137005 
L 242.766918 -158.979035 
L 240.973879 -161.810552 
L 239.164193 -164.631458 
L 237.337922 -167.441656 
L 235.495129 -170.241047 
L 233.635878 -173.029535 
L 231.760234 -175.807022 
L 229.868262 -178.573413 
L 227.960028 -181.328612 
L 226.035597 -184.072522 
L 224.095037 -186.805049 
L 222.138414 -189.526097 
L 220.165798 -192.235573 
L 218.177255 -194.933383 
L 216.172856 -197.619432 
L 214.152669 -200.293628 
L 212.116766 -202.955878 
L 210.065215 -205.606089 
L 207.99809 -208.244169 
L 205.91546 -210.870028 
L 203.8174 -213.483573 
L 201.703981 -216.084714 
L 199.575276 -218.673361 
L 197.43136 -221.249425 
L 195.272308 -223.812815 
L 193.098193 -226.363442 
L 190.909091 -228.901219 
L 188.705079 -231.426058 
L 186.486233 -233.937869 
L 184.252629 -236.436567 
L 182.004346 -238.922065 
L 179.741461 -241.394276 
L 177.464053 -243.853115 
L 175.172201 -246.298497 
L 172.865984 -248.730336 
L 170.545482 -251.148548 
L 168.210777 -253.553049 
L 165.861948 -255.943756 
L 163.499077 -258.320586 
z
" clip-path="url(#p0a9e9f7c04)" style="fill: #008000; stroke: #000000; stroke-linejoin: miter"/>
   </g>
   <g id="patch_3">
    <path d="M 59.19374 -154.015249 
L 68.407573 -144.507311 
L 77.318208 -134.714652 
L 85.916851 -124.646934 
L 94.195016 -114.314095 
L 102.144534 -103.726331 
L 109.75756 -92.894091 
L 117.026581 -81.828064 
L 123.944422 -70.539173 
L 130.504257 -59.038558 
L 136.699612 -47.337568 
L 142.524374 -35.447751 
L 147.972793 -23.380841 
L 153.039492 -11.148746 
L 157.719472 1.236462 
L 162.008114 13.762561 
L 165.901186 26.417188 
L 169.394845 39.187855 
L 172.485644 52.061959 
L 175.170532 65.026795 
L 177.446861 78.069567 
L 179.312382 91.177405 
L 180.765256 104.337373 
L 181.804049 117.536483 
L 182.427735 130.761709 
L 182.635698 144 
L 182.427735 157.238291 
L 181.804049 170.463517 
L 180.765256 183.662627 
L 179.312382 196.822595 
L 177.446861 209.930433 
L 175.170532 222.973205 
L 172.485644 235.938041 
L 169.394845 248.812145 
L 165.901186 261.582812 
L 162.008114 274.237439 
L 157.719472 286.763538 
L 153.039492 299.148746 
L 147.972793 311.380841 
L 142.524374 323.447751 
L 136.699612 335.337568 
L 130.504257 347.038558 
L 123.944422 358.539173 
L 117.026581 369.828064 
L 109.75756 380.894091 
L 102.144534 391.726331 
L 94.195016 402.314095 
L 85.916851 412.646934 
L 77.318208 422.714652 
L 68.407573 432.507311 
L 59.19374 442.015249 
L 49.685803 451.229082 
L 39.893143 460.139716 
L 29.825426 468.738359 
L 19.492586 477.016525 
L 8.904822 484.966043 
L -1.927418 492.579069 
L -12.993444 499.848089 
L -24.282335 506.765931 
L -35.782951 513.325766 
L -47.483941 519.521121 
L -59.373758 525.345882 
L -71.440668 530.794301 
L -83.672763 535.861001 
L -96.057971 540.540981 
L -108.584069 544.829623 
L -121.238696 548.722695 
L -134.009363 552.216354 
L -146.883467 555.307153 
L -159.848303 557.992041 
L -172.891076 560.268369 
L -185.998914 562.133891 
L -199.158882 563.586765 
L -212.357992 564.625557 
L -225.583218 565.249243 
L -238.821509 565.457207 
L -252.059799 565.249243 
L -265.285026 564.625557 
L -278.484136 563.586765 
L -291.644103 562.133891 
L -304.751941 560.268369 
L -317.794714 557.992041 
L -330.75955 555.307153 
L -343.633654 552.216354 
L -356.404321 548.722695 
L -369.058948 544.829623 
L -381.585046 540.540981 
L -393.970254 535.861001 
L -406.202349 530.794301 
L -418.26926 525.345882 
L -430.159077 519.521121 
L -441.860067 513.325766 
L -453.360682 506.765931 
L -464.649573 499.848089 
L -475.715599 492.579069 
L -486.547839 484.966043 
L -497.135604 477.016525 
L -507.468443 468.738359 
L -517.53616 460.139716 
L -527.32882 451.229082 
L -536.836758 442.015249 
L -536.836758 442.015249 
L -546.05059 432.507311 
L -554.961225 422.714652 
L -563.559868 412.646934 
L -571.838033 402.314095 
L -579.787552 391.726331 
L -587.400577 380.894091 
L -594.669598 369.828064 
L -601.587439 358.539173 
L -608.147275 347.038558 
L -614.34263 335.337568 
L -620.167391 323.447751 
L -625.61581 311.380841 
L -630.68251 299.148746 
L -635.36249 286.763538 
L -639.651132 274.237439 
L -643.544203 261.582812 
L -647.037863 248.812145 
L -650.128661 235.938041 
L -652.81355 222.973205 
L -655.089878 209.930433 
L -656.9554 196.822595 
L -658.408274 183.662627 
L -659.447066 170.463517 
L -660.070752 157.238291 
L -660.278716 144 
L -660.070752 130.761709 
L -659.447066 117.536483 
L -658.408274 104.337373 
L -656.9554 91.177405 
L -655.089878 78.069567 
L -652.81355 65.026795 
L -650.128661 52.061959 
L -647.037863 39.187855 
L -643.544203 26.417188 
L -639.651132 13.762561 
L -635.36249 1.236462 
L -630.68251 -11.148746 
L -625.61581 -23.380841 
L -620.167391 -35.447751 
L -614.34263 -47.337568 
L -608.147275 -59.038558 
L -601.587439 -70.539173 
L -594.669598 -81.828064 
L -587.400577 -92.894091 
L -579.787552 -103.726331 
L -571.838033 -114.314095 
L -563.559868 -124.646934 
L -554.961225 -134.714652 
L -546.05059 -144.507311 
L -536.836758 -154.015249 
L -527.32882 -163.229082 
L -517.53616 -172.139716 
L -507.468443 -180.738359 
L -497.135604 -189.016525 
L -486.547839 -196.966043 
L -475.715599 -204.579069 
L -464.649573 -211.848089 
L -453.360682 -218.765931 
L -441.860067 -225.325766 
L -430.159077 -231.521121 
L -418.26926 -237.345882 
L -406.202349 -242.794301 
L -393.970254 -247.861001 
L -381.585046 -252.540981 
L -369.058948 -256.829623 
L -356.404321 -260.722695 
L -343.633654 -264.216354 
L -330.75955 -267.307153 
L -317.794714 -269.992041 
L -304.751941 -272.268369 
L -291.644103 -274.133891 
L -278.484136 -275.586765 
L -265.285026 -276.625557 
L -252.059799 -277.249243 
L -238.821509 -277.457207 
L -225.583218 -277.249243 
L -212.357992 -276.625557 
L -199.158882 -275.586765 
L -185.998914 -274.133891 
L -172.891076 -272.268369 
L -159.848303 -269.992041 
L -146.883467 -267.307153 
L -134.009363 -264.216354 
L -121.238696 -260.722695 
L -108.584069 -256.829623 
L -96.057971 -252.540981 
L -83.672763 -247.861001 
L -71.440668 -242.794301 
L -59.373758 -237.345882 
L -47.483941 -231.521121 
L -35.782951 -225.325766 
L -24.282335 -218.765931 
L -12.993444 -211.848089 
L -1.927418 -204.579069 
L 8.904822 -196.966043 
L 19.492586 -189.016525 
L 29.825426 -180.738359 
L 39.893143 -172.139716 
L 49.685803 -163.229082 
L 59.19374 -154.015249 
z
" clip-path="url(#p0a9e9f7c04)" style="fill: #ffffff; stroke: #000000; stroke-linejoin: miter"/>
   </g>
   <g id="patch_4">
    <path d="M 240.608396 215.116708 
L 278.484179 220.73505 
L 316.359963 226.353392 
L 316.359963 226.353392 
L 316.901062 224.765384 
L 317.431613 223.173822 
L 317.951594 221.578775 
L 318.460981 219.980313 
L 318.959753 218.378507 
L 319.447886 216.773427 
L 319.92536 215.165144 
L 320.392154 213.553729 
L 320.848246 211.939252 
L 321.293618 210.321785 
L 321.728249 208.701399 
L 322.15212 207.078165 
L 322.565213 205.452154 
L 322.96751 203.823439 
L 323.358991 202.192091 
L 323.739642 200.558181 
L 324.109444 198.921782 
L 324.468382 197.282966 
L 324.816439 195.641804 
L 325.1536 193.998369 
L 325.479851 192.352734 
L 325.795177 190.70497 
L 326.099565 189.055151 
L 326.393 187.403348 
L 326.67547 185.749636 
L 326.946962 184.094085 
L 327.207465 182.43677 
L 327.456968 180.777763 
L 327.695458 179.117137 
L 327.922926 177.454966 
L 328.139361 175.791322 
L 328.344755 174.126278 
L 328.539097 172.459909 
L 328.72238 170.792287 
L 328.894596 169.123486 
L 329.055736 167.453579 
L 329.205794 165.78264 
L 329.344763 164.110742 
L 329.472637 162.437958 
L 329.58941 160.764364 
L 329.695078 159.090031 
L 329.789635 157.415034 
L 329.873077 155.739447 
L 329.945402 154.063343 
L 330.006605 152.386796 
L 330.056684 150.70988 
L 330.095636 149.032668 
L 330.12346 147.355235 
L 330.140156 145.677654 
L 330.145721 144 
L 330.140156 142.322346 
L 330.12346 140.644765 
L 330.095636 138.967332 
L 330.056684 137.29012 
L 330.006605 135.613204 
L 329.945402 133.936657 
L 329.873077 132.260553 
L 329.789635 130.584966 
L 329.695078 128.909969 
L 329.58941 127.235636 
L 329.472637 125.562042 
L 329.344763 123.889258 
L 329.205794 122.21736 
L 329.055736 120.546421 
L 328.894596 118.876514 
L 328.72238 117.207713 
L 328.539097 115.540091 
L 328.344755 113.873722 
L 328.139361 112.208678 
L 327.922926 110.545034 
L 327.695458 108.882863 
L 327.456968 107.222237 
L 327.207465 105.56323 
L 326.946962 103.905915 
L 326.67547 102.250364 
L 326.393 100.596652 
L 326.099565 98.944849 
L 325.795177 97.29503 
L 325.479851 95.647266 
L 325.1536 94.001631 
L 324.816439 92.358196 
L 324.468382 90.717034 
L 324.109444 89.078218 
L 323.739642 87.441819 
L 323.358991 85.807909 
L 322.96751 84.176561 
L 322.565213 82.547846 
L 322.15212 80.921835 
L 321.728249 79.298601 
L 321.293618 77.678215 
L 320.848246 76.060748 
L 320.392154 74.446271 
L 319.92536 72.834856 
L 319.447886 71.226573 
L 318.959753 69.621493 
L 318.460981 68.019687 
L 317.951594 66.421225 
L 317.431613 64.826178 
L 316.901062 63.234616 
L 316.359963 61.646608 
L 316.359963 61.646608 
L 278.484179 67.26495 
L 240.608396 72.883292 
L 240.608396 72.883292 
L 240.815772 74.295636 
L 241.018988 75.708584 
L 241.218041 77.122125 
L 241.41293 78.536247 
L 241.603654 79.950936 
L 241.79021 81.36618 
L 241.972597 82.781968 
L 242.150813 84.198287 
L 242.324858 85.615125 
L 242.494728 87.032469 
L 242.660424 88.450308 
L 242.821942 89.868628 
L 242.979283 91.287418 
L 243.132445 92.706665 
L 243.281426 94.126357 
L 243.426224 95.546481 
L 243.56684 96.967026 
L 243.703271 98.387979 
L 243.835516 99.809328 
L 243.963575 101.23106 
L 244.087446 102.653162 
L 244.207128 104.075624 
L 244.32262 105.498432 
L 244.43392 106.921574 
L 244.541029 108.345037 
L 244.643945 109.76881 
L 244.742667 111.19288 
L 244.837195 112.617234 
L 244.927527 114.04186 
L 245.013663 115.466747 
L 245.095601 116.891881 
L 245.173342 118.31725 
L 245.246885 119.742842 
L 245.316229 121.168644 
L 245.381373 122.594644 
L 245.442316 124.02083 
L 245.499059 125.447189 
L 245.551601 126.87371 
L 245.599941 128.300378 
L 245.64408 129.727183 
L 245.684015 131.154112 
L 245.719748 132.581152 
L 245.751278 134.008292 
L 245.778604 135.435518 
L 245.801727 136.862818 
L 245.820645 138.29018 
L 245.83536 139.717592 
L 245.845871 141.14504 
L 245.852177 142.572514 
L 245.854279 144 
L 245.852177 145.427486 
L 245.845871 146.85496 
L 245.83536 148.282408 
L 245.820645 149.70982 
L 245.801727 151.137182 
L 245.778604 152.564482 
L 245.751278 153.991708 
L 245.719748 155.418848 
L 245.684015 156.845888 
L 245.64408 158.272817 
L 245.599941 159.699622 
L 245.551601 161.12629 
L 245.499059 162.552811 
L 245.442316 163.97917 
L 245.381373 165.405356 
L 245.316229 166.831356 
L 245.246885 168.257158 
L 245.173342 169.68275 
L 245.095601 171.108119 
L 245.013663 172.533253 
L 244.927527 173.95814 
L 244.837195 175.382766 
L 244.742667 176.80712 
L 244.643945 178.23119 
L 244.541029 179.654963 
L 244.43392 181.078426 
L 244.32262 182.501568 
L 244.207128 183.924376 
L 244.087446 185.346838 
L 243.963575 186.76894 
L 243.835516 188.190672 
L 243.703271 189.612021 
L 243.56684 191.032974 
L 243.426224 192.453519 
L 243.281426 193.873643 
L 243.132445 195.293335 
L 242.979283 196.712582 
L 242.821942 198.131372 
L 242.660424 199.549692 
L 242.494728 200.967531 
L 242.324858 202.384875 
L 242.150813 203.801713 
L 241.972597 205.218032 
L 241.79021 206.63382 
L 241.603654 208.049064 
L 241.41293 209.463753 
L 241.218041 210.877875 
L 241.018988 212.291416 
L 240.815772 213.704364 
L 240.608396 215.116708 
z
" clip-path="url(#p0a9e9f7c04)" style="fill: #ff0000; fill-opacity: 0.5; stroke: #ff0000; stroke-opacity: 0.5; stroke-linejoin: miter"/>
   </g>
   <g id="patch_5">
    <path d="M -167.7048 -335.429904 
L -162.086459 -373.305688 
L -156.468117 -411.181472 
L -156.468117 -411.181472 
L -158.056124 -411.722571 
L -159.647687 -412.253122 
L -161.242734 -412.773103 
L -162.841196 -413.28249 
L -164.443002 -413.781261 
L -166.048082 -414.269395 
L -167.656365 -414.746869 
L -169.26778 -415.213663 
L -170.882257 -415.669755 
L -172.499724 -416.115127 
L -174.12011 -416.549758 
L -175.743344 -416.973629 
L -177.369354 -417.386722 
L -178.998069 -417.789018 
L -180.629418 -418.1805 
L -182.263327 -418.561151 
L -183.899727 -418.930953 
L -185.538543 -419.28989 
L -187.179705 -419.637947 
L -188.823139 -419.975109 
L -190.468775 -420.30136 
L -192.116538 -420.616686 
L -193.766358 -420.921073 
L -195.41816 -421.214508 
L -197.071873 -421.496978 
L -198.727424 -421.768471 
L -200.384739 -422.028974 
L -202.043746 -422.278476 
L -203.704372 -422.516967 
L -205.366543 -422.744434 
L -207.030187 -422.96087 
L -208.69523 -423.166263 
L -210.3616 -423.360606 
L -212.029222 -423.543889 
L -213.698023 -423.716104 
L -215.36793 -423.877244 
L -217.038869 -424.027302 
L -218.710767 -424.166271 
L -220.38355 -424.294145 
L -222.057145 -424.410919 
L -223.731478 -424.516586 
L -225.406475 -424.611144 
L -227.082062 -424.694586 
L -228.758166 -424.766911 
L -230.434713 -424.828113 
L -232.111629 -424.878192 
L -233.788841 -424.917145 
L -235.466274 -424.944969 
L -237.143854 -424.961664 
L -238.821509 -424.967229 
L -240.499163 -424.961664 
L -242.176744 -424.944969 
L -243.854177 -424.917145 
L -245.531388 -424.878192 
L -247.208304 -424.828113 
L -248.884851 -424.766911 
L -250.560955 -424.694586 
L -252.236543 -424.611144 
L -253.91154 -424.516586 
L -255.585872 -424.410919 
L -257.259467 -424.294145 
L -258.93225 -424.166271 
L -260.604148 -424.027302 
L -262.275088 -423.877244 
L -263.944995 -423.716104 
L -265.613796 -423.543889 
L -267.281418 -423.360606 
L -268.947787 -423.166263 
L -270.61283 -422.96087 
L -272.276474 -422.744434 
L -273.938646 -422.516967 
L -275.599272 -422.278476 
L -277.258279 -422.028974 
L -278.915594 -421.768471 
L -280.571144 -421.496978 
L -282.224857 -421.214508 
L -283.87666 -420.921073 
L -285.526479 -420.616686 
L -287.174243 -420.30136 
L -288.819878 -419.975109 
L -290.463313 -419.637947 
L -292.104474 -419.28989 
L -293.743291 -418.930953 
L -295.37969 -418.561151 
L -297.0136 -418.1805 
L -298.644948 -417.789018 
L -300.273663 -417.386722 
L -301.899674 -416.973629 
L -303.522908 -416.549758 
L -305.143294 -416.115127 
L -306.760761 -415.669755 
L -308.375238 -415.213663 
L -309.986653 -414.746869 
L -311.594936 -414.269395 
L -313.200016 -413.781261 
L -314.801822 -413.28249 
L -316.400284 -412.773103 
L -317.995331 -412.253122 
L -319.586893 -411.722571 
L -321.174901 -411.181472 
L -321.174901 -411.181472 
L -315.556559 -373.305688 
L -309.938217 -335.429904 
L -309.938217 -335.429904 
L -308.525873 -335.637281 
L -307.112924 -335.840496 
L -305.699383 -336.03955 
L -304.285262 -336.234439 
L -302.870573 -336.425163 
L -301.455328 -336.611719 
L -300.03954 -336.794106 
L -298.623221 -336.972322 
L -297.206384 -337.146366 
L -295.789039 -337.316237 
L -294.371201 -337.481932 
L -292.952881 -337.643451 
L -291.534091 -337.800792 
L -290.114844 -337.953953 
L -288.695152 -338.102934 
L -287.275027 -338.247733 
L -285.854483 -338.388349 
L -284.43353 -338.52478 
L -283.012181 -338.657025 
L -281.590449 -338.785084 
L -280.168346 -338.908955 
L -278.745885 -339.028636 
L -277.323077 -339.144128 
L -275.899935 -339.255429 
L -274.476472 -339.362538 
L -273.052699 -339.465454 
L -271.628629 -339.564176 
L -270.204275 -339.658704 
L -268.779648 -339.749036 
L -267.354762 -339.835171 
L -265.929628 -339.91711 
L -264.504259 -339.994851 
L -263.078667 -340.068394 
L -261.652865 -340.137737 
L -260.226865 -340.202881 
L -258.800679 -340.263825 
L -257.374319 -340.320568 
L -255.947799 -340.37311 
L -254.52113 -340.42145 
L -253.094325 -340.465588 
L -251.667396 -340.505524 
L -250.240356 -340.541257 
L -248.813217 -340.572786 
L -247.385991 -340.600113 
L -245.958691 -340.623235 
L -244.531329 -340.642154 
L -243.103917 -340.656869 
L -241.676468 -340.667379 
L -240.248995 -340.673686 
L -238.821509 -340.675788 
L -237.394023 -340.673686 
L -235.966549 -340.667379 
L -234.5391 -340.656869 
L -233.111689 -340.642154 
L -231.684327 -340.623235 
L -230.257026 -340.600113 
L -228.8298 -340.572786 
L -227.402661 -340.541257 
L -225.975621 -340.505524 
L -224.548692 -340.465588 
L -223.121887 -340.42145 
L -221.695218 -340.37311 
L -220.268698 -340.320568 
L -218.842339 -340.263825 
L -217.416153 -340.202881 
L -215.990153 -340.137737 
L -214.56435 -340.068394 
L -213.138759 -339.994851 
L -211.713389 -339.91711 
L -210.288256 -339.835171 
L -208.863369 -339.749036 
L -207.438743 -339.658704 
L -206.014388 -339.564176 
L -204.590319 -339.465454 
L -203.166546 -339.362538 
L -201.743082 -339.255429 
L -200.319941 -339.144128 
L -198.897133 -339.028636 
L -197.474671 -338.908955 
L -196.052568 -338.785084 
L -194.630836 -338.657025 
L -193.209488 -338.52478 
L -191.788535 -338.388349 
L -190.36799 -338.247733 
L -188.947865 -338.102934 
L -187.528173 -337.953953 
L -186.108926 -337.800792 
L -184.690137 -337.643451 
L -183.271816 -337.481932 
L -181.853978 -337.316237 
L -180.436634 -337.146366 
L -179.019796 -336.972322 
L -177.603477 -336.794106 
L -176.187689 -336.611719 
L -174.772444 -336.425163 
L -173.357755 -336.234439 
L -171.943634 -336.03955 
L -170.530093 -335.840496 
L -169.117144 -335.637281 
L -167.7048 -335.429904 
z
" clip-path="url(#p0a9e9f7c04)" style="fill: #ff0000; fill-opacity: 0.5; stroke: #ff0000; stroke-opacity: 0.5; stroke-linejoin: miter"/>
   </g>
   <g id="patch_6">
    <path d="M -718.251413 72.883292 
L -756.127197 67.26495 
L -794.002981 61.646608 
L -794.002981 61.646608 
L -794.544079 63.234616 
L -795.074631 64.826178 
L -795.594612 66.421225 
L -796.103999 68.019687 
L -796.60277 69.621493 
L -797.090904 71.226573 
L -797.568378 72.834856 
L -798.035171 74.446271 
L -798.491264 76.060748 
L -798.936636 77.678215 
L -799.371267 79.298601 
L -799.795138 80.921835 
L -800.208231 82.547846 
L -800.610527 84.176561 
L -801.002009 85.807909 
L -801.382659 87.441819 
L -801.752461 89.078218 
L -802.111399 90.717034 
L -802.459456 92.358196 
L -802.796618 94.001631 
L -803.122869 95.647266 
L -803.438195 97.29503 
L -803.742582 98.944849 
L -804.036017 100.596652 
L -804.318487 102.250364 
L -804.58998 103.905915 
L -804.850483 105.56323 
L -805.099985 107.222237 
L -805.338475 108.882863 
L -805.565943 110.545034 
L -805.782379 112.208678 
L -805.987772 113.873722 
L -806.182115 115.540091 
L -806.365398 117.207713 
L -806.537613 118.876514 
L -806.698753 120.546421 
L -806.848811 122.21736 
L -806.98778 123.889258 
L -807.115654 125.562042 
L -807.232427 127.235636 
L -807.338095 128.909969 
L -807.432652 130.584966 
L -807.516095 132.260553 
L -807.588419 133.936657 
L -807.649622 135.613204 
L -807.699701 137.29012 
L -807.738653 138.967332 
L -807.766478 140.644765 
L -807.783173 142.322346 
L -807.788738 144 
L -807.783173 145.677654 
L -807.766478 147.355235 
L -807.738653 149.032668 
L -807.699701 150.70988 
L -807.649622 152.386796 
L -807.588419 154.063343 
L -807.516095 155.739447 
L -807.432652 157.415034 
L -807.338095 159.090031 
L -807.232427 160.764364 
L -807.115654 162.437958 
L -806.98778 164.110742 
L -806.848811 165.78264 
L -806.698753 167.453579 
L -806.537613 169.123486 
L -806.365398 170.792287 
L -806.182115 172.459909 
L -805.987772 174.126278 
L -805.782379 175.791322 
L -805.565943 177.454966 
L -805.338475 179.117137 
L -805.099985 180.777763 
L -804.850483 182.43677 
L -804.58998 184.094085 
L -804.318487 185.749636 
L -804.036017 187.403348 
L -803.742582 189.055151 
L -803.438195 190.70497 
L -803.122869 192.352734 
L -802.796618 193.998369 
L -802.459456 195.641804 
L -802.111399 197.282966 
L -801.752461 198.921782 
L -801.382659 200.558181 
L -801.002009 202.192091 
L -800.610527 203.823439 
L -800.208231 205.452154 
L -799.795138 207.078165 
L -799.371267 208.701399 
L -798.936636 210.321785 
L -798.491264 211.939252 
L -798.035171 213.553729 
L -797.568378 215.165144 
L -797.090904 216.773427 
L -796.60277 218.378507 
L -796.103999 219.980313 
L -795.594612 221.578775 
L -795.074631 223.173822 
L -794.544079 224.765384 
L -794.002981 226.353392 
L -794.002981 226.353392 
L -756.127197 220.73505 
L -718.251413 215.116708 
L -718.251413 215.116708 
L -718.458789 213.704364 
L -718.662005 212.291416 
L -718.861059 210.877875 
L -719.055948 209.463753 
L -719.246671 208.049064 
L -719.433227 206.63382 
L -719.615614 205.218032 
L -719.793831 203.801713 
L -719.967875 202.384875 
L -720.137746 200.967531 
L -720.303441 199.549692 
L -720.46496 198.131372 
L -720.622301 196.712582 
L -720.775462 195.293335 
L -720.924443 193.873643 
L -721.069242 192.453519 
L -721.209857 191.032974 
L -721.346288 189.612021 
L -721.478534 188.190672 
L -721.606593 186.76894 
L -721.730463 185.346838 
L -721.850145 183.924376 
L -721.965637 182.501568 
L -722.076938 181.078426 
L -722.184047 179.654963 
L -722.286963 178.23119 
L -722.385685 176.80712 
L -722.480212 175.382766 
L -722.570544 173.95814 
L -722.65668 172.533253 
L -722.738619 171.108119 
L -722.81636 169.68275 
L -722.889902 168.257158 
L -722.959246 166.831356 
L -723.02439 165.405356 
L -723.085334 163.97917 
L -723.142077 162.552811 
L -723.194619 161.12629 
L -723.242959 159.699622 
L -723.287097 158.272817 
L -723.327033 156.845888 
L -723.362765 155.418848 
L -723.394295 153.991708 
L -723.421621 152.564482 
L -723.444744 151.137182 
L -723.463663 149.70982 
L -723.478377 148.282408 
L -723.488888 146.85496 
L -723.495195 145.427486 
L -723.497297 144 
L -723.495195 142.572514 
L -723.488888 141.14504 
L -723.478377 139.717592 
L -723.463663 138.29018 
L -723.444744 136.862818 
L -723.421621 135.435518 
L -723.394295 134.008292 
L -723.362765 132.581152 
L -723.327033 131.154112 
L -723.287097 129.727183 
L -723.242959 128.300378 
L -723.194619 126.87371 
L -723.142077 125.447189 
L -723.085334 124.02083 
L -723.02439 122.594644 
L -722.959246 121.168644 
L -722.889902 119.742842 
L -722.81636 118.31725 
L -722.738619 116.891881 
L -722.65668 115.466747 
L -722.570544 114.04186 
L -722.480212 112.617234 
L -722.385685 111.19288 
L -722.286963 109.76881 
L -722.184047 108.345037 
L -722.076938 106.921574 
L -721.965637 105.498432 
L -721.850145 104.075624 
L -721.730463 102.653162 
L -721.606593 101.23106 
L -721.478534 99.809328 
L -721.346288 98.387979 
L -721.209857 96.967026 
L -721.069242 95.546481 
L -720.924443 94.126357 
L -720.775462 92.706665 
L -720.622301 91.287418 
L -720.46496 89.868628 
L -720.303441 88.450308 
L -720.137746 87.032469 
L -719.967875 85.615125 
L -719.793831 84.198287 
L -719.615614 82.781968 
L -719.433227 81.36618 
L -719.246671 79.950936 
L -719.055948 78.536247 
L -718.861059 77.122125 
L -718.662005 75.708584 
L -718.458789 74.295636 
L -718.251413 72.883292 
z
" clip-path="url(#p0a9e9f7c04)" style="fill: #ff0000; fill-opacity: 0.5; stroke: #ff0000; stroke-opacity: 0.5; stroke-linejoin: miter"/>
   </g>
   <g id="patch_7">
    <path d="M -309.938217 623.429904 
L -315.556559 661.305688 
L -321.174901 699.181472 
L -321.174901 699.181472 
L -319.586893 699.722571 
L -317.995331 700.253122 
L -316.400284 700.773103 
L -314.801822 701.28249 
L -313.200016 701.781261 
L -311.594936 702.269395 
L -309.986653 702.746869 
L -308.375238 703.213663 
L -306.760761 703.669755 
L -305.143294 704.115127 
L -303.522908 704.549758 
L -301.899674 704.973629 
L -300.273663 705.386722 
L -298.644948 705.789018 
L -297.0136 706.1805 
L -295.37969 706.561151 
L -293.743291 706.930953 
L -292.104474 707.28989 
L -290.463313 707.637947 
L -288.819878 707.975109 
L -287.174243 708.30136 
L -285.526479 708.616686 
L -283.87666 708.921073 
L -282.224857 709.214508 
L -280.571144 709.496978 
L -278.915594 709.768471 
L -277.258279 710.028974 
L -275.599272 710.278476 
L -273.938646 710.516967 
L -272.276474 710.744434 
L -270.61283 710.96087 
L -268.947787 711.166263 
L -267.281418 711.360606 
L -265.613796 711.543889 
L -263.944995 711.716104 
L -262.275088 711.877244 
L -260.604148 712.027302 
L -258.93225 712.166271 
L -257.259467 712.294145 
L -255.585872 712.410919 
L -253.91154 712.516586 
L -252.236543 712.611144 
L -250.560955 712.694586 
L -248.884851 712.766911 
L -247.208304 712.828113 
L -245.531388 712.878192 
L -243.854177 712.917145 
L -242.176744 712.944969 
L -240.499163 712.961664 
L -238.821509 712.967229 
L -237.143854 712.961664 
L -235.466274 712.944969 
L -233.788841 712.917145 
L -232.111629 712.878192 
L -230.434713 712.828113 
L -228.758166 712.766911 
L -227.082062 712.694586 
L -225.406475 712.611144 
L -223.731478 712.516586 
L -222.057145 712.410919 
L -220.38355 712.294145 
L -218.710767 712.166271 
L -217.038869 712.027302 
L -215.36793 711.877244 
L -213.698023 711.716104 
L -212.029222 711.543889 
L -210.3616 711.360606 
L -208.69523 711.166263 
L -207.030187 710.96087 
L -205.366543 710.744434 
L -203.704372 710.516967 
L -202.043746 710.278476 
L -200.384739 710.028974 
L -198.727424 709.768471 
L -197.071873 709.496978 
L -195.41816 709.214508 
L -193.766358 708.921073 
L -192.116538 708.616686 
L -190.468775 708.30136 
L -188.823139 707.975109 
L -187.179705 707.637947 
L -185.538543 707.28989 
L -183.899727 706.930953 
L -182.263327 706.561151 
L -180.629418 706.1805 
L -178.998069 705.789018 
L -177.369354 705.386722 
L -175.743344 704.973629 
L -174.12011 704.549758 
L -172.499724 704.115127 
L -170.882257 703.669755 
L -169.26778 703.213663 
L -167.656365 702.746869 
L -166.048082 702.269395 
L -164.443002 701.781261 
L -162.841196 701.28249 
L -161.242734 700.773103 
L -159.647687 700.253122 
L -158.056124 699.722571 
L -156.468117 699.181472 
L -156.468117 699.181472 
L -162.086459 661.305688 
L -167.7048 623.429904 
L -167.7048 623.429904 
L -169.117144 623.637281 
L -170.530093 623.840496 
L -171.943634 624.03955 
L -173.357755 624.234439 
L -174.772444 624.425163 
L -176.187689 624.611719 
L -177.603477 624.794106 
L -179.019796 624.972322 
L -180.436634 625.146366 
L -181.853978 625.316237 
L -183.271816 625.481932 
L -184.690137 625.643451 
L -186.108926 625.800792 
L -187.528173 625.953953 
L -188.947865 626.102934 
L -190.36799 626.247733 
L -191.788535 626.388349 
L -193.209488 626.52478 
L -194.630836 626.657025 
L -196.052568 626.785084 
L -197.474671 626.908955 
L -198.897133 627.028636 
L -200.319941 627.144128 
L -201.743082 627.255429 
L -203.166546 627.362538 
L -204.590319 627.465454 
L -206.014388 627.564176 
L -207.438743 627.658704 
L -208.863369 627.749036 
L -210.288256 627.835171 
L -211.713389 627.91711 
L -213.138759 627.994851 
L -214.56435 628.068394 
L -215.990153 628.137737 
L -217.416153 628.202881 
L -218.842339 628.263825 
L -220.268698 628.320568 
L -221.695218 628.37311 
L -223.121887 628.42145 
L -224.548692 628.465588 
L -225.975621 628.505524 
L -227.402661 628.541257 
L -228.8298 628.572786 
L -230.257026 628.600113 
L -231.684327 628.623235 
L -233.111689 628.642154 
L -234.5391 628.656869 
L -235.966549 628.667379 
L -237.394023 628.673686 
L -238.821509 628.675788 
L -240.248995 628.673686 
L -241.676468 628.667379 
L -243.103917 628.656869 
L -244.531329 628.642154 
L -245.958691 628.623235 
L -247.385991 628.600113 
L -248.813217 628.572786 
L -250.240356 628.541257 
L -251.667396 628.505524 
L -253.094325 628.465588 
L -254.52113 628.42145 
L -255.947799 628.37311 
L -257.374319 628.320568 
L -258.800679 628.263825 
L -260.226865 628.202881 
L -261.652865 628.137737 
L -263.078667 628.068394 
L -264.504259 627.994851 
L -265.929628 627.91711 
L -267.354762 627.835171 
L -268.779648 627.749036 
L -270.204275 627.658704 
L -271.628629 627.564176 
L -273.052699 627.465454 
L -274.476472 627.362538 
L -275.899935 627.255429 
L -277.323077 627.144128 
L -278.745885 627.028636 
L -280.168346 626.908955 
L -281.590449 626.785084 
L -283.012181 626.657025 
L -284.43353 626.52478 
L -285.854483 626.388349 
L -287.275027 626.247733 
L -288.695152 626.102934 
L -290.114844 625.953953 
L -291.534091 625.800792 
L -292.952881 625.643451 
L -294.371201 625.481932 
L -295.789039 625.316237 
L -297.206384 625.146366 
L -298.623221 624.972322 
L -300.03954 624.794106 
L -301.455328 624.611719 
L -302.870573 624.425163 
L -304.285262 624.234439 
L -305.699383 624.03955 
L -307.112924 623.840496 
L -308.525873 623.637281 
L -309.938217 623.429904 
z
" clip-path="url(#p0a9e9f7c04)" style="fill: #ff0000; fill-opacity: 0.5; stroke: #ff0000; stroke-opacity: 0.5; stroke-linejoin: miter"/>
   </g>
   <g id="line2d_1">
    <path d="M 228.274189 236.911111 
L 230.171646 226.802695 
L 231.850373 216.655661 
L 233.309588 206.474743 
L 234.548609 196.264687 
L 235.566859 186.030255 
L 236.363863 175.776222 
L 236.939249 165.507369 
L 237.29275 155.228485 
L 237.424199 144.944364 
L 237.333536 134.659803 
L 237.020803 124.379598 
L 236.486146 114.108544 
L 235.729814 103.85143 
L 234.752161 93.613041 
L 233.553641 83.398152 
L 232.134814 73.211526 
L 230.496342 63.057914 
L 228.638988 52.942053 
L 228.274189 51.088889 
L 228.274189 51.088889 
" clip-path="url(#p0a9e9f7c04)" style="fill: none; stroke: #000000; stroke-width: 2; stroke-linecap: square"/>
   </g>
   <g id="line2d_2">
    <path d="M 365.677066 233.668893 
L 367.278071 222.117459 
L 368.658358 210.537577 
L 369.817425 198.933465 
L 370.754851 187.309348 
L 371.470293 175.66946 
L 371.963491 164.018039 
L 372.234266 152.359328 
L 372.282518 140.697573 
L 372.108231 129.037021 
L 371.711468 117.381918 
L 371.092373 105.736508 
L 370.251172 94.105032 
L 369.18817 82.491726 
L 367.903756 70.900818 
L 366.398397 59.336531 
L 365.677066 54.331107 
L 365.677066 54.331107 
" clip-path="url(#p0a9e9f7c04)" style="fill: none; stroke: #000000; stroke-width: 2; stroke-linecap: square"/>
   </g>
   <g id="line2d_3">
    <path d="M -1 144 
L 577 144 
" clip-path="url(#p0a9e9f7c04)" style="fill: none; stroke-dasharray: 1,1.65; stroke-dashoffset: 0; stroke: #808080"/>
   </g>
   <g id="line2d_4">
    <path d="M -1 191.305639 
L 490.142718 289 
" clip-path="url(#p0a9e9f7c04)" style="fill: none; stroke-dasharray: 1,1.65; stroke-dashoffset: 0; stroke: #808080"/>
   </g>
   <g id="line2d_5">
    <path d="M -1 96.694361 
L 490.142718 -1 
" clip-path="url(#p0a9e9f7c04)" style="fill: none; stroke-dasharray: 1,1.65; stroke-dashoffset: 0; stroke: #808080"/>
   </g>
   <g id="line2d_6">
    <path d="M -1 179.277488 
L 577 265.015689 
" clip-path="url(#p0a9e9f7c04)" style="fill: none; stroke-dasharray: 1,1.65; stroke-dashoffset: 0; stroke: #808080"/>
   </g>
   <g id="line2d_7">
    <path d="M -1 108.722512 
L 577 22.984311 
" clip-path="url(#p0a9e9f7c04)" style="fill: none; stroke-dasharray: 1,1.65; stroke-dashoffset: 0; stroke: #808080"/>
   </g>
   <g id="line2d_8">
    <path d="M 319.213175 255 
L 321.296531 243.957442 
L 323.161395 232.875892 
L 324.80704 221.759674 
L 326.232825 210.613123 
L 327.438193 199.440588 
L 328.422673 188.246426 
L 329.185883 177.035004 
L 329.727523 165.810697 
L 330.047384 154.577881 
L 330.145339 143.340939 
L 330.021351 132.104254 
L 329.675469 120.87221 
L 329.107826 109.649187 
L 328.318646 98.439563 
L 327.308234 87.247712 
L 326.076987 76.077999 
L 324.625383 64.934782 
L 322.953989 53.822405 
L 321.063457 42.745206 
L 319.213175 33 
L 319.213175 33 
" clip-path="url(#p0a9e9f7c04)" style="fill: none; stroke-dasharray: 1,1.65; stroke-dashoffset: 0; stroke: #808080"/>
   </g>
   <g id="line2d_9">
    <path d="M 77.271397 144 
L 316.359963 226.353392 
" clip-path="url(#p0a9e9f7c04)" style="fill: none; stroke-dasharray: 1,1.65; stroke-dashoffset: 0; stroke: #808080"/>
   </g>
   <g id="line2d_10">
    <path d="M 77.271397 144 
L 316.359963 61.646608 
" clip-path="url(#p0a9e9f7c04)" style="fill: none; stroke-dasharray: 1,1.65; stroke-dashoffset: 0; stroke: #808080"/>
   </g>
   <g id="text_1">
    <g id="patch_8">
     <path d="M 262.712568 128.760613 
L 282.212568 128.760613 
Q 285.812568 128.760613 285.812568 125.160613 
L 285.812568 113.546863 
Q 285.812568 109.946863 282.212568 109.946863 
L 262.712568 109.946863 
Q 259.112568 109.946863 259.112568 113.546863 
L 259.112568 125.160613 
Q 259.112568 128.760613 262.712568 128.760613 
z
" style="fill: #ffffff; stroke: #000000; stroke-linejoin: miter"/>
    </g>
    <!-- W0 -->
    <g transform="translate(262.712568 122.664988) scale(0.12 -0.12)">
     <defs>
      <path id="DejaVuSans-57" d="M 213 4666 
L 850 4666 
L 1831 722 
L 2809 4666 
L 3519 4666 
L 4500 722 
L 5478 4666 
L 6119 4666 
L 4947 0 
L 4153 0 
L 3169 4050 
L 2175 0 
L 1381 0 
L 213 4666 
z
" transform="scale(0.015625)"/>
      <path id="DejaVuSans-30" d="M 2034 4250 
Q 1547 4250 1301 3770 
Q 1056 3291 1056 2328 
Q 1056 1369 1301 889 
Q 1547 409 2034 409 
Q 2525 409 2770 889 
Q 3016 1369 3016 2328 
Q 3016 3291 2770 3770 
Q 2525 4250 2034 4250 
z
M 2034 4750 
Q 2819 4750 3233 4129 
Q 3647 3509 3647 2328 
Q 3647 1150 3233 529 
Q 2819 -91 2034 -91 
Q 1250 -91 836 529 
Q 422 1150 422 2328 
Q 422 3509 836 4129 
Q 1250 4750 2034 4750 
z
" transform="scale(0.015625)"/>
     </defs>
     <use xlink:href="#DejaVuSans-57"/>
     <use xlink:href="#DejaVuSans-30" x="98.876953"/>
    </g>
   </g>
   <g id="text_2">
    <g id="patch_9">
     <path d="M 389.14973 150.095625 
L 427.675355 150.095625 
Q 431.275355 150.095625 431.275355 146.495625 
L 431.275355 134.881875 
Q 431.275355 131.281875 427.675355 131.281875 
L 389.14973 131.281875 
Q 385.54973 131.281875 385.54973 134.881875 
L 385.54973 146.495625 
Q 385.54973 150.095625 389.14973 150.095625 
z
" style="fill: #ffffff; stroke: #000000; stroke-linejoin: miter"/>
    </g>
    <!-- Wmag -->
    <g transform="translate(389.14973 144) scale(0.12 -0.12)">
     <defs>
      <path id="DejaVuSans-6d" d="M 3328 2828 
Q 3544 3216 3844 3400 
Q 4144 3584 4550 3584 
Q 5097 3584 5394 3201 
Q 5691 2819 5691 2113 
L 5691 0 
L 5113 0 
L 5113 2094 
Q 5113 2597 4934 2840 
Q 4756 3084 4391 3084 
Q 3944 3084 3684 2787 
Q 3425 2491 3425 1978 
L 3425 0 
L 2847 0 
L 2847 2094 
Q 2847 2600 2669 2842 
Q 2491 3084 2119 3084 
Q 1678 3084 1418 2786 
Q 1159 2488 1159 1978 
L 1159 0 
L 581 0 
L 581 3500 
L 1159 3500 
L 1159 2956 
Q 1356 3278 1631 3431 
Q 1906 3584 2284 3584 
Q 2666 3584 2933 3390 
Q 3200 3197 3328 2828 
z
" transform="scale(0.015625)"/>
      <path id="DejaVuSans-61" d="M 2194 1759 
Q 1497 1759 1228 1600 
Q 959 1441 959 1056 
Q 959 750 1161 570 
Q 1363 391 1709 391 
Q 2188 391 2477 730 
Q 2766 1069 2766 1631 
L 2766 1759 
L 2194 1759 
z
M 3341 1997 
L 3341 0 
L 2766 0 
L 2766 531 
Q 2569 213 2275 61 
Q 1981 -91 1556 -91 
Q 1019 -91 701 211 
Q 384 513 384 1019 
Q 384 1609 779 1909 
Q 1175 2209 1959 2209 
L 2766 2209 
L 2766 2266 
Q 2766 2663 2505 2880 
Q 2244 3097 1772 3097 
Q 1472 3097 1187 3025 
Q 903 2953 641 2809 
L 641 3341 
Q 956 3463 1253 3523 
Q 1550 3584 1831 3584 
Q 2591 3584 2966 3190 
Q 3341 2797 3341 1997 
z
" transform="scale(0.015625)"/>
      <path id="DejaVuSans-67" d="M 2906 1791 
Q 2906 2416 2648 2759 
Q 2391 3103 1925 3103 
Q 1463 3103 1205 2759 
Q 947 2416 947 1791 
Q 947 1169 1205 825 
Q 1463 481 1925 481 
Q 2391 481 2648 825 
Q 2906 1169 2906 1791 
z
M 3481 434 
Q 3481 -459 3084 -895 
Q 2688 -1331 1869 -1331 
Q 1566 -1331 1297 -1286 
Q 1028 -1241 775 -1147 
L 775 -588 
Q 1028 -725 1275 -790 
Q 1522 -856 1778 -856 
Q 2344 -856 2625 -561 
Q 2906 -266 2906 331 
L 2906 616 
Q 2728 306 2450 153 
Q 2172 0 1784 0 
Q 1141 0 747 490 
Q 353 981 353 1791 
Q 353 2603 747 3093 
Q 1141 3584 1784 3584 
Q 2172 3584 2450 3431 
Q 2728 3278 2906 2969 
L 2906 3500 
L 3481 3500 
L 3481 434 
z
" transform="scale(0.015625)"/>
     </defs>
     <use xlink:href="#DejaVuSans-57"/>
     <use xlink:href="#DejaVuSans-6d" x="98.876953"/>
     <use xlink:href="#DejaVuSans-61" x="196.289062"/>
     <use xlink:href="#DejaVuSans-67" x="257.568359"/>
    </g>
   </g>
   <g id="patch_10">
    <path d="M 315.059745 254.173832 
Q 277.878662 246.778054 240.697578 239.382277 
" style="fill: none; stroke: #000000; stroke-width: 2; stroke-linecap: round"/>
    <path d="M 311.526785 251.4319 
L 315.059745 254.173832 
L 310.746424 255.355041 
" style="fill: none; stroke: #000000; stroke-width: 2; stroke-linecap: round"/>
    <path d="M 244.230539 242.124209 
L 240.697578 239.382277 
L 245.0109 238.201068 
" style="fill: none; stroke: #000000; stroke-width: 2; stroke-linecap: round"/>
   </g>
   <g id="text_3">
    <g id="patch_11">
     <path d="M 277.877272 241.773403 
L 294.536647 241.773403 
Q 298.136647 241.773403 298.136647 238.173403 
L 298.136647 226.559653 
Q 298.136647 222.959653 294.536647 222.959653 
L 277.877272 222.959653 
Q 274.277272 222.959653 274.277272 226.559653 
L 274.277272 238.173403 
Q 274.277272 241.773403 277.877272 241.773403 
z
" style="fill: #ffffff; stroke: #000000; stroke-linejoin: miter"/>
    </g>
    <!-- H0 -->
    <g transform="translate(277.877272 235.677778) scale(0.12 -0.12)">
     <defs>
      <path id="DejaVuSans-48" d="M 628 4666 
L 1259 4666 
L 1259 2753 
L 3553 2753 
L 3553 4666 
L 4184 4666 
L 4184 0 
L 3553 0 
L 3553 2222 
L 1259 2222 
L 1259 0 
L 628 0 
L 628 4666 
z
" transform="scale(0.015625)"/>
     </defs>
     <use xlink:href="#DejaVuSans-48"/>
     <use xlink:href="#DejaVuSans-30" x="75.195312"/>
    </g>
   </g>
   <g id="patch_12">
    <path d="M 312.173859 62.267558 
Q 278.485471 67.264758 244.797083 72.261959 
" style="fill: none; stroke: #000000; stroke-width: 2; stroke-linecap: round"/>
    <path d="M 307.923692 60.876127 
L 312.173859 62.267558 
L 308.510614 64.832833 
" style="fill: none; stroke: #000000; stroke-width: 2; stroke-linecap: round"/>
    <path d="M 249.04725 73.65339 
L 244.797083 72.261959 
L 248.460328 69.696684 
" style="fill: none; stroke: #000000; stroke-width: 2; stroke-linecap: round"/>
   </g>
   <g id="text_4">
    <g id="patch_13">
     <path d="M 278.484179 51.160575 
L 314.169179 51.160575 
Q 317.769179 51.160575 317.769179 47.560575 
L 317.769179 35.946825 
Q 317.769179 32.346825 314.169179 32.346825 
L 278.484179 32.346825 
Q 274.884179 32.346825 274.884179 35.946825 
L 274.884179 47.560575 
Q 274.884179 51.160575 278.484179 51.160575 
z
" style="fill: #ffffff; stroke: #000000; stroke-linejoin: miter"/>
    </g>
    <!-- Hmag -->
    <g transform="translate(278.484179 45.06495) scale(0.12 -0.12)">
     <use xlink:href="#DejaVuSans-48"/>
     <use xlink:href="#DejaVuSans-6d" x="75.195312"/>
     <use xlink:href="#DejaVuSans-61" x="172.607422"/>
     <use xlink:href="#DejaVuSans-67" x="233.886719"/>
    </g>
   </g>
   <g id="patch_14">
    <path d="M 81.510055 144 
Q 203.708832 144 325.907609 144 
" style="fill: none; stroke: #000000; stroke-width: 2; stroke-linecap: round"/>
    <path d="M 85.510055 146 
L 81.510055 144 
L 85.510055 142 
" style="fill: none; stroke: #000000; stroke-width: 2; stroke-linecap: round"/>
    <path d="M 321.907609 142 
L 325.907609 144 
L 321.907609 146 
" style="fill: none; stroke: #000000; stroke-width: 2; stroke-linecap: round"/>
   </g>
   <g id="text_5">
    <g id="patch_15">
     <path d="M 102.558829 128.760613 
L 142.250704 128.760613 
Q 145.850704 128.760613 145.850704 125.160613 
L 145.850704 113.546863 
Q 145.850704 109.946863 142.250704 109.946863 
L 102.558829 109.946863 
Q 98.958829 109.946863 98.958829 113.546863 
L 98.958829 125.160613 
Q 98.958829 128.760613 102.558829 128.760613 
z
" style="fill: #ffffff; stroke: #000000; stroke-linejoin: miter"/>
    </g>
    <!-- Rtopm -->
    <g transform="translate(102.558829 122.664988) scale(0.12 -0.12)">
     <defs>
      <path id="DejaVuSans-52" d="M 2841 2188 
Q 3044 2119 3236 1894 
Q 3428 1669 3622 1275 
L 4263 0 
L 3584 0 
L 2988 1197 
Q 2756 1666 2539 1819 
Q 2322 1972 1947 1972 
L 1259 1972 
L 1259 0 
L 628 0 
L 628 4666 
L 2053 4666 
Q 2853 4666 3247 4331 
Q 3641 3997 3641 3322 
Q 3641 2881 3436 2590 
Q 3231 2300 2841 2188 
z
M 1259 4147 
L 1259 2491 
L 2053 2491 
Q 2509 2491 2742 2702 
Q 2975 2913 2975 3322 
Q 2975 3731 2742 3939 
Q 2509 4147 2053 4147 
L 1259 4147 
z
" transform="scale(0.015625)"/>
      <path id="DejaVuSans-74" d="M 1172 4494 
L 1172 3500 
L 2356 3500 
L 2356 3053 
L 1172 3053 
L 1172 1153 
Q 1172 725 1289 603 
Q 1406 481 1766 481 
L 2356 481 
L 2356 0 
L 1766 0 
Q 1100 0 847 248 
Q 594 497 594 1153 
L 594 3053 
L 172 3053 
L 172 3500 
L 594 3500 
L 594 4494 
L 1172 4494 
z
" transform="scale(0.015625)"/>
      <path id="DejaVuSans-6f" d="M 1959 3097 
Q 1497 3097 1228 2736 
Q 959 2375 959 1747 
Q 959 1119 1226 758 
Q 1494 397 1959 397 
Q 2419 397 2687 759 
Q 2956 1122 2956 1747 
Q 2956 2369 2687 2733 
Q 2419 3097 1959 3097 
z
M 1959 3584 
Q 2709 3584 3137 3096 
Q 3566 2609 3566 1747 
Q 3566 888 3137 398 
Q 2709 -91 1959 -91 
Q 1206 -91 779 398 
Q 353 888 353 1747 
Q 353 2609 779 3096 
Q 1206 3584 1959 3584 
z
" transform="scale(0.015625)"/>
      <path id="DejaVuSans-70" d="M 1159 525 
L 1159 -1331 
L 581 -1331 
L 581 3500 
L 1159 3500 
L 1159 2969 
Q 1341 3281 1617 3432 
Q 1894 3584 2278 3584 
Q 2916 3584 3314 3078 
Q 3713 2572 3713 1747 
Q 3713 922 3314 415 
Q 2916 -91 2278 -91 
Q 1894 -91 1617 61 
Q 1341 213 1159 525 
z
M 3116 1747 
Q 3116 2381 2855 2742 
Q 2594 3103 2138 3103 
Q 1681 3103 1420 2742 
Q 1159 2381 1159 1747 
Q 1159 1113 1420 752 
Q 1681 391 2138 391 
Q 2594 391 2855 752 
Q 3116 1113 3116 1747 
z
" transform="scale(0.015625)"/>
     </defs>
     <use xlink:href="#DejaVuSans-52"/>
     <use xlink:href="#DejaVuSans-74" x="69.482422"/>
     <use xlink:href="#DejaVuSans-6f" x="108.691406"/>
     <use xlink:href="#DejaVuSans-70" x="169.873047"/>
     <use xlink:href="#DejaVuSans-6d" x="233.349609"/>
    </g>
   </g>
  </g>
 </g>
 <defs>
  <clipPath id="p0a9e9f7c04">
   <rect x="10.8" y="10.8" width="554.4" height="266.4"/>
  </clipPath>
 </defs>
</svg>
