<?xml version="1.0" encoding="utf-8" standalone="no"?>
<!DOCTYPE svg PUBLIC "-//W3C//DTD SVG 1.1//EN"
  "http://www.w3.org/Graphics/SVG/1.1/DTD/svg11.dtd">
<svg xmlns:xlink="http://www.w3.org/1999/xlink" width="460.8pt" height="345.6pt" viewBox="0 0 460.8 345.6" xmlns="http://www.w3.org/2000/svg" version="1.1">
 <metadata>
  <rdf:RDF xmlns:dc="http://purl.org/dc/elements/1.1/" xmlns:cc="http://creativecommons.org/ns#" xmlns:rdf="http://www.w3.org/1999/02/22-rdf-syntax-ns#">
   <cc:Work>
    <dc:type rdf:resource="http://purl.org/dc/dcmitype/StillImage"/>
    <dc:date>2023-09-20T13:30:53.415145</dc:date>
    <dc:format>image/svg+xml</dc:format>
    <dc:creator>
     <cc:Agent>
      <dc:title>Matplotlib v3.7.1, https://matplotlib.org/</dc:title>
     </cc:Agent>
    </dc:creator>
   </cc:Work>
  </rdf:RDF>
 </metadata>
 <defs>
  <style type="text/css">*{stroke-linejoin: round; stroke-linecap: butt}</style>
 </defs>
 <g id="figure_1">
  <g id="patch_1">
   <path d="M 0 345.6 
L 460.8 345.6 
L 460.8 0 
L 0 0 
z
" style="fill: #ffffff"/>
  </g>
  <g id="axes_1">
   <g id="patch_2">
    <path d="M 68.485938 304.44375 
L 450 304.44375 
L 450 25.918125 
L 68.485938 25.918125 
z
" style="fill: #ffffff"/>
   </g>
   <g id="patch_3">
    <path d="M 85.827486 217.139178 
L 93.931013 217.139178 
L 102.03454 217.139178 
L 102.03454 217.139178 
L 105.275951 248.891436 
L 108.517362 280.643695 
L 108.517362 280.643695 
L 238.186387 287.715356 
L 367.855412 294.787018 
L 367.855412 294.787018 
L 368.873294 294.779023 
L 369.890924 294.755041 
L 370.908053 294.715078 
L 371.924428 294.659144 
L 372.9398 294.587252 
L 373.953916 294.499419 
L 374.966529 294.395669 
L 375.977386 294.276026 
L 376.98624 294.14052 
L 377.992841 293.989185 
L 378.99694 293.822057 
L 379.99829 293.639178 
L 380.996645 293.440593 
L 381.991757 293.226351 
L 382.983381 292.996505 
L 383.971272 292.751111 
L 384.955187 292.490231 
L 385.934883 292.213928 
L 386.910119 291.922271 
L 387.880652 291.615331 
L 388.846245 291.293185 
L 389.806659 290.955912 
L 390.761656 290.603595 
L 391.711002 290.23632 
L 392.654461 289.85418 
L 393.591802 289.457267 
L 394.522793 289.045681 
L 395.447204 288.619521 
L 396.364807 288.178895 
L 397.275376 287.723909 
L 398.178686 287.254677 
L 399.074514 286.771315 
L 399.96264 286.27394 
L 400.842843 285.762678 
L 401.714907 285.237652 
L 402.578617 284.698994 
L 403.433759 284.146836 
L 404.280123 283.581313 
L 405.1175 283.002567 
L 405.945683 282.410738 
L 406.764468 281.805975 
L 407.573652 281.188425 
L 408.373037 280.558241 
L 409.162424 279.915578 
L 409.94162 279.260596 
L 410.710431 278.593455 
L 411.468669 277.914321 
L 412.216145 277.223361 
L 412.952676 276.520745 
L 413.678081 275.806647 
L 414.392179 275.081242 
L 415.094795 274.344711 
L 415.785755 273.597234 
L 416.464889 272.838997 
L 417.13203 272.070185 
L 417.787012 271.29099 
L 418.429675 270.501603 
L 419.059859 269.702218 
L 419.677409 268.893034 
L 420.282172 268.074249 
L 420.874001 267.246066 
L 421.452747 266.408689 
L 422.01827 265.562325 
L 422.570428 264.707183 
L 423.109086 263.843473 
L 423.634112 262.971409 
L 424.145374 262.091206 
L 424.642749 261.20308 
L 425.126111 260.307252 
L 425.595343 259.403942 
L 426.050329 258.493373 
L 426.490955 257.57577 
L 426.917115 256.651359 
L 427.328701 255.720368 
L 427.725614 254.783027 
L 428.107755 253.839568 
L 428.475029 252.890222 
L 428.827346 251.935225 
L 429.164619 250.974811 
L 429.486765 250.009218 
L 429.793705 249.038685 
L 430.085362 248.063449 
L 430.361665 247.083753 
L 430.622545 246.099838 
L 430.867939 245.111947 
L 431.097785 244.120323 
L 431.312027 243.125211 
L 431.510612 242.126856 
L 431.693491 241.125506 
L 431.860619 240.121406 
L 432.011954 239.114806 
L 432.14746 238.105952 
L 432.267103 237.095095 
L 432.370854 236.082482 
L 432.458686 235.068366 
L 432.530578 234.052994 
L 432.586512 233.036619 
L 432.626475 232.01949 
L 432.650457 231.001859 
L 432.658452 229.983978 
L 432.658452 229.983978 
L 432.658452 165.180938 
L 432.658452 100.377897 
L 432.658452 100.377897 
L 432.650457 99.360016 
L 432.626475 98.342385 
L 432.586512 97.325256 
L 432.530578 96.308881 
L 432.458686 95.293509 
L 432.370854 94.279393 
L 432.267103 93.26678 
L 432.14746 92.255923 
L 432.011954 91.247069 
L 431.860619 90.240469 
L 431.693491 89.236369 
L 431.510612 88.235019 
L 431.312027 87.236664 
L 431.097785 86.241552 
L 430.867939 85.249928 
L 430.622545 84.262037 
L 430.361665 83.278122 
L 430.085362 82.298426 
L 429.793705 81.32319 
L 429.486765 80.352657 
L 429.164619 79.387064 
L 428.827346 78.42665 
L 428.475029 77.471653 
L 428.107755 76.522307 
L 427.725614 75.578848 
L 427.328701 74.641507 
L 426.917115 73.710516 
L 426.490955 72.786105 
L 426.050329 71.868502 
L 425.595343 70.957933 
L 425.126111 70.054623 
L 424.642749 69.158795 
L 424.145374 68.270669 
L 423.634112 67.390466 
L 423.109086 66.518402 
L 422.570428 65.654692 
L 422.01827 64.79955 
L 421.452747 63.953186 
L 420.874001 63.115809 
L 420.282172 62.287626 
L 419.677409 61.468841 
L 419.059859 60.659657 
L 418.429675 59.860272 
L 417.787012 59.070885 
L 417.13203 58.29169 
L 416.464889 57.522878 
L 415.785755 56.764641 
L 415.094795 56.017164 
L 414.392179 55.280633 
L 413.678081 54.555228 
L 412.952676 53.84113 
L 412.216145 53.138514 
L 411.468669 52.447554 
L 410.710431 51.76842 
L 409.94162 51.101279 
L 409.162424 50.446297 
L 408.373037 49.803634 
L 407.573652 49.17345 
L 406.764468 48.5559 
L 405.945683 47.951137 
L 405.1175 47.359308 
L 404.280123 46.780562 
L 403.433759 46.215039 
L 402.578617 45.662881 
L 401.714907 45.124223 
L 400.842843 44.599197 
L 399.96264 44.087935 
L 399.074514 43.59056 
L 398.178686 43.107198 
L 397.275376 42.637966 
L 396.364807 42.18298 
L 395.447204 41.742354 
L 394.522793 41.316194 
L 393.591802 40.904608 
L 392.654461 40.507695 
L 391.711002 40.125555 
L 390.761656 39.75828 
L 389.806659 39.405963 
L 388.846245 39.06869 
L 387.880652 38.746544 
L 386.910119 38.439604 
L 385.934883 38.147947 
L 384.955187 37.871644 
L 383.971272 37.610764 
L 382.983381 37.36537 
L 381.991757 37.135524 
L 380.996645 36.921282 
L 379.99829 36.722697 
L 378.99694 36.539818 
L 377.992841 36.37269 
L 376.98624 36.221355 
L 375.977386 36.085849 
L 374.966529 35.966206 
L 373.953916 35.862456 
L 372.9398 35.774623 
L 371.924428 35.702731 
L 370.908053 35.646797 
L 369.890924 35.606834 
L 368.873294 35.582852 
L 367.855412 35.574857 
L 367.855412 35.574857 
L 238.186387 42.646519 
L 108.517362 49.71818 
L 108.517362 49.71818 
L 105.275951 81.470439 
L 102.03454 113.222697 
L 102.03454 113.222697 
L 93.931013 113.222697 
L 85.827486 113.222697 
L 85.827486 113.222697 
L 85.847812 114.26173 
L 85.867727 115.300772 
L 85.887231 116.339821 
L 85.906325 117.378878 
L 85.925009 118.417943 
L 85.943282 119.457015 
L 85.961144 120.496094 
L 85.978596 121.535179 
L 85.995637 122.574272 
L 86.012267 123.613371 
L 86.028487 124.652477 
L 86.044296 125.691589 
L 86.059695 126.730708 
L 86.074683 127.769832 
L 86.089261 128.808962 
L 86.103428 129.848098 
L 86.117184 130.887239 
L 86.13053 131.926386 
L 86.143465 132.965538 
L 86.155989 134.004695 
L 86.168103 135.043857 
L 86.179806 136.083023 
L 86.191099 137.122194 
L 86.201981 138.16137 
L 86.212452 139.20055 
L 86.222513 140.239733 
L 86.232163 141.278921 
L 86.241402 142.318112 
L 86.250231 143.357307 
L 86.258649 144.396505 
L 86.266657 145.435707 
L 86.274254 146.474912 
L 86.28144 147.514119 
L 86.288215 148.55333 
L 86.29458 149.592542 
L 86.300535 150.631758 
L 86.306079 151.670975 
L 86.311212 152.710195 
L 86.315934 153.749417 
L 86.320246 154.78864 
L 86.324147 155.827865 
L 86.327637 156.867092 
L 86.330717 157.90632 
L 86.333386 158.945549 
L 86.335645 159.984779 
L 86.337493 161.02401 
L 86.33893 162.063241 
L 86.339957 163.102473 
L 86.340573 164.141705 
L 86.340778 165.180938 
L 86.340573 166.22017 
L 86.339957 167.259402 
L 86.33893 168.298634 
L 86.337493 169.337865 
L 86.335645 170.377096 
L 86.333386 171.416326 
L 86.330717 172.455555 
L 86.327637 173.494783 
L 86.324147 174.53401 
L 86.320246 175.573235 
L 86.315934 176.612458 
L 86.311212 177.65168 
L 86.306079 178.6909 
L 86.300535 179.730117 
L 86.29458 180.769333 
L 86.288215 181.808545 
L 86.28144 182.847756 
L 86.274254 183.886963 
L 86.266657 184.926168 
L 86.258649 185.96537 
L 86.250231 187.004568 
L 86.241402 188.043763 
L 86.232163 189.082954 
L 86.222513 190.122142 
L 86.212452 191.161325 
L 86.201981 192.200505 
L 86.191099 193.239681 
L 86.179806 194.278852 
L 86.168103 195.318018 
L 86.155989 196.35718 
L 86.143465 197.396337 
L 86.13053 198.435489 
L 86.117184 199.474636 
L 86.103428 200.513777 
L 86.089261 201.552913 
L 86.074683 202.592043 
L 86.059695 203.631167 
L 86.044296 204.670286 
L 86.028487 205.709398 
L 86.012267 206.748504 
L 85.995637 207.787603 
L 85.978596 208.826696 
L 85.961144 209.865781 
L 85.943282 210.90486 
L 85.925009 211.943932 
L 85.906325 212.982997 
L 85.887231 214.022054 
L 85.867727 215.061103 
L 85.847812 216.100145 
L 85.827486 217.139178 
z
" clip-path="url(#p70bd3991a4)" style="fill: #0000ff; stroke: #000000; stroke-linejoin: miter"/>
   </g>
   <g id="matplotlib.axis_1">
    <g id="xtick_1">
     <g id="line2d_1">
      <defs>
       <path id="mf91b0d556c" d="M 0 0 
L 0 3.5 
" style="stroke: #000000; stroke-width: 0.8"/>
      </defs>
      <g>
       <use xlink:href="#mf91b0d556c" x="75.778511" y="304.44375" style="stroke: #000000; stroke-width: 0.8"/>
      </g>
     </g>
     <g id="text_1">
      <!-- 0.062 -->
      <g transform="translate(61.464449 319.042187) scale(0.1 -0.1)">
       <defs>
        <path id="DejaVuSans-30" d="M 2034 4250 
Q 1547 4250 1301 3770 
Q 1056 3291 1056 2328 
Q 1056 1369 1301 889 
Q 1547 409 2034 409 
Q 2525 409 2770 889 
Q 3016 1369 3016 2328 
Q 3016 3291 2770 3770 
Q 2525 4250 2034 4250 
z
M 2034 4750 
Q 2819 4750 3233 4129 
Q 3647 3509 3647 2328 
Q 3647 1150 3233 529 
Q 2819 -91 2034 -91 
Q 1250 -91 836 529 
Q 422 1150 422 2328 
Q 422 3509 836 4129 
Q 1250 4750 2034 4750 
z
" transform="scale(0.015625)"/>
        <path id="DejaVuSans-2e" d="M 684 794 
L 1344 794 
L 1344 0 
L 684 0 
L 684 794 
z
" transform="scale(0.015625)"/>
        <path id="DejaVuSans-36" d="M 2113 2584 
Q 1688 2584 1439 2293 
Q 1191 2003 1191 1497 
Q 1191 994 1439 701 
Q 1688 409 2113 409 
Q 2538 409 2786 701 
Q 3034 994 3034 1497 
Q 3034 2003 2786 2293 
Q 2538 2584 2113 2584 
z
M 3366 4563 
L 3366 3988 
Q 3128 4100 2886 4159 
Q 2644 4219 2406 4219 
Q 1781 4219 1451 3797 
Q 1122 3375 1075 2522 
Q 1259 2794 1537 2939 
Q 1816 3084 2150 3084 
Q 2853 3084 3261 2657 
Q 3669 2231 3669 1497 
Q 3669 778 3244 343 
Q 2819 -91 2113 -91 
Q 1303 -91 875 529 
Q 447 1150 447 2328 
Q 447 3434 972 4092 
Q 1497 4750 2381 4750 
Q 2619 4750 2861 4703 
Q 3103 4656 3366 4563 
z
" transform="scale(0.015625)"/>
        <path id="DejaVuSans-32" d="M 1228 531 
L 3431 531 
L 3431 0 
L 469 0 
L 469 531 
Q 828 903 1448 1529 
Q 2069 2156 2228 2338 
Q 2531 2678 2651 2914 
Q 2772 3150 2772 3378 
Q 2772 3750 2511 3984 
Q 2250 4219 1831 4219 
Q 1534 4219 1204 4116 
Q 875 4013 500 3803 
L 500 4441 
Q 881 4594 1212 4672 
Q 1544 4750 1819 4750 
Q 2544 4750 2975 4387 
Q 3406 4025 3406 3419 
Q 3406 3131 3298 2873 
Q 3191 2616 2906 2266 
Q 2828 2175 2409 1742 
Q 1991 1309 1228 531 
z
" transform="scale(0.015625)"/>
       </defs>
       <use xlink:href="#DejaVuSans-30"/>
       <use xlink:href="#DejaVuSans-2e" x="63.623047"/>
       <use xlink:href="#DejaVuSans-30" x="95.410156"/>
       <use xlink:href="#DejaVuSans-36" x="159.033203"/>
       <use xlink:href="#DejaVuSans-32" x="222.65625"/>
      </g>
     </g>
    </g>
    <g id="xtick_2">
     <g id="line2d_2">
      <g>
       <use xlink:href="#mf91b0d556c" x="160.276645" y="304.44375" style="stroke: #000000; stroke-width: 0.8"/>
      </g>
     </g>
     <g id="text_2">
      <!-- 0.064 -->
      <g transform="translate(145.962583 319.042187) scale(0.1 -0.1)">
       <defs>
        <path id="DejaVuSans-34" d="M 2419 4116 
L 825 1625 
L 2419 1625 
L 2419 4116 
z
M 2253 4666 
L 3047 4666 
L 3047 1625 
L 3713 1625 
L 3713 1100 
L 3047 1100 
L 3047 0 
L 2419 0 
L 2419 1100 
L 313 1100 
L 313 1709 
L 2253 4666 
z
" transform="scale(0.015625)"/>
       </defs>
       <use xlink:href="#DejaVuSans-30"/>
       <use xlink:href="#DejaVuSans-2e" x="63.623047"/>
       <use xlink:href="#DejaVuSans-30" x="95.410156"/>
       <use xlink:href="#DejaVuSans-36" x="159.033203"/>
       <use xlink:href="#DejaVuSans-34" x="222.65625"/>
      </g>
     </g>
    </g>
    <g id="xtick_3">
     <g id="line2d_3">
      <g>
       <use xlink:href="#mf91b0d556c" x="244.774779" y="304.44375" style="stroke: #000000; stroke-width: 0.8"/>
      </g>
     </g>
     <g id="text_3">
      <!-- 0.066 -->
      <g transform="translate(230.460716 319.042187) scale(0.1 -0.1)">
       <use xlink:href="#DejaVuSans-30"/>
       <use xlink:href="#DejaVuSans-2e" x="63.623047"/>
       <use xlink:href="#DejaVuSans-30" x="95.410156"/>
       <use xlink:href="#DejaVuSans-36" x="159.033203"/>
       <use xlink:href="#DejaVuSans-36" x="222.65625"/>
      </g>
     </g>
    </g>
    <g id="xtick_4">
     <g id="line2d_4">
      <g>
       <use xlink:href="#mf91b0d556c" x="329.272913" y="304.44375" style="stroke: #000000; stroke-width: 0.8"/>
      </g>
     </g>
     <g id="text_4">
      <!-- 0.068 -->
      <g transform="translate(314.95885 319.042187) scale(0.1 -0.1)">
       <defs>
        <path id="DejaVuSans-38" d="M 2034 2216 
Q 1584 2216 1326 1975 
Q 1069 1734 1069 1313 
Q 1069 891 1326 650 
Q 1584 409 2034 409 
Q 2484 409 2743 651 
Q 3003 894 3003 1313 
Q 3003 1734 2745 1975 
Q 2488 2216 2034 2216 
z
M 1403 2484 
Q 997 2584 770 2862 
Q 544 3141 544 3541 
Q 544 4100 942 4425 
Q 1341 4750 2034 4750 
Q 2731 4750 3128 4425 
Q 3525 4100 3525 3541 
Q 3525 3141 3298 2862 
Q 3072 2584 2669 2484 
Q 3125 2378 3379 2068 
Q 3634 1759 3634 1313 
Q 3634 634 3220 271 
Q 2806 -91 2034 -91 
Q 1263 -91 848 271 
Q 434 634 434 1313 
Q 434 1759 690 2068 
Q 947 2378 1403 2484 
z
M 1172 3481 
Q 1172 3119 1398 2916 
Q 1625 2713 2034 2713 
Q 2441 2713 2670 2916 
Q 2900 3119 2900 3481 
Q 2900 3844 2670 4047 
Q 2441 4250 2034 4250 
Q 1625 4250 1398 4047 
Q 1172 3844 1172 3481 
z
" transform="scale(0.015625)"/>
       </defs>
       <use xlink:href="#DejaVuSans-30"/>
       <use xlink:href="#DejaVuSans-2e" x="63.623047"/>
       <use xlink:href="#DejaVuSans-30" x="95.410156"/>
       <use xlink:href="#DejaVuSans-36" x="159.033203"/>
       <use xlink:href="#DejaVuSans-38" x="222.65625"/>
      </g>
     </g>
    </g>
    <g id="xtick_5">
     <g id="line2d_5">
      <g>
       <use xlink:href="#mf91b0d556c" x="413.771046" y="304.44375" style="stroke: #000000; stroke-width: 0.8"/>
      </g>
     </g>
     <g id="text_5">
      <!-- 0.070 -->
      <g transform="translate(399.456984 319.042187) scale(0.1 -0.1)">
       <defs>
        <path id="DejaVuSans-37" d="M 525 4666 
L 3525 4666 
L 3525 4397 
L 1831 0 
L 1172 0 
L 2766 4134 
L 525 4134 
L 525 4666 
z
" transform="scale(0.015625)"/>
       </defs>
       <use xlink:href="#DejaVuSans-30"/>
       <use xlink:href="#DejaVuSans-2e" x="63.623047"/>
       <use xlink:href="#DejaVuSans-30" x="95.410156"/>
       <use xlink:href="#DejaVuSans-37" x="159.033203"/>
       <use xlink:href="#DejaVuSans-30" x="222.65625"/>
      </g>
     </g>
    </g>
    <g id="text_6">
     <!-- [m] -->
     <g transform="translate(250.471094 332.720312) scale(0.1 -0.1)">
      <defs>
       <path id="DejaVuSans-5b" d="M 550 4863 
L 1875 4863 
L 1875 4416 
L 1125 4416 
L 1125 -397 
L 1875 -397 
L 1875 -844 
L 550 -844 
L 550 4863 
z
" transform="scale(0.015625)"/>
       <path id="DejaVuSans-6d" d="M 3328 2828 
Q 3544 3216 3844 3400 
Q 4144 3584 4550 3584 
Q 5097 3584 5394 3201 
Q 5691 2819 5691 2113 
L 5691 0 
L 5113 0 
L 5113 2094 
Q 5113 2597 4934 2840 
Q 4756 3084 4391 3084 
Q 3944 3084 3684 2787 
Q 3425 2491 3425 1978 
L 3425 0 
L 2847 0 
L 2847 2094 
Q 2847 2600 2669 2842 
Q 2491 3084 2119 3084 
Q 1678 3084 1418 2786 
Q 1159 2488 1159 1978 
L 1159 0 
L 581 0 
L 581 3500 
L 1159 3500 
L 1159 2956 
Q 1356 3278 1631 3431 
Q 1906 3584 2284 3584 
Q 2666 3584 2933 3390 
Q 3200 3197 3328 2828 
z
" transform="scale(0.015625)"/>
       <path id="DejaVuSans-5d" d="M 1947 4863 
L 1947 -844 
L 622 -844 
L 622 -397 
L 1369 -397 
L 1369 4416 
L 622 4416 
L 622 4863 
L 1947 4863 
z
" transform="scale(0.015625)"/>
      </defs>
      <use xlink:href="#DejaVuSans-5b"/>
      <use xlink:href="#DejaVuSans-6d" x="39.013672"/>
      <use xlink:href="#DejaVuSans-5d" x="136.425781"/>
     </g>
    </g>
   </g>
   <g id="matplotlib.axis_2">
    <g id="ytick_1">
     <g id="line2d_6">
      <defs>
       <path id="md7ae19ac80" d="M 0 0 
L -3.5 0 
" style="stroke: #000000; stroke-width: 0.8"/>
      </defs>
      <g>
       <use xlink:href="#md7ae19ac80" x="68.485938" y="291.928138" style="stroke: #000000; stroke-width: 0.8"/>
      </g>
     </g>
     <g id="text_7">
      <!-- −0.003 -->
      <g transform="translate(24.478125 295.727357) scale(0.1 -0.1)">
       <defs>
        <path id="DejaVuSans-2212" d="M 678 2272 
L 4684 2272 
L 4684 1741 
L 678 1741 
L 678 2272 
z
" transform="scale(0.015625)"/>
        <path id="DejaVuSans-33" d="M 2597 2516 
Q 3050 2419 3304 2112 
Q 3559 1806 3559 1356 
Q 3559 666 3084 287 
Q 2609 -91 1734 -91 
Q 1441 -91 1130 -33 
Q 819 25 488 141 
L 488 750 
Q 750 597 1062 519 
Q 1375 441 1716 441 
Q 2309 441 2620 675 
Q 2931 909 2931 1356 
Q 2931 1769 2642 2001 
Q 2353 2234 1838 2234 
L 1294 2234 
L 1294 2753 
L 1863 2753 
Q 2328 2753 2575 2939 
Q 2822 3125 2822 3475 
Q 2822 3834 2567 4026 
Q 2313 4219 1838 4219 
Q 1578 4219 1281 4162 
Q 984 4106 628 3988 
L 628 4550 
Q 988 4650 1302 4700 
Q 1616 4750 1894 4750 
Q 2613 4750 3031 4423 
Q 3450 4097 3450 3541 
Q 3450 3153 3228 2886 
Q 3006 2619 2597 2516 
z
" transform="scale(0.015625)"/>
       </defs>
       <use xlink:href="#DejaVuSans-2212"/>
       <use xlink:href="#DejaVuSans-30" x="83.789062"/>
       <use xlink:href="#DejaVuSans-2e" x="147.412109"/>
       <use xlink:href="#DejaVuSans-30" x="179.199219"/>
       <use xlink:href="#DejaVuSans-30" x="242.822266"/>
       <use xlink:href="#DejaVuSans-33" x="306.445312"/>
      </g>
     </g>
    </g>
    <g id="ytick_2">
     <g id="line2d_7">
      <g>
       <use xlink:href="#md7ae19ac80" x="68.485938" y="249.679071" style="stroke: #000000; stroke-width: 0.8"/>
      </g>
     </g>
     <g id="text_8">
      <!-- −0.002 -->
      <g transform="translate(24.478125 253.47829) scale(0.1 -0.1)">
       <use xlink:href="#DejaVuSans-2212"/>
       <use xlink:href="#DejaVuSans-30" x="83.789062"/>
       <use xlink:href="#DejaVuSans-2e" x="147.412109"/>
       <use xlink:href="#DejaVuSans-30" x="179.199219"/>
       <use xlink:href="#DejaVuSans-30" x="242.822266"/>
       <use xlink:href="#DejaVuSans-32" x="306.445312"/>
      </g>
     </g>
    </g>
    <g id="ytick_3">
     <g id="line2d_8">
      <g>
       <use xlink:href="#md7ae19ac80" x="68.485938" y="207.430004" style="stroke: #000000; stroke-width: 0.8"/>
      </g>
     </g>
     <g id="text_9">
      <!-- −0.001 -->
      <g transform="translate(24.478125 211.229223) scale(0.1 -0.1)">
       <defs>
        <path id="DejaVuSans-31" d="M 794 531 
L 1825 531 
L 1825 4091 
L 703 3866 
L 703 4441 
L 1819 4666 
L 2450 4666 
L 2450 531 
L 3481 531 
L 3481 0 
L 794 0 
L 794 531 
z
" transform="scale(0.015625)"/>
       </defs>
       <use xlink:href="#DejaVuSans-2212"/>
       <use xlink:href="#DejaVuSans-30" x="83.789062"/>
       <use xlink:href="#DejaVuSans-2e" x="147.412109"/>
       <use xlink:href="#DejaVuSans-30" x="179.199219"/>
       <use xlink:href="#DejaVuSans-30" x="242.822266"/>
       <use xlink:href="#DejaVuSans-31" x="306.445312"/>
      </g>
     </g>
    </g>
    <g id="ytick_4">
     <g id="line2d_9">
      <g>
       <use xlink:href="#md7ae19ac80" x="68.485938" y="165.180938" style="stroke: #000000; stroke-width: 0.8"/>
      </g>
     </g>
     <g id="text_10">
      <!-- 0.000 -->
      <g transform="translate(32.857813 168.980156) scale(0.1 -0.1)">
       <use xlink:href="#DejaVuSans-30"/>
       <use xlink:href="#DejaVuSans-2e" x="63.623047"/>
       <use xlink:href="#DejaVuSans-30" x="95.410156"/>
       <use xlink:href="#DejaVuSans-30" x="159.033203"/>
       <use xlink:href="#DejaVuSans-30" x="222.65625"/>
      </g>
     </g>
    </g>
    <g id="ytick_5">
     <g id="line2d_10">
      <g>
       <use xlink:href="#md7ae19ac80" x="68.485938" y="122.931871" style="stroke: #000000; stroke-width: 0.8"/>
      </g>
     </g>
     <g id="text_11">
      <!-- 0.001 -->
      <g transform="translate(32.857813 126.731089) scale(0.1 -0.1)">
       <use xlink:href="#DejaVuSans-30"/>
       <use xlink:href="#DejaVuSans-2e" x="63.623047"/>
       <use xlink:href="#DejaVuSans-30" x="95.410156"/>
       <use xlink:href="#DejaVuSans-30" x="159.033203"/>
       <use xlink:href="#DejaVuSans-31" x="222.65625"/>
      </g>
     </g>
    </g>
    <g id="ytick_6">
     <g id="line2d_11">
      <g>
       <use xlink:href="#md7ae19ac80" x="68.485938" y="80.682804" style="stroke: #000000; stroke-width: 0.8"/>
      </g>
     </g>
     <g id="text_12">
      <!-- 0.002 -->
      <g transform="translate(32.857813 84.482022) scale(0.1 -0.1)">
       <use xlink:href="#DejaVuSans-30"/>
       <use xlink:href="#DejaVuSans-2e" x="63.623047"/>
       <use xlink:href="#DejaVuSans-30" x="95.410156"/>
       <use xlink:href="#DejaVuSans-30" x="159.033203"/>
       <use xlink:href="#DejaVuSans-32" x="222.65625"/>
      </g>
     </g>
    </g>
    <g id="ytick_7">
     <g id="line2d_12">
      <g>
       <use xlink:href="#md7ae19ac80" x="68.485938" y="38.433737" style="stroke: #000000; stroke-width: 0.8"/>
      </g>
     </g>
     <g id="text_13">
      <!-- 0.003 -->
      <g transform="translate(32.857813 42.232956) scale(0.1 -0.1)">
       <use xlink:href="#DejaVuSans-30"/>
       <use xlink:href="#DejaVuSans-2e" x="63.623047"/>
       <use xlink:href="#DejaVuSans-30" x="95.410156"/>
       <use xlink:href="#DejaVuSans-30" x="159.033203"/>
       <use xlink:href="#DejaVuSans-33" x="222.65625"/>
      </g>
     </g>
    </g>
    <g id="text_14">
     <!-- [m] -->
     <g transform="translate(18.398438 173.952812) rotate(-90) scale(0.1 -0.1)">
      <use xlink:href="#DejaVuSans-5b"/>
      <use xlink:href="#DejaVuSans-6d" x="39.013672"/>
      <use xlink:href="#DejaVuSans-5d" x="136.425781"/>
     </g>
    </g>
   </g>
   <g id="patch_4">
    <path d="M 68.485938 304.44375 
L 68.485938 25.918125 
" style="fill: none; stroke: #000000; stroke-width: 0.8; stroke-linejoin: miter; stroke-linecap: square"/>
   </g>
   <g id="patch_5">
    <path d="M 450 304.44375 
L 450 25.918125 
" style="fill: none; stroke: #000000; stroke-width: 0.8; stroke-linejoin: miter; stroke-linecap: square"/>
   </g>
   <g id="patch_6">
    <path d="M 68.485938 304.44375 
L 450 304.44375 
" style="fill: none; stroke: #000000; stroke-width: 0.8; stroke-linejoin: miter; stroke-linecap: square"/>
   </g>
   <g id="patch_7">
    <path d="M 68.485938 25.918125 
L 450 25.918125 
" style="fill: none; stroke: #000000; stroke-width: 0.8; stroke-linejoin: miter; stroke-linecap: square"/>
   </g>
   <g id="text_15">
    <!-- Slot -->
    <g transform="translate(247.743594 19.918125) scale(0.12 -0.12)">
     <defs>
      <path id="DejaVuSans-53" d="M 3425 4513 
L 3425 3897 
Q 3066 4069 2747 4153 
Q 2428 4238 2131 4238 
Q 1616 4238 1336 4038 
Q 1056 3838 1056 3469 
Q 1056 3159 1242 3001 
Q 1428 2844 1947 2747 
L 2328 2669 
Q 3034 2534 3370 2195 
Q 3706 1856 3706 1288 
Q 3706 609 3251 259 
Q 2797 -91 1919 -91 
Q 1588 -91 1214 -16 
Q 841 59 441 206 
L 441 856 
Q 825 641 1194 531 
Q 1563 422 1919 422 
Q 2459 422 2753 634 
Q 3047 847 3047 1241 
Q 3047 1584 2836 1778 
Q 2625 1972 2144 2069 
L 1759 2144 
Q 1053 2284 737 2584 
Q 422 2884 422 3419 
Q 422 4038 858 4394 
Q 1294 4750 2059 4750 
Q 2388 4750 2728 4690 
Q 3069 4631 3425 4513 
z
" transform="scale(0.015625)"/>
      <path id="DejaVuSans-6c" d="M 603 4863 
L 1178 4863 
L 1178 0 
L 603 0 
L 603 4863 
z
" transform="scale(0.015625)"/>
      <path id="DejaVuSans-6f" d="M 1959 3097 
Q 1497 3097 1228 2736 
Q 959 2375 959 1747 
Q 959 1119 1226 758 
Q 1494 397 1959 397 
Q 2419 397 2687 759 
Q 2956 1122 2956 1747 
Q 2956 2369 2687 2733 
Q 2419 3097 1959 3097 
z
M 1959 3584 
Q 2709 3584 3137 3096 
Q 3566 2609 3566 1747 
Q 3566 888 3137 398 
Q 2709 -91 1959 -91 
Q 1206 -91 779 398 
Q 353 888 353 1747 
Q 353 2609 779 3096 
Q 1206 3584 1959 3584 
z
" transform="scale(0.015625)"/>
      <path id="DejaVuSans-74" d="M 1172 4494 
L 1172 3500 
L 2356 3500 
L 2356 3053 
L 1172 3053 
L 1172 1153 
Q 1172 725 1289 603 
Q 1406 481 1766 481 
L 2356 481 
L 2356 0 
L 1766 0 
Q 1100 0 847 248 
Q 594 497 594 1153 
L 594 3053 
L 172 3053 
L 172 3500 
L 594 3500 
L 594 4494 
L 1172 4494 
z
" transform="scale(0.015625)"/>
     </defs>
     <use xlink:href="#DejaVuSans-53"/>
     <use xlink:href="#DejaVuSans-6c" x="63.476562"/>
     <use xlink:href="#DejaVuSans-6f" x="91.259766"/>
     <use xlink:href="#DejaVuSans-74" x="152.441406"/>
    </g>
   </g>
  </g>
 </g>
 <defs>
  <clipPath id="p70bd3991a4">
   <rect x="68.485938" y="25.918125" width="381.514062" height="278.525625"/>
  </clipPath>
 </defs>
</svg>
