<?xml version="1.0" encoding="utf-8" standalone="no"?>
<!DOCTYPE svg PUBLIC "-//W3C//DTD SVG 1.1//EN"
  "http://www.w3.org/Graphics/SVG/1.1/DTD/svg11.dtd">
<svg xmlns:xlink="http://www.w3.org/1999/xlink" width="432pt" height="288pt" viewBox="0 0 432 288" xmlns="http://www.w3.org/2000/svg" version="1.1">
 <metadata>
  <rdf:RDF xmlns:dc="http://purl.org/dc/elements/1.1/" xmlns:cc="http://creativecommons.org/ns#" xmlns:rdf="http://www.w3.org/1999/02/22-rdf-syntax-ns#">
   <cc:Work>
    <dc:type rdf:resource="http://purl.org/dc/dcmitype/StillImage"/>
    <dc:date>2023-09-20T13:30:49.815707</dc:date>
    <dc:format>image/svg+xml</dc:format>
    <dc:creator>
     <cc:Agent>
      <dc:title>Matplotlib v3.7.1, https://matplotlib.org/</dc:title>
     </cc:Agent>
    </dc:creator>
   </cc:Work>
  </rdf:RDF>
 </metadata>
 <defs>
  <style type="text/css">*{stroke-linejoin: round; stroke-linecap: butt}</style>
 </defs>
 <g id="figure_1">
  <g id="patch_1">
   <path d="M 0 288 
L 432 288 
L 432 0 
L 0 0 
z
" style="fill: #ffffff"/>
  </g>
  <g id="axes_1">
   <g id="patch_2">
    <path d="M 54 256.32 
L 268.272 256.32 
L 268.272 34.56 
L 54 34.56 
z
" style="fill: #ffffff"/>
   </g>
   <g id="matplotlib.axis_1">
    <g id="xtick_1">
     <g id="line2d_1">
      <defs>
       <path id="m30d9430341" d="M 0 0 
L 0 3.5 
" style="stroke: #000000; stroke-width: 0.8"/>
      </defs>
      <g>
       <use xlink:href="#m30d9430341" x="54" y="256.32" style="stroke: #000000; stroke-width: 0.8"/>
      </g>
     </g>
     <g id="text_1">
      <!-- 0.50 -->
      <g transform="translate(45.25 270.26375) scale(0.1 -0.1)">
       <defs>
        <path id="TimesNewRomanPSMT-30" d="M 231 2094 
Q 231 2819 450 3342 
Q 669 3866 1031 4122 
Q 1313 4325 1613 4325 
Q 2100 4325 2488 3828 
Q 2972 3213 2972 2159 
Q 2972 1422 2759 906 
Q 2547 391 2217 158 
Q 1888 -75 1581 -75 
Q 975 -75 572 641 
Q 231 1244 231 2094 
z
M 844 2016 
Q 844 1141 1059 588 
Q 1238 122 1591 122 
Q 1759 122 1940 273 
Q 2122 425 2216 781 
Q 2359 1319 2359 2297 
Q 2359 3022 2209 3506 
Q 2097 3866 1919 4016 
Q 1791 4119 1609 4119 
Q 1397 4119 1231 3928 
Q 1006 3669 925 3112 
Q 844 2556 844 2016 
z
" transform="scale(0.015625)"/>
        <path id="TimesNewRomanPSMT-2e" d="M 800 606 
Q 947 606 1047 504 
Q 1147 403 1147 259 
Q 1147 116 1045 14 
Q 944 -88 800 -88 
Q 656 -88 554 14 
Q 453 116 453 259 
Q 453 406 554 506 
Q 656 606 800 606 
z
" transform="scale(0.015625)"/>
        <path id="TimesNewRomanPSMT-35" d="M 2778 4238 
L 2534 3706 
L 1259 3706 
L 981 3138 
Q 1809 3016 2294 2522 
Q 2709 2097 2709 1522 
Q 2709 1188 2573 903 
Q 2438 619 2231 419 
Q 2025 219 1772 97 
Q 1413 -75 1034 -75 
Q 653 -75 479 54 
Q 306 184 306 341 
Q 306 428 378 495 
Q 450 563 559 563 
Q 641 563 702 538 
Q 763 513 909 409 
Q 1144 247 1384 247 
Q 1750 247 2026 523 
Q 2303 800 2303 1197 
Q 2303 1581 2056 1914 
Q 1809 2247 1375 2428 
Q 1034 2569 447 2591 
L 1259 4238 
L 2778 4238 
z
" transform="scale(0.015625)"/>
       </defs>
       <use xlink:href="#TimesNewRomanPSMT-30"/>
       <use xlink:href="#TimesNewRomanPSMT-2e" x="50"/>
       <use xlink:href="#TimesNewRomanPSMT-35" x="75"/>
       <use xlink:href="#TimesNewRomanPSMT-30" x="125"/>
      </g>
     </g>
    </g>
    <g id="xtick_2">
     <g id="line2d_2">
      <g>
       <use xlink:href="#m30d9430341" x="107.568" y="256.32" style="stroke: #000000; stroke-width: 0.8"/>
      </g>
     </g>
     <g id="text_2">
      <!-- 0.55 -->
      <g transform="translate(98.818 270.26375) scale(0.1 -0.1)">
       <use xlink:href="#TimesNewRomanPSMT-30"/>
       <use xlink:href="#TimesNewRomanPSMT-2e" x="50"/>
       <use xlink:href="#TimesNewRomanPSMT-35" x="75"/>
       <use xlink:href="#TimesNewRomanPSMT-35" x="125"/>
      </g>
     </g>
    </g>
    <g id="xtick_3">
     <g id="line2d_3">
      <g>
       <use xlink:href="#m30d9430341" x="161.136" y="256.32" style="stroke: #000000; stroke-width: 0.8"/>
      </g>
     </g>
     <g id="text_3">
      <!-- 0.60 -->
      <g transform="translate(152.386 270.26375) scale(0.1 -0.1)">
       <defs>
        <path id="TimesNewRomanPSMT-36" d="M 2869 4325 
L 2869 4209 
Q 2456 4169 2195 4045 
Q 1934 3922 1679 3669 
Q 1425 3416 1258 3105 
Q 1091 2794 978 2366 
Q 1428 2675 1881 2675 
Q 2316 2675 2634 2325 
Q 2953 1975 2953 1425 
Q 2953 894 2631 456 
Q 2244 -75 1606 -75 
Q 1172 -75 869 213 
Q 275 772 275 1663 
Q 275 2231 503 2743 
Q 731 3256 1154 3653 
Q 1578 4050 1965 4187 
Q 2353 4325 2688 4325 
L 2869 4325 
z
M 925 2138 
Q 869 1716 869 1456 
Q 869 1156 980 804 
Q 1091 453 1309 247 
Q 1469 100 1697 100 
Q 1969 100 2183 356 
Q 2397 613 2397 1088 
Q 2397 1622 2184 2012 
Q 1972 2403 1581 2403 
Q 1463 2403 1327 2353 
Q 1191 2303 925 2138 
z
" transform="scale(0.015625)"/>
       </defs>
       <use xlink:href="#TimesNewRomanPSMT-30"/>
       <use xlink:href="#TimesNewRomanPSMT-2e" x="50"/>
       <use xlink:href="#TimesNewRomanPSMT-36" x="75"/>
       <use xlink:href="#TimesNewRomanPSMT-30" x="125"/>
      </g>
     </g>
    </g>
    <g id="xtick_4">
     <g id="line2d_4">
      <g>
       <use xlink:href="#m30d9430341" x="214.704" y="256.32" style="stroke: #000000; stroke-width: 0.8"/>
      </g>
     </g>
     <g id="text_4">
      <!-- 0.65 -->
      <g transform="translate(205.954 270.26375) scale(0.1 -0.1)">
       <use xlink:href="#TimesNewRomanPSMT-30"/>
       <use xlink:href="#TimesNewRomanPSMT-2e" x="50"/>
       <use xlink:href="#TimesNewRomanPSMT-36" x="75"/>
       <use xlink:href="#TimesNewRomanPSMT-35" x="125"/>
      </g>
     </g>
    </g>
    <g id="xtick_5">
     <g id="line2d_5">
      <g>
       <use xlink:href="#m30d9430341" x="268.272" y="256.32" style="stroke: #000000; stroke-width: 0.8"/>
      </g>
     </g>
     <g id="text_5">
      <!-- 0.70 -->
      <g transform="translate(259.522 270.26375) scale(0.1 -0.1)">
       <defs>
        <path id="TimesNewRomanPSMT-37" d="M 644 4238 
L 2916 4238 
L 2916 4119 
L 1503 -88 
L 1153 -88 
L 2419 3728 
L 1253 3728 
Q 900 3728 750 3644 
Q 488 3500 328 3200 
L 238 3234 
L 644 4238 
z
" transform="scale(0.015625)"/>
       </defs>
       <use xlink:href="#TimesNewRomanPSMT-30"/>
       <use xlink:href="#TimesNewRomanPSMT-2e" x="50"/>
       <use xlink:href="#TimesNewRomanPSMT-37" x="75"/>
       <use xlink:href="#TimesNewRomanPSMT-30" x="125"/>
      </g>
     </g>
    </g>
    <g id="text_6">
     <!-- $x = (R_r^{int} + l_m)/R_s^{ext}$ -->
     <g transform="translate(116.886 284.902812) scale(0.1 -0.1)">
      <defs>
       <path id="Cmmi10-78" d="M 500 184 
Q 613 97 819 97 
Q 1019 97 1172 289 
Q 1325 481 1381 709 
L 1672 1844 
Q 1741 2153 1741 2266 
Q 1741 2425 1652 2544 
Q 1563 2663 1403 2663 
Q 1200 2663 1022 2536 
Q 844 2409 722 2214 
Q 600 2019 550 1819 
Q 538 1778 500 1778 
L 422 1778 
Q 372 1778 372 1838 
L 372 1856 
Q 434 2094 584 2320 
Q 734 2547 951 2687 
Q 1169 2828 1416 2828 
Q 1650 2828 1839 2703 
Q 2028 2578 2106 2363 
Q 2216 2559 2386 2693 
Q 2556 2828 2759 2828 
Q 2897 2828 3040 2779 
Q 3184 2731 3275 2631 
Q 3366 2531 3366 2381 
Q 3366 2219 3261 2101 
Q 3156 1984 2994 1984 
Q 2891 1984 2822 2050 
Q 2753 2116 2753 2216 
Q 2753 2350 2845 2451 
Q 2938 2553 3066 2572 
Q 2950 2663 2747 2663 
Q 2541 2663 2389 2472 
Q 2238 2281 2175 2047 
L 1894 916 
Q 1825 659 1825 494 
Q 1825 331 1917 214 
Q 2009 97 2163 97 
Q 2463 97 2698 361 
Q 2934 625 3009 941 
Q 3022 978 3059 978 
L 3138 978 
Q 3163 978 3178 961 
Q 3194 944 3194 922 
Q 3194 916 3188 903 
Q 3097 522 2806 225 
Q 2516 -72 2150 -72 
Q 1916 -72 1727 54 
Q 1538 181 1459 397 
Q 1359 209 1182 68 
Q 1006 -72 806 -72 
Q 669 -72 523 -23 
Q 378 25 287 125 
Q 197 225 197 378 
Q 197 528 301 651 
Q 406 775 563 775 
Q 669 775 741 711 
Q 813 647 813 544 
Q 813 409 723 309 
Q 634 209 500 184 
z
" transform="scale(0.015625)"/>
       <path id="Cmr10-3d" d="M 481 850 
Q 428 850 393 890 
Q 359 931 359 978 
Q 359 1031 393 1068 
Q 428 1106 481 1106 
L 4500 1106 
Q 4547 1106 4581 1068 
Q 4616 1031 4616 978 
Q 4616 931 4581 890 
Q 4547 850 4500 850 
L 481 850 
z
M 481 2094 
Q 428 2094 393 2131 
Q 359 2169 359 2222 
Q 359 2269 393 2309 
Q 428 2350 481 2350 
L 4500 2350 
Q 4547 2350 4581 2309 
Q 4616 2269 4616 2222 
Q 4616 2169 4581 2131 
Q 4547 2094 4500 2094 
L 481 2094 
z
" transform="scale(0.015625)"/>
       <path id="Cmr10-28" d="M 1984 -1588 
Q 1628 -1306 1370 -942 
Q 1113 -578 948 -165 
Q 784 247 703 697 
Q 622 1147 622 1600 
Q 622 2059 703 2509 
Q 784 2959 951 3375 
Q 1119 3791 1378 4153 
Q 1638 4516 1984 4788 
Q 1984 4800 2016 4800 
L 2075 4800 
Q 2094 4800 2109 4783 
Q 2125 4766 2125 4744 
Q 2125 4716 2113 4703 
Q 1800 4397 1592 4047 
Q 1384 3697 1257 3301 
Q 1131 2906 1075 2482 
Q 1019 2059 1019 1600 
Q 1019 -434 2106 -1491 
Q 2125 -1509 2125 -1544 
Q 2125 -1559 2108 -1579 
Q 2091 -1600 2075 -1600 
L 2016 -1600 
Q 1984 -1600 1984 -1588 
z
" transform="scale(0.015625)"/>
       <path id="Cmmi10-52" d="M 313 0 
Q 250 0 250 84 
Q 253 100 262 139 
Q 272 178 289 201 
Q 306 225 331 225 
Q 722 225 878 269 
Q 959 297 997 441 
L 1875 3956 
Q 1888 4019 1888 4044 
Q 1888 4113 1813 4122 
Q 1691 4147 1350 4147 
Q 1288 4147 1288 4231 
Q 1291 4247 1300 4286 
Q 1309 4325 1326 4348 
Q 1344 4372 1369 4372 
L 3309 4372 
Q 3541 4372 3791 4319 
Q 4041 4266 4250 4152 
Q 4459 4038 4593 3848 
Q 4728 3659 4728 3406 
Q 4728 3084 4515 2831 
Q 4303 2578 3978 2408 
Q 3653 2238 3347 2169 
Q 3597 2078 3756 1879 
Q 3916 1681 3916 1422 
Q 3916 1388 3914 1370 
Q 3913 1353 3909 1331 
L 3859 763 
Q 3853 638 3847 550 
Q 3841 463 3841 409 
Q 3841 234 3892 129 
Q 3944 25 4097 25 
Q 4297 25 4448 211 
Q 4600 397 4647 616 
Q 4675 672 4709 672 
L 4769 672 
Q 4831 672 4831 588 
Q 4784 403 4682 237 
Q 4581 72 4426 -34 
Q 4272 -141 4091 -141 
Q 3716 -141 3452 26 
Q 3188 194 3188 550 
Q 3188 684 3213 788 
L 3353 1356 
Q 3378 1434 3378 1538 
Q 3378 1803 3198 1954 
Q 3019 2106 2747 2106 
L 1959 2106 
L 1538 416 
Q 1522 363 1522 325 
Q 1522 259 1600 250 
Q 1722 225 2059 225 
Q 2125 225 2125 141 
Q 2103 50 2090 25 
Q 2078 0 2016 0 
L 313 0 
z
M 1997 2272 
L 2706 2272 
Q 3403 2272 3756 2625 
Q 3919 2788 4014 3039 
Q 4109 3291 4109 3541 
Q 4109 3778 3970 3912 
Q 3831 4047 3626 4097 
Q 3422 4147 3175 4147 
L 2747 4147 
Q 2572 4147 2515 4117 
Q 2459 4088 2413 3928 
L 1997 2272 
z
" transform="scale(0.015625)"/>
       <path id="Cmmi10-69" d="M 500 459 
Q 500 578 550 709 
L 1069 2088 
Q 1153 2322 1153 2472 
Q 1153 2663 1013 2663 
Q 759 2663 595 2402 
Q 431 2141 353 1819 
Q 341 1778 300 1778 
L 225 1778 
Q 172 1778 172 1838 
L 172 1856 
Q 275 2238 487 2533 
Q 700 2828 1025 2828 
Q 1253 2828 1411 2678 
Q 1569 2528 1569 2297 
Q 1569 2178 1516 2047 
L 997 672 
Q 909 459 909 288 
Q 909 97 1056 97 
Q 1306 97 1473 364 
Q 1641 631 1709 941 
Q 1722 978 1759 978 
L 1838 978 
Q 1863 978 1878 961 
Q 1894 944 1894 922 
Q 1894 916 1888 903 
Q 1800 541 1583 234 
Q 1366 -72 1044 -72 
Q 819 -72 659 83 
Q 500 238 500 459 
z
M 1222 3878 
Q 1222 4013 1334 4122 
Q 1447 4231 1581 4231 
Q 1691 4231 1761 4164 
Q 1831 4097 1831 3994 
Q 1831 3850 1717 3742 
Q 1603 3634 1466 3634 
Q 1363 3634 1292 3704 
Q 1222 3775 1222 3878 
z
" transform="scale(0.015625)"/>
       <path id="Cmmi10-6e" d="M 494 109 
Q 494 147 500 166 
L 978 2075 
Q 1025 2253 1025 2388 
Q 1025 2663 838 2663 
Q 638 2663 541 2423 
Q 444 2184 353 1819 
Q 353 1800 334 1789 
Q 316 1778 300 1778 
L 225 1778 
Q 203 1778 187 1801 
Q 172 1825 172 1844 
Q 241 2122 305 2315 
Q 369 2509 505 2668 
Q 641 2828 844 2828 
Q 1084 2828 1268 2676 
Q 1453 2525 1453 2291 
Q 1644 2541 1900 2684 
Q 2156 2828 2444 2828 
Q 2672 2828 2837 2750 
Q 3003 2672 3095 2514 
Q 3188 2356 3188 2138 
Q 3188 1875 3070 1503 
Q 2953 1131 2778 672 
Q 2688 463 2688 288 
Q 2688 97 2834 97 
Q 3084 97 3251 365 
Q 3419 634 3488 941 
Q 3500 978 3541 978 
L 3616 978 
Q 3641 978 3658 962 
Q 3675 947 3675 922 
Q 3675 916 3669 903 
Q 3581 541 3364 234 
Q 3147 -72 2822 -72 
Q 2597 -72 2437 83 
Q 2278 238 2278 459 
Q 2278 578 2328 709 
Q 2409 919 2514 1209 
Q 2619 1500 2686 1765 
Q 2753 2031 2753 2234 
Q 2753 2413 2679 2538 
Q 2606 2663 2431 2663 
Q 2197 2663 2000 2559 
Q 1803 2456 1656 2286 
Q 1509 2116 1388 1881 
L 953 141 
Q 931 53 854 -9 
Q 778 -72 684 -72 
Q 606 -72 550 -22 
Q 494 28 494 109 
z
" transform="scale(0.015625)"/>
       <path id="Cmmi10-74" d="M 397 519 
Q 397 613 416 697 
L 878 2534 
L 206 2534 
Q 141 2534 141 2619 
Q 166 2759 225 2759 
L 934 2759 
L 1191 3803 
Q 1216 3888 1291 3947 
Q 1366 4006 1459 4006 
Q 1541 4006 1595 3957 
Q 1650 3909 1650 3828 
Q 1650 3809 1648 3798 
Q 1647 3788 1644 3775 
L 1388 2759 
L 2047 2759 
Q 2113 2759 2113 2675 
Q 2109 2659 2100 2621 
Q 2091 2584 2075 2559 
Q 2059 2534 2028 2534 
L 1331 2534 
L 872 684 
Q 825 503 825 372 
Q 825 97 1013 97 
Q 1294 97 1511 361 
Q 1728 625 1844 941 
Q 1869 978 1894 978 
L 1972 978 
Q 1997 978 2012 961 
Q 2028 944 2028 922 
Q 2028 909 2022 903 
Q 1881 516 1612 222 
Q 1344 -72 997 -72 
Q 744 -72 570 93 
Q 397 259 397 519 
z
" transform="scale(0.015625)"/>
       <path id="Cmmi10-72" d="M 494 109 
Q 494 147 500 166 
L 978 2075 
Q 1025 2253 1025 2388 
Q 1025 2663 838 2663 
Q 638 2663 541 2423 
Q 444 2184 353 1819 
Q 353 1800 334 1789 
Q 316 1778 300 1778 
L 225 1778 
Q 203 1778 187 1801 
Q 172 1825 172 1844 
Q 241 2122 305 2315 
Q 369 2509 505 2668 
Q 641 2828 844 2828 
Q 1066 2828 1233 2700 
Q 1400 2572 1441 2363 
Q 1603 2575 1811 2701 
Q 2019 2828 2266 2828 
Q 2469 2828 2623 2709 
Q 2778 2591 2778 2388 
Q 2778 2225 2676 2104 
Q 2575 1984 2406 1984 
Q 2303 1984 2233 2048 
Q 2163 2113 2163 2216 
Q 2163 2356 2266 2467 
Q 2369 2578 2503 2578 
Q 2400 2663 2253 2663 
Q 1978 2663 1775 2467 
Q 1572 2272 1409 1972 
L 953 141 
Q 931 53 854 -9 
Q 778 -72 684 -72 
Q 606 -72 550 -22 
Q 494 28 494 109 
z
" transform="scale(0.015625)"/>
       <path id="Cmr10-2b" d="M 481 1472 
Q 428 1472 393 1512 
Q 359 1553 359 1600 
Q 359 1647 393 1687 
Q 428 1728 481 1728 
L 2363 1728 
L 2363 3616 
Q 2363 3666 2400 3698 
Q 2438 3731 2491 3731 
Q 2538 3731 2578 3698 
Q 2619 3666 2619 3616 
L 2619 1728 
L 4500 1728 
Q 4547 1728 4581 1687 
Q 4616 1647 4616 1600 
Q 4616 1553 4581 1512 
Q 4547 1472 4500 1472 
L 2619 1472 
L 2619 -416 
Q 2619 -466 2578 -498 
Q 2538 -531 2491 -531 
Q 2438 -531 2400 -498 
Q 2363 -466 2363 -416 
L 2363 1472 
L 481 1472 
z
" transform="scale(0.015625)"/>
       <path id="Cmmi10-6c" d="M 281 519 
Q 281 538 286 575 
Q 291 613 295 648 
Q 300 684 300 703 
L 1094 3872 
Q 1119 3981 1125 4044 
Q 1125 4147 709 4147 
Q 647 4147 647 4231 
Q 650 4247 661 4287 
Q 672 4328 689 4350 
Q 706 4372 738 4372 
L 1600 4441 
Q 1678 4441 1678 4359 
L 756 678 
Q 709 575 709 372 
Q 709 97 897 97 
Q 1094 97 1192 342 
Q 1291 588 1369 941 
Q 1381 978 1422 978 
L 1497 978 
Q 1522 978 1539 958 
Q 1556 938 1556 916 
Q 1481 606 1420 426 
Q 1359 247 1225 87 
Q 1091 -72 884 -72 
Q 628 -72 454 93 
Q 281 259 281 519 
z
" transform="scale(0.015625)"/>
       <path id="Cmmi10-6d" d="M 494 109 
Q 494 147 500 166 
L 978 2075 
Q 1025 2253 1025 2388 
Q 1025 2663 838 2663 
Q 638 2663 541 2423 
Q 444 2184 353 1819 
Q 353 1800 334 1789 
Q 316 1778 300 1778 
L 225 1778 
Q 203 1778 187 1801 
Q 172 1825 172 1844 
Q 241 2122 305 2315 
Q 369 2509 505 2668 
Q 641 2828 844 2828 
Q 1084 2828 1268 2676 
Q 1453 2525 1453 2291 
Q 1644 2541 1900 2684 
Q 2156 2828 2444 2828 
Q 2747 2828 2967 2673 
Q 3188 2519 3188 2234 
Q 3384 2513 3648 2670 
Q 3913 2828 4225 2828 
Q 4556 2828 4757 2648 
Q 4959 2469 4959 2138 
Q 4959 1875 4842 1503 
Q 4725 1131 4550 672 
Q 4459 450 4459 288 
Q 4459 97 4609 97 
Q 4859 97 5025 365 
Q 5191 634 5259 941 
Q 5278 978 5313 978 
L 5388 978 
Q 5413 978 5430 961 
Q 5447 944 5447 922 
Q 5447 916 5441 903 
Q 5353 541 5136 234 
Q 4919 -72 4594 -72 
Q 4369 -72 4209 83 
Q 4050 238 4050 459 
Q 4050 572 4103 709 
Q 4284 1191 4404 1569 
Q 4525 1947 4525 2234 
Q 4525 2413 4453 2538 
Q 4381 2663 4213 2663 
Q 3863 2663 3606 2448 
Q 3350 2234 3163 1881 
Q 3150 1819 3144 1784 
L 2731 141 
Q 2709 53 2632 -9 
Q 2556 -72 2463 -72 
Q 2388 -72 2330 -22 
Q 2272 28 2272 109 
Q 2272 147 2278 166 
L 2688 1797 
Q 2753 2059 2753 2234 
Q 2753 2413 2679 2538 
Q 2606 2663 2431 2663 
Q 2197 2663 2000 2559 
Q 1803 2456 1656 2286 
Q 1509 2116 1388 1881 
L 953 141 
Q 931 53 854 -9 
Q 778 -72 684 -72 
Q 606 -72 550 -22 
Q 494 28 494 109 
z
" transform="scale(0.015625)"/>
       <path id="Cmr10-29" d="M 416 -1600 
Q 359 -1600 359 -1544 
Q 359 -1516 372 -1503 
Q 1466 -434 1466 1600 
Q 1466 3634 384 4691 
Q 359 4706 359 4744 
Q 359 4766 376 4783 
Q 394 4800 416 4800 
L 475 4800 
Q 494 4800 506 4788 
Q 966 4425 1272 3906 
Q 1578 3388 1720 2800 
Q 1863 2213 1863 1600 
Q 1863 1147 1786 708 
Q 1709 269 1542 -157 
Q 1375 -584 1119 -945 
Q 863 -1306 506 -1588 
Q 494 -1600 475 -1600 
L 416 -1600 
z
" transform="scale(0.015625)"/>
       <path id="Cmmi10-3d" d="M 359 -1472 
Q 359 -1453 366 -1447 
L 2591 4722 
Q 2603 4759 2634 4779 
Q 2666 4800 2706 4800 
Q 2763 4800 2798 4765 
Q 2834 4731 2834 4672 
L 2834 4647 
L 609 -1522 
Q 572 -1600 488 -1600 
Q 434 -1600 396 -1562 
Q 359 -1525 359 -1472 
z
" transform="scale(0.015625)"/>
       <path id="Cmmi10-65" d="M 1288 -72 
Q 981 -72 751 87 
Q 522 247 401 517 
Q 281 788 281 1088 
Q 281 1544 511 1945 
Q 741 2347 1134 2587 
Q 1528 2828 1978 2828 
Q 2253 2828 2458 2686 
Q 2663 2544 2663 2278 
Q 2663 1909 2369 1729 
Q 2075 1550 1706 1508 
Q 1338 1466 891 1466 
L 872 1466 
Q 769 1084 769 813 
Q 769 528 900 312 
Q 1031 97 1300 97 
Q 1681 97 2032 272 
Q 2384 447 2606 756 
Q 2625 775 2656 775 
Q 2688 775 2720 739 
Q 2753 703 2753 672 
Q 2753 647 2741 634 
Q 2506 306 2109 117 
Q 1713 -72 1288 -72 
z
M 909 1631 
Q 1281 1631 1597 1665 
Q 1913 1700 2169 1839 
Q 2425 1978 2425 2272 
Q 2425 2391 2359 2480 
Q 2294 2569 2189 2616 
Q 2084 2663 1972 2663 
Q 1700 2663 1483 2516 
Q 1266 2369 1125 2133 
Q 984 1897 909 1631 
z
" transform="scale(0.015625)"/>
       <path id="Cmmi10-73" d="M 556 391 
Q 728 97 1247 97 
Q 1472 97 1675 173 
Q 1878 250 2011 403 
Q 2144 556 2144 775 
Q 2144 941 2025 1047 
Q 1906 1153 1734 1191 
L 1388 1259 
Q 1150 1319 997 1481 
Q 844 1644 844 1875 
Q 844 2159 998 2378 
Q 1153 2597 1406 2712 
Q 1659 2828 1931 2828 
Q 2222 2828 2451 2689 
Q 2681 2550 2681 2278 
Q 2681 2131 2598 2018 
Q 2516 1906 2369 1906 
Q 2284 1906 2223 1961 
Q 2163 2016 2163 2100 
Q 2163 2175 2205 2245 
Q 2247 2316 2317 2358 
Q 2388 2400 2463 2400 
Q 2406 2538 2251 2600 
Q 2097 2663 1919 2663 
Q 1756 2663 1593 2597 
Q 1431 2531 1332 2404 
Q 1234 2278 1234 2106 
Q 1234 1991 1315 1903 
Q 1397 1816 1516 1778 
L 1888 1703 
Q 2066 1666 2214 1570 
Q 2363 1475 2448 1329 
Q 2534 1184 2534 997 
Q 2534 759 2401 528 
Q 2269 297 2075 159 
Q 1734 -72 1241 -72 
Q 900 -72 615 84 
Q 331 241 331 550 
Q 331 725 432 854 
Q 534 984 709 984 
Q 813 984 883 921 
Q 953 859 953 756 
Q 953 609 843 500 
Q 734 391 588 391 
L 556 391 
z
" transform="scale(0.015625)"/>
      </defs>
      <use xlink:href="#Cmmi10-78" transform="translate(0 0.459375)"/>
      <use xlink:href="#Cmr10-3d" transform="translate(74.638672 0.459375)"/>
      <use xlink:href="#Cmr10-28" transform="translate(169.882812 0.459375)"/>
      <use xlink:href="#Cmmi10-52" transform="translate(208.701172 0.459375)"/>
      <use xlink:href="#Cmmi10-69" transform="translate(295.949609 38.723438) scale(0.7)"/>
      <use xlink:href="#Cmmi10-6e" transform="translate(320.046289 38.723438) scale(0.7)"/>
      <use xlink:href="#Cmmi10-74" transform="translate(362.053125 38.723438) scale(0.7)"/>
      <use xlink:href="#Cmmi10-72" transform="translate(284.580078 -25.05) scale(0.7)"/>
      <use xlink:href="#Cmr10-2b" transform="translate(411.247852 0.459375)"/>
      <use xlink:href="#Cmmi10-6c" transform="translate(506.491992 0.459375)"/>
      <use xlink:href="#Cmmi10-6d" transform="translate(536.277148 -16.546875) scale(0.7)"/>
      <use xlink:href="#Cmr10-29" transform="translate(604.10957 0.459375)"/>
      <use xlink:href="#Cmmi10-3d" transform="translate(642.92793 0.459375)"/>
      <use xlink:href="#Cmmi10-52" transform="translate(692.92793 0.459375)"/>
      <use xlink:href="#Cmmi10-65" transform="translate(780.176367 38.723438) scale(0.7)"/>
      <use xlink:href="#Cmmi10-78" transform="translate(812.71543 38.723438) scale(0.7)"/>
      <use xlink:href="#Cmmi10-74" transform="translate(852.671484 38.723438) scale(0.7)"/>
      <use xlink:href="#Cmmi10-73" transform="translate(768.806836 -25.05) scale(0.7)"/>
     </g>
    </g>
   </g>
   <g id="matplotlib.axis_2">
    <g id="ytick_1">
     <g id="line2d_6">
      <defs>
       <path id="m20b603c476" d="M 0 0 
L -3.5 0 
" style="stroke: #000000; stroke-width: 0.8"/>
      </defs>
      <g>
       <use xlink:href="#m20b603c476" x="54" y="256.32" style="stroke: #000000; stroke-width: 0.8"/>
      </g>
     </g>
     <g id="text_7">
      <!-- 3.50 -->
      <g transform="translate(29.5 259.791875) scale(0.1 -0.1)">
       <defs>
        <path id="TimesNewRomanPSMT-33" d="M 325 3431 
Q 506 3859 782 4092 
Q 1059 4325 1472 4325 
Q 1981 4325 2253 3994 
Q 2459 3747 2459 3466 
Q 2459 3003 1878 2509 
Q 2269 2356 2469 2072 
Q 2669 1788 2669 1403 
Q 2669 853 2319 450 
Q 1863 -75 997 -75 
Q 569 -75 414 31 
Q 259 138 259 259 
Q 259 350 332 419 
Q 406 488 509 488 
Q 588 488 669 463 
Q 722 447 909 348 
Q 1097 250 1169 231 
Q 1284 197 1416 197 
Q 1734 197 1970 444 
Q 2206 691 2206 1028 
Q 2206 1275 2097 1509 
Q 2016 1684 1919 1775 
Q 1784 1900 1550 2001 
Q 1316 2103 1072 2103 
L 972 2103 
L 972 2197 
Q 1219 2228 1467 2375 
Q 1716 2522 1828 2728 
Q 1941 2934 1941 3181 
Q 1941 3503 1739 3701 
Q 1538 3900 1238 3900 
Q 753 3900 428 3381 
L 325 3431 
z
" transform="scale(0.015625)"/>
       </defs>
       <use xlink:href="#TimesNewRomanPSMT-33"/>
       <use xlink:href="#TimesNewRomanPSMT-2e" x="50"/>
       <use xlink:href="#TimesNewRomanPSMT-35" x="75"/>
       <use xlink:href="#TimesNewRomanPSMT-30" x="125"/>
      </g>
     </g>
    </g>
    <g id="ytick_2">
     <g id="line2d_7">
      <g>
       <use xlink:href="#m20b603c476" x="54" y="228.6" style="stroke: #000000; stroke-width: 0.8"/>
      </g>
     </g>
     <g id="text_8">
      <!-- 3.75 -->
      <g transform="translate(29.5 232.071875) scale(0.1 -0.1)">
       <use xlink:href="#TimesNewRomanPSMT-33"/>
       <use xlink:href="#TimesNewRomanPSMT-2e" x="50"/>
       <use xlink:href="#TimesNewRomanPSMT-37" x="75"/>
       <use xlink:href="#TimesNewRomanPSMT-35" x="125"/>
      </g>
     </g>
    </g>
    <g id="ytick_3">
     <g id="line2d_8">
      <g>
       <use xlink:href="#m20b603c476" x="54" y="200.88" style="stroke: #000000; stroke-width: 0.8"/>
      </g>
     </g>
     <g id="text_9">
      <!-- 4.00 -->
      <g transform="translate(29.5 204.351875) scale(0.1 -0.1)">
       <defs>
        <path id="TimesNewRomanPSMT-34" d="M 2978 1563 
L 2978 1119 
L 2409 1119 
L 2409 0 
L 1894 0 
L 1894 1119 
L 100 1119 
L 100 1519 
L 2066 4325 
L 2409 4325 
L 2409 1563 
L 2978 1563 
z
M 1894 1563 
L 1894 3666 
L 406 1563 
L 1894 1563 
z
" transform="scale(0.015625)"/>
       </defs>
       <use xlink:href="#TimesNewRomanPSMT-34"/>
       <use xlink:href="#TimesNewRomanPSMT-2e" x="50"/>
       <use xlink:href="#TimesNewRomanPSMT-30" x="75"/>
       <use xlink:href="#TimesNewRomanPSMT-30" x="125"/>
      </g>
     </g>
    </g>
    <g id="ytick_4">
     <g id="line2d_9">
      <g>
       <use xlink:href="#m20b603c476" x="54" y="173.16" style="stroke: #000000; stroke-width: 0.8"/>
      </g>
     </g>
     <g id="text_10">
      <!-- 4.25 -->
      <g transform="translate(29.5 176.631875) scale(0.1 -0.1)">
       <defs>
        <path id="TimesNewRomanPSMT-32" d="M 2934 816 
L 2638 0 
L 138 0 
L 138 116 
Q 1241 1122 1691 1759 
Q 2141 2397 2141 2925 
Q 2141 3328 1894 3587 
Q 1647 3847 1303 3847 
Q 991 3847 742 3664 
Q 494 3481 375 3128 
L 259 3128 
Q 338 3706 661 4015 
Q 984 4325 1469 4325 
Q 1984 4325 2329 3994 
Q 2675 3663 2675 3213 
Q 2675 2891 2525 2569 
Q 2294 2063 1775 1497 
Q 997 647 803 472 
L 1909 472 
Q 2247 472 2383 497 
Q 2519 522 2628 598 
Q 2738 675 2819 816 
L 2934 816 
z
" transform="scale(0.015625)"/>
       </defs>
       <use xlink:href="#TimesNewRomanPSMT-34"/>
       <use xlink:href="#TimesNewRomanPSMT-2e" x="50"/>
       <use xlink:href="#TimesNewRomanPSMT-32" x="75"/>
       <use xlink:href="#TimesNewRomanPSMT-35" x="125"/>
      </g>
     </g>
    </g>
    <g id="ytick_5">
     <g id="line2d_10">
      <g>
       <use xlink:href="#m20b603c476" x="54" y="145.44" style="stroke: #000000; stroke-width: 0.8"/>
      </g>
     </g>
     <g id="text_11">
      <!-- 4.50 -->
      <g transform="translate(29.5 148.911875) scale(0.1 -0.1)">
       <use xlink:href="#TimesNewRomanPSMT-34"/>
       <use xlink:href="#TimesNewRomanPSMT-2e" x="50"/>
       <use xlink:href="#TimesNewRomanPSMT-35" x="75"/>
       <use xlink:href="#TimesNewRomanPSMT-30" x="125"/>
      </g>
     </g>
    </g>
    <g id="ytick_6">
     <g id="line2d_11">
      <g>
       <use xlink:href="#m20b603c476" x="54" y="117.72" style="stroke: #000000; stroke-width: 0.8"/>
      </g>
     </g>
     <g id="text_12">
      <!-- 4.75 -->
      <g transform="translate(29.5 121.191875) scale(0.1 -0.1)">
       <use xlink:href="#TimesNewRomanPSMT-34"/>
       <use xlink:href="#TimesNewRomanPSMT-2e" x="50"/>
       <use xlink:href="#TimesNewRomanPSMT-37" x="75"/>
       <use xlink:href="#TimesNewRomanPSMT-35" x="125"/>
      </g>
     </g>
    </g>
    <g id="ytick_7">
     <g id="line2d_12">
      <g>
       <use xlink:href="#m20b603c476" x="54" y="90" style="stroke: #000000; stroke-width: 0.8"/>
      </g>
     </g>
     <g id="text_13">
      <!-- 5.00 -->
      <g transform="translate(29.5 93.471875) scale(0.1 -0.1)">
       <use xlink:href="#TimesNewRomanPSMT-35"/>
       <use xlink:href="#TimesNewRomanPSMT-2e" x="50"/>
       <use xlink:href="#TimesNewRomanPSMT-30" x="75"/>
       <use xlink:href="#TimesNewRomanPSMT-30" x="125"/>
      </g>
     </g>
    </g>
    <g id="ytick_8">
     <g id="line2d_13">
      <g>
       <use xlink:href="#m20b603c476" x="54" y="62.28" style="stroke: #000000; stroke-width: 0.8"/>
      </g>
     </g>
     <g id="text_14">
      <!-- 5.25 -->
      <g transform="translate(29.5 65.751875) scale(0.1 -0.1)">
       <use xlink:href="#TimesNewRomanPSMT-35"/>
       <use xlink:href="#TimesNewRomanPSMT-2e" x="50"/>
       <use xlink:href="#TimesNewRomanPSMT-32" x="75"/>
       <use xlink:href="#TimesNewRomanPSMT-35" x="125"/>
      </g>
     </g>
    </g>
    <g id="ytick_9">
     <g id="line2d_14">
      <g>
       <use xlink:href="#m20b603c476" x="54" y="34.56" style="stroke: #000000; stroke-width: 0.8"/>
      </g>
     </g>
     <g id="text_15">
      <!-- 5.50 -->
      <g transform="translate(29.5 38.031875) scale(0.1 -0.1)">
       <use xlink:href="#TimesNewRomanPSMT-35"/>
       <use xlink:href="#TimesNewRomanPSMT-2e" x="50"/>
       <use xlink:href="#TimesNewRomanPSMT-35" x="75"/>
       <use xlink:href="#TimesNewRomanPSMT-30" x="125"/>
      </g>
     </g>
    </g>
    <g id="text_16">
     <!-- $l_m/g$ -->
     <g transform="translate(23 155.24) rotate(-90) scale(0.1 -0.1)">
      <defs>
       <path id="Cmmi10-67" d="M 91 -916 
Q 91 -759 198 -642 
Q 306 -525 459 -525 
Q 563 -525 633 -589 
Q 703 -653 703 -756 
Q 703 -872 637 -964 
Q 572 -1056 469 -1094 
Q 641 -1147 1006 -1147 
Q 1300 -1147 1544 -920 
Q 1788 -694 1863 -397 
L 2047 353 
Q 1700 0 1325 0 
Q 1050 0 854 140 
Q 659 281 556 515 
Q 453 750 453 1013 
Q 453 1306 573 1628 
Q 694 1950 911 2225 
Q 1128 2500 1409 2664 
Q 1691 2828 2003 2828 
Q 2191 2828 2341 2725 
Q 2491 2622 2578 2450 
Q 2641 2700 2853 2700 
Q 2934 2700 2990 2651 
Q 3047 2603 3047 2522 
Q 3047 2503 3045 2493 
Q 3044 2484 3041 2472 
L 2309 -434 
Q 2259 -634 2125 -800 
Q 1991 -966 1809 -1077 
Q 1628 -1188 1412 -1250 
Q 1197 -1313 997 -1313 
Q 631 -1313 361 -1242 
Q 91 -1172 91 -916 
z
M 1338 166 
Q 1747 166 2144 728 
L 2497 2125 
Q 2453 2347 2322 2505 
Q 2191 2663 1991 2663 
Q 1778 2663 1589 2489 
Q 1400 2316 1275 2075 
Q 1156 1844 1045 1411 
Q 934 978 934 728 
Q 934 509 1034 337 
Q 1134 166 1338 166 
z
" transform="scale(0.015625)"/>
      </defs>
      <use xlink:href="#Cmmi10-6c"/>
      <use xlink:href="#Cmmi10-6d" transform="translate(29.785156 -17.00625) scale(0.7)"/>
      <use xlink:href="#Cmmi10-3d" transform="translate(97.617578 0)"/>
      <use xlink:href="#Cmmi10-67" transform="translate(147.617578 0)"/>
     </g>
    </g>
   </g>
   <g id="PathCollection_1"/>
   <g id="PathCollection_2">
    <path d="M 267.3712 256.32 
L 267.630237 251.794286 
L 267.880294 247.268571 
L 268.121933 242.742857 
L 268.272 239.845333 
" clip-path="url(#pffae3229ea)" style="fill: none; stroke: #20dfff; stroke-width: 1.5"/>
   </g>
   <g id="PathCollection_3">
    <path d="M 253.819137 256.32 
L 254.256917 251.794286 
L 254.680165 247.268571 
L 255.089709 242.742857 
L 255.153306 242.021787 
L 255.465603 238.217143 
L 255.826083 233.691429 
L 256.175741 229.165714 
L 256.515176 224.64 
L 256.844951 220.114286 
L 257.165593 215.588571 
L 257.477598 211.062857 
L 257.781433 206.537143 
L 258.077538 202.011429 
L 258.366327 197.485714 
L 258.64819 192.96 
L 258.923494 188.434286 
L 259.192586 183.908571 
L 259.455793 179.382857 
L 259.526204 178.151055 
L 259.701709 174.857143 
L 259.938252 170.331429 
L 260.170085 165.805714 
L 260.397455 161.28 
L 260.620594 156.754286 
L 260.839719 152.228571 
L 260.986015 149.153664 
" clip-path="url(#pffae3229ea)" style="fill: none; stroke: #40bfff; stroke-width: 1.5"/>
    <path d="M 261.945974 128.147172 
L 262.081131 125.074286 
L 262.277424 120.548571 
L 262.471095 116.022857 
L 262.662281 111.497143 
L 262.851112 106.971429 
L 263.037711 102.445714 
L 263.222196 97.92 
L 263.404677 93.394286 
L 263.585261 88.868571 
L 263.764049 84.342857 
L 263.899102 80.89445 
L 263.938462 79.817143 
L 264.102764 75.291429 
L 264.265631 70.765714 
L 264.427142 66.24 
L 264.587373 61.714286 
L 264.746393 57.188571 
L 264.904272 52.662857 
L 265.061074 48.137143 
L 265.216861 43.611429 
L 265.371693 39.085714 
L 265.525627 34.56 
" clip-path="url(#pffae3229ea)" style="fill: none; stroke: #40bfff; stroke-width: 1.5"/>
   </g>
   <g id="PathCollection_4">
    <path d="M 236.884141 256.32 
L 237.613153 251.794286 
L 237.661714 251.484934 
L 238.276062 247.268571 
L 238.914759 242.742857 
L 239.533494 238.217143 
L 240.13332 233.691429 
L 240.715229 229.165714 
L 241.280151 224.64 
L 241.828961 220.114286 
L 242.034612 218.377123 
L 242.341707 215.588571 
L 242.827842 211.062857 
L 243.301081 206.537143 
L 243.762067 202.011429 
L 244.211404 197.485714 
L 244.649666 192.96 
L 245.077393 188.434286 
L 245.495095 183.908571 
L 245.903255 179.382857 
L 246.302329 174.857143 
L 246.40751 173.642785 
L 246.674831 170.331429 
L 247.032998 165.805714 
L 247.383799 161.28 
L 247.72758 156.754286 
L 247.959548 153.639882 
" clip-path="url(#pffae3229ea)" style="fill: none; stroke: #609fff; stroke-width: 1.5"/>
    <path d="M 249.448435 132.708849 
L 249.659978 129.6 
L 249.962878 125.074286 
L 250.260951 120.548571 
L 250.554414 116.022857 
L 250.780408 112.48779 
L 250.839518 111.497143 
L 251.1065 106.971429 
L 251.369708 102.445714 
L 251.629311 97.92 
L 251.885468 93.394286 
L 252.138331 88.868571 
L 252.388047 84.342857 
L 252.634755 79.817143 
L 252.878588 75.291429 
L 253.119672 70.765714 
L 253.358129 66.24 
L 253.594075 61.714286 
L 253.827621 57.188571 
L 254.058873 52.662857 
L 254.287932 48.137143 
L 254.514896 43.611429 
L 254.739858 39.085714 
L 254.962907 34.56 
" clip-path="url(#pffae3229ea)" style="fill: none; stroke: #609fff; stroke-width: 1.5"/>
   </g>
   <g id="PathCollection_5">
    <path d="M 213.864019 256.32 
L 215.13711 251.794286 
L 215.797224 249.376181 
L 216.326959 247.268571 
L 217.432511 242.742857 
L 218.502922 238.217143 
L 219.540009 233.691429 
L 220.170122 230.863317 
L 220.519531 229.165714 
L 221.427671 224.64 
L 222.309429 220.114286 
L 223.166108 215.588571 
L 223.998934 211.062857 
L 224.54302 208.030098 
L 224.791181 206.537143 
L 225.526762 202.011429 
L 226.243237 197.485714 
L 226.941504 192.96 
L 227.622413 188.434286 
L 228.286764 183.908571 
L 228.915918 179.519001 
L 228.934044 179.382857 
L 229.525926 174.857143 
L 230.1044 170.331429 
L 230.670064 165.805714 
L 231.223486 161.28 
L 231.765205 156.754286 
L 232.295731 152.228571 
L 232.815551 147.702857 
L 233.288816 143.501083 
L 233.322783 143.177143 
L 233.790323 138.651429 
L 234.249097 134.125714 
L 234.699475 129.6 
L 235.14181 125.074286 
L 235.576437 120.548571 
L 236.003676 116.022857 
L 236.423831 111.497143 
L 236.837193 106.971429 
L 237.244039 102.445714 
L 237.644635 97.92 
L 237.661714 97.724833 
L 238.015193 93.394286 
L 238.379279 88.868571 
L 238.738195 84.342857 
L 238.982385 81.220587 
" clip-path="url(#pffae3229ea)" style="fill: none; stroke: #807fff; stroke-width: 1.5"/>
    <path d="M 240.56539 60.306387 
L 240.794057 57.188571 
L 241.122081 52.662857 
L 241.446356 48.137143 
L 241.767029 43.611429 
L 242.034612 39.795539 
L 242.081101 39.085714 
L 242.375142 34.56 
" clip-path="url(#pffae3229ea)" style="fill: none; stroke: #807fff; stroke-width: 1.5"/>
   </g>
   <g id="PathCollection_6">
    <path d="M 173.497845 256.32 
L 176.441143 252.605302 
L 177.005631 251.794286 
L 180.064037 247.268571 
L 180.814041 246.124979 
L 182.784105 242.742857 
L 185.186939 238.479448 
L 185.319321 238.217143 
L 187.545601 233.691429 
L 189.559837 229.458156 
L 189.685356 229.165714 
L 191.581029 224.64 
L 193.417197 220.114286 
L 193.932735 218.810821 
L 195.089851 215.588571 
L 196.670389 211.062857 
L 198.204952 206.537143 
L 198.305633 206.233587 
L 199.583899 202.011429 
L 200.916917 197.485714 
L 202.213907 192.96 
L 202.678531 191.301651 
L 203.415115 188.434286 
L 204.550568 183.908571 
L 205.657452 179.382857 
L 206.73705 174.857143 
L 207.051429 173.512285 
L 207.735909 170.331429 
L 208.688603 165.805714 
L 209.619407 161.28 
L 210.529263 156.754286 
L 211.419066 152.228571 
L 211.424327 152.201366 
L 212.227893 147.702857 
L 213.019375 143.177143 
L 213.79459 138.651429 
L 214.554206 134.125714 
L 215.29886 129.6 
L 215.797224 126.516159 
L 216.013091 125.074286 
L 216.68002 120.548571 
L 217.3347 116.022857 
L 217.977615 111.497143 
L 218.609226 106.971429 
L 219.05715 103.705723 
" clip-path="url(#pffae3229ea)" style="fill: none; stroke: #a05fff; stroke-width: 1.5"/>
    <path d="M 221.668195 83.045821 
L 222.049037 79.817143 
L 222.574879 75.291429 
L 223.093024 70.765714 
L 223.603758 66.24 
L 224.107352 61.714286 
L 224.54302 57.746424 
L 224.600036 57.188571 
L 225.057762 52.662857 
L 225.509541 48.137143 
L 225.955588 43.611429 
L 226.396108 39.085714 
L 226.831299 34.56 
" clip-path="url(#pffae3229ea)" style="fill: none; stroke: #a05fff; stroke-width: 1.5"/>
    <path d="M 54 215.021841 
L 54.362768 215.588571 
L 57.304082 220.114286 
L 58.372898 221.733744 
L 60.385282 224.64 
L 62.745796 227.997407 
L 63.610434 229.165714 
L 65.422621 231.577585 
" clip-path="url(#pffae3229ea)" style="fill: none; stroke: #a05fff; stroke-width: 1.5"/>
    <path d="M 76.070095 244.477815 
L 78.69025 247.268571 
L 80.237388 248.892125 
L 83.200922 251.794286 
L 84.610286 253.154297 
L 88.148342 256.32 
" clip-path="url(#pffae3229ea)" style="fill: none; stroke: #a05fff; stroke-width: 1.5"/>
   </g>
   <g id="PathCollection_7">
    <path d="M 54 122.250446 
L 55.374219 125.074286 
L 57.604658 129.6 
L 58.372898 131.139173 
L 59.942398 134.125714 
L 62.350945 138.651429 
L 62.745796 139.38401 
L 64.906431 143.177143 
L 67.118694 147.01258 
L 67.54134 147.702857 
L 70.347103 152.228571 
L 71.491592 154.051739 
L 73.30124 156.754286 
L 75.86449 160.535783 
L 76.405764 161.28 
L 79.737545 165.805714 
L 80.237388 166.476393 
L 83.340357 170.331429 
L 84.610286 171.8905 
L 87.241497 174.857143 
L 88.983184 176.798113 
L 91.53379 179.382857 
L 93.356082 181.208597 
L 96.356118 183.908571 
L 97.72898 185.130427 
L 101.926109 188.434286 
L 102.101878 188.57115 
L 106.474776 191.517076 
L 109.020817 192.96 
L 110.847673 193.984896 
L 115.220571 195.959219 
L 119.593469 197.44204 
L 119.791211 197.485714 
L 123.966367 198.399783 
L 128.339265 198.829591 
L 132.712163 198.706703 
L 137.085061 198.002639 
L 138.80916 197.485714 
L 141.457959 196.674002 
L 145.830857 194.679633 
L 148.631387 192.96 
L 150.203755 191.972116 
L 154.576653 188.48419 
L 154.627962 188.434286 
L 158.949551 184.128203 
L 159.134883 183.908571 
L 162.864906 179.382857 
L 163.322449 178.814201 
L 166.056767 174.857143 
L 167.695347 172.425447 
L 168.925673 170.331429 
L 171.521195 165.805714 
L 172.068245 164.830675 
L 173.827068 161.28 
L 176.013652 156.754286 
L 176.441143 155.851144 
L 177.970144 152.228571 
L 179.835947 147.702857 
L 180.814041 145.278958 
L 181.576437 143.177143 
L 183.185288 138.651429 
L 184.757735 134.125714 
L 185.186939 132.867443 
L 186.195809 129.6 
L 186.724199 127.853905 
" clip-path="url(#pffae3229ea)" style="fill: none; stroke: #c03fff; stroke-width: 1.5"/>
    <path d="M 192.094296 108.544749 
L 192.495719 106.971429 
L 193.628376 102.445714 
L 193.932735 101.210425 
L 194.674521 97.92 
L 195.677477 93.394286 
L 196.662599 88.868571 
L 197.630557 84.342857 
L 198.305633 81.135439 
L 198.560571 79.817143 
L 199.423669 75.291429 
L 200.272748 70.765714 
L 201.108314 66.24 
L 201.930855 61.714286 
L 202.678531 57.537825 
L 202.736188 57.188571 
L 203.474601 52.662857 
L 204.202274 48.137143 
L 204.919585 43.611429 
L 205.62689 39.085714 
L 206.324537 34.56 
" clip-path="url(#pffae3229ea)" style="fill: none; stroke: #c03fff; stroke-width: 1.5"/>
   </g>
   <g id="PathCollection_8">
    <path d="M 68.333313 34.56 
L 70.44866 39.085714 
L 71.491592 41.294286 
L 72.664791 43.611429 
L 74.97943 48.137143 
L 75.86449 49.850183 
L 77.433215 52.662857 
L 78.182506 53.993112 
" clip-path="url(#pffae3229ea)" style="fill: none; stroke: #e01fff; stroke-width: 1.5"/>
    <path d="M 87.614882 69.016463 
L 88.828301 70.765714 
L 88.983184 70.986828 
L 92.337525 75.291429 
L 93.356082 76.586663 
L 96.226827 79.817143 
L 97.72898 81.4927 
L 100.676374 84.342857 
L 102.101878 85.709684 
L 106.010453 88.868571 
L 106.474776 89.240791 
L 110.847673 92.072993 
L 113.545786 93.394286 
L 115.220571 94.208461 
L 119.593469 95.623504 
L 123.966367 96.303678 
L 128.339265 96.216645 
L 132.712163 95.326282 
L 137.085061 93.592198 
L 137.417052 93.394286 
L 141.457959 90.943125 
L 143.985229 88.868571 
L 145.830857 87.326481 
L 148.641245 84.342857 
L 150.203755 82.65378 
L 152.353078 79.817143 
L 154.576653 76.827844 
L 155.538863 75.291429 
L 158.323764 70.765714 
L 158.949551 69.731618 
L 160.765628 66.24 
L 163.076281 61.714286 
L 163.322449 61.224861 
L 165.094753 57.188571 
L 167.046811 52.662857 
L 167.695347 51.136437 
L 168.82142 48.137143 
L 170.494001 43.611429 
L 172.068245 39.280268 
L 172.131342 39.085714 
L 173.580861 34.56 
" clip-path="url(#pffae3229ea)" style="fill: none; stroke: #e01fff; stroke-width: 1.5"/>
   </g>
   <g id="PathCollection_9"/>
   <g id="PathCollection_10"/>
   <g id="PathCollection_11">
    <path d="M 54 236.097458 
L 58.109313 238.217143 
L 58.372898 238.349982 
L 62.745796 240.591021 
L 66.844414 242.742857 
L 67.118694 242.883529 
L 67.837779 243.258837 
" clip-path="url(#pffae3229ea)" style="fill: none; stroke: #209066; stroke-width: 1.5"/>
    <path d="M 82.993772 251.332626 
L 83.839463 251.794286 
L 84.610286 252.205237 
L 88.983184 254.583497 
L 92.097064 256.32 
" clip-path="url(#pffae3229ea)" style="fill: none; stroke: #209066; stroke-width: 1.5"/>
   </g>
   <g id="PathCollection_12">
    <path d="M 54 203.169932 
L 58.372898 205.657492 
L 59.890166 206.537143 
L 62.745796 208.158678 
L 67.118694 210.697157 
L 67.737415 211.062857 
L 71.491592 213.236012 
L 75.459527 215.588571 
L 75.86449 215.823671 
L 80.237388 218.409664 
L 81.513991 219.182765 
" clip-path="url(#pffae3229ea)" style="fill: none; stroke: #40a066; stroke-width: 1.5"/>
    <path d="M 96.432392 228.272828 
L 97.72898 229.079247 
L 97.865301 229.165714 
L 102.101878 231.796582 
L 105.074195 233.691429 
L 106.474776 234.565397 
L 110.847673 237.358977 
L 112.15967 238.217143 
L 115.220571 240.176827 
L 119.120869 242.742857 
L 119.593469 243.047133 
L 123.966367 245.926844 
L 125.950209 247.268571 
L 128.339265 248.849781 
L 132.664365 251.794286 
L 132.712163 251.826124 
L 137.085061 254.805893 
L 139.244262 256.32 
" clip-path="url(#pffae3229ea)" style="fill: none; stroke: #40a066; stroke-width: 1.5"/>
   </g>
   <g id="PathCollection_13">
    <path d="M 54 161.460025 
L 58.372898 164.258019 
L 60.742176 165.805714 
L 62.745796 167.091065 
L 67.118694 169.954456 
L 67.684201 170.331429 
L 71.491592 172.823935 
L 74.528809 174.857143 
L 75.86449 175.735126 
L 80.237388 178.668931 
L 80.594382 178.913306 
" clip-path="url(#pffae3229ea)" style="fill: none; stroke: #60b066; stroke-width: 1.5"/>
    <path d="M 95.257919 188.964936 
L 97.72898 190.675439 
L 100.949958 192.96 
L 102.101878 193.762085 
L 106.474776 196.876774 
L 107.310943 197.485714 
L 110.847673 200.014382 
L 113.571027 202.011429 
L 115.220571 203.198836 
L 119.593469 206.427317 
L 119.739031 206.537143 
L 123.966367 209.66835 
L 125.800247 211.062857 
L 128.339265 212.958028 
L 131.77086 215.588571 
L 132.712163 216.296771 
L 137.085061 219.671443 
L 137.644953 220.114286 
L 141.457959 223.074626 
L 143.419397 224.64 
L 145.830857 226.528858 
L 149.104538 229.165714 
L 150.203755 230.034585 
L 154.576653 233.588996 
L 154.69954 233.691429 
L 158.949551 237.168519 
L 160.194821 238.217143 
L 163.322449 240.801865 
L 165.603485 242.742857 
L 167.695347 244.489549 
L 170.926462 247.268571 
L 172.068245 248.232097 
L 176.164776 251.794286 
L 176.441143 252.030048 
L 180.814041 255.868573 
L 181.313325 256.32 
" clip-path="url(#pffae3229ea)" style="fill: none; stroke: #60b066; stroke-width: 1.5"/>
   </g>
   <g id="PathCollection_14">
    <path d="M 54 106.133098 
L 55.115698 106.971429 
L 58.372898 109.382465 
L 61.174971 111.497143 
L 62.745796 112.664889 
L 67.118694 115.980142 
L 67.174106 116.022857 
L 71.491592 119.301548 
L 73.100567 120.548571 
L 75.86449 122.658697 
L 77.447079 123.892298 
" clip-path="url(#pffae3229ea)" style="fill: none; stroke: #80c066; stroke-width: 1.5"/>
    <path d="M 91.75267 135.133059 
L 93.356082 136.402763 
L 96.133588 138.651429 
L 97.72898 139.923619 
L 101.718279 143.177143 
L 102.101878 143.485264 
L 106.474776 147.071985 
L 107.227113 147.702857 
L 110.847673 150.69346 
L 112.66311 152.228571 
L 115.220571 154.358665 
L 118.029218 156.754286 
L 119.593469 158.068406 
L 123.325164 161.28 
L 123.966367 161.823495 
L 128.339265 165.619677 
L 128.548714 165.805714 
L 132.712163 169.448661 
L 133.696116 170.331429 
L 137.085061 173.326433 
L 138.773696 174.857143 
L 141.457959 177.25392 
L 143.781685 179.382857 
L 145.830857 181.232073 
L 148.720414 183.908571 
L 150.203755 185.261873 
L 153.590312 188.434286 
L 154.576653 189.344334 
L 158.391896 192.96 
L 158.949551 193.480508 
L 163.12577 197.485714 
L 163.322449 197.671489 
L 167.695347 201.915544 
L 167.791514 202.011429 
L 172.068245 206.212642 
L 172.389462 206.537143 
L 176.441143 210.569813 
L 176.92267 211.062857 
L 180.814041 214.988489 
L 181.392063 215.588571 
L 185.186939 219.47018 
L 185.798626 220.114286 
L 189.559837 224.016493 
L 190.143404 224.64 
L 193.932735 228.629131 
L 194.427497 229.165714 
L 198.305633 233.309915 
L 198.652059 233.691429 
L 202.678531 238.060787 
L 202.81829 238.217143 
L 206.925834 242.742857 
L 207.051429 242.879068 
L 210.974986 247.268571 
L 211.424327 247.76371 
L 214.968852 251.794286 
L 215.797224 252.722118 
L 218.908793 256.32 
" clip-path="url(#pffae3229ea)" style="fill: none; stroke: #80c066; stroke-width: 1.5"/>
   </g>
   <g id="PathCollection_15">
    <path d="M 61.625128 34.56 
L 62.745796 35.562427 
L 66.616766 39.085714 
L 67.118694 39.537299 
L 71.491592 43.541421 
L 71.566768 43.611429 
L 75.86449 47.568219 
L 76.471177 48.137143 
L 80.237388 51.628832 
L 81.33199 52.662857 
L 82.12449 53.402999 
" clip-path="url(#pffae3229ea)" style="fill: none; stroke: #a0d066; stroke-width: 1.5"/>
    <path d="M 95.807936 66.397681 
L 97.72898 68.235727 
L 100.320401 70.765714 
L 102.101878 72.485271 
L 104.950036 75.291429 
L 106.474776 76.776705 
L 109.531554 79.817143 
L 110.847673 81.111462 
L 114.064563 84.342857 
L 115.220571 85.491011 
L 118.548772 88.868571 
L 119.593469 89.916867 
L 122.983977 93.394286 
L 123.966367 94.390589 
L 127.370066 97.92 
L 128.339265 98.913797 
L 131.707012 102.445714 
L 132.712163 103.488169 
L 135.994868 106.971429 
L 137.085061 108.115453 
L 140.233766 111.497143 
L 141.457959 112.797478 
L 144.423915 116.022857 
L 145.830857 117.536157 
L 148.565593 120.548571 
L 150.203755 122.333501 
L 152.659147 125.074286 
L 154.576653 127.191628 
L 156.70499 129.6 
L 158.949551 132.112775 
L 160.703596 134.125714 
L 163.322449 137.099315 
L 164.655498 138.651429 
L 167.695347 142.153765 
L 168.561284 143.177143 
L 172.068245 147.278806 
L 172.421596 147.702857 
L 176.234833 152.228571 
L 176.441143 152.470515 
L 179.999432 156.754286 
L 180.814041 157.724763 
L 183.720083 161.28 
L 185.186939 163.056098 
L 187.397603 165.805714 
L 189.559837 168.467859 
L 191.03285 170.331429 
L 193.932735 173.963647 
L 194.626721 174.857143 
L 198.178636 179.382857 
L 198.305633 179.542537 
L 201.68208 183.908571 
L 202.678531 185.184218 
L 205.14631 188.434286 
L 207.051429 190.918806 
L 208.572354 192.96 
L 211.424327 196.750978 
L 211.961265 197.485714 
L 215.307987 202.011429 
L 215.797224 202.664823 
L 218.612266 206.537143 
L 220.170122 208.65971 
L 221.881977 211.062857 
L 224.54302 214.763927 
L 225.118277 215.588571 
L 228.314498 220.114286 
L 228.915918 220.955195 
L 231.471397 224.64 
L 233.288816 227.236543 
L 234.597706 229.165714 
L 237.661714 233.641756 
L 237.694662 233.691429 
L 240.746074 238.217143 
L 242.034612 240.110532 
L 243.769436 242.742857 
L 246.40751 246.710808 
L 246.766486 247.268571 
L 249.723844 251.794286 
L 250.780408 253.393056 
L 252.651731 256.32 
" clip-path="url(#pffae3229ea)" style="fill: none; stroke: #a0d066; stroke-width: 1.5"/>
   </g>
   <g id="PathCollection_16">
    <path d="M 157.586952 34.56 
L 158.949551 36.484317 
L 160.751612 39.085714 
L 163.322449 42.777217 
L 163.890639 43.611429 
L 166.997538 48.137143 
L 167.695347 49.145972 
L 170.073526 52.662857 
L 172.068245 55.597845 
L 173.124852 57.188571 
L 173.372887 57.559753 
" clip-path="url(#pffae3229ea)" style="fill: none; stroke: #c0e066; stroke-width: 1.5"/>
    <path d="M 184.854952 74.998428 
L 185.045382 75.291429 
L 185.186939 75.506984 
L 187.950207 79.817143 
L 189.559837 82.316944 
L 190.832973 84.342857 
L 193.691752 88.868571 
L 193.932735 89.246186 
L 196.515214 93.394286 
L 198.305633 96.258863 
L 199.318203 97.92 
L 202.09486 102.445714 
L 202.678531 103.388667 
L 204.84043 106.971429 
L 207.051429 110.622976 
L 207.567274 111.497143 
L 210.262614 116.022857 
L 211.424327 117.96174 
L 212.934194 120.548571 
L 215.586424 125.074286 
L 215.797224 125.42992 
L 218.204041 129.6 
L 220.170122 132.997153 
L 220.805913 134.125714 
L 223.378729 138.651429 
L 224.54302 140.686722 
L 225.929176 143.177143 
L 228.460318 147.702857 
L 228.915918 148.508826 
L 230.960864 152.228571 
L 233.288816 156.455206 
L 233.44897 156.754286 
L 235.903256 161.28 
L 237.661714 164.513888 
L 238.344325 165.805714 
L 240.758764 170.331429 
L 242.034612 172.708735 
L 243.154514 174.857143 
L 245.529931 179.382857 
L 246.40751 181.04009 
L 247.88215 183.908571 
L 250.21943 188.434286 
L 250.780408 189.5082 
L 252.529972 192.96 
L 254.83006 197.485714 
L 255.153306 198.113186 
L 257.100845 202.011429 
L 259.364748 206.537143 
L 259.526204 206.855019 
L 261.597759 211.062857 
L 263.826549 215.588571 
L 263.899102 215.733483 
L 266.023832 220.114286 
L 268.218646 224.64 
L 268.272 224.748132 
" clip-path="url(#pffae3229ea)" style="fill: none; stroke: #c0e066; stroke-width: 1.5"/>
   </g>
   <g id="PathCollection_17">
    <path d="M 236.983412 34.56 
L 237.661714 36.325959 
L 238.695922 39.085714 
L 240.397229 43.611429 
L 242.034612 47.972979 
L 242.094718 48.137143 
L 243.769511 52.662857 
L 245.441344 57.188571 
L 246.40751 59.793876 
L 246.826242 60.952207 
" clip-path="url(#pffae3229ea)" style="fill: none; stroke: #e0f066; stroke-width: 1.5"/>
    <path d="M 254.682069 82.754088 
L 255.153306 84.073474 
L 255.247008 84.342857 
L 256.839461 88.868571 
L 258.429632 93.394286 
L 259.526204 96.5057 
L 260.011374 97.92 
L 261.577062 102.445714 
L 263.140781 106.971429 
L 263.899102 109.152312 
L 264.692261 111.497143 
L 266.232177 116.022857 
L 267.770471 120.548571 
L 268.272 122.010701 
" clip-path="url(#pffae3229ea)" style="fill: none; stroke: #e0f066; stroke-width: 1.5"/>
   </g>
   <g id="PathCollection_18"/>
   <g id="patch_3">
    <path d="M 54 256.32 
L 54 34.56 
" style="fill: none; stroke: #000000; stroke-width: 0.8; stroke-linejoin: miter; stroke-linecap: square"/>
   </g>
   <g id="patch_4">
    <path d="M 268.272 256.32 
L 268.272 34.56 
" style="fill: none; stroke: #000000; stroke-width: 0.8; stroke-linejoin: miter; stroke-linecap: square"/>
   </g>
   <g id="patch_5">
    <path d="M 54 256.32 
L 268.272 256.32 
" style="fill: none; stroke: #000000; stroke-width: 0.8; stroke-linejoin: miter; stroke-linecap: square"/>
   </g>
   <g id="patch_6">
    <path d="M 54 34.56 
L 268.272 34.56 
" style="fill: none; stroke: #000000; stroke-width: 0.8; stroke-linejoin: miter; stroke-linecap: square"/>
   </g>
   <g id="text_17">
    <g clip-path="url(#pffae3229ea)">
     <!-- 55.0 -->
     <g style="fill: #40bfff" transform="translate(262.893699 145.77049) rotate(-85.917509) scale(0.08 -0.08)">
      <use xlink:href="#TimesNewRomanPSMT-35"/>
      <use xlink:href="#TimesNewRomanPSMT-35" x="50"/>
      <use xlink:href="#TimesNewRomanPSMT-2e" x="100"/>
      <use xlink:href="#TimesNewRomanPSMT-30" x="125"/>
     </g>
    </g>
   </g>
   <g id="text_18">
    <g clip-path="url(#pffae3229ea)">
     <!-- 57.5 -->
     <g style="fill: #609fff" transform="translate(249.857157 150.346552) rotate(-83.660465) scale(0.08 -0.08)">
      <use xlink:href="#TimesNewRomanPSMT-35"/>
      <use xlink:href="#TimesNewRomanPSMT-37" x="50"/>
      <use xlink:href="#TimesNewRomanPSMT-2e" x="100"/>
      <use xlink:href="#TimesNewRomanPSMT-35" x="125"/>
     </g>
    </g>
   </g>
   <g id="text_19">
    <g clip-path="url(#pffae3229ea)">
     <!-- 60.0 -->
     <g style="fill: #807fff" transform="translate(240.872588 77.942956) rotate(-83.256843) scale(0.08 -0.08)">
      <use xlink:href="#TimesNewRomanPSMT-36"/>
      <use xlink:href="#TimesNewRomanPSMT-30" x="50"/>
      <use xlink:href="#TimesNewRomanPSMT-2e" x="100"/>
      <use xlink:href="#TimesNewRomanPSMT-30" x="125"/>
     </g>
    </g>
   </g>
   <g id="text_20">
    <g clip-path="url(#pffae3229ea)">
     <!-- 62.5 -->
     <g style="fill: #a05fff" transform="translate(220.957264 100.633582) rotate(-78.873947) scale(0.08 -0.08)">
      <use xlink:href="#TimesNewRomanPSMT-36"/>
      <use xlink:href="#TimesNewRomanPSMT-32" x="50"/>
      <use xlink:href="#TimesNewRomanPSMT-2e" x="100"/>
      <use xlink:href="#TimesNewRomanPSMT-35" x="125"/>
     </g>
    </g>
   </g>
   <g id="text_21">
    <g clip-path="url(#pffae3229ea)">
     <!-- 62.5 -->
     <g style="fill: #a05fff" transform="translate(63.93478 235.465809) rotate(-322.374419) scale(0.08 -0.08)">
      <use xlink:href="#TimesNewRomanPSMT-36"/>
      <use xlink:href="#TimesNewRomanPSMT-32" x="50"/>
      <use xlink:href="#TimesNewRomanPSMT-2e" x="100"/>
      <use xlink:href="#TimesNewRomanPSMT-35" x="125"/>
     </g>
    </g>
   </g>
   <g id="text_22">
    <g clip-path="url(#pffae3229ea)">
     <!-- 65.0 -->
     <g style="fill: #c03fff" transform="translate(188.534115 125.487797) rotate(-66.524293) scale(0.08 -0.08)">
      <use xlink:href="#TimesNewRomanPSMT-36"/>
      <use xlink:href="#TimesNewRomanPSMT-35" x="50"/>
      <use xlink:href="#TimesNewRomanPSMT-2e" x="100"/>
      <use xlink:href="#TimesNewRomanPSMT-30" x="125"/>
     </g>
    </g>
   </g>
   <g id="text_23">
    <g clip-path="url(#pffae3229ea)">
     <!-- 67.5 -->
     <g style="fill: #e01fff" transform="translate(76.484109 58.070187) rotate(-314.514554) scale(0.08 -0.08)">
      <use xlink:href="#TimesNewRomanPSMT-36"/>
      <use xlink:href="#TimesNewRomanPSMT-37" x="50"/>
      <use xlink:href="#TimesNewRomanPSMT-2e" x="100"/>
      <use xlink:href="#TimesNewRomanPSMT-35" x="125"/>
     </g>
    </g>
   </g>
   <g id="text_24">
    <g clip-path="url(#pffae3229ea)">
     <!-- 0.954 -->
     <g style="fill: #209066" transform="translate(66.282711 246.185836) rotate(-341.189429) scale(0.08 -0.08)">
      <defs>
       <path id="TimesNewRomanPSMT-39" d="M 338 -88 
L 338 28 
Q 744 34 1094 217 
Q 1444 400 1770 856 
Q 2097 1313 2225 1859 
Q 1734 1544 1338 1544 
Q 891 1544 572 1889 
Q 253 2234 253 2806 
Q 253 3363 572 3797 
Q 956 4325 1575 4325 
Q 2097 4325 2469 3894 
Q 2925 3359 2925 2575 
Q 2925 1869 2578 1258 
Q 2231 647 1613 244 
Q 1109 -88 516 -88 
L 338 -88 
z
M 2275 2091 
Q 2331 2497 2331 2741 
Q 2331 3044 2228 3395 
Q 2125 3747 1936 3934 
Q 1747 4122 1506 4122 
Q 1228 4122 1018 3872 
Q 809 3622 809 3128 
Q 809 2469 1088 2097 
Q 1291 1828 1588 1828 
Q 1731 1828 1928 1897 
Q 2125 1966 2275 2091 
z
" transform="scale(0.015625)"/>
      </defs>
      <use xlink:href="#TimesNewRomanPSMT-30"/>
      <use xlink:href="#TimesNewRomanPSMT-2e" x="50"/>
      <use xlink:href="#TimesNewRomanPSMT-39" x="75"/>
      <use xlink:href="#TimesNewRomanPSMT-35" x="125"/>
      <use xlink:href="#TimesNewRomanPSMT-34" x="175"/>
     </g>
    </g>
   </g>
   <g id="text_25">
    <g clip-path="url(#pffae3229ea)">
     <!-- 0.960 -->
     <g style="fill: #40a066" transform="translate(79.89907 222.213889) rotate(-338.729854) scale(0.08 -0.08)">
      <use xlink:href="#TimesNewRomanPSMT-30"/>
      <use xlink:href="#TimesNewRomanPSMT-2e" x="50"/>
      <use xlink:href="#TimesNewRomanPSMT-39" x="75"/>
      <use xlink:href="#TimesNewRomanPSMT-36" x="125"/>
      <use xlink:href="#TimesNewRomanPSMT-30" x="175"/>
     </g>
    </g>
   </g>
   <g id="text_26">
    <g clip-path="url(#pffae3229ea)">
     <!-- 0.966 -->
     <g style="fill: #60b066" transform="translate(78.920056 182.056755) rotate(-336.337657) scale(0.08 -0.08)">
      <use xlink:href="#TimesNewRomanPSMT-30"/>
      <use xlink:href="#TimesNewRomanPSMT-2e" x="50"/>
      <use xlink:href="#TimesNewRomanPSMT-39" x="75"/>
      <use xlink:href="#TimesNewRomanPSMT-36" x="125"/>
      <use xlink:href="#TimesNewRomanPSMT-36" x="175"/>
     </g>
    </g>
   </g>
   <g id="text_27">
    <g clip-path="url(#pffae3229ea)">
     <!-- 0.972 -->
     <g style="fill: #80c066" transform="translate(75.705991 127.155023) rotate(-333.310267) scale(0.08 -0.08)">
      <use xlink:href="#TimesNewRomanPSMT-30"/>
      <use xlink:href="#TimesNewRomanPSMT-2e" x="50"/>
      <use xlink:href="#TimesNewRomanPSMT-39" x="75"/>
      <use xlink:href="#TimesNewRomanPSMT-37" x="125"/>
      <use xlink:href="#TimesNewRomanPSMT-32" x="175"/>
     </g>
    </g>
   </g>
   <g id="text_28">
    <g clip-path="url(#pffae3229ea)">
     <!-- 0.978 -->
     <g style="fill: #a0d066" transform="translate(80.293737 56.825708) rotate(-328.716367) scale(0.08 -0.08)">
      <defs>
       <path id="TimesNewRomanPSMT-38" d="M 1228 2134 
Q 725 2547 579 2797 
Q 434 3047 434 3316 
Q 434 3728 753 4026 
Q 1072 4325 1600 4325 
Q 2113 4325 2425 4047 
Q 2738 3769 2738 3413 
Q 2738 3175 2569 2928 
Q 2400 2681 1866 2347 
Q 2416 1922 2594 1678 
Q 2831 1359 2831 1006 
Q 2831 559 2490 242 
Q 2150 -75 1597 -75 
Q 994 -75 656 303 
Q 388 606 388 966 
Q 388 1247 577 1523 
Q 766 1800 1228 2134 
z
M 1719 2469 
Q 2094 2806 2194 3001 
Q 2294 3197 2294 3444 
Q 2294 3772 2109 3958 
Q 1925 4144 1606 4144 
Q 1288 4144 1088 3959 
Q 888 3775 888 3528 
Q 888 3366 970 3203 
Q 1053 3041 1206 2894 
L 1719 2469 
z
M 1375 2016 
Q 1116 1797 991 1539 
Q 866 1281 866 981 
Q 866 578 1086 336 
Q 1306 94 1647 94 
Q 1984 94 2187 284 
Q 2391 475 2391 747 
Q 2391 972 2272 1150 
Q 2050 1481 1375 2016 
z
" transform="scale(0.015625)"/>
      </defs>
      <use xlink:href="#TimesNewRomanPSMT-30"/>
      <use xlink:href="#TimesNewRomanPSMT-2e" x="50"/>
      <use xlink:href="#TimesNewRomanPSMT-39" x="75"/>
      <use xlink:href="#TimesNewRomanPSMT-37" x="125"/>
      <use xlink:href="#TimesNewRomanPSMT-38" x="175"/>
     </g>
    </g>
   </g>
   <g id="text_29">
    <g clip-path="url(#pffae3229ea)">
     <!-- 0.984 -->
     <g style="fill: #c0e066" transform="translate(171.345976 61.343681) rotate(-315.802608) scale(0.08 -0.08)">
      <use xlink:href="#TimesNewRomanPSMT-30"/>
      <use xlink:href="#TimesNewRomanPSMT-2e" x="50"/>
      <use xlink:href="#TimesNewRomanPSMT-39" x="75"/>
      <use xlink:href="#TimesNewRomanPSMT-38" x="125"/>
      <use xlink:href="#TimesNewRomanPSMT-34" x="175"/>
     </g>
    </g>
   </g>
   <g id="text_30">
    <g clip-path="url(#pffae3229ea)">
     <!-- 0.990 -->
     <g style="fill: #e0f066" transform="translate(244.689719 64.930982) rotate(-299.384976) scale(0.08 -0.08)">
      <use xlink:href="#TimesNewRomanPSMT-30"/>
      <use xlink:href="#TimesNewRomanPSMT-2e" x="50"/>
      <use xlink:href="#TimesNewRomanPSMT-39" x="75"/>
      <use xlink:href="#TimesNewRomanPSMT-39" x="125"/>
      <use xlink:href="#TimesNewRomanPSMT-30" x="175"/>
     </g>
    </g>
   </g>
  </g>
  <g id="axes_2">
   <g id="patch_7">
    <path d="M 338.58 256.32 
L 349.668 256.32 
L 349.668 34.56 
L 338.58 34.56 
z
" style="fill: #ffffff"/>
   </g>
   <g id="matplotlib.axis_3"/>
   <g id="matplotlib.axis_4">
    <g id="ytick_10">
     <g id="line2d_15">
      <defs>
       <path id="ma81a52e963" d="M 0 0 
L 3.5 0 
" style="stroke: #000000; stroke-width: 0.8"/>
      </defs>
      <g>
       <use xlink:href="#ma81a52e963" x="349.668" y="256.32" style="stroke: #000000; stroke-width: 0.8"/>
      </g>
     </g>
     <g id="text_31">
      <!-- 50.0 -->
      <g transform="translate(356.668 259.791875) scale(0.1 -0.1)">
       <use xlink:href="#TimesNewRomanPSMT-35"/>
       <use xlink:href="#TimesNewRomanPSMT-30" x="50"/>
       <use xlink:href="#TimesNewRomanPSMT-2e" x="100"/>
       <use xlink:href="#TimesNewRomanPSMT-30" x="125"/>
      </g>
     </g>
    </g>
    <g id="ytick_11">
     <g id="line2d_16">
      <g>
       <use xlink:href="#ma81a52e963" x="349.668" y="228.6" style="stroke: #000000; stroke-width: 0.8"/>
      </g>
     </g>
     <g id="text_32">
      <!-- 52.5 -->
      <g transform="translate(356.668 232.071875) scale(0.1 -0.1)">
       <use xlink:href="#TimesNewRomanPSMT-35"/>
       <use xlink:href="#TimesNewRomanPSMT-32" x="50"/>
       <use xlink:href="#TimesNewRomanPSMT-2e" x="100"/>
       <use xlink:href="#TimesNewRomanPSMT-35" x="125"/>
      </g>
     </g>
    </g>
    <g id="ytick_12">
     <g id="line2d_17">
      <g>
       <use xlink:href="#ma81a52e963" x="349.668" y="200.88" style="stroke: #000000; stroke-width: 0.8"/>
      </g>
     </g>
     <g id="text_33">
      <!-- 55.0 -->
      <g transform="translate(356.668 204.351875) scale(0.1 -0.1)">
       <use xlink:href="#TimesNewRomanPSMT-35"/>
       <use xlink:href="#TimesNewRomanPSMT-35" x="50"/>
       <use xlink:href="#TimesNewRomanPSMT-2e" x="100"/>
       <use xlink:href="#TimesNewRomanPSMT-30" x="125"/>
      </g>
     </g>
    </g>
    <g id="ytick_13">
     <g id="line2d_18">
      <g>
       <use xlink:href="#ma81a52e963" x="349.668" y="173.16" style="stroke: #000000; stroke-width: 0.8"/>
      </g>
     </g>
     <g id="text_34">
      <!-- 57.5 -->
      <g transform="translate(356.668 176.631875) scale(0.1 -0.1)">
       <use xlink:href="#TimesNewRomanPSMT-35"/>
       <use xlink:href="#TimesNewRomanPSMT-37" x="50"/>
       <use xlink:href="#TimesNewRomanPSMT-2e" x="100"/>
       <use xlink:href="#TimesNewRomanPSMT-35" x="125"/>
      </g>
     </g>
    </g>
    <g id="ytick_14">
     <g id="line2d_19">
      <g>
       <use xlink:href="#ma81a52e963" x="349.668" y="145.44" style="stroke: #000000; stroke-width: 0.8"/>
      </g>
     </g>
     <g id="text_35">
      <!-- 60.0 -->
      <g transform="translate(356.668 148.911875) scale(0.1 -0.1)">
       <use xlink:href="#TimesNewRomanPSMT-36"/>
       <use xlink:href="#TimesNewRomanPSMT-30" x="50"/>
       <use xlink:href="#TimesNewRomanPSMT-2e" x="100"/>
       <use xlink:href="#TimesNewRomanPSMT-30" x="125"/>
      </g>
     </g>
    </g>
    <g id="ytick_15">
     <g id="line2d_20">
      <g>
       <use xlink:href="#ma81a52e963" x="349.668" y="117.72" style="stroke: #000000; stroke-width: 0.8"/>
      </g>
     </g>
     <g id="text_36">
      <!-- 62.5 -->
      <g transform="translate(356.668 121.191875) scale(0.1 -0.1)">
       <use xlink:href="#TimesNewRomanPSMT-36"/>
       <use xlink:href="#TimesNewRomanPSMT-32" x="50"/>
       <use xlink:href="#TimesNewRomanPSMT-2e" x="100"/>
       <use xlink:href="#TimesNewRomanPSMT-35" x="125"/>
      </g>
     </g>
    </g>
    <g id="ytick_16">
     <g id="line2d_21">
      <g>
       <use xlink:href="#ma81a52e963" x="349.668" y="90" style="stroke: #000000; stroke-width: 0.8"/>
      </g>
     </g>
     <g id="text_37">
      <!-- 65.0 -->
      <g transform="translate(356.668 93.471875) scale(0.1 -0.1)">
       <use xlink:href="#TimesNewRomanPSMT-36"/>
       <use xlink:href="#TimesNewRomanPSMT-35" x="50"/>
       <use xlink:href="#TimesNewRomanPSMT-2e" x="100"/>
       <use xlink:href="#TimesNewRomanPSMT-30" x="125"/>
      </g>
     </g>
    </g>
    <g id="ytick_17">
     <g id="line2d_22">
      <g>
       <use xlink:href="#ma81a52e963" x="349.668" y="62.28" style="stroke: #000000; stroke-width: 0.8"/>
      </g>
     </g>
     <g id="text_38">
      <!-- 67.5 -->
      <g transform="translate(356.668 65.751875) scale(0.1 -0.1)">
       <use xlink:href="#TimesNewRomanPSMT-36"/>
       <use xlink:href="#TimesNewRomanPSMT-37" x="50"/>
       <use xlink:href="#TimesNewRomanPSMT-2e" x="100"/>
       <use xlink:href="#TimesNewRomanPSMT-35" x="125"/>
      </g>
     </g>
    </g>
    <g id="ytick_18">
     <g id="line2d_23">
      <g>
       <use xlink:href="#ma81a52e963" x="349.668" y="34.56" style="stroke: #000000; stroke-width: 0.8"/>
      </g>
     </g>
     <g id="text_39">
      <!-- 70.0 -->
      <g transform="translate(356.668 38.031875) scale(0.1 -0.1)">
       <use xlink:href="#TimesNewRomanPSMT-37"/>
       <use xlink:href="#TimesNewRomanPSMT-30" x="50"/>
       <use xlink:href="#TimesNewRomanPSMT-2e" x="100"/>
       <use xlink:href="#TimesNewRomanPSMT-30" x="125"/>
      </g>
     </g>
    </g>
    <g id="text_40">
     <!-- Torque (Nm) -->
     <g transform="translate(385.11175 171.607969) rotate(-90) scale(0.1 -0.1)">
      <defs>
       <path id="TimesNewRomanPSMT-54" d="M 3703 4238 
L 3750 3244 
L 3631 3244 
Q 3597 3506 3538 3619 
Q 3441 3800 3280 3886 
Q 3119 3972 2856 3972 
L 2259 3972 
L 2259 734 
Q 2259 344 2344 247 
Q 2463 116 2709 116 
L 2856 116 
L 2856 0 
L 1059 0 
L 1059 116 
L 1209 116 
Q 1478 116 1591 278 
Q 1659 378 1659 734 
L 1659 3972 
L 1150 3972 
Q 853 3972 728 3928 
Q 566 3869 450 3700 
Q 334 3531 313 3244 
L 194 3244 
L 244 4238 
L 3703 4238 
z
" transform="scale(0.015625)"/>
       <path id="TimesNewRomanPSMT-6f" d="M 1600 2947 
Q 2250 2947 2644 2453 
Q 2978 2031 2978 1484 
Q 2978 1100 2793 706 
Q 2609 313 2286 112 
Q 1963 -88 1566 -88 
Q 919 -88 538 428 
Q 216 863 216 1403 
Q 216 1797 411 2186 
Q 606 2575 925 2761 
Q 1244 2947 1600 2947 
z
M 1503 2744 
Q 1338 2744 1170 2645 
Q 1003 2547 900 2300 
Q 797 2053 797 1666 
Q 797 1041 1045 587 
Q 1294 134 1700 134 
Q 2003 134 2200 384 
Q 2397 634 2397 1244 
Q 2397 2006 2069 2444 
Q 1847 2744 1503 2744 
z
" transform="scale(0.015625)"/>
       <path id="TimesNewRomanPSMT-72" d="M 1038 2947 
L 1038 2303 
Q 1397 2947 1775 2947 
Q 1947 2947 2059 2842 
Q 2172 2738 2172 2600 
Q 2172 2478 2090 2393 
Q 2009 2309 1897 2309 
Q 1788 2309 1652 2417 
Q 1516 2525 1450 2525 
Q 1394 2525 1328 2463 
Q 1188 2334 1038 2041 
L 1038 669 
Q 1038 431 1097 309 
Q 1138 225 1241 169 
Q 1344 113 1538 113 
L 1538 0 
L 72 0 
L 72 113 
Q 291 113 397 181 
Q 475 231 506 341 
Q 522 394 522 644 
L 522 1753 
Q 522 2253 501 2348 
Q 481 2444 426 2487 
Q 372 2531 291 2531 
Q 194 2531 72 2484 
L 41 2597 
L 906 2947 
L 1038 2947 
z
" transform="scale(0.015625)"/>
       <path id="TimesNewRomanPSMT-71" d="M 2734 2947 
L 2734 -734 
Q 2734 -1009 2771 -1087 
Q 2809 -1166 2889 -1209 
Q 2969 -1253 3200 -1253 
L 3200 -1369 
L 1756 -1369 
L 1756 -1253 
L 1816 -1253 
Q 1991 -1253 2081 -1203 
Q 2144 -1169 2181 -1080 
Q 2219 -991 2219 -734 
L 2219 497 
Q 1934 159 1721 35 
Q 1509 -88 1281 -88 
Q 866 -88 539 290 
Q 213 669 213 1303 
Q 213 2031 644 2489 
Q 1075 2947 1684 2947 
Q 1863 2947 2013 2897 
Q 2163 2847 2281 2747 
Q 2463 2834 2628 2947 
L 2734 2947 
z
M 2219 694 
L 2219 2038 
Q 2219 2272 2158 2406 
Q 2097 2541 1940 2634 
Q 1784 2728 1588 2728 
Q 1238 2728 988 2431 
Q 738 2134 738 1531 
Q 738 953 992 653 
Q 1247 353 1606 353 
Q 1791 353 1934 433 
Q 2078 513 2219 694 
z
" transform="scale(0.015625)"/>
       <path id="TimesNewRomanPSMT-75" d="M 2709 2863 
L 2709 1128 
Q 2709 631 2732 520 
Q 2756 409 2807 365 
Q 2859 322 2928 322 
Q 3025 322 3147 375 
L 3191 266 
L 2334 -88 
L 2194 -88 
L 2194 519 
Q 1825 119 1631 15 
Q 1438 -88 1222 -88 
Q 981 -88 804 51 
Q 628 191 559 409 
Q 491 628 491 1028 
L 491 2306 
Q 491 2509 447 2587 
Q 403 2666 317 2708 
Q 231 2750 6 2747 
L 6 2863 
L 1009 2863 
L 1009 947 
Q 1009 547 1148 422 
Q 1288 297 1484 297 
Q 1619 297 1789 381 
Q 1959 466 2194 703 
L 2194 2325 
Q 2194 2569 2105 2655 
Q 2016 2741 1734 2747 
L 1734 2863 
L 2709 2863 
z
" transform="scale(0.015625)"/>
       <path id="TimesNewRomanPSMT-65" d="M 681 1784 
Q 678 1147 991 784 
Q 1303 422 1725 422 
Q 2006 422 2214 576 
Q 2422 731 2563 1106 
L 2659 1044 
Q 2594 616 2278 264 
Q 1963 -88 1488 -88 
Q 972 -88 605 314 
Q 238 716 238 1394 
Q 238 2128 614 2539 
Q 991 2950 1559 2950 
Q 2041 2950 2350 2633 
Q 2659 2316 2659 1784 
L 681 1784 
z
M 681 1966 
L 2006 1966 
Q 1991 2241 1941 2353 
Q 1863 2528 1708 2628 
Q 1553 2728 1384 2728 
Q 1125 2728 920 2526 
Q 716 2325 681 1966 
z
" transform="scale(0.015625)"/>
       <path id="TimesNewRomanPSMT-20" transform="scale(0.015625)"/>
       <path id="TimesNewRomanPSMT-28" d="M 1988 -1253 
L 1988 -1369 
Q 1516 -1131 1200 -813 
Q 750 -359 506 256 
Q 263 872 263 1534 
Q 263 2503 741 3301 
Q 1219 4100 1988 4444 
L 1988 4313 
Q 1603 4100 1356 3731 
Q 1109 3363 987 2797 
Q 866 2231 866 1616 
Q 866 947 969 400 
Q 1050 -31 1165 -292 
Q 1281 -553 1476 -793 
Q 1672 -1034 1988 -1253 
z
" transform="scale(0.015625)"/>
       <path id="TimesNewRomanPSMT-4e" d="M -84 4238 
L 1066 4238 
L 3656 1059 
L 3656 3503 
Q 3656 3894 3569 3991 
Q 3453 4122 3203 4122 
L 3056 4122 
L 3056 4238 
L 4531 4238 
L 4531 4122 
L 4381 4122 
Q 4113 4122 4000 3959 
Q 3931 3859 3931 3503 
L 3931 -69 
L 3819 -69 
L 1025 3344 
L 1025 734 
Q 1025 344 1109 247 
Q 1228 116 1475 116 
L 1625 116 
L 1625 0 
L 150 0 
L 150 116 
L 297 116 
Q 569 116 681 278 
Q 750 378 750 734 
L 750 3681 
Q 566 3897 470 3965 
Q 375 4034 191 4094 
Q 100 4122 -84 4122 
L -84 4238 
z
" transform="scale(0.015625)"/>
       <path id="TimesNewRomanPSMT-6d" d="M 1050 2338 
Q 1363 2650 1419 2697 
Q 1559 2816 1721 2881 
Q 1884 2947 2044 2947 
Q 2313 2947 2506 2790 
Q 2700 2634 2766 2338 
Q 3088 2713 3309 2830 
Q 3531 2947 3766 2947 
Q 3994 2947 4170 2830 
Q 4347 2713 4450 2447 
Q 4519 2266 4519 1878 
L 4519 647 
Q 4519 378 4559 278 
Q 4591 209 4675 161 
Q 4759 113 4950 113 
L 4950 0 
L 3538 0 
L 3538 113 
L 3597 113 
Q 3781 113 3884 184 
Q 3956 234 3988 344 
Q 4000 397 4000 647 
L 4000 1878 
Q 4000 2228 3916 2372 
Q 3794 2572 3525 2572 
Q 3359 2572 3192 2489 
Q 3025 2406 2788 2181 
L 2781 2147 
L 2788 2013 
L 2788 647 
Q 2788 353 2820 281 
Q 2853 209 2943 161 
Q 3034 113 3253 113 
L 3253 0 
L 1806 0 
L 1806 113 
Q 2044 113 2133 169 
Q 2222 225 2256 338 
Q 2272 391 2272 647 
L 2272 1878 
Q 2272 2228 2169 2381 
Q 2031 2581 1784 2581 
Q 1616 2581 1450 2491 
Q 1191 2353 1050 2181 
L 1050 647 
Q 1050 366 1089 281 
Q 1128 197 1204 155 
Q 1281 113 1516 113 
L 1516 0 
L 100 0 
L 100 113 
Q 297 113 375 155 
Q 453 197 493 289 
Q 534 381 534 647 
L 534 1741 
Q 534 2213 506 2350 
Q 484 2453 437 2492 
Q 391 2531 309 2531 
Q 222 2531 100 2484 
L 53 2597 
L 916 2947 
L 1050 2947 
L 1050 2338 
z
" transform="scale(0.015625)"/>
       <path id="TimesNewRomanPSMT-29" d="M 144 4313 
L 144 4444 
Q 619 4209 934 3891 
Q 1381 3434 1625 2820 
Q 1869 2206 1869 1541 
Q 1869 572 1392 -226 
Q 916 -1025 144 -1369 
L 144 -1253 
Q 528 -1038 776 -670 
Q 1025 -303 1145 264 
Q 1266 831 1266 1447 
Q 1266 2113 1163 2663 
Q 1084 3094 967 3353 
Q 850 3613 656 3853 
Q 463 4094 144 4313 
z
" transform="scale(0.015625)"/>
      </defs>
      <use xlink:href="#TimesNewRomanPSMT-54"/>
      <use xlink:href="#TimesNewRomanPSMT-6f" x="54.083984"/>
      <use xlink:href="#TimesNewRomanPSMT-72" x="104.083984"/>
      <use xlink:href="#TimesNewRomanPSMT-71" x="137.384766"/>
      <use xlink:href="#TimesNewRomanPSMT-75" x="187.384766"/>
      <use xlink:href="#TimesNewRomanPSMT-65" x="237.384766"/>
      <use xlink:href="#TimesNewRomanPSMT-20" x="281.769531"/>
      <use xlink:href="#TimesNewRomanPSMT-28" x="306.769531"/>
      <use xlink:href="#TimesNewRomanPSMT-4e" x="340.070312"/>
      <use xlink:href="#TimesNewRomanPSMT-6d" x="412.287109"/>
      <use xlink:href="#TimesNewRomanPSMT-29" x="490.070312"/>
     </g>
    </g>
   </g>
   <g id="LineCollection_1"/>
   <g id="LineCollection_2">
    <path d="M 338.58 256.32 
L 349.668 256.32 
" clip-path="url(#pa39b3c9978)" style="fill: none; stroke: #00ffff; stroke-width: 1.5"/>
    <path d="M 338.58 228.6 
L 349.668 228.6 
" clip-path="url(#pa39b3c9978)" style="fill: none; stroke: #20dfff; stroke-width: 1.5"/>
    <path d="M 338.58 200.88 
L 349.668 200.88 
" clip-path="url(#pa39b3c9978)" style="fill: none; stroke: #40bfff; stroke-width: 1.5"/>
    <path d="M 338.58 173.16 
L 349.668 173.16 
" clip-path="url(#pa39b3c9978)" style="fill: none; stroke: #609fff; stroke-width: 1.5"/>
    <path d="M 338.58 145.44 
L 349.668 145.44 
" clip-path="url(#pa39b3c9978)" style="fill: none; stroke: #807fff; stroke-width: 1.5"/>
    <path d="M 338.58 117.72 
L 349.668 117.72 
" clip-path="url(#pa39b3c9978)" style="fill: none; stroke: #a05fff; stroke-width: 1.5"/>
    <path d="M 338.58 90 
L 349.668 90 
" clip-path="url(#pa39b3c9978)" style="fill: none; stroke: #c03fff; stroke-width: 1.5"/>
    <path d="M 338.58 62.28 
L 349.668 62.28 
" clip-path="url(#pa39b3c9978)" style="fill: none; stroke: #e01fff; stroke-width: 1.5"/>
    <path d="M 338.58 34.56 
L 349.668 34.56 
" clip-path="url(#pa39b3c9978)" style="fill: none; stroke: #ff00ff; stroke-width: 1.5"/>
   </g>
   <g id="patch_8">
    <path d="M 338.58 256.32 
L 344.124 256.32 
L 349.668 256.32 
L 349.668 34.56 
L 344.124 34.56 
L 338.58 34.56 
L 338.58 256.32 
z
" style="fill: none; stroke: #000000; stroke-width: 0.8; stroke-linejoin: miter; stroke-linecap: square"/>
   </g>
  </g>
  <g id="axes_3">
   <g id="patch_9">
    <path d="M 281.664 256.32 
L 292.752 256.32 
L 292.752 34.56 
L 281.664 34.56 
z
" style="fill: #ffffff"/>
   </g>
   <g id="matplotlib.axis_5"/>
   <g id="matplotlib.axis_6">
    <g id="ytick_19">
     <g id="line2d_24">
      <g>
       <use xlink:href="#ma81a52e963" x="292.752" y="256.32" style="stroke: #000000; stroke-width: 0.8"/>
      </g>
     </g>
     <g id="text_41">
      <!-- 0.948 -->
      <g transform="translate(299.752 259.791875) scale(0.1 -0.1)">
       <use xlink:href="#TimesNewRomanPSMT-30"/>
       <use xlink:href="#TimesNewRomanPSMT-2e" x="50"/>
       <use xlink:href="#TimesNewRomanPSMT-39" x="75"/>
       <use xlink:href="#TimesNewRomanPSMT-34" x="125"/>
       <use xlink:href="#TimesNewRomanPSMT-38" x="175"/>
      </g>
     </g>
    </g>
    <g id="ytick_20">
     <g id="line2d_25">
      <g>
       <use xlink:href="#ma81a52e963" x="292.752" y="228.6" style="stroke: #000000; stroke-width: 0.8"/>
      </g>
     </g>
     <g id="text_42">
      <!-- 0.954 -->
      <g transform="translate(299.752 232.071875) scale(0.1 -0.1)">
       <use xlink:href="#TimesNewRomanPSMT-30"/>
       <use xlink:href="#TimesNewRomanPSMT-2e" x="50"/>
       <use xlink:href="#TimesNewRomanPSMT-39" x="75"/>
       <use xlink:href="#TimesNewRomanPSMT-35" x="125"/>
       <use xlink:href="#TimesNewRomanPSMT-34" x="175"/>
      </g>
     </g>
    </g>
    <g id="ytick_21">
     <g id="line2d_26">
      <g>
       <use xlink:href="#ma81a52e963" x="292.752" y="200.88" style="stroke: #000000; stroke-width: 0.8"/>
      </g>
     </g>
     <g id="text_43">
      <!-- 0.960 -->
      <g transform="translate(299.752 204.351875) scale(0.1 -0.1)">
       <use xlink:href="#TimesNewRomanPSMT-30"/>
       <use xlink:href="#TimesNewRomanPSMT-2e" x="50"/>
       <use xlink:href="#TimesNewRomanPSMT-39" x="75"/>
       <use xlink:href="#TimesNewRomanPSMT-36" x="125"/>
       <use xlink:href="#TimesNewRomanPSMT-30" x="175"/>
      </g>
     </g>
    </g>
    <g id="ytick_22">
     <g id="line2d_27">
      <g>
       <use xlink:href="#ma81a52e963" x="292.752" y="173.16" style="stroke: #000000; stroke-width: 0.8"/>
      </g>
     </g>
     <g id="text_44">
      <!-- 0.966 -->
      <g transform="translate(299.752 176.631875) scale(0.1 -0.1)">
       <use xlink:href="#TimesNewRomanPSMT-30"/>
       <use xlink:href="#TimesNewRomanPSMT-2e" x="50"/>
       <use xlink:href="#TimesNewRomanPSMT-39" x="75"/>
       <use xlink:href="#TimesNewRomanPSMT-36" x="125"/>
       <use xlink:href="#TimesNewRomanPSMT-36" x="175"/>
      </g>
     </g>
    </g>
    <g id="ytick_23">
     <g id="line2d_28">
      <g>
       <use xlink:href="#ma81a52e963" x="292.752" y="145.44" style="stroke: #000000; stroke-width: 0.8"/>
      </g>
     </g>
     <g id="text_45">
      <!-- 0.972 -->
      <g transform="translate(299.752 148.911875) scale(0.1 -0.1)">
       <use xlink:href="#TimesNewRomanPSMT-30"/>
       <use xlink:href="#TimesNewRomanPSMT-2e" x="50"/>
       <use xlink:href="#TimesNewRomanPSMT-39" x="75"/>
       <use xlink:href="#TimesNewRomanPSMT-37" x="125"/>
       <use xlink:href="#TimesNewRomanPSMT-32" x="175"/>
      </g>
     </g>
    </g>
    <g id="ytick_24">
     <g id="line2d_29">
      <g>
       <use xlink:href="#ma81a52e963" x="292.752" y="117.72" style="stroke: #000000; stroke-width: 0.8"/>
      </g>
     </g>
     <g id="text_46">
      <!-- 0.978 -->
      <g transform="translate(299.752 121.191875) scale(0.1 -0.1)">
       <use xlink:href="#TimesNewRomanPSMT-30"/>
       <use xlink:href="#TimesNewRomanPSMT-2e" x="50"/>
       <use xlink:href="#TimesNewRomanPSMT-39" x="75"/>
       <use xlink:href="#TimesNewRomanPSMT-37" x="125"/>
       <use xlink:href="#TimesNewRomanPSMT-38" x="175"/>
      </g>
     </g>
    </g>
    <g id="ytick_25">
     <g id="line2d_30">
      <g>
       <use xlink:href="#ma81a52e963" x="292.752" y="90" style="stroke: #000000; stroke-width: 0.8"/>
      </g>
     </g>
     <g id="text_47">
      <!-- 0.984 -->
      <g transform="translate(299.752 93.471875) scale(0.1 -0.1)">
       <use xlink:href="#TimesNewRomanPSMT-30"/>
       <use xlink:href="#TimesNewRomanPSMT-2e" x="50"/>
       <use xlink:href="#TimesNewRomanPSMT-39" x="75"/>
       <use xlink:href="#TimesNewRomanPSMT-38" x="125"/>
       <use xlink:href="#TimesNewRomanPSMT-34" x="175"/>
      </g>
     </g>
    </g>
    <g id="ytick_26">
     <g id="line2d_31">
      <g>
       <use xlink:href="#ma81a52e963" x="292.752" y="62.28" style="stroke: #000000; stroke-width: 0.8"/>
      </g>
     </g>
     <g id="text_48">
      <!-- 0.990 -->
      <g transform="translate(299.752 65.751875) scale(0.1 -0.1)">
       <use xlink:href="#TimesNewRomanPSMT-30"/>
       <use xlink:href="#TimesNewRomanPSMT-2e" x="50"/>
       <use xlink:href="#TimesNewRomanPSMT-39" x="75"/>
       <use xlink:href="#TimesNewRomanPSMT-39" x="125"/>
       <use xlink:href="#TimesNewRomanPSMT-30" x="175"/>
      </g>
     </g>
    </g>
    <g id="ytick_27">
     <g id="line2d_32">
      <g>
       <use xlink:href="#ma81a52e963" x="292.752" y="34.56" style="stroke: #000000; stroke-width: 0.8"/>
      </g>
     </g>
     <g id="text_49">
      <!-- 0.996 -->
      <g transform="translate(299.752 38.031875) scale(0.1 -0.1)">
       <use xlink:href="#TimesNewRomanPSMT-30"/>
       <use xlink:href="#TimesNewRomanPSMT-2e" x="50"/>
       <use xlink:href="#TimesNewRomanPSMT-39" x="75"/>
       <use xlink:href="#TimesNewRomanPSMT-39" x="125"/>
       <use xlink:href="#TimesNewRomanPSMT-36" x="175"/>
      </g>
     </g>
    </g>
    <g id="text_50">
     <!-- Power factor (-) -->
     <g transform="translate(333.19575 177.368125) rotate(-90) scale(0.1 -0.1)">
      <defs>
       <path id="TimesNewRomanPSMT-50" d="M 1313 1984 
L 1313 750 
Q 1313 350 1400 253 
Q 1519 116 1759 116 
L 1922 116 
L 1922 0 
L 106 0 
L 106 116 
L 266 116 
Q 534 116 650 291 
Q 713 388 713 750 
L 713 3488 
Q 713 3888 628 3984 
Q 506 4122 266 4122 
L 106 4122 
L 106 4238 
L 1659 4238 
Q 2228 4238 2556 4120 
Q 2884 4003 3109 3725 
Q 3334 3447 3334 3066 
Q 3334 2547 2992 2222 
Q 2650 1897 2025 1897 
Q 1872 1897 1694 1919 
Q 1516 1941 1313 1984 
z
M 1313 2163 
Q 1478 2131 1606 2115 
Q 1734 2100 1825 2100 
Q 2150 2100 2386 2351 
Q 2622 2603 2622 3003 
Q 2622 3278 2509 3514 
Q 2397 3750 2190 3867 
Q 1984 3984 1722 3984 
Q 1563 3984 1313 3925 
L 1313 2163 
z
" transform="scale(0.015625)"/>
       <path id="TimesNewRomanPSMT-77" d="M 41 2863 
L 1241 2863 
L 1241 2747 
Q 1075 2734 1023 2687 
Q 972 2641 972 2553 
Q 972 2456 1025 2319 
L 1638 672 
L 2253 2013 
L 2091 2434 
Q 2016 2622 1894 2694 
Q 1825 2738 1638 2747 
L 1638 2863 
L 3000 2863 
L 3000 2747 
Q 2775 2738 2681 2666 
Q 2619 2616 2619 2506 
Q 2619 2444 2644 2378 
L 3294 734 
L 3897 2319 
Q 3959 2488 3959 2588 
Q 3959 2647 3898 2694 
Q 3838 2741 3659 2747 
L 3659 2863 
L 4563 2863 
L 4563 2747 
Q 4291 2706 4163 2378 
L 3206 -88 
L 3078 -88 
L 2363 1741 
L 1528 -88 
L 1413 -88 
L 494 2319 
Q 403 2547 315 2626 
Q 228 2706 41 2747 
L 41 2863 
z
" transform="scale(0.015625)"/>
       <path id="TimesNewRomanPSMT-66" d="M 1319 2638 
L 1319 756 
Q 1319 356 1406 250 
Q 1522 113 1716 113 
L 1975 113 
L 1975 0 
L 266 0 
L 266 113 
L 394 113 
Q 519 113 622 175 
Q 725 238 764 344 
Q 803 450 803 756 
L 803 2638 
L 247 2638 
L 247 2863 
L 803 2863 
L 803 3050 
Q 803 3478 940 3775 
Q 1078 4072 1361 4255 
Q 1644 4438 1997 4438 
Q 2325 4438 2600 4225 
Q 2781 4084 2781 3909 
Q 2781 3816 2700 3733 
Q 2619 3650 2525 3650 
Q 2453 3650 2373 3701 
Q 2294 3753 2178 3923 
Q 2063 4094 1966 4153 
Q 1869 4213 1750 4213 
Q 1606 4213 1506 4136 
Q 1406 4059 1362 3898 
Q 1319 3738 1319 3069 
L 1319 2863 
L 2056 2863 
L 2056 2638 
L 1319 2638 
z
" transform="scale(0.015625)"/>
       <path id="TimesNewRomanPSMT-61" d="M 1822 413 
Q 1381 72 1269 19 
Q 1100 -59 909 -59 
Q 613 -59 420 144 
Q 228 347 228 678 
Q 228 888 322 1041 
Q 450 1253 767 1440 
Q 1084 1628 1822 1897 
L 1822 2009 
Q 1822 2438 1686 2597 
Q 1550 2756 1291 2756 
Q 1094 2756 978 2650 
Q 859 2544 859 2406 
L 866 2225 
Q 866 2081 792 2003 
Q 719 1925 600 1925 
Q 484 1925 411 2006 
Q 338 2088 338 2228 
Q 338 2497 613 2722 
Q 888 2947 1384 2947 
Q 1766 2947 2009 2819 
Q 2194 2722 2281 2516 
Q 2338 2381 2338 1966 
L 2338 994 
Q 2338 584 2353 492 
Q 2369 400 2405 369 
Q 2441 338 2488 338 
Q 2538 338 2575 359 
Q 2641 400 2828 588 
L 2828 413 
Q 2478 -56 2159 -56 
Q 2006 -56 1915 50 
Q 1825 156 1822 413 
z
M 1822 616 
L 1822 1706 
Q 1350 1519 1213 1441 
Q 966 1303 859 1153 
Q 753 1003 753 825 
Q 753 600 887 451 
Q 1022 303 1197 303 
Q 1434 303 1822 616 
z
" transform="scale(0.015625)"/>
       <path id="TimesNewRomanPSMT-63" d="M 2631 1088 
Q 2516 522 2178 217 
Q 1841 -88 1431 -88 
Q 944 -88 581 321 
Q 219 731 219 1428 
Q 219 2103 620 2525 
Q 1022 2947 1584 2947 
Q 2006 2947 2278 2723 
Q 2550 2500 2550 2259 
Q 2550 2141 2473 2067 
Q 2397 1994 2259 1994 
Q 2075 1994 1981 2113 
Q 1928 2178 1911 2362 
Q 1894 2547 1784 2644 
Q 1675 2738 1481 2738 
Q 1169 2738 978 2506 
Q 725 2200 725 1697 
Q 725 1184 976 792 
Q 1228 400 1656 400 
Q 1963 400 2206 609 
Q 2378 753 2541 1131 
L 2631 1088 
z
" transform="scale(0.015625)"/>
       <path id="TimesNewRomanPSMT-74" d="M 1031 3803 
L 1031 2863 
L 1700 2863 
L 1700 2644 
L 1031 2644 
L 1031 788 
Q 1031 509 1111 412 
Q 1191 316 1316 316 
Q 1419 316 1516 380 
Q 1613 444 1666 569 
L 1788 569 
Q 1678 263 1478 108 
Q 1278 -47 1066 -47 
Q 922 -47 784 33 
Q 647 113 581 261 
Q 516 409 516 719 
L 516 2644 
L 63 2644 
L 63 2747 
Q 234 2816 414 2980 
Q 594 3144 734 3369 
Q 806 3488 934 3803 
L 1031 3803 
z
" transform="scale(0.015625)"/>
       <path id="TimesNewRomanPSMT-2d" d="M 259 1672 
L 1875 1672 
L 1875 1200 
L 259 1200 
L 259 1672 
z
" transform="scale(0.015625)"/>
      </defs>
      <use xlink:href="#TimesNewRomanPSMT-50"/>
      <use xlink:href="#TimesNewRomanPSMT-6f" x="55.615234"/>
      <use xlink:href="#TimesNewRomanPSMT-77" x="105.615234"/>
      <use xlink:href="#TimesNewRomanPSMT-65" x="177.832031"/>
      <use xlink:href="#TimesNewRomanPSMT-72" x="222.216797"/>
      <use xlink:href="#TimesNewRomanPSMT-20" x="255.517578"/>
      <use xlink:href="#TimesNewRomanPSMT-66" x="280.517578"/>
      <use xlink:href="#TimesNewRomanPSMT-61" x="313.818359"/>
      <use xlink:href="#TimesNewRomanPSMT-63" x="358.203125"/>
      <use xlink:href="#TimesNewRomanPSMT-74" x="402.587891"/>
      <use xlink:href="#TimesNewRomanPSMT-6f" x="430.371094"/>
      <use xlink:href="#TimesNewRomanPSMT-72" x="480.371094"/>
      <use xlink:href="#TimesNewRomanPSMT-20" x="513.671875"/>
      <use xlink:href="#TimesNewRomanPSMT-28" x="538.671875"/>
      <use xlink:href="#TimesNewRomanPSMT-2d" x="571.972656"/>
      <use xlink:href="#TimesNewRomanPSMT-29" x="605.273438"/>
     </g>
    </g>
   </g>
   <g id="LineCollection_3"/>
   <g id="LineCollection_4">
    <path d="M 281.664 256.32 
L 292.752 256.32 
" clip-path="url(#pa1668da70a)" style="fill: none; stroke: #008066; stroke-width: 1.5"/>
    <path d="M 281.664 228.6 
L 292.752 228.6 
" clip-path="url(#pa1668da70a)" style="fill: none; stroke: #209066; stroke-width: 1.5"/>
    <path d="M 281.664 200.88 
L 292.752 200.88 
" clip-path="url(#pa1668da70a)" style="fill: none; stroke: #40a066; stroke-width: 1.5"/>
    <path d="M 281.664 173.16 
L 292.752 173.16 
" clip-path="url(#pa1668da70a)" style="fill: none; stroke: #60b066; stroke-width: 1.5"/>
    <path d="M 281.664 145.44 
L 292.752 145.44 
" clip-path="url(#pa1668da70a)" style="fill: none; stroke: #80c066; stroke-width: 1.5"/>
    <path d="M 281.664 117.72 
L 292.752 117.72 
" clip-path="url(#pa1668da70a)" style="fill: none; stroke: #a0d066; stroke-width: 1.5"/>
    <path d="M 281.664 90 
L 292.752 90 
" clip-path="url(#pa1668da70a)" style="fill: none; stroke: #c0e066; stroke-width: 1.5"/>
    <path d="M 281.664 62.28 
L 292.752 62.28 
" clip-path="url(#pa1668da70a)" style="fill: none; stroke: #e0f066; stroke-width: 1.5"/>
    <path d="M 281.664 34.56 
L 292.752 34.56 
" clip-path="url(#pa1668da70a)" style="fill: none; stroke: #ffff66; stroke-width: 1.5"/>
   </g>
   <g id="patch_10">
    <path d="M 281.664 256.32 
L 287.208 256.32 
L 292.752 256.32 
L 292.752 34.56 
L 287.208 34.56 
L 281.664 34.56 
L 281.664 256.32 
z
" style="fill: none; stroke: #000000; stroke-width: 0.8; stroke-linejoin: miter; stroke-linecap: square"/>
   </g>
  </g>
 </g>
 <defs>
  <clipPath id="pffae3229ea">
   <rect x="54" y="34.56" width="214.272" height="221.76"/>
  </clipPath>
  <clipPath id="pa39b3c9978">
   <path d="M 338.58 257.82 
L 349.668 257.82 
L 349.668 33.06 
L 338.58 33.06 
z
"/>
  </clipPath>
  <clipPath id="pa1668da70a">
   <path d="M 281.664 257.82 
L 292.752 257.82 
L 292.752 33.06 
L 281.664 33.06 
z
"/>
  </clipPath>
 </defs>
</svg>
