<?xml version="1.0" encoding="utf-8" standalone="no"?>
<!DOCTYPE svg PUBLIC "-//W3C//DTD SVG 1.1//EN"
  "http://www.w3.org/Graphics/SVG/1.1/DTD/svg11.dtd">
<svg xmlns:xlink="http://www.w3.org/1999/xlink" width="432pt" height="288pt" viewBox="0 0 432 288" xmlns="http://www.w3.org/2000/svg" version="1.1">
 <metadata>
  <rdf:RDF xmlns:dc="http://purl.org/dc/elements/1.1/" xmlns:cc="http://creativecommons.org/ns#" xmlns:rdf="http://www.w3.org/1999/02/22-rdf-syntax-ns#">
   <cc:Work>
    <dc:type rdf:resource="http://purl.org/dc/dcmitype/StillImage"/>
    <dc:date>2023-09-18T11:49:53.128186</dc:date>
    <dc:format>image/svg+xml</dc:format>
    <dc:creator>
     <cc:Agent>
      <dc:title>Matplotlib v3.7.1, https://matplotlib.org/</dc:title>
     </cc:Agent>
    </dc:creator>
   </cc:Work>
  </rdf:RDF>
 </metadata>
 <defs>
  <style type="text/css">*{stroke-linejoin: round; stroke-linecap: butt}</style>
 </defs>
 <g id="figure_1">
  <g id="patch_1">
   <path d="M 0 288 
L 432 288 
L 432 0 
L 0 0 
z
" style="fill: #ffffff"/>
  </g>
  <g id="axes_1">
   <g id="patch_2">
    <path d="M 54 256.32 
L 268.272 256.32 
L 268.272 34.56 
L 54 34.56 
z
" style="fill: #ffffff"/>
   </g>
   <g id="matplotlib.axis_1">
    <g id="xtick_1">
     <g id="line2d_1">
      <defs>
       <path id="mca955ad470" d="M 0 0 
L 0 3.5 
" style="stroke: #000000; stroke-width: 0.8"/>
      </defs>
      <g>
       <use xlink:href="#mca955ad470" x="54" y="256.32" style="stroke: #000000; stroke-width: 0.8"/>
      </g>
     </g>
     <g id="text_1">
      <!-- 0.50 -->
      <g transform="translate(45.25 270.26375) scale(0.1 -0.1)">
       <defs>
        <path id="TimesNewRomanPSMT-30" d="M 231 2094 
Q 231 2819 450 3342 
Q 669 3866 1031 4122 
Q 1313 4325 1613 4325 
Q 2100 4325 2488 3828 
Q 2972 3213 2972 2159 
Q 2972 1422 2759 906 
Q 2547 391 2217 158 
Q 1888 -75 1581 -75 
Q 975 -75 572 641 
Q 231 1244 231 2094 
z
M 844 2016 
Q 844 1141 1059 588 
Q 1238 122 1591 122 
Q 1759 122 1940 273 
Q 2122 425 2216 781 
Q 2359 1319 2359 2297 
Q 2359 3022 2209 3506 
Q 2097 3866 1919 4016 
Q 1791 4119 1609 4119 
Q 1397 4119 1231 3928 
Q 1006 3669 925 3112 
Q 844 2556 844 2016 
z
" transform="scale(0.015625)"/>
        <path id="TimesNewRomanPSMT-2e" d="M 800 606 
Q 947 606 1047 504 
Q 1147 403 1147 259 
Q 1147 116 1045 14 
Q 944 -88 800 -88 
Q 656 -88 554 14 
Q 453 116 453 259 
Q 453 406 554 506 
Q 656 606 800 606 
z
" transform="scale(0.015625)"/>
        <path id="TimesNewRomanPSMT-35" d="M 2778 4238 
L 2534 3706 
L 1259 3706 
L 981 3138 
Q 1809 3016 2294 2522 
Q 2709 2097 2709 1522 
Q 2709 1188 2573 903 
Q 2438 619 2231 419 
Q 2025 219 1772 97 
Q 1413 -75 1034 -75 
Q 653 -75 479 54 
Q 306 184 306 341 
Q 306 428 378 495 
Q 450 563 559 563 
Q 641 563 702 538 
Q 763 513 909 409 
Q 1144 247 1384 247 
Q 1750 247 2026 523 
Q 2303 800 2303 1197 
Q 2303 1581 2056 1914 
Q 1809 2247 1375 2428 
Q 1034 2569 447 2591 
L 1259 4238 
L 2778 4238 
z
" transform="scale(0.015625)"/>
       </defs>
       <use xlink:href="#TimesNewRomanPSMT-30"/>
       <use xlink:href="#TimesNewRomanPSMT-2e" x="50"/>
       <use xlink:href="#TimesNewRomanPSMT-35" x="75"/>
       <use xlink:href="#TimesNewRomanPSMT-30" x="125"/>
      </g>
     </g>
    </g>
    <g id="xtick_2">
     <g id="line2d_2">
      <g>
       <use xlink:href="#mca955ad470" x="107.568" y="256.32" style="stroke: #000000; stroke-width: 0.8"/>
      </g>
     </g>
     <g id="text_2">
      <!-- 0.55 -->
      <g transform="translate(98.818 270.26375) scale(0.1 -0.1)">
       <use xlink:href="#TimesNewRomanPSMT-30"/>
       <use xlink:href="#TimesNewRomanPSMT-2e" x="50"/>
       <use xlink:href="#TimesNewRomanPSMT-35" x="75"/>
       <use xlink:href="#TimesNewRomanPSMT-35" x="125"/>
      </g>
     </g>
    </g>
    <g id="xtick_3">
     <g id="line2d_3">
      <g>
       <use xlink:href="#mca955ad470" x="161.136" y="256.32" style="stroke: #000000; stroke-width: 0.8"/>
      </g>
     </g>
     <g id="text_3">
      <!-- 0.60 -->
      <g transform="translate(152.386 270.26375) scale(0.1 -0.1)">
       <defs>
        <path id="TimesNewRomanPSMT-36" d="M 2869 4325 
L 2869 4209 
Q 2456 4169 2195 4045 
Q 1934 3922 1679 3669 
Q 1425 3416 1258 3105 
Q 1091 2794 978 2366 
Q 1428 2675 1881 2675 
Q 2316 2675 2634 2325 
Q 2953 1975 2953 1425 
Q 2953 894 2631 456 
Q 2244 -75 1606 -75 
Q 1172 -75 869 213 
Q 275 772 275 1663 
Q 275 2231 503 2743 
Q 731 3256 1154 3653 
Q 1578 4050 1965 4187 
Q 2353 4325 2688 4325 
L 2869 4325 
z
M 925 2138 
Q 869 1716 869 1456 
Q 869 1156 980 804 
Q 1091 453 1309 247 
Q 1469 100 1697 100 
Q 1969 100 2183 356 
Q 2397 613 2397 1088 
Q 2397 1622 2184 2012 
Q 1972 2403 1581 2403 
Q 1463 2403 1327 2353 
Q 1191 2303 925 2138 
z
" transform="scale(0.015625)"/>
       </defs>
       <use xlink:href="#TimesNewRomanPSMT-30"/>
       <use xlink:href="#TimesNewRomanPSMT-2e" x="50"/>
       <use xlink:href="#TimesNewRomanPSMT-36" x="75"/>
       <use xlink:href="#TimesNewRomanPSMT-30" x="125"/>
      </g>
     </g>
    </g>
    <g id="xtick_4">
     <g id="line2d_4">
      <g>
       <use xlink:href="#mca955ad470" x="214.704" y="256.32" style="stroke: #000000; stroke-width: 0.8"/>
      </g>
     </g>
     <g id="text_4">
      <!-- 0.65 -->
      <g transform="translate(205.954 270.26375) scale(0.1 -0.1)">
       <use xlink:href="#TimesNewRomanPSMT-30"/>
       <use xlink:href="#TimesNewRomanPSMT-2e" x="50"/>
       <use xlink:href="#TimesNewRomanPSMT-36" x="75"/>
       <use xlink:href="#TimesNewRomanPSMT-35" x="125"/>
      </g>
     </g>
    </g>
    <g id="xtick_5">
     <g id="line2d_5">
      <g>
       <use xlink:href="#mca955ad470" x="268.272" y="256.32" style="stroke: #000000; stroke-width: 0.8"/>
      </g>
     </g>
     <g id="text_5">
      <!-- 0.70 -->
      <g transform="translate(259.522 270.26375) scale(0.1 -0.1)">
       <defs>
        <path id="TimesNewRomanPSMT-37" d="M 644 4238 
L 2916 4238 
L 2916 4119 
L 1503 -88 
L 1153 -88 
L 2419 3728 
L 1253 3728 
Q 900 3728 750 3644 
Q 488 3500 328 3200 
L 238 3234 
L 644 4238 
z
" transform="scale(0.015625)"/>
       </defs>
       <use xlink:href="#TimesNewRomanPSMT-30"/>
       <use xlink:href="#TimesNewRomanPSMT-2e" x="50"/>
       <use xlink:href="#TimesNewRomanPSMT-37" x="75"/>
       <use xlink:href="#TimesNewRomanPSMT-30" x="125"/>
      </g>
     </g>
    </g>
    <g id="text_6">
     <!-- $x = (R_r^{int} + l_m)/R_s^{ext}$ -->
     <g transform="translate(116.886 284.902812) scale(0.1 -0.1)">
      <defs>
       <path id="Cmmi10-78" d="M 500 184 
Q 613 97 819 97 
Q 1019 97 1172 289 
Q 1325 481 1381 709 
L 1672 1844 
Q 1741 2153 1741 2266 
Q 1741 2425 1652 2544 
Q 1563 2663 1403 2663 
Q 1200 2663 1022 2536 
Q 844 2409 722 2214 
Q 600 2019 550 1819 
Q 538 1778 500 1778 
L 422 1778 
Q 372 1778 372 1838 
L 372 1856 
Q 434 2094 584 2320 
Q 734 2547 951 2687 
Q 1169 2828 1416 2828 
Q 1650 2828 1839 2703 
Q 2028 2578 2106 2363 
Q 2216 2559 2386 2693 
Q 2556 2828 2759 2828 
Q 2897 2828 3040 2779 
Q 3184 2731 3275 2631 
Q 3366 2531 3366 2381 
Q 3366 2219 3261 2101 
Q 3156 1984 2994 1984 
Q 2891 1984 2822 2050 
Q 2753 2116 2753 2216 
Q 2753 2350 2845 2451 
Q 2938 2553 3066 2572 
Q 2950 2663 2747 2663 
Q 2541 2663 2389 2472 
Q 2238 2281 2175 2047 
L 1894 916 
Q 1825 659 1825 494 
Q 1825 331 1917 214 
Q 2009 97 2163 97 
Q 2463 97 2698 361 
Q 2934 625 3009 941 
Q 3022 978 3059 978 
L 3138 978 
Q 3163 978 3178 961 
Q 3194 944 3194 922 
Q 3194 916 3188 903 
Q 3097 522 2806 225 
Q 2516 -72 2150 -72 
Q 1916 -72 1727 54 
Q 1538 181 1459 397 
Q 1359 209 1182 68 
Q 1006 -72 806 -72 
Q 669 -72 523 -23 
Q 378 25 287 125 
Q 197 225 197 378 
Q 197 528 301 651 
Q 406 775 563 775 
Q 669 775 741 711 
Q 813 647 813 544 
Q 813 409 723 309 
Q 634 209 500 184 
z
" transform="scale(0.015625)"/>
       <path id="Cmr10-3d" d="M 481 850 
Q 428 850 393 890 
Q 359 931 359 978 
Q 359 1031 393 1068 
Q 428 1106 481 1106 
L 4500 1106 
Q 4547 1106 4581 1068 
Q 4616 1031 4616 978 
Q 4616 931 4581 890 
Q 4547 850 4500 850 
L 481 850 
z
M 481 2094 
Q 428 2094 393 2131 
Q 359 2169 359 2222 
Q 359 2269 393 2309 
Q 428 2350 481 2350 
L 4500 2350 
Q 4547 2350 4581 2309 
Q 4616 2269 4616 2222 
Q 4616 2169 4581 2131 
Q 4547 2094 4500 2094 
L 481 2094 
z
" transform="scale(0.015625)"/>
       <path id="Cmr10-28" d="M 1984 -1588 
Q 1628 -1306 1370 -942 
Q 1113 -578 948 -165 
Q 784 247 703 697 
Q 622 1147 622 1600 
Q 622 2059 703 2509 
Q 784 2959 951 3375 
Q 1119 3791 1378 4153 
Q 1638 4516 1984 4788 
Q 1984 4800 2016 4800 
L 2075 4800 
Q 2094 4800 2109 4783 
Q 2125 4766 2125 4744 
Q 2125 4716 2113 4703 
Q 1800 4397 1592 4047 
Q 1384 3697 1257 3301 
Q 1131 2906 1075 2482 
Q 1019 2059 1019 1600 
Q 1019 -434 2106 -1491 
Q 2125 -1509 2125 -1544 
Q 2125 -1559 2108 -1579 
Q 2091 -1600 2075 -1600 
L 2016 -1600 
Q 1984 -1600 1984 -1588 
z
" transform="scale(0.015625)"/>
       <path id="Cmmi10-52" d="M 313 0 
Q 250 0 250 84 
Q 253 100 262 139 
Q 272 178 289 201 
Q 306 225 331 225 
Q 722 225 878 269 
Q 959 297 997 441 
L 1875 3956 
Q 1888 4019 1888 4044 
Q 1888 4113 1813 4122 
Q 1691 4147 1350 4147 
Q 1288 4147 1288 4231 
Q 1291 4247 1300 4286 
Q 1309 4325 1326 4348 
Q 1344 4372 1369 4372 
L 3309 4372 
Q 3541 4372 3791 4319 
Q 4041 4266 4250 4152 
Q 4459 4038 4593 3848 
Q 4728 3659 4728 3406 
Q 4728 3084 4515 2831 
Q 4303 2578 3978 2408 
Q 3653 2238 3347 2169 
Q 3597 2078 3756 1879 
Q 3916 1681 3916 1422 
Q 3916 1388 3914 1370 
Q 3913 1353 3909 1331 
L 3859 763 
Q 3853 638 3847 550 
Q 3841 463 3841 409 
Q 3841 234 3892 129 
Q 3944 25 4097 25 
Q 4297 25 4448 211 
Q 4600 397 4647 616 
Q 4675 672 4709 672 
L 4769 672 
Q 4831 672 4831 588 
Q 4784 403 4682 237 
Q 4581 72 4426 -34 
Q 4272 -141 4091 -141 
Q 3716 -141 3452 26 
Q 3188 194 3188 550 
Q 3188 684 3213 788 
L 3353 1356 
Q 3378 1434 3378 1538 
Q 3378 1803 3198 1954 
Q 3019 2106 2747 2106 
L 1959 2106 
L 1538 416 
Q 1522 363 1522 325 
Q 1522 259 1600 250 
Q 1722 225 2059 225 
Q 2125 225 2125 141 
Q 2103 50 2090 25 
Q 2078 0 2016 0 
L 313 0 
z
M 1997 2272 
L 2706 2272 
Q 3403 2272 3756 2625 
Q 3919 2788 4014 3039 
Q 4109 3291 4109 3541 
Q 4109 3778 3970 3912 
Q 3831 4047 3626 4097 
Q 3422 4147 3175 4147 
L 2747 4147 
Q 2572 4147 2515 4117 
Q 2459 4088 2413 3928 
L 1997 2272 
z
" transform="scale(0.015625)"/>
       <path id="Cmmi10-69" d="M 500 459 
Q 500 578 550 709 
L 1069 2088 
Q 1153 2322 1153 2472 
Q 1153 2663 1013 2663 
Q 759 2663 595 2402 
Q 431 2141 353 1819 
Q 341 1778 300 1778 
L 225 1778 
Q 172 1778 172 1838 
L 172 1856 
Q 275 2238 487 2533 
Q 700 2828 1025 2828 
Q 1253 2828 1411 2678 
Q 1569 2528 1569 2297 
Q 1569 2178 1516 2047 
L 997 672 
Q 909 459 909 288 
Q 909 97 1056 97 
Q 1306 97 1473 364 
Q 1641 631 1709 941 
Q 1722 978 1759 978 
L 1838 978 
Q 1863 978 1878 961 
Q 1894 944 1894 922 
Q 1894 916 1888 903 
Q 1800 541 1583 234 
Q 1366 -72 1044 -72 
Q 819 -72 659 83 
Q 500 238 500 459 
z
M 1222 3878 
Q 1222 4013 1334 4122 
Q 1447 4231 1581 4231 
Q 1691 4231 1761 4164 
Q 1831 4097 1831 3994 
Q 1831 3850 1717 3742 
Q 1603 3634 1466 3634 
Q 1363 3634 1292 3704 
Q 1222 3775 1222 3878 
z
" transform="scale(0.015625)"/>
       <path id="Cmmi10-6e" d="M 494 109 
Q 494 147 500 166 
L 978 2075 
Q 1025 2253 1025 2388 
Q 1025 2663 838 2663 
Q 638 2663 541 2423 
Q 444 2184 353 1819 
Q 353 1800 334 1789 
Q 316 1778 300 1778 
L 225 1778 
Q 203 1778 187 1801 
Q 172 1825 172 1844 
Q 241 2122 305 2315 
Q 369 2509 505 2668 
Q 641 2828 844 2828 
Q 1084 2828 1268 2676 
Q 1453 2525 1453 2291 
Q 1644 2541 1900 2684 
Q 2156 2828 2444 2828 
Q 2672 2828 2837 2750 
Q 3003 2672 3095 2514 
Q 3188 2356 3188 2138 
Q 3188 1875 3070 1503 
Q 2953 1131 2778 672 
Q 2688 463 2688 288 
Q 2688 97 2834 97 
Q 3084 97 3251 365 
Q 3419 634 3488 941 
Q 3500 978 3541 978 
L 3616 978 
Q 3641 978 3658 962 
Q 3675 947 3675 922 
Q 3675 916 3669 903 
Q 3581 541 3364 234 
Q 3147 -72 2822 -72 
Q 2597 -72 2437 83 
Q 2278 238 2278 459 
Q 2278 578 2328 709 
Q 2409 919 2514 1209 
Q 2619 1500 2686 1765 
Q 2753 2031 2753 2234 
Q 2753 2413 2679 2538 
Q 2606 2663 2431 2663 
Q 2197 2663 2000 2559 
Q 1803 2456 1656 2286 
Q 1509 2116 1388 1881 
L 953 141 
Q 931 53 854 -9 
Q 778 -72 684 -72 
Q 606 -72 550 -22 
Q 494 28 494 109 
z
" transform="scale(0.015625)"/>
       <path id="Cmmi10-74" d="M 397 519 
Q 397 613 416 697 
L 878 2534 
L 206 2534 
Q 141 2534 141 2619 
Q 166 2759 225 2759 
L 934 2759 
L 1191 3803 
Q 1216 3888 1291 3947 
Q 1366 4006 1459 4006 
Q 1541 4006 1595 3957 
Q 1650 3909 1650 3828 
Q 1650 3809 1648 3798 
Q 1647 3788 1644 3775 
L 1388 2759 
L 2047 2759 
Q 2113 2759 2113 2675 
Q 2109 2659 2100 2621 
Q 2091 2584 2075 2559 
Q 2059 2534 2028 2534 
L 1331 2534 
L 872 684 
Q 825 503 825 372 
Q 825 97 1013 97 
Q 1294 97 1511 361 
Q 1728 625 1844 941 
Q 1869 978 1894 978 
L 1972 978 
Q 1997 978 2012 961 
Q 2028 944 2028 922 
Q 2028 909 2022 903 
Q 1881 516 1612 222 
Q 1344 -72 997 -72 
Q 744 -72 570 93 
Q 397 259 397 519 
z
" transform="scale(0.015625)"/>
       <path id="Cmmi10-72" d="M 494 109 
Q 494 147 500 166 
L 978 2075 
Q 1025 2253 1025 2388 
Q 1025 2663 838 2663 
Q 638 2663 541 2423 
Q 444 2184 353 1819 
Q 353 1800 334 1789 
Q 316 1778 300 1778 
L 225 1778 
Q 203 1778 187 1801 
Q 172 1825 172 1844 
Q 241 2122 305 2315 
Q 369 2509 505 2668 
Q 641 2828 844 2828 
Q 1066 2828 1233 2700 
Q 1400 2572 1441 2363 
Q 1603 2575 1811 2701 
Q 2019 2828 2266 2828 
Q 2469 2828 2623 2709 
Q 2778 2591 2778 2388 
Q 2778 2225 2676 2104 
Q 2575 1984 2406 1984 
Q 2303 1984 2233 2048 
Q 2163 2113 2163 2216 
Q 2163 2356 2266 2467 
Q 2369 2578 2503 2578 
Q 2400 2663 2253 2663 
Q 1978 2663 1775 2467 
Q 1572 2272 1409 1972 
L 953 141 
Q 931 53 854 -9 
Q 778 -72 684 -72 
Q 606 -72 550 -22 
Q 494 28 494 109 
z
" transform="scale(0.015625)"/>
       <path id="Cmr10-2b" d="M 481 1472 
Q 428 1472 393 1512 
Q 359 1553 359 1600 
Q 359 1647 393 1687 
Q 428 1728 481 1728 
L 2363 1728 
L 2363 3616 
Q 2363 3666 2400 3698 
Q 2438 3731 2491 3731 
Q 2538 3731 2578 3698 
Q 2619 3666 2619 3616 
L 2619 1728 
L 4500 1728 
Q 4547 1728 4581 1687 
Q 4616 1647 4616 1600 
Q 4616 1553 4581 1512 
Q 4547 1472 4500 1472 
L 2619 1472 
L 2619 -416 
Q 2619 -466 2578 -498 
Q 2538 -531 2491 -531 
Q 2438 -531 2400 -498 
Q 2363 -466 2363 -416 
L 2363 1472 
L 481 1472 
z
" transform="scale(0.015625)"/>
       <path id="Cmmi10-6c" d="M 281 519 
Q 281 538 286 575 
Q 291 613 295 648 
Q 300 684 300 703 
L 1094 3872 
Q 1119 3981 1125 4044 
Q 1125 4147 709 4147 
Q 647 4147 647 4231 
Q 650 4247 661 4287 
Q 672 4328 689 4350 
Q 706 4372 738 4372 
L 1600 4441 
Q 1678 4441 1678 4359 
L 756 678 
Q 709 575 709 372 
Q 709 97 897 97 
Q 1094 97 1192 342 
Q 1291 588 1369 941 
Q 1381 978 1422 978 
L 1497 978 
Q 1522 978 1539 958 
Q 1556 938 1556 916 
Q 1481 606 1420 426 
Q 1359 247 1225 87 
Q 1091 -72 884 -72 
Q 628 -72 454 93 
Q 281 259 281 519 
z
" transform="scale(0.015625)"/>
       <path id="Cmmi10-6d" d="M 494 109 
Q 494 147 500 166 
L 978 2075 
Q 1025 2253 1025 2388 
Q 1025 2663 838 2663 
Q 638 2663 541 2423 
Q 444 2184 353 1819 
Q 353 1800 334 1789 
Q 316 1778 300 1778 
L 225 1778 
Q 203 1778 187 1801 
Q 172 1825 172 1844 
Q 241 2122 305 2315 
Q 369 2509 505 2668 
Q 641 2828 844 2828 
Q 1084 2828 1268 2676 
Q 1453 2525 1453 2291 
Q 1644 2541 1900 2684 
Q 2156 2828 2444 2828 
Q 2747 2828 2967 2673 
Q 3188 2519 3188 2234 
Q 3384 2513 3648 2670 
Q 3913 2828 4225 2828 
Q 4556 2828 4757 2648 
Q 4959 2469 4959 2138 
Q 4959 1875 4842 1503 
Q 4725 1131 4550 672 
Q 4459 450 4459 288 
Q 4459 97 4609 97 
Q 4859 97 5025 365 
Q 5191 634 5259 941 
Q 5278 978 5313 978 
L 5388 978 
Q 5413 978 5430 961 
Q 5447 944 5447 922 
Q 5447 916 5441 903 
Q 5353 541 5136 234 
Q 4919 -72 4594 -72 
Q 4369 -72 4209 83 
Q 4050 238 4050 459 
Q 4050 572 4103 709 
Q 4284 1191 4404 1569 
Q 4525 1947 4525 2234 
Q 4525 2413 4453 2538 
Q 4381 2663 4213 2663 
Q 3863 2663 3606 2448 
Q 3350 2234 3163 1881 
Q 3150 1819 3144 1784 
L 2731 141 
Q 2709 53 2632 -9 
Q 2556 -72 2463 -72 
Q 2388 -72 2330 -22 
Q 2272 28 2272 109 
Q 2272 147 2278 166 
L 2688 1797 
Q 2753 2059 2753 2234 
Q 2753 2413 2679 2538 
Q 2606 2663 2431 2663 
Q 2197 2663 2000 2559 
Q 1803 2456 1656 2286 
Q 1509 2116 1388 1881 
L 953 141 
Q 931 53 854 -9 
Q 778 -72 684 -72 
Q 606 -72 550 -22 
Q 494 28 494 109 
z
" transform="scale(0.015625)"/>
       <path id="Cmr10-29" d="M 416 -1600 
Q 359 -1600 359 -1544 
Q 359 -1516 372 -1503 
Q 1466 -434 1466 1600 
Q 1466 3634 384 4691 
Q 359 4706 359 4744 
Q 359 4766 376 4783 
Q 394 4800 416 4800 
L 475 4800 
Q 494 4800 506 4788 
Q 966 4425 1272 3906 
Q 1578 3388 1720 2800 
Q 1863 2213 1863 1600 
Q 1863 1147 1786 708 
Q 1709 269 1542 -157 
Q 1375 -584 1119 -945 
Q 863 -1306 506 -1588 
Q 494 -1600 475 -1600 
L 416 -1600 
z
" transform="scale(0.015625)"/>
       <path id="Cmmi10-3d" d="M 359 -1472 
Q 359 -1453 366 -1447 
L 2591 4722 
Q 2603 4759 2634 4779 
Q 2666 4800 2706 4800 
Q 2763 4800 2798 4765 
Q 2834 4731 2834 4672 
L 2834 4647 
L 609 -1522 
Q 572 -1600 488 -1600 
Q 434 -1600 396 -1562 
Q 359 -1525 359 -1472 
z
" transform="scale(0.015625)"/>
       <path id="Cmmi10-65" d="M 1288 -72 
Q 981 -72 751 87 
Q 522 247 401 517 
Q 281 788 281 1088 
Q 281 1544 511 1945 
Q 741 2347 1134 2587 
Q 1528 2828 1978 2828 
Q 2253 2828 2458 2686 
Q 2663 2544 2663 2278 
Q 2663 1909 2369 1729 
Q 2075 1550 1706 1508 
Q 1338 1466 891 1466 
L 872 1466 
Q 769 1084 769 813 
Q 769 528 900 312 
Q 1031 97 1300 97 
Q 1681 97 2032 272 
Q 2384 447 2606 756 
Q 2625 775 2656 775 
Q 2688 775 2720 739 
Q 2753 703 2753 672 
Q 2753 647 2741 634 
Q 2506 306 2109 117 
Q 1713 -72 1288 -72 
z
M 909 1631 
Q 1281 1631 1597 1665 
Q 1913 1700 2169 1839 
Q 2425 1978 2425 2272 
Q 2425 2391 2359 2480 
Q 2294 2569 2189 2616 
Q 2084 2663 1972 2663 
Q 1700 2663 1483 2516 
Q 1266 2369 1125 2133 
Q 984 1897 909 1631 
z
" transform="scale(0.015625)"/>
       <path id="Cmmi10-73" d="M 556 391 
Q 728 97 1247 97 
Q 1472 97 1675 173 
Q 1878 250 2011 403 
Q 2144 556 2144 775 
Q 2144 941 2025 1047 
Q 1906 1153 1734 1191 
L 1388 1259 
Q 1150 1319 997 1481 
Q 844 1644 844 1875 
Q 844 2159 998 2378 
Q 1153 2597 1406 2712 
Q 1659 2828 1931 2828 
Q 2222 2828 2451 2689 
Q 2681 2550 2681 2278 
Q 2681 2131 2598 2018 
Q 2516 1906 2369 1906 
Q 2284 1906 2223 1961 
Q 2163 2016 2163 2100 
Q 2163 2175 2205 2245 
Q 2247 2316 2317 2358 
Q 2388 2400 2463 2400 
Q 2406 2538 2251 2600 
Q 2097 2663 1919 2663 
Q 1756 2663 1593 2597 
Q 1431 2531 1332 2404 
Q 1234 2278 1234 2106 
Q 1234 1991 1315 1903 
Q 1397 1816 1516 1778 
L 1888 1703 
Q 2066 1666 2214 1570 
Q 2363 1475 2448 1329 
Q 2534 1184 2534 997 
Q 2534 759 2401 528 
Q 2269 297 2075 159 
Q 1734 -72 1241 -72 
Q 900 -72 615 84 
Q 331 241 331 550 
Q 331 725 432 854 
Q 534 984 709 984 
Q 813 984 883 921 
Q 953 859 953 756 
Q 953 609 843 500 
Q 734 391 588 391 
L 556 391 
z
" transform="scale(0.015625)"/>
      </defs>
      <use xlink:href="#Cmmi10-78" transform="translate(0 0.459375)"/>
      <use xlink:href="#Cmr10-3d" transform="translate(74.638672 0.459375)"/>
      <use xlink:href="#Cmr10-28" transform="translate(169.882812 0.459375)"/>
      <use xlink:href="#Cmmi10-52" transform="translate(208.701172 0.459375)"/>
      <use xlink:href="#Cmmi10-69" transform="translate(295.949609 38.723438) scale(0.7)"/>
      <use xlink:href="#Cmmi10-6e" transform="translate(320.046289 38.723438) scale(0.7)"/>
      <use xlink:href="#Cmmi10-74" transform="translate(362.053125 38.723438) scale(0.7)"/>
      <use xlink:href="#Cmmi10-72" transform="translate(284.580078 -25.05) scale(0.7)"/>
      <use xlink:href="#Cmr10-2b" transform="translate(411.247852 0.459375)"/>
      <use xlink:href="#Cmmi10-6c" transform="translate(506.491992 0.459375)"/>
      <use xlink:href="#Cmmi10-6d" transform="translate(536.277148 -16.546875) scale(0.7)"/>
      <use xlink:href="#Cmr10-29" transform="translate(604.10957 0.459375)"/>
      <use xlink:href="#Cmmi10-3d" transform="translate(642.92793 0.459375)"/>
      <use xlink:href="#Cmmi10-52" transform="translate(692.92793 0.459375)"/>
      <use xlink:href="#Cmmi10-65" transform="translate(780.176367 38.723438) scale(0.7)"/>
      <use xlink:href="#Cmmi10-78" transform="translate(812.71543 38.723438) scale(0.7)"/>
      <use xlink:href="#Cmmi10-74" transform="translate(852.671484 38.723438) scale(0.7)"/>
      <use xlink:href="#Cmmi10-73" transform="translate(768.806836 -25.05) scale(0.7)"/>
     </g>
    </g>
   </g>
   <g id="matplotlib.axis_2">
    <g id="ytick_1">
     <g id="line2d_6">
      <defs>
       <path id="m543bcd35d2" d="M 0 0 
L -3.5 0 
" style="stroke: #000000; stroke-width: 0.8"/>
      </defs>
      <g>
       <use xlink:href="#m543bcd35d2" x="54" y="256.32" style="stroke: #000000; stroke-width: 0.8"/>
      </g>
     </g>
     <g id="text_7">
      <!-- 3.50 -->
      <g transform="translate(29.5 259.791875) scale(0.1 -0.1)">
       <defs>
        <path id="TimesNewRomanPSMT-33" d="M 325 3431 
Q 506 3859 782 4092 
Q 1059 4325 1472 4325 
Q 1981 4325 2253 3994 
Q 2459 3747 2459 3466 
Q 2459 3003 1878 2509 
Q 2269 2356 2469 2072 
Q 2669 1788 2669 1403 
Q 2669 853 2319 450 
Q 1863 -75 997 -75 
Q 569 -75 414 31 
Q 259 138 259 259 
Q 259 350 332 419 
Q 406 488 509 488 
Q 588 488 669 463 
Q 722 447 909 348 
Q 1097 250 1169 231 
Q 1284 197 1416 197 
Q 1734 197 1970 444 
Q 2206 691 2206 1028 
Q 2206 1275 2097 1509 
Q 2016 1684 1919 1775 
Q 1784 1900 1550 2001 
Q 1316 2103 1072 2103 
L 972 2103 
L 972 2197 
Q 1219 2228 1467 2375 
Q 1716 2522 1828 2728 
Q 1941 2934 1941 3181 
Q 1941 3503 1739 3701 
Q 1538 3900 1238 3900 
Q 753 3900 428 3381 
L 325 3431 
z
" transform="scale(0.015625)"/>
       </defs>
       <use xlink:href="#TimesNewRomanPSMT-33"/>
       <use xlink:href="#TimesNewRomanPSMT-2e" x="50"/>
       <use xlink:href="#TimesNewRomanPSMT-35" x="75"/>
       <use xlink:href="#TimesNewRomanPSMT-30" x="125"/>
      </g>
     </g>
    </g>
    <g id="ytick_2">
     <g id="line2d_7">
      <g>
       <use xlink:href="#m543bcd35d2" x="54" y="228.6" style="stroke: #000000; stroke-width: 0.8"/>
      </g>
     </g>
     <g id="text_8">
      <!-- 3.75 -->
      <g transform="translate(29.5 232.071875) scale(0.1 -0.1)">
       <use xlink:href="#TimesNewRomanPSMT-33"/>
       <use xlink:href="#TimesNewRomanPSMT-2e" x="50"/>
       <use xlink:href="#TimesNewRomanPSMT-37" x="75"/>
       <use xlink:href="#TimesNewRomanPSMT-35" x="125"/>
      </g>
     </g>
    </g>
    <g id="ytick_3">
     <g id="line2d_8">
      <g>
       <use xlink:href="#m543bcd35d2" x="54" y="200.88" style="stroke: #000000; stroke-width: 0.8"/>
      </g>
     </g>
     <g id="text_9">
      <!-- 4.00 -->
      <g transform="translate(29.5 204.351875) scale(0.1 -0.1)">
       <defs>
        <path id="TimesNewRomanPSMT-34" d="M 2978 1563 
L 2978 1119 
L 2409 1119 
L 2409 0 
L 1894 0 
L 1894 1119 
L 100 1119 
L 100 1519 
L 2066 4325 
L 2409 4325 
L 2409 1563 
L 2978 1563 
z
M 1894 1563 
L 1894 3666 
L 406 1563 
L 1894 1563 
z
" transform="scale(0.015625)"/>
       </defs>
       <use xlink:href="#TimesNewRomanPSMT-34"/>
       <use xlink:href="#TimesNewRomanPSMT-2e" x="50"/>
       <use xlink:href="#TimesNewRomanPSMT-30" x="75"/>
       <use xlink:href="#TimesNewRomanPSMT-30" x="125"/>
      </g>
     </g>
    </g>
    <g id="ytick_4">
     <g id="line2d_9">
      <g>
       <use xlink:href="#m543bcd35d2" x="54" y="173.16" style="stroke: #000000; stroke-width: 0.8"/>
      </g>
     </g>
     <g id="text_10">
      <!-- 4.25 -->
      <g transform="translate(29.5 176.631875) scale(0.1 -0.1)">
       <defs>
        <path id="TimesNewRomanPSMT-32" d="M 2934 816 
L 2638 0 
L 138 0 
L 138 116 
Q 1241 1122 1691 1759 
Q 2141 2397 2141 2925 
Q 2141 3328 1894 3587 
Q 1647 3847 1303 3847 
Q 991 3847 742 3664 
Q 494 3481 375 3128 
L 259 3128 
Q 338 3706 661 4015 
Q 984 4325 1469 4325 
Q 1984 4325 2329 3994 
Q 2675 3663 2675 3213 
Q 2675 2891 2525 2569 
Q 2294 2063 1775 1497 
Q 997 647 803 472 
L 1909 472 
Q 2247 472 2383 497 
Q 2519 522 2628 598 
Q 2738 675 2819 816 
L 2934 816 
z
" transform="scale(0.015625)"/>
       </defs>
       <use xlink:href="#TimesNewRomanPSMT-34"/>
       <use xlink:href="#TimesNewRomanPSMT-2e" x="50"/>
       <use xlink:href="#TimesNewRomanPSMT-32" x="75"/>
       <use xlink:href="#TimesNewRomanPSMT-35" x="125"/>
      </g>
     </g>
    </g>
    <g id="ytick_5">
     <g id="line2d_10">
      <g>
       <use xlink:href="#m543bcd35d2" x="54" y="145.44" style="stroke: #000000; stroke-width: 0.8"/>
      </g>
     </g>
     <g id="text_11">
      <!-- 4.50 -->
      <g transform="translate(29.5 148.911875) scale(0.1 -0.1)">
       <use xlink:href="#TimesNewRomanPSMT-34"/>
       <use xlink:href="#TimesNewRomanPSMT-2e" x="50"/>
       <use xlink:href="#TimesNewRomanPSMT-35" x="75"/>
       <use xlink:href="#TimesNewRomanPSMT-30" x="125"/>
      </g>
     </g>
    </g>
    <g id="ytick_6">
     <g id="line2d_11">
      <g>
       <use xlink:href="#m543bcd35d2" x="54" y="117.72" style="stroke: #000000; stroke-width: 0.8"/>
      </g>
     </g>
     <g id="text_12">
      <!-- 4.75 -->
      <g transform="translate(29.5 121.191875) scale(0.1 -0.1)">
       <use xlink:href="#TimesNewRomanPSMT-34"/>
       <use xlink:href="#TimesNewRomanPSMT-2e" x="50"/>
       <use xlink:href="#TimesNewRomanPSMT-37" x="75"/>
       <use xlink:href="#TimesNewRomanPSMT-35" x="125"/>
      </g>
     </g>
    </g>
    <g id="ytick_7">
     <g id="line2d_12">
      <g>
       <use xlink:href="#m543bcd35d2" x="54" y="90" style="stroke: #000000; stroke-width: 0.8"/>
      </g>
     </g>
     <g id="text_13">
      <!-- 5.00 -->
      <g transform="translate(29.5 93.471875) scale(0.1 -0.1)">
       <use xlink:href="#TimesNewRomanPSMT-35"/>
       <use xlink:href="#TimesNewRomanPSMT-2e" x="50"/>
       <use xlink:href="#TimesNewRomanPSMT-30" x="75"/>
       <use xlink:href="#TimesNewRomanPSMT-30" x="125"/>
      </g>
     </g>
    </g>
    <g id="ytick_8">
     <g id="line2d_13">
      <g>
       <use xlink:href="#m543bcd35d2" x="54" y="62.28" style="stroke: #000000; stroke-width: 0.8"/>
      </g>
     </g>
     <g id="text_14">
      <!-- 5.25 -->
      <g transform="translate(29.5 65.751875) scale(0.1 -0.1)">
       <use xlink:href="#TimesNewRomanPSMT-35"/>
       <use xlink:href="#TimesNewRomanPSMT-2e" x="50"/>
       <use xlink:href="#TimesNewRomanPSMT-32" x="75"/>
       <use xlink:href="#TimesNewRomanPSMT-35" x="125"/>
      </g>
     </g>
    </g>
    <g id="ytick_9">
     <g id="line2d_14">
      <g>
       <use xlink:href="#m543bcd35d2" x="54" y="34.56" style="stroke: #000000; stroke-width: 0.8"/>
      </g>
     </g>
     <g id="text_15">
      <!-- 5.50 -->
      <g transform="translate(29.5 38.031875) scale(0.1 -0.1)">
       <use xlink:href="#TimesNewRomanPSMT-35"/>
       <use xlink:href="#TimesNewRomanPSMT-2e" x="50"/>
       <use xlink:href="#TimesNewRomanPSMT-35" x="75"/>
       <use xlink:href="#TimesNewRomanPSMT-30" x="125"/>
      </g>
     </g>
    </g>
    <g id="text_16">
     <!-- $l_m/g$ -->
     <g transform="translate(23 155.24) rotate(-90) scale(0.1 -0.1)">
      <defs>
       <path id="Cmmi10-67" d="M 91 -916 
Q 91 -759 198 -642 
Q 306 -525 459 -525 
Q 563 -525 633 -589 
Q 703 -653 703 -756 
Q 703 -872 637 -964 
Q 572 -1056 469 -1094 
Q 641 -1147 1006 -1147 
Q 1300 -1147 1544 -920 
Q 1788 -694 1863 -397 
L 2047 353 
Q 1700 0 1325 0 
Q 1050 0 854 140 
Q 659 281 556 515 
Q 453 750 453 1013 
Q 453 1306 573 1628 
Q 694 1950 911 2225 
Q 1128 2500 1409 2664 
Q 1691 2828 2003 2828 
Q 2191 2828 2341 2725 
Q 2491 2622 2578 2450 
Q 2641 2700 2853 2700 
Q 2934 2700 2990 2651 
Q 3047 2603 3047 2522 
Q 3047 2503 3045 2493 
Q 3044 2484 3041 2472 
L 2309 -434 
Q 2259 -634 2125 -800 
Q 1991 -966 1809 -1077 
Q 1628 -1188 1412 -1250 
Q 1197 -1313 997 -1313 
Q 631 -1313 361 -1242 
Q 91 -1172 91 -916 
z
M 1338 166 
Q 1747 166 2144 728 
L 2497 2125 
Q 2453 2347 2322 2505 
Q 2191 2663 1991 2663 
Q 1778 2663 1589 2489 
Q 1400 2316 1275 2075 
Q 1156 1844 1045 1411 
Q 934 978 934 728 
Q 934 509 1034 337 
Q 1134 166 1338 166 
z
" transform="scale(0.015625)"/>
      </defs>
      <use xlink:href="#Cmmi10-6c"/>
      <use xlink:href="#Cmmi10-6d" transform="translate(29.785156 -17.00625) scale(0.7)"/>
      <use xlink:href="#Cmmi10-3d" transform="translate(97.617578 0)"/>
      <use xlink:href="#Cmmi10-67" transform="translate(147.617578 0)"/>
     </g>
    </g>
   </g>
   <g id="PathCollection_1"/>
   <g id="PathCollection_2">
    <path d="M 256.939486 256.32 
L 258.500979 251.794286 
L 259.526204 248.735059 
L 259.9808 247.268571 
L 261.11737 243.505914 
" clip-path="url(#pbbc1adbc13)" style="fill: none; stroke: #24dbff; stroke-width: 1.5"/>
    <path d="M 266.386743 224.128949 
L 267.366505 220.114286 
L 268.272 216.30481 
" clip-path="url(#pbbc1adbc13)" style="fill: none; stroke: #24dbff; stroke-width: 1.5"/>
    <path d="M 54 224.473603 
L 54.085759 224.64 
L 56.459405 229.165714 
L 58.301231 232.612207 
" clip-path="url(#pbbc1adbc13)" style="fill: none; stroke: #24dbff; stroke-width: 1.5"/>
    <path d="M 67.34795 248.219193 
L 69.599829 251.794286 
L 71.491592 254.741056 
L 72.539299 256.32 
" clip-path="url(#pbbc1adbc13)" style="fill: none; stroke: #24dbff; stroke-width: 1.5"/>
   </g>
   <g id="PathCollection_3">
    <path d="M 231.075636 256.32 
L 233.288816 252.750522 
L 233.825595 251.794286 
L 236.29933 247.268571 
L 237.661714 244.702494 
L 238.609104 242.742857 
L 240.738474 238.217143 
L 240.865739 237.938927 
" clip-path="url(#pbbc1adbc13)" style="fill: none; stroke: #49b6ff; stroke-width: 1.5"/>
    <path d="M 248.003918 220.090647 
L 249.562532 215.588571 
L 250.780408 211.976698 
L 251.064603 211.062857 
L 252.441291 206.537143 
L 253.782069 202.011429 
L 255.088486 197.485714 
L 255.153306 197.256563 
L 256.2781 192.96 
L 257.434076 188.434286 
L 258.562133 183.908571 
L 259.526204 179.949256 
L 259.654187 179.382857 
L 260.657493 174.857143 
L 261.637934 170.331429 
L 262.596423 165.805714 
L 263.533827 161.28 
L 263.899102 159.482416 
L 264.414887 156.754286 
L 265.253924 152.228571 
L 266.075532 147.702857 
L 266.880373 143.177143 
L 267.669079 138.651429 
L 268.272 135.125415 
" clip-path="url(#pbbc1adbc13)" style="fill: none; stroke: #49b6ff; stroke-width: 1.5"/>
    <path d="M 54 166.073283 
L 55.803567 170.331429 
L 57.752612 174.857143 
L 58.372898 176.274578 
L 59.773662 179.382857 
L 61.847232 183.908571 
L 62.745796 185.837881 
L 63.031382 186.432506 
" clip-path="url(#pbbc1adbc13)" style="fill: none; stroke: #49b6ff; stroke-width: 1.5"/>
    <path d="M 71.366598 202.979117 
L 71.491592 203.21485 
L 73.313661 206.537143 
L 75.838902 211.062857 
L 75.86449 211.107961 
L 78.498135 215.588571 
L 80.237388 218.496713 
L 81.24161 220.114286 
L 84.09971 224.64 
L 84.610286 225.434787 
L 87.103206 229.165714 
L 88.983184 231.930903 
L 90.230973 233.691429 
L 93.356082 238.02512 
L 93.5008 238.217143 
L 96.970374 242.742857 
L 97.72898 243.715349 
L 100.63337 247.268571 
L 102.101878 249.034281 
L 104.514598 251.794286 
L 106.474776 253.998238 
L 108.652741 256.32 
" clip-path="url(#pbbc1adbc13)" style="fill: none; stroke: #49b6ff; stroke-width: 1.5"/>
   </g>
   <g id="PathCollection_4">
    <path d="M 54 94.624029 
L 55.109186 97.92 
L 56.653996 102.445714 
L 58.221517 106.971429 
L 58.372898 107.402515 
L 59.854308 111.497143 
L 61.515877 116.022857 
L 61.521512 116.037984 
" clip-path="url(#pbbc1adbc13)" style="fill: none; stroke: #6d92ff; stroke-width: 1.5"/>
    <path d="M 68.57737 133.97881 
L 68.638322 134.125714 
L 70.544513 138.651429 
L 71.491592 140.866881 
L 72.513861 143.177143 
L 74.546523 147.702857 
L 75.86449 150.593173 
L 76.637804 152.228571 
L 78.810039 156.754286 
L 80.237388 159.682868 
L 81.046204 161.28 
L 83.372957 165.805714 
L 84.610286 168.175725 
L 85.782218 170.331429 
L 88.280609 174.857143 
L 88.983184 176.11048 
L 90.897874 179.382857 
L 93.356082 183.519254 
L 93.598237 183.908571 
L 96.456381 188.434286 
L 97.72898 190.418291 
L 99.440301 192.96 
L 102.101878 196.852308 
L 102.558064 197.485714 
L 105.867881 202.011429 
L 106.474776 202.828525 
L 109.386576 206.537143 
L 110.847673 208.369615 
L 113.127507 211.062857 
L 115.220571 213.497927 
L 117.137874 215.588571 
L 119.593469 218.225835 
L 121.480349 220.114286 
L 123.966367 222.565183 
L 126.240007 224.64 
L 128.339265 226.527286 
L 131.535334 229.165714 
L 132.712163 230.122936 
L 137.085061 233.357018 
L 137.588868 233.691429 
L 141.457959 236.222989 
L 144.904567 238.217143 
L 145.830857 238.745518 
L 150.203755 240.902988 
L 154.576653 242.71819 
L 154.650655 242.742857 
L 158.949551 244.156791 
L 163.322449 245.236117 
L 167.695347 245.943603 
L 172.068245 246.264871 
L 176.441143 246.183971 
L 180.814041 245.68321 
L 185.186939 244.742939 
L 189.559837 243.341318 
L 190.952868 242.742857 
L 193.932735 241.432537 
L 198.305633 238.992462 
L 199.445324 238.217143 
L 202.678531 235.963776 
L 205.418838 233.691429 
L 207.051429 232.303919 
L 210.219485 229.165714 
L 211.424327 227.94196 
L 214.2575 224.64 
L 215.797224 222.799114 
L 217.778405 220.114286 
L 220.170122 216.787576 
L 220.938164 215.588571 
L 223.766716 211.062857 
L 224.54302 209.790028 
L 226.325791 206.537143 
L 228.741172 202.011429 
L 228.915918 201.676749 
L 230.896119 197.485714 
L 232.978386 192.96 
L 233.288816 192.270665 
L 234.861366 188.434286 
L 236.670934 183.908571 
L 237.661714 181.373388 
L 238.373304 179.382857 
L 239.956741 174.857143 
L 241.502379 170.331429 
L 242.034612 168.740856 
L 242.936997 165.805714 
L 244.298991 161.28 
L 245.630388 156.754286 
L 246.40751 154.058141 
L 246.893852 152.228571 
L 248.074213 147.702857 
L 249.229578 143.177143 
L 250.360892 138.651429 
L 250.780408 136.94264 
L 251.420355 134.125714 
L 252.42954 129.6 
L 253.418893 125.074286 
L 254.389135 120.548571 
L 255.153306 116.917844 
L 255.328115 116.022857 
L 256.198303 111.497143 
L 257.052607 106.971429 
L 257.891583 102.445714 
L 258.715764 97.92 
L 259.525658 93.394286 
L 259.526204 93.391192 
L 260.268917 88.868571 
L 260.999745 84.342857 
L 261.718595 79.817143 
L 262.425864 75.291429 
L 263.121938 70.765714 
L 263.807182 66.24 
L 263.899102 65.625054 
L 264.44422 61.714286 
L 265.065855 57.188571 
L 265.678341 52.662857 
L 266.281972 48.137143 
L 266.877026 43.611429 
L 267.463775 39.085714 
L 268.042477 34.56 
" clip-path="url(#pbbc1adbc13)" style="fill: none; stroke: #6d92ff; stroke-width: 1.5"/>
   </g>
   <g id="PathCollection_5">
    <path d="M 61.951809 34.56 
L 62.745796 37.249351 
L 63.305445 39.085714 
L 64.701892 43.611429 
L 66.116609 48.137143 
L 67.118694 51.30198 
L 67.564221 52.662857 
L 68.357798 55.05669 
" clip-path="url(#pbbc1adbc13)" style="fill: none; stroke: #926dff; stroke-width: 1.5"/>
    <path d="M 74.778719 73.571218 
L 75.401219 75.291429 
L 75.86449 76.555177 
L 77.105448 79.817143 
L 78.850283 84.342857 
L 80.237388 87.89252 
L 80.634054 88.868571 
L 82.49748 93.394286 
L 84.386719 97.92 
L 84.610286 98.448544 
L 86.372674 102.445714 
L 88.39575 106.971429 
L 88.983184 108.268002 
L 90.512126 111.497143 
L 92.684588 116.022857 
L 93.356082 117.402875 
L 94.96027 120.548571 
L 97.300239 125.074286 
L 97.72898 125.892308 
L 99.7721 129.6 
L 102.101878 133.769781 
L 102.311737 134.125714 
L 105.016437 138.651429 
L 106.474776 141.058248 
L 107.835087 143.177143 
L 110.78049 147.702857 
L 110.847673 147.804684 
L 113.954463 152.228571 
L 115.220571 154.007055 
L 117.31374 156.754286 
L 119.593469 159.706368 
L 120.902438 161.28 
L 123.966367 164.914769 
L 124.781486 165.805714 
L 128.339265 169.643721 
L 129.037515 170.331429 
L 132.712163 173.903995 
L 133.798065 174.857143 
L 137.085061 177.705663 
L 139.259032 179.382857 
L 141.457959 181.058082 
L 145.737665 183.908571 
L 145.830857 183.969878 
L 150.203755 186.419735 
L 154.572534 188.434286 
L 154.576653 188.436163 
L 158.949551 189.982729 
L 163.322449 191.073541 
L 167.695347 191.691883 
L 172.068245 191.819234 
L 176.441143 191.435068 
L 180.814041 190.516623 
L 185.186939 189.038636 
L 186.471862 188.434286 
L 189.559837 186.951777 
L 193.932735 184.228364 
L 194.34835 183.908571 
L 198.305633 180.797953 
L 199.805244 179.382857 
L 202.678531 176.611989 
L 204.229721 174.857143 
L 207.051429 171.593629 
L 207.997924 170.331429 
L 211.31679 165.805714 
L 211.424327 165.656046 
L 214.189449 161.28 
L 215.797224 158.676904 
L 216.852641 156.754286 
L 219.284843 152.228571 
L 220.170122 150.546909 
L 221.512763 147.702857 
L 223.604298 143.177143 
L 224.54302 141.104638 
L 225.546823 138.651429 
L 227.362204 134.125714 
L 228.915918 130.169546 
L 229.119228 129.6 
L 230.707306 125.074286 
L 232.262795 120.548571 
L 233.288816 117.506093 
L 233.745904 116.022857 
L 235.11701 111.497143 
L 236.461642 106.971429 
L 237.661714 102.85553 
L 237.771402 102.445714 
L 238.964405 97.92 
L 240.13569 93.394286 
L 241.286004 88.868571 
L 242.034612 85.874049 
L 242.387405 84.342857 
L 243.414548 79.817143 
L 244.424324 75.291429 
L 245.417309 70.765714 
L 246.394057 66.24 
L 246.40751 66.176838 
L 247.286632 61.714286 
L 248.164216 57.188571 
L 249.028229 52.662857 
L 249.879105 48.137143 
L 250.717257 43.611429 
L 250.780408 43.266223 
L 251.489849 39.085714 
L 252.246975 34.56 
" clip-path="url(#pbbc1adbc13)" style="fill: none; stroke: #926dff; stroke-width: 1.5"/>
   </g>
   <g id="PathCollection_6">
    <path d="M 92.73487 34.56 
L 93.356082 36.158462 
L 94.549866 39.085714 
L 96.417789 43.611429 
L 97.72898 46.750074 
L 98.339139 48.137143 
L 100.353707 52.662857 
L 100.606398 53.223633 
" clip-path="url(#pbbc1adbc13)" style="fill: none; stroke: #b649ff; stroke-width: 1.5"/>
    <path d="M 108.774008 69.968465 
L 109.191971 70.765714 
L 110.847673 73.885813 
L 111.643657 75.291429 
L 114.237288 79.817143 
L 115.220571 81.512395 
L 116.982838 84.342857 
L 119.593469 88.486323 
L 119.853823 88.868571 
L 122.972822 93.394286 
L 123.966367 94.819013 
L 126.323338 97.92 
L 128.339265 100.541713 
L 129.951353 102.445714 
L 132.712163 105.66952 
L 133.955484 106.971429 
L 137.085061 110.212058 
L 138.491545 111.497143 
L 141.457959 114.177993 
L 143.821182 116.022857 
L 145.830857 117.574997 
L 150.203755 120.407949 
L 150.474563 120.548571 
L 154.576653 122.657214 
L 158.949551 124.337317 
L 161.900066 125.074286 
L 163.322449 125.426215 
L 167.695347 125.905394 
L 172.068245 125.760703 
L 175.848549 125.074286 
L 176.441143 124.964851 
L 180.814041 123.473319 
L 185.186939 121.262639 
L 186.244421 120.548571 
L 189.559837 118.269253 
L 192.147092 116.022857 
L 193.932735 114.443911 
L 196.674494 111.497143 
L 198.305633 109.711205 
L 200.419877 106.971429 
L 202.678531 103.988723 
L 203.685256 102.445714 
L 206.584127 97.92 
L 207.051429 97.177699 
L 209.135268 93.394286 
L 211.424327 89.156738 
L 211.562119 88.868571 
L 213.692525 84.342857 
L 215.782113 79.817143 
L 215.797224 79.783918 
L 217.624 75.291429 
L 219.430845 70.765714 
L 220.170122 68.884303 
L 221.106408 66.24 
L 222.683382 61.714286 
L 224.233445 57.188571 
L 224.54302 56.271711 
L 225.648419 52.662857 
L 227.012928 48.137143 
L 228.355535 43.611429 
L 228.915918 41.695512 
L 229.612286 39.085714 
L 230.802785 34.56 
" clip-path="url(#pbbc1adbc13)" style="fill: none; stroke: #b649ff; stroke-width: 1.5"/>
   </g>
   <g id="PathCollection_7">
    <path d="M 143.982161 34.56 
L 145.830857 36.259441 
L 149.555461 39.085714 
L 150.203755 39.573195 
L 154.576653 42.146874 
L 158.055392 43.611429 
L 158.949551 43.9847 
L 160.989032 44.485774 
" clip-path="url(#pbbc1adbc13)" style="fill: none; stroke: #db24ff; stroke-width: 1.5"/>
    <path d="M 174.378757 44.148332 
L 176.132413 43.611429 
L 176.441143 43.515555 
L 180.814041 41.281722 
L 183.862865 39.085714 
L 185.186939 38.117825 
L 188.929028 34.56 
" clip-path="url(#pbbc1adbc13)" style="fill: none; stroke: #db24ff; stroke-width: 1.5"/>
   </g>
   <g id="PathCollection_8"/>
   <g id="PathCollection_9"/>
   <g id="PathCollection_10">
    <path d="M 54 229.723527 
L 58.372898 233.417736 
L 58.695742 233.691429 
L 62.745796 237.060026 
L 64.130166 238.217143 
L 64.399279 238.437775 
" clip-path="url(#pbbc1adbc13)" style="fill: none; stroke: #209066; stroke-width: 1.5"/>
    <path d="M 78.604512 249.985121 
L 80.237388 251.294371 
L 80.857117 251.794286 
L 84.610286 254.761709 
L 86.566489 256.32 
" clip-path="url(#pbbc1adbc13)" style="fill: none; stroke: #209066; stroke-width: 1.5"/>
   </g>
   <g id="PathCollection_11">
    <path d="M 54 184.550575 
L 57.884385 188.434286 
L 58.372898 188.914735 
L 62.473362 192.96 
L 62.745796 193.224323 
L 67.118694 197.482367 
L 67.122119 197.485714 
L 71.491592 201.684455 
L 71.830325 202.011429 
L 74.56056 204.602357 
" clip-path="url(#pbbc1adbc13)" style="fill: none; stroke: #40a066; stroke-width: 1.5"/>
    <path d="M 88.306905 217.434018 
L 88.983184 218.053312 
L 91.218912 220.114286 
L 93.356082 222.049454 
L 96.196602 224.64 
L 97.72898 226.012422 
L 101.222772 229.165714 
L 102.101878 229.944714 
L 106.295377 233.691429 
L 106.474776 233.848762 
L 110.847673 237.713983 
L 111.411904 238.217143 
L 115.220571 241.550472 
L 116.569861 242.742857 
L 119.593469 245.36459 
L 121.766969 247.268571 
L 123.966367 249.158531 
L 127.000825 251.794286 
L 128.339265 252.934431 
L 132.268971 256.32 
" clip-path="url(#pbbc1adbc13)" style="fill: none; stroke: #40a066; stroke-width: 1.5"/>
   </g>
   <g id="PathCollection_12">
    <path d="M 54 126.09935 
L 56.872275 129.6 
L 58.372898 131.404358 
L 60.633112 134.125714 
L 62.745796 136.634906 
L 64.440535 138.651429 
L 67.118694 141.794354 
L 68.294241 143.177143 
L 71.491592 146.885974 
L 72.193819 147.702857 
L 75.86449 151.91295 
L 76.138753 152.228571 
L 80.128751 156.754286 
L 80.237388 156.875676 
L 84.163293 161.28 
L 84.610286 161.774159 
L 88.240692 165.805714 
L 88.983184 166.618103 
L 92.360086 170.331429 
L 93.356082 171.410337 
L 96.520516 174.857143 
L 97.72898 176.153617 
L 100.720934 179.382857 
L 102.101878 180.850624 
L 104.960204 183.908571 
L 106.474776 185.503969 
L 109.237106 188.434286 
L 110.847673 190.116198 
L 113.550339 192.96 
L 115.220571 194.689787 
L 117.898528 197.485714 
L 119.593469 199.227151 
L 122.280227 202.011429 
L 123.966367 203.730642 
L 124.437518 204.21543 
" clip-path="url(#pbbc1adbc13)" style="fill: none; stroke: #60b066; stroke-width: 1.5"/>
    <path d="M 137.864715 217.847347 
L 140.110934 220.114286 
L 141.457959 221.450841 
L 144.636306 224.64 
L 145.830857 225.818197 
L 149.185276 229.165714 
L 150.203755 230.164585 
L 153.756035 233.691429 
L 154.576653 234.49197 
L 158.346742 238.217143 
L 158.949551 238.802268 
L 162.955533 242.742857 
L 163.322449 243.097345 
L 167.580524 247.268571 
L 167.695347 247.379022 
L 172.068245 251.644941 
L 172.219132 251.794286 
L 176.441143 255.897388 
L 176.869408 256.32 
" clip-path="url(#pbbc1adbc13)" style="fill: none; stroke: #60b066; stroke-width: 1.5"/>
   </g>
   <g id="PathCollection_13">
    <path d="M 54 46.468612 
L 55.072554 48.137143 
L 58.013384 52.662857 
L 58.372898 53.209367 
L 60.992361 57.188571 
L 62.745796 59.82459 
L 64.003065 61.714286 
L 67.046395 66.24 
L 67.118694 66.346125 
L 70.12852 70.765714 
L 71.491592 72.745749 
L 73.242596 75.291429 
L 75.86449 79.061957 
L 76.388935 79.817143 
L 79.570633 84.342857 
L 80.237388 85.279789 
L 82.786449 88.868571 
L 84.610286 91.407526 
L 86.034075 93.394286 
L 88.983184 97.462918 
L 89.313553 97.92 
L 92.627155 102.445714 
L 93.356082 103.429087 
L 95.972799 106.971429 
L 97.72898 109.320975 
L 99.349185 111.497143 
L 102.101878 115.150697 
L 102.756096 116.022857 
L 106.193817 120.548571 
L 106.474776 120.913481 
L 109.66228 125.074286 
L 110.847673 126.60269 
L 113.159538 129.6 
L 115.220571 132.239097 
L 116.685137 134.125714 
L 119.593469 137.82546 
L 120.238559 138.651429 
L 123.819307 143.177143 
L 123.966367 143.360386 
L 127.426695 147.702857 
L 128.339265 148.833276 
L 131.05947 152.228571 
L 132.712163 154.264541 
L 134.71691 156.754286 
L 137.085061 159.656686 
L 138.398242 161.28 
L 141.457959 165.012168 
L 142.102644 165.805714 
L 145.829246 170.331429 
L 145.830857 170.333356 
L 149.576161 174.857143 
L 150.203755 175.604757 
L 153.343034 179.382857 
L 154.576653 180.846902 
L 157.128899 183.908571 
L 158.949551 186.06204 
L 160.932756 188.434286 
L 162.206264 189.936095 
" clip-path="url(#pbbc1adbc13)" style="fill: none; stroke: #80c066; stroke-width: 1.5"/>
    <path d="M 174.992353 204.998084 
L 176.306652 206.537143 
L 176.441143 206.692159 
L 180.182514 211.062857 
L 180.814041 211.789591 
L 184.069581 215.588571 
L 185.186939 216.872793 
L 187.966728 220.114286 
L 189.559837 221.943746 
L 191.872818 224.64 
L 193.932735 227.004409 
L 195.786715 229.165714 
L 198.305633 232.056718 
L 199.707284 233.691429 
L 202.678531 237.102591 
L 203.633393 238.217143 
L 207.051429 242.143931 
L 207.563919 242.742857 
L 211.424327 247.182626 
L 211.49775 247.268571 
L 215.431306 251.794286 
L 215.797224 252.208284 
L 219.365227 256.32 
" clip-path="url(#pbbc1adbc13)" style="fill: none; stroke: #80c066; stroke-width: 1.5"/>
   </g>
   <g id="PathCollection_14">
    <path d="M 110.009249 34.56 
L 110.847673 35.968955 
L 112.696828 39.085714 
L 115.220571 43.303512 
L 115.404183 43.611429 
L 118.135247 48.137143 
L 119.593469 50.531632 
L 120.886185 52.662857 
L 123.657429 57.188571 
L 123.966367 57.687111 
L 126.450574 61.714286 
L 128.339265 64.748723 
L 129.262812 66.24 
L 132.095139 70.765714 
L 132.712163 71.740468 
L 134.947377 75.291429 
L 137.085061 78.656225 
L 137.818146 79.817143 
L 140.707963 84.342857 
L 141.457959 85.504259 
L 143.616128 88.868571 
L 145.830857 92.288369 
L 146.541999 93.394286 
L 149.485454 97.92 
L 150.203755 99.011748 
L 152.445751 102.445714 
L 154.576653 105.677704 
L 155.42269 106.971429 
L 158.415699 111.497143 
L 158.949551 112.294559 
L 161.423767 116.022857 
L 163.322449 118.855178 
L 164.4472 120.548571 
L 167.485478 125.074286 
L 167.695347 125.382754 
L 170.536458 129.6 
L 172.068245 131.850207 
L 173.601346 134.125714 
L 176.441143 138.296944 
L 176.679887 138.651429 
L 179.769055 143.177143 
L 180.814041 144.690746 
L 182.869968 147.702857 
L 185.186939 151.061116 
L 185.982875 152.228571 
L 189.105929 156.754286 
L 189.559837 157.403339 
L 192.237138 161.28 
L 193.932735 163.70811 
L 195.378578 165.805714 
L 198.305633 170.005295 
L 198.529893 170.331429 
L 201.686366 174.857143 
L 202.678531 176.262563 
L 204.850329 179.382857 
L 207.051429 182.509192 
L 208.022324 183.908571 
L 209.871292 186.541221 
" clip-path="url(#pbbc1adbc13)" style="fill: none; stroke: #9fcf66; stroke-width: 1.5"/>
    <path d="M 221.719866 203.371229 
L 223.954313 206.537143 
L 224.54302 207.359506 
L 227.149366 211.062857 
L 228.915918 213.542361 
L 230.348406 215.588571 
L 233.288816 219.737482 
L 233.551083 220.114286 
L 236.750498 224.64 
L 237.661714 225.911534 
L 239.95034 229.165714 
L 242.034612 232.091915 
L 243.152115 233.691429 
L 246.355112 238.217143 
L 246.40751 238.289914 
L 249.550129 242.742857 
L 250.780408 244.463314 
L 252.745496 247.268571 
L 255.153306 250.660841 
L 255.940974 251.794286 
L 259.132794 256.32 
" clip-path="url(#pbbc1adbc13)" style="fill: none; stroke: #9fcf66; stroke-width: 1.5"/>
   </g>
   <g id="PathCollection_15">
    <path d="M 176.662604 34.56 
L 178.954746 39.085714 
L 180.814041 42.733815 
L 181.257678 43.611429 
L 183.569981 48.137143 
L 185.186939 51.279497 
L 185.892576 52.662857 
L 188.224183 57.188571 
L 189.559837 59.760227 
L 190.565325 61.714286 
L 192.915365 66.24 
L 193.932735 68.181258 
L 195.273882 70.765714 
L 197.641465 75.291429 
L 198.305633 76.547715 
L 200.016135 79.817143 
L 202.400358 84.342857 
L 202.678531 84.864593 
L 204.789912 88.868571 
L 207.051429 93.131179 
L 207.189427 93.394286 
L 209.592993 97.92 
L 211.424327 101.345174 
L 212.005699 102.445714 
L 214.423114 106.971429 
L 215.797224 109.522313 
L 216.84765 111.497143 
L 219.277979 116.022857 
L 220.170122 117.667111 
L 221.712961 120.548571 
L 224.155269 125.074286 
L 224.54302 125.783962 
L 226.599298 129.6 
L 228.108501 132.38257 
" clip-path="url(#pbbc1adbc13)" style="fill: none; stroke: #bfdf66; stroke-width: 1.5"/>
    <path d="M 238.472883 151.454505 
L 238.891332 152.228571 
L 241.361055 156.754286 
L 242.034612 157.973895 
L 243.831082 161.28 
L 246.308147 165.805714 
L 246.40751 165.984629 
L 248.781154 170.331429 
L 250.780408 173.967096 
L 251.261415 174.857143 
L 253.7393 179.382857 
L 255.153306 181.941679 
L 256.220771 183.908571 
L 258.703327 188.434286 
L 259.526204 189.916385 
L 261.184684 192.96 
L 263.671104 197.485714 
L 263.899102 197.894505 
L 266.151062 202.011429 
L 268.272 205.86041 
" clip-path="url(#pbbc1adbc13)" style="fill: none; stroke: #bfdf66; stroke-width: 1.5"/>
   </g>
   <g id="PathCollection_16">
    <path d="M 242.725428 34.56 
L 244.443537 39.085714 
L 246.168324 43.611429 
L 246.40751 44.232141 
L 247.893332 48.137143 
L 249.623934 52.662857 
L 250.780408 55.666896 
L 251.031642 56.328177 
" clip-path="url(#pbbc1adbc13)" style="fill: none; stroke: #dfef66; stroke-width: 1.5"/>
    <path d="M 259.287378 77.766406 
L 259.526204 78.380984 
L 260.076275 79.817143 
L 261.827052 84.342857 
L 263.584566 88.868571 
L 263.899102 89.66924 
L 265.340374 93.394286 
L 267.101049 97.92 
L 268.272 100.90858 
" clip-path="url(#pbbc1adbc13)" style="fill: none; stroke: #dfef66; stroke-width: 1.5"/>
   </g>
   <g id="PathCollection_17"/>
   <g id="patch_3">
    <path d="M 54 256.32 
L 54 34.56 
" style="fill: none; stroke: #000000; stroke-width: 0.8; stroke-linejoin: miter; stroke-linecap: square"/>
   </g>
   <g id="patch_4">
    <path d="M 268.272 256.32 
L 268.272 34.56 
" style="fill: none; stroke: #000000; stroke-width: 0.8; stroke-linejoin: miter; stroke-linecap: square"/>
   </g>
   <g id="patch_5">
    <path d="M 54 256.32 
L 268.272 256.32 
" style="fill: none; stroke: #000000; stroke-width: 0.8; stroke-linejoin: miter; stroke-linecap: square"/>
   </g>
   <g id="patch_6">
    <path d="M 54 34.56 
L 268.272 34.56 
" style="fill: none; stroke: #000000; stroke-width: 0.8; stroke-linejoin: miter; stroke-linecap: square"/>
   </g>
   <g id="text_17">
    <g clip-path="url(#pbbc1adbc13)">
     <!-- 54.0 -->
     <g style="fill: #24dbff" transform="translate(262.931989 241.109417) rotate(-66.99132) scale(0.08 -0.08)">
      <use xlink:href="#TimesNewRomanPSMT-35"/>
      <use xlink:href="#TimesNewRomanPSMT-34" x="50"/>
      <use xlink:href="#TimesNewRomanPSMT-2e" x="100"/>
      <use xlink:href="#TimesNewRomanPSMT-30" x="125"/>
     </g>
    </g>
   </g>
   <g id="text_18">
    <g clip-path="url(#pbbc1adbc13)">
     <!-- 54.0 -->
     <g style="fill: #24dbff" transform="translate(56.623092 236.627777) rotate(-312.154809) scale(0.08 -0.08)">
      <use xlink:href="#TimesNewRomanPSMT-35"/>
      <use xlink:href="#TimesNewRomanPSMT-34" x="50"/>
      <use xlink:href="#TimesNewRomanPSMT-2e" x="100"/>
      <use xlink:href="#TimesNewRomanPSMT-30" x="125"/>
     </g>
    </g>
   </g>
   <g id="text_19">
    <g clip-path="url(#pbbc1adbc13)">
     <!-- 55.5 -->
     <g style="fill: #49b6ff" transform="translate(242.520129 236.123563) rotate(-58.084892) scale(0.08 -0.08)">
      <use xlink:href="#TimesNewRomanPSMT-35"/>
      <use xlink:href="#TimesNewRomanPSMT-35" x="50"/>
      <use xlink:href="#TimesNewRomanPSMT-2e" x="100"/>
      <use xlink:href="#TimesNewRomanPSMT-35" x="125"/>
     </g>
    </g>
   </g>
   <g id="text_20">
    <g clip-path="url(#pbbc1adbc13)">
     <!-- 55.5 -->
     <g style="fill: #49b6ff" transform="translate(61.278077 190.494009) rotate(-308.219123) scale(0.08 -0.08)">
      <use xlink:href="#TimesNewRomanPSMT-35"/>
      <use xlink:href="#TimesNewRomanPSMT-35" x="50"/>
      <use xlink:href="#TimesNewRomanPSMT-2e" x="100"/>
      <use xlink:href="#TimesNewRomanPSMT-35" x="125"/>
     </g>
    </g>
   </g>
   <g id="text_21">
    <g clip-path="url(#pbbc1adbc13)">
     <!-- 57.0 -->
     <g style="fill: #6d92ff" transform="translate(59.678938 120.116154) rotate(-301.566743) scale(0.08 -0.08)">
      <use xlink:href="#TimesNewRomanPSMT-35"/>
      <use xlink:href="#TimesNewRomanPSMT-37" x="50"/>
      <use xlink:href="#TimesNewRomanPSMT-2e" x="100"/>
      <use xlink:href="#TimesNewRomanPSMT-30" x="125"/>
     </g>
    </g>
   </g>
   <g id="text_22">
    <g clip-path="url(#pbbc1adbc13)">
     <!-- 58.5 -->
     <g style="fill: #926dff" transform="translate(66.467621 59.139278) rotate(-298.444015) scale(0.08 -0.08)">
      <defs>
       <path id="TimesNewRomanPSMT-38" d="M 1228 2134 
Q 725 2547 579 2797 
Q 434 3047 434 3316 
Q 434 3728 753 4026 
Q 1072 4325 1600 4325 
Q 2113 4325 2425 4047 
Q 2738 3769 2738 3413 
Q 2738 3175 2569 2928 
Q 2400 2681 1866 2347 
Q 2416 1922 2594 1678 
Q 2831 1359 2831 1006 
Q 2831 559 2490 242 
Q 2150 -75 1597 -75 
Q 994 -75 656 303 
Q 388 606 388 966 
Q 388 1247 577 1523 
Q 766 1800 1228 2134 
z
M 1719 2469 
Q 2094 2806 2194 3001 
Q 2294 3197 2294 3444 
Q 2294 3772 2109 3958 
Q 1925 4144 1606 4144 
Q 1288 4144 1088 3959 
Q 888 3775 888 3528 
Q 888 3366 970 3203 
Q 1053 3041 1206 2894 
L 1719 2469 
z
M 1375 2016 
Q 1116 1797 991 1539 
Q 866 1281 866 981 
Q 866 578 1086 336 
Q 1306 94 1647 94 
Q 1984 94 2187 284 
Q 2391 475 2391 747 
Q 2391 972 2272 1150 
Q 2050 1481 1375 2016 
z
" transform="scale(0.015625)"/>
      </defs>
      <use xlink:href="#TimesNewRomanPSMT-35"/>
      <use xlink:href="#TimesNewRomanPSMT-38" x="50"/>
      <use xlink:href="#TimesNewRomanPSMT-2e" x="100"/>
      <use xlink:href="#TimesNewRomanPSMT-35" x="125"/>
     </g>
    </g>
   </g>
   <g id="text_23">
    <g clip-path="url(#pbbc1adbc13)">
     <!-- 60.0 -->
     <g style="fill: #b649ff" transform="translate(98.816329 57.315879) rotate(-307.352345) scale(0.08 -0.08)">
      <use xlink:href="#TimesNewRomanPSMT-36"/>
      <use xlink:href="#TimesNewRomanPSMT-30" x="50"/>
      <use xlink:href="#TimesNewRomanPSMT-2e" x="100"/>
      <use xlink:href="#TimesNewRomanPSMT-30" x="125"/>
     </g>
    </g>
   </g>
   <g id="text_24">
    <g clip-path="url(#pbbc1adbc13)">
     <!-- 61.5 -->
     <g style="fill: #db24ff" transform="translate(160.724507 47.384234) rotate(-0.846593) scale(0.08 -0.08)">
      <defs>
       <path id="TimesNewRomanPSMT-31" d="M 750 3822 
L 1781 4325 
L 1884 4325 
L 1884 747 
Q 1884 391 1914 303 
Q 1944 216 2037 169 
Q 2131 122 2419 116 
L 2419 0 
L 825 0 
L 825 116 
Q 1125 122 1212 167 
Q 1300 213 1334 289 
Q 1369 366 1369 747 
L 1369 3034 
Q 1369 3497 1338 3628 
Q 1316 3728 1258 3775 
Q 1200 3822 1119 3822 
Q 1003 3822 797 3725 
L 750 3822 
z
" transform="scale(0.015625)"/>
      </defs>
      <use xlink:href="#TimesNewRomanPSMT-36"/>
      <use xlink:href="#TimesNewRomanPSMT-31" x="50"/>
      <use xlink:href="#TimesNewRomanPSMT-2e" x="100"/>
      <use xlink:href="#TimesNewRomanPSMT-35" x="125"/>
     </g>
    </g>
   </g>
   <g id="text_25">
    <g clip-path="url(#pbbc1adbc13)">
     <!-- 0.870 -->
     <g style="fill: #209066" transform="translate(62.621506 241.789808) rotate(-332.48985) scale(0.08 -0.08)">
      <use xlink:href="#TimesNewRomanPSMT-30"/>
      <use xlink:href="#TimesNewRomanPSMT-2e" x="50"/>
      <use xlink:href="#TimesNewRomanPSMT-38" x="75"/>
      <use xlink:href="#TimesNewRomanPSMT-37" x="125"/>
      <use xlink:href="#TimesNewRomanPSMT-30" x="175"/>
     </g>
    </g>
   </g>
   <g id="text_26">
    <g clip-path="url(#pbbc1adbc13)">
     <!-- 0.885 -->
     <g style="fill: #40a066" transform="translate(72.704975 208.096339) rotate(-329.141174) scale(0.08 -0.08)">
      <use xlink:href="#TimesNewRomanPSMT-30"/>
      <use xlink:href="#TimesNewRomanPSMT-2e" x="50"/>
      <use xlink:href="#TimesNewRomanPSMT-38" x="75"/>
      <use xlink:href="#TimesNewRomanPSMT-38" x="125"/>
      <use xlink:href="#TimesNewRomanPSMT-35" x="175"/>
     </g>
    </g>
   </g>
   <g id="text_27">
    <g clip-path="url(#pbbc1adbc13)">
     <!-- 0.900 -->
     <g style="fill: #60b066" transform="translate(122.543731 207.771722) rotate(-326.991973) scale(0.08 -0.08)">
      <defs>
       <path id="TimesNewRomanPSMT-39" d="M 338 -88 
L 338 28 
Q 744 34 1094 217 
Q 1444 400 1770 856 
Q 2097 1313 2225 1859 
Q 1734 1544 1338 1544 
Q 891 1544 572 1889 
Q 253 2234 253 2806 
Q 253 3363 572 3797 
Q 956 4325 1575 4325 
Q 2097 4325 2469 3894 
Q 2925 3359 2925 2575 
Q 2925 1869 2578 1258 
Q 2231 647 1613 244 
Q 1109 -88 516 -88 
L 338 -88 
z
M 2275 2091 
Q 2331 2497 2331 2741 
Q 2331 3044 2228 3395 
Q 2125 3747 1936 3934 
Q 1747 4122 1506 4122 
Q 1228 4122 1018 3872 
Q 809 3622 809 3128 
Q 809 2469 1088 2097 
Q 1291 1828 1588 1828 
Q 1731 1828 1928 1897 
Q 2125 1966 2275 2091 
z
" transform="scale(0.015625)"/>
      </defs>
      <use xlink:href="#TimesNewRomanPSMT-30"/>
      <use xlink:href="#TimesNewRomanPSMT-2e" x="50"/>
      <use xlink:href="#TimesNewRomanPSMT-39" x="75"/>
      <use xlink:href="#TimesNewRomanPSMT-30" x="125"/>
      <use xlink:href="#TimesNewRomanPSMT-30" x="175"/>
     </g>
    </g>
   </g>
   <g id="text_28">
    <g clip-path="url(#pbbc1adbc13)">
     <!-- 0.915 -->
     <g style="fill: #80c066" transform="translate(160.246966 193.602122) rotate(-322.985338) scale(0.08 -0.08)">
      <use xlink:href="#TimesNewRomanPSMT-30"/>
      <use xlink:href="#TimesNewRomanPSMT-2e" x="50"/>
      <use xlink:href="#TimesNewRomanPSMT-39" x="75"/>
      <use xlink:href="#TimesNewRomanPSMT-31" x="125"/>
      <use xlink:href="#TimesNewRomanPSMT-35" x="175"/>
     </g>
    </g>
   </g>
   <g id="text_29">
    <g clip-path="url(#pbbc1adbc13)">
     <!-- 0.930 -->
     <g style="fill: #9fcf66" transform="translate(207.843707 190.323594) rotate(-317.741946) scale(0.08 -0.08)">
      <use xlink:href="#TimesNewRomanPSMT-30"/>
      <use xlink:href="#TimesNewRomanPSMT-2e" x="50"/>
      <use xlink:href="#TimesNewRomanPSMT-39" x="75"/>
      <use xlink:href="#TimesNewRomanPSMT-33" x="125"/>
      <use xlink:href="#TimesNewRomanPSMT-30" x="175"/>
     </g>
    </g>
   </g>
   <g id="text_30">
    <g clip-path="url(#pbbc1adbc13)">
     <!-- 0.945 -->
     <g style="fill: #bfdf66" transform="translate(225.997502 136.305864) rotate(-310.345411) scale(0.08 -0.08)">
      <use xlink:href="#TimesNewRomanPSMT-30"/>
      <use xlink:href="#TimesNewRomanPSMT-2e" x="50"/>
      <use xlink:href="#TimesNewRomanPSMT-39" x="75"/>
      <use xlink:href="#TimesNewRomanPSMT-34" x="125"/>
      <use xlink:href="#TimesNewRomanPSMT-35" x="175"/>
     </g>
    </g>
   </g>
   <g id="text_31">
    <g clip-path="url(#pbbc1adbc13)">
     <!-- 0.960 -->
     <g style="fill: #dfef66" transform="translate(248.86706 60.331758) rotate(-301.030127) scale(0.08 -0.08)">
      <use xlink:href="#TimesNewRomanPSMT-30"/>
      <use xlink:href="#TimesNewRomanPSMT-2e" x="50"/>
      <use xlink:href="#TimesNewRomanPSMT-39" x="75"/>
      <use xlink:href="#TimesNewRomanPSMT-36" x="125"/>
      <use xlink:href="#TimesNewRomanPSMT-30" x="175"/>
     </g>
    </g>
   </g>
  </g>
  <g id="axes_2">
   <g id="patch_7">
    <path d="M 338.58 256.32 
L 349.668 256.32 
L 349.668 34.56 
L 338.58 34.56 
z
" style="fill: #ffffff"/>
   </g>
   <g id="matplotlib.axis_3"/>
   <g id="matplotlib.axis_4">
    <g id="ytick_10">
     <g id="line2d_15">
      <defs>
       <path id="mb411b5653f" d="M 0 0 
L 3.5 0 
" style="stroke: #000000; stroke-width: 0.8"/>
      </defs>
      <g>
       <use xlink:href="#mb411b5653f" x="349.668" y="256.32" style="stroke: #000000; stroke-width: 0.8"/>
      </g>
     </g>
     <g id="text_32">
      <!-- 52.5 -->
      <g transform="translate(356.668 259.791875) scale(0.1 -0.1)">
       <use xlink:href="#TimesNewRomanPSMT-35"/>
       <use xlink:href="#TimesNewRomanPSMT-32" x="50"/>
       <use xlink:href="#TimesNewRomanPSMT-2e" x="100"/>
       <use xlink:href="#TimesNewRomanPSMT-35" x="125"/>
      </g>
     </g>
    </g>
    <g id="ytick_11">
     <g id="line2d_16">
      <g>
       <use xlink:href="#mb411b5653f" x="349.668" y="224.64" style="stroke: #000000; stroke-width: 0.8"/>
      </g>
     </g>
     <g id="text_33">
      <!-- 54.0 -->
      <g transform="translate(356.668 228.111875) scale(0.1 -0.1)">
       <use xlink:href="#TimesNewRomanPSMT-35"/>
       <use xlink:href="#TimesNewRomanPSMT-34" x="50"/>
       <use xlink:href="#TimesNewRomanPSMT-2e" x="100"/>
       <use xlink:href="#TimesNewRomanPSMT-30" x="125"/>
      </g>
     </g>
    </g>
    <g id="ytick_12">
     <g id="line2d_17">
      <g>
       <use xlink:href="#mb411b5653f" x="349.668" y="192.96" style="stroke: #000000; stroke-width: 0.8"/>
      </g>
     </g>
     <g id="text_34">
      <!-- 55.5 -->
      <g transform="translate(356.668 196.431875) scale(0.1 -0.1)">
       <use xlink:href="#TimesNewRomanPSMT-35"/>
       <use xlink:href="#TimesNewRomanPSMT-35" x="50"/>
       <use xlink:href="#TimesNewRomanPSMT-2e" x="100"/>
       <use xlink:href="#TimesNewRomanPSMT-35" x="125"/>
      </g>
     </g>
    </g>
    <g id="ytick_13">
     <g id="line2d_18">
      <g>
       <use xlink:href="#mb411b5653f" x="349.668" y="161.28" style="stroke: #000000; stroke-width: 0.8"/>
      </g>
     </g>
     <g id="text_35">
      <!-- 57.0 -->
      <g transform="translate(356.668 164.751875) scale(0.1 -0.1)">
       <use xlink:href="#TimesNewRomanPSMT-35"/>
       <use xlink:href="#TimesNewRomanPSMT-37" x="50"/>
       <use xlink:href="#TimesNewRomanPSMT-2e" x="100"/>
       <use xlink:href="#TimesNewRomanPSMT-30" x="125"/>
      </g>
     </g>
    </g>
    <g id="ytick_14">
     <g id="line2d_19">
      <g>
       <use xlink:href="#mb411b5653f" x="349.668" y="129.6" style="stroke: #000000; stroke-width: 0.8"/>
      </g>
     </g>
     <g id="text_36">
      <!-- 58.5 -->
      <g transform="translate(356.668 133.071875) scale(0.1 -0.1)">
       <use xlink:href="#TimesNewRomanPSMT-35"/>
       <use xlink:href="#TimesNewRomanPSMT-38" x="50"/>
       <use xlink:href="#TimesNewRomanPSMT-2e" x="100"/>
       <use xlink:href="#TimesNewRomanPSMT-35" x="125"/>
      </g>
     </g>
    </g>
    <g id="ytick_15">
     <g id="line2d_20">
      <g>
       <use xlink:href="#mb411b5653f" x="349.668" y="97.92" style="stroke: #000000; stroke-width: 0.8"/>
      </g>
     </g>
     <g id="text_37">
      <!-- 60.0 -->
      <g transform="translate(356.668 101.391875) scale(0.1 -0.1)">
       <use xlink:href="#TimesNewRomanPSMT-36"/>
       <use xlink:href="#TimesNewRomanPSMT-30" x="50"/>
       <use xlink:href="#TimesNewRomanPSMT-2e" x="100"/>
       <use xlink:href="#TimesNewRomanPSMT-30" x="125"/>
      </g>
     </g>
    </g>
    <g id="ytick_16">
     <g id="line2d_21">
      <g>
       <use xlink:href="#mb411b5653f" x="349.668" y="66.24" style="stroke: #000000; stroke-width: 0.8"/>
      </g>
     </g>
     <g id="text_38">
      <!-- 61.5 -->
      <g transform="translate(356.668 69.711875) scale(0.1 -0.1)">
       <use xlink:href="#TimesNewRomanPSMT-36"/>
       <use xlink:href="#TimesNewRomanPSMT-31" x="50"/>
       <use xlink:href="#TimesNewRomanPSMT-2e" x="100"/>
       <use xlink:href="#TimesNewRomanPSMT-35" x="125"/>
      </g>
     </g>
    </g>
    <g id="ytick_17">
     <g id="line2d_22">
      <g>
       <use xlink:href="#mb411b5653f" x="349.668" y="34.56" style="stroke: #000000; stroke-width: 0.8"/>
      </g>
     </g>
     <g id="text_39">
      <!-- 63.0 -->
      <g transform="translate(356.668 38.031875) scale(0.1 -0.1)">
       <use xlink:href="#TimesNewRomanPSMT-36"/>
       <use xlink:href="#TimesNewRomanPSMT-33" x="50"/>
       <use xlink:href="#TimesNewRomanPSMT-2e" x="100"/>
       <use xlink:href="#TimesNewRomanPSMT-30" x="125"/>
      </g>
     </g>
    </g>
    <g id="text_40">
     <!-- Torque (Nm) -->
     <g transform="translate(385.11175 171.607969) rotate(-90) scale(0.1 -0.1)">
      <defs>
       <path id="TimesNewRomanPSMT-54" d="M 3703 4238 
L 3750 3244 
L 3631 3244 
Q 3597 3506 3538 3619 
Q 3441 3800 3280 3886 
Q 3119 3972 2856 3972 
L 2259 3972 
L 2259 734 
Q 2259 344 2344 247 
Q 2463 116 2709 116 
L 2856 116 
L 2856 0 
L 1059 0 
L 1059 116 
L 1209 116 
Q 1478 116 1591 278 
Q 1659 378 1659 734 
L 1659 3972 
L 1150 3972 
Q 853 3972 728 3928 
Q 566 3869 450 3700 
Q 334 3531 313 3244 
L 194 3244 
L 244 4238 
L 3703 4238 
z
" transform="scale(0.015625)"/>
       <path id="TimesNewRomanPSMT-6f" d="M 1600 2947 
Q 2250 2947 2644 2453 
Q 2978 2031 2978 1484 
Q 2978 1100 2793 706 
Q 2609 313 2286 112 
Q 1963 -88 1566 -88 
Q 919 -88 538 428 
Q 216 863 216 1403 
Q 216 1797 411 2186 
Q 606 2575 925 2761 
Q 1244 2947 1600 2947 
z
M 1503 2744 
Q 1338 2744 1170 2645 
Q 1003 2547 900 2300 
Q 797 2053 797 1666 
Q 797 1041 1045 587 
Q 1294 134 1700 134 
Q 2003 134 2200 384 
Q 2397 634 2397 1244 
Q 2397 2006 2069 2444 
Q 1847 2744 1503 2744 
z
" transform="scale(0.015625)"/>
       <path id="TimesNewRomanPSMT-72" d="M 1038 2947 
L 1038 2303 
Q 1397 2947 1775 2947 
Q 1947 2947 2059 2842 
Q 2172 2738 2172 2600 
Q 2172 2478 2090 2393 
Q 2009 2309 1897 2309 
Q 1788 2309 1652 2417 
Q 1516 2525 1450 2525 
Q 1394 2525 1328 2463 
Q 1188 2334 1038 2041 
L 1038 669 
Q 1038 431 1097 309 
Q 1138 225 1241 169 
Q 1344 113 1538 113 
L 1538 0 
L 72 0 
L 72 113 
Q 291 113 397 181 
Q 475 231 506 341 
Q 522 394 522 644 
L 522 1753 
Q 522 2253 501 2348 
Q 481 2444 426 2487 
Q 372 2531 291 2531 
Q 194 2531 72 2484 
L 41 2597 
L 906 2947 
L 1038 2947 
z
" transform="scale(0.015625)"/>
       <path id="TimesNewRomanPSMT-71" d="M 2734 2947 
L 2734 -734 
Q 2734 -1009 2771 -1087 
Q 2809 -1166 2889 -1209 
Q 2969 -1253 3200 -1253 
L 3200 -1369 
L 1756 -1369 
L 1756 -1253 
L 1816 -1253 
Q 1991 -1253 2081 -1203 
Q 2144 -1169 2181 -1080 
Q 2219 -991 2219 -734 
L 2219 497 
Q 1934 159 1721 35 
Q 1509 -88 1281 -88 
Q 866 -88 539 290 
Q 213 669 213 1303 
Q 213 2031 644 2489 
Q 1075 2947 1684 2947 
Q 1863 2947 2013 2897 
Q 2163 2847 2281 2747 
Q 2463 2834 2628 2947 
L 2734 2947 
z
M 2219 694 
L 2219 2038 
Q 2219 2272 2158 2406 
Q 2097 2541 1940 2634 
Q 1784 2728 1588 2728 
Q 1238 2728 988 2431 
Q 738 2134 738 1531 
Q 738 953 992 653 
Q 1247 353 1606 353 
Q 1791 353 1934 433 
Q 2078 513 2219 694 
z
" transform="scale(0.015625)"/>
       <path id="TimesNewRomanPSMT-75" d="M 2709 2863 
L 2709 1128 
Q 2709 631 2732 520 
Q 2756 409 2807 365 
Q 2859 322 2928 322 
Q 3025 322 3147 375 
L 3191 266 
L 2334 -88 
L 2194 -88 
L 2194 519 
Q 1825 119 1631 15 
Q 1438 -88 1222 -88 
Q 981 -88 804 51 
Q 628 191 559 409 
Q 491 628 491 1028 
L 491 2306 
Q 491 2509 447 2587 
Q 403 2666 317 2708 
Q 231 2750 6 2747 
L 6 2863 
L 1009 2863 
L 1009 947 
Q 1009 547 1148 422 
Q 1288 297 1484 297 
Q 1619 297 1789 381 
Q 1959 466 2194 703 
L 2194 2325 
Q 2194 2569 2105 2655 
Q 2016 2741 1734 2747 
L 1734 2863 
L 2709 2863 
z
" transform="scale(0.015625)"/>
       <path id="TimesNewRomanPSMT-65" d="M 681 1784 
Q 678 1147 991 784 
Q 1303 422 1725 422 
Q 2006 422 2214 576 
Q 2422 731 2563 1106 
L 2659 1044 
Q 2594 616 2278 264 
Q 1963 -88 1488 -88 
Q 972 -88 605 314 
Q 238 716 238 1394 
Q 238 2128 614 2539 
Q 991 2950 1559 2950 
Q 2041 2950 2350 2633 
Q 2659 2316 2659 1784 
L 681 1784 
z
M 681 1966 
L 2006 1966 
Q 1991 2241 1941 2353 
Q 1863 2528 1708 2628 
Q 1553 2728 1384 2728 
Q 1125 2728 920 2526 
Q 716 2325 681 1966 
z
" transform="scale(0.015625)"/>
       <path id="TimesNewRomanPSMT-20" transform="scale(0.015625)"/>
       <path id="TimesNewRomanPSMT-28" d="M 1988 -1253 
L 1988 -1369 
Q 1516 -1131 1200 -813 
Q 750 -359 506 256 
Q 263 872 263 1534 
Q 263 2503 741 3301 
Q 1219 4100 1988 4444 
L 1988 4313 
Q 1603 4100 1356 3731 
Q 1109 3363 987 2797 
Q 866 2231 866 1616 
Q 866 947 969 400 
Q 1050 -31 1165 -292 
Q 1281 -553 1476 -793 
Q 1672 -1034 1988 -1253 
z
" transform="scale(0.015625)"/>
       <path id="TimesNewRomanPSMT-4e" d="M -84 4238 
L 1066 4238 
L 3656 1059 
L 3656 3503 
Q 3656 3894 3569 3991 
Q 3453 4122 3203 4122 
L 3056 4122 
L 3056 4238 
L 4531 4238 
L 4531 4122 
L 4381 4122 
Q 4113 4122 4000 3959 
Q 3931 3859 3931 3503 
L 3931 -69 
L 3819 -69 
L 1025 3344 
L 1025 734 
Q 1025 344 1109 247 
Q 1228 116 1475 116 
L 1625 116 
L 1625 0 
L 150 0 
L 150 116 
L 297 116 
Q 569 116 681 278 
Q 750 378 750 734 
L 750 3681 
Q 566 3897 470 3965 
Q 375 4034 191 4094 
Q 100 4122 -84 4122 
L -84 4238 
z
" transform="scale(0.015625)"/>
       <path id="TimesNewRomanPSMT-6d" d="M 1050 2338 
Q 1363 2650 1419 2697 
Q 1559 2816 1721 2881 
Q 1884 2947 2044 2947 
Q 2313 2947 2506 2790 
Q 2700 2634 2766 2338 
Q 3088 2713 3309 2830 
Q 3531 2947 3766 2947 
Q 3994 2947 4170 2830 
Q 4347 2713 4450 2447 
Q 4519 2266 4519 1878 
L 4519 647 
Q 4519 378 4559 278 
Q 4591 209 4675 161 
Q 4759 113 4950 113 
L 4950 0 
L 3538 0 
L 3538 113 
L 3597 113 
Q 3781 113 3884 184 
Q 3956 234 3988 344 
Q 4000 397 4000 647 
L 4000 1878 
Q 4000 2228 3916 2372 
Q 3794 2572 3525 2572 
Q 3359 2572 3192 2489 
Q 3025 2406 2788 2181 
L 2781 2147 
L 2788 2013 
L 2788 647 
Q 2788 353 2820 281 
Q 2853 209 2943 161 
Q 3034 113 3253 113 
L 3253 0 
L 1806 0 
L 1806 113 
Q 2044 113 2133 169 
Q 2222 225 2256 338 
Q 2272 391 2272 647 
L 2272 1878 
Q 2272 2228 2169 2381 
Q 2031 2581 1784 2581 
Q 1616 2581 1450 2491 
Q 1191 2353 1050 2181 
L 1050 647 
Q 1050 366 1089 281 
Q 1128 197 1204 155 
Q 1281 113 1516 113 
L 1516 0 
L 100 0 
L 100 113 
Q 297 113 375 155 
Q 453 197 493 289 
Q 534 381 534 647 
L 534 1741 
Q 534 2213 506 2350 
Q 484 2453 437 2492 
Q 391 2531 309 2531 
Q 222 2531 100 2484 
L 53 2597 
L 916 2947 
L 1050 2947 
L 1050 2338 
z
" transform="scale(0.015625)"/>
       <path id="TimesNewRomanPSMT-29" d="M 144 4313 
L 144 4444 
Q 619 4209 934 3891 
Q 1381 3434 1625 2820 
Q 1869 2206 1869 1541 
Q 1869 572 1392 -226 
Q 916 -1025 144 -1369 
L 144 -1253 
Q 528 -1038 776 -670 
Q 1025 -303 1145 264 
Q 1266 831 1266 1447 
Q 1266 2113 1163 2663 
Q 1084 3094 967 3353 
Q 850 3613 656 3853 
Q 463 4094 144 4313 
z
" transform="scale(0.015625)"/>
      </defs>
      <use xlink:href="#TimesNewRomanPSMT-54"/>
      <use xlink:href="#TimesNewRomanPSMT-6f" x="54.083984"/>
      <use xlink:href="#TimesNewRomanPSMT-72" x="104.083984"/>
      <use xlink:href="#TimesNewRomanPSMT-71" x="137.384766"/>
      <use xlink:href="#TimesNewRomanPSMT-75" x="187.384766"/>
      <use xlink:href="#TimesNewRomanPSMT-65" x="237.384766"/>
      <use xlink:href="#TimesNewRomanPSMT-20" x="281.769531"/>
      <use xlink:href="#TimesNewRomanPSMT-28" x="306.769531"/>
      <use xlink:href="#TimesNewRomanPSMT-4e" x="340.070312"/>
      <use xlink:href="#TimesNewRomanPSMT-6d" x="412.287109"/>
      <use xlink:href="#TimesNewRomanPSMT-29" x="490.070312"/>
     </g>
    </g>
   </g>
   <g id="LineCollection_1"/>
   <g id="LineCollection_2">
    <path d="M 338.58 256.32 
L 349.668 256.32 
" clip-path="url(#p51e80e0565)" style="fill: none; stroke: #00ffff; stroke-width: 1.5"/>
    <path d="M 338.58 224.64 
L 349.668 224.64 
" clip-path="url(#p51e80e0565)" style="fill: none; stroke: #24dbff; stroke-width: 1.5"/>
    <path d="M 338.58 192.96 
L 349.668 192.96 
" clip-path="url(#p51e80e0565)" style="fill: none; stroke: #49b6ff; stroke-width: 1.5"/>
    <path d="M 338.58 161.28 
L 349.668 161.28 
" clip-path="url(#p51e80e0565)" style="fill: none; stroke: #6d92ff; stroke-width: 1.5"/>
    <path d="M 338.58 129.6 
L 349.668 129.6 
" clip-path="url(#p51e80e0565)" style="fill: none; stroke: #926dff; stroke-width: 1.5"/>
    <path d="M 338.58 97.92 
L 349.668 97.92 
" clip-path="url(#p51e80e0565)" style="fill: none; stroke: #b649ff; stroke-width: 1.5"/>
    <path d="M 338.58 66.24 
L 349.668 66.24 
" clip-path="url(#p51e80e0565)" style="fill: none; stroke: #db24ff; stroke-width: 1.5"/>
    <path d="M 338.58 34.56 
L 349.668 34.56 
" clip-path="url(#p51e80e0565)" style="fill: none; stroke: #ff00ff; stroke-width: 1.5"/>
   </g>
   <g id="patch_8">
    <path d="M 338.58 256.32 
L 344.124 256.32 
L 349.668 256.32 
L 349.668 34.56 
L 344.124 34.56 
L 338.58 34.56 
L 338.58 256.32 
z
" style="fill: none; stroke: #000000; stroke-width: 0.8; stroke-linejoin: miter; stroke-linecap: square"/>
   </g>
  </g>
  <g id="axes_3">
   <g id="patch_9">
    <path d="M 281.664 256.32 
L 292.752 256.32 
L 292.752 34.56 
L 281.664 34.56 
z
" style="fill: #ffffff"/>
   </g>
   <g id="matplotlib.axis_5"/>
   <g id="matplotlib.axis_6">
    <g id="ytick_18">
     <g id="line2d_23">
      <g>
       <use xlink:href="#mb411b5653f" x="292.752" y="256.32" style="stroke: #000000; stroke-width: 0.8"/>
      </g>
     </g>
     <g id="text_41">
      <!-- 0.855 -->
      <g transform="translate(299.752 259.791875) scale(0.1 -0.1)">
       <use xlink:href="#TimesNewRomanPSMT-30"/>
       <use xlink:href="#TimesNewRomanPSMT-2e" x="50"/>
       <use xlink:href="#TimesNewRomanPSMT-38" x="75"/>
       <use xlink:href="#TimesNewRomanPSMT-35" x="125"/>
       <use xlink:href="#TimesNewRomanPSMT-35" x="175"/>
      </g>
     </g>
    </g>
    <g id="ytick_19">
     <g id="line2d_24">
      <g>
       <use xlink:href="#mb411b5653f" x="292.752" y="228.6" style="stroke: #000000; stroke-width: 0.8"/>
      </g>
     </g>
     <g id="text_42">
      <!-- 0.870 -->
      <g transform="translate(299.752 232.071875) scale(0.1 -0.1)">
       <use xlink:href="#TimesNewRomanPSMT-30"/>
       <use xlink:href="#TimesNewRomanPSMT-2e" x="50"/>
       <use xlink:href="#TimesNewRomanPSMT-38" x="75"/>
       <use xlink:href="#TimesNewRomanPSMT-37" x="125"/>
       <use xlink:href="#TimesNewRomanPSMT-30" x="175"/>
      </g>
     </g>
    </g>
    <g id="ytick_20">
     <g id="line2d_25">
      <g>
       <use xlink:href="#mb411b5653f" x="292.752" y="200.88" style="stroke: #000000; stroke-width: 0.8"/>
      </g>
     </g>
     <g id="text_43">
      <!-- 0.885 -->
      <g transform="translate(299.752 204.351875) scale(0.1 -0.1)">
       <use xlink:href="#TimesNewRomanPSMT-30"/>
       <use xlink:href="#TimesNewRomanPSMT-2e" x="50"/>
       <use xlink:href="#TimesNewRomanPSMT-38" x="75"/>
       <use xlink:href="#TimesNewRomanPSMT-38" x="125"/>
       <use xlink:href="#TimesNewRomanPSMT-35" x="175"/>
      </g>
     </g>
    </g>
    <g id="ytick_21">
     <g id="line2d_26">
      <g>
       <use xlink:href="#mb411b5653f" x="292.752" y="173.16" style="stroke: #000000; stroke-width: 0.8"/>
      </g>
     </g>
     <g id="text_44">
      <!-- 0.900 -->
      <g transform="translate(299.752 176.631875) scale(0.1 -0.1)">
       <use xlink:href="#TimesNewRomanPSMT-30"/>
       <use xlink:href="#TimesNewRomanPSMT-2e" x="50"/>
       <use xlink:href="#TimesNewRomanPSMT-39" x="75"/>
       <use xlink:href="#TimesNewRomanPSMT-30" x="125"/>
       <use xlink:href="#TimesNewRomanPSMT-30" x="175"/>
      </g>
     </g>
    </g>
    <g id="ytick_22">
     <g id="line2d_27">
      <g>
       <use xlink:href="#mb411b5653f" x="292.752" y="145.44" style="stroke: #000000; stroke-width: 0.8"/>
      </g>
     </g>
     <g id="text_45">
      <!-- 0.915 -->
      <g transform="translate(299.752 148.911875) scale(0.1 -0.1)">
       <use xlink:href="#TimesNewRomanPSMT-30"/>
       <use xlink:href="#TimesNewRomanPSMT-2e" x="50"/>
       <use xlink:href="#TimesNewRomanPSMT-39" x="75"/>
       <use xlink:href="#TimesNewRomanPSMT-31" x="125"/>
       <use xlink:href="#TimesNewRomanPSMT-35" x="175"/>
      </g>
     </g>
    </g>
    <g id="ytick_23">
     <g id="line2d_28">
      <g>
       <use xlink:href="#mb411b5653f" x="292.752" y="117.72" style="stroke: #000000; stroke-width: 0.8"/>
      </g>
     </g>
     <g id="text_46">
      <!-- 0.930 -->
      <g transform="translate(299.752 121.191875) scale(0.1 -0.1)">
       <use xlink:href="#TimesNewRomanPSMT-30"/>
       <use xlink:href="#TimesNewRomanPSMT-2e" x="50"/>
       <use xlink:href="#TimesNewRomanPSMT-39" x="75"/>
       <use xlink:href="#TimesNewRomanPSMT-33" x="125"/>
       <use xlink:href="#TimesNewRomanPSMT-30" x="175"/>
      </g>
     </g>
    </g>
    <g id="ytick_24">
     <g id="line2d_29">
      <g>
       <use xlink:href="#mb411b5653f" x="292.752" y="90" style="stroke: #000000; stroke-width: 0.8"/>
      </g>
     </g>
     <g id="text_47">
      <!-- 0.945 -->
      <g transform="translate(299.752 93.471875) scale(0.1 -0.1)">
       <use xlink:href="#TimesNewRomanPSMT-30"/>
       <use xlink:href="#TimesNewRomanPSMT-2e" x="50"/>
       <use xlink:href="#TimesNewRomanPSMT-39" x="75"/>
       <use xlink:href="#TimesNewRomanPSMT-34" x="125"/>
       <use xlink:href="#TimesNewRomanPSMT-35" x="175"/>
      </g>
     </g>
    </g>
    <g id="ytick_25">
     <g id="line2d_30">
      <g>
       <use xlink:href="#mb411b5653f" x="292.752" y="62.28" style="stroke: #000000; stroke-width: 0.8"/>
      </g>
     </g>
     <g id="text_48">
      <!-- 0.960 -->
      <g transform="translate(299.752 65.751875) scale(0.1 -0.1)">
       <use xlink:href="#TimesNewRomanPSMT-30"/>
       <use xlink:href="#TimesNewRomanPSMT-2e" x="50"/>
       <use xlink:href="#TimesNewRomanPSMT-39" x="75"/>
       <use xlink:href="#TimesNewRomanPSMT-36" x="125"/>
       <use xlink:href="#TimesNewRomanPSMT-30" x="175"/>
      </g>
     </g>
    </g>
    <g id="ytick_26">
     <g id="line2d_31">
      <g>
       <use xlink:href="#mb411b5653f" x="292.752" y="34.56" style="stroke: #000000; stroke-width: 0.8"/>
      </g>
     </g>
     <g id="text_49">
      <!-- 0.975 -->
      <g transform="translate(299.752 38.031875) scale(0.1 -0.1)">
       <use xlink:href="#TimesNewRomanPSMT-30"/>
       <use xlink:href="#TimesNewRomanPSMT-2e" x="50"/>
       <use xlink:href="#TimesNewRomanPSMT-39" x="75"/>
       <use xlink:href="#TimesNewRomanPSMT-37" x="125"/>
       <use xlink:href="#TimesNewRomanPSMT-35" x="175"/>
      </g>
     </g>
    </g>
    <g id="text_50">
     <!-- Power factor (-) -->
     <g transform="translate(333.19575 177.368125) rotate(-90) scale(0.1 -0.1)">
      <defs>
       <path id="TimesNewRomanPSMT-50" d="M 1313 1984 
L 1313 750 
Q 1313 350 1400 253 
Q 1519 116 1759 116 
L 1922 116 
L 1922 0 
L 106 0 
L 106 116 
L 266 116 
Q 534 116 650 291 
Q 713 388 713 750 
L 713 3488 
Q 713 3888 628 3984 
Q 506 4122 266 4122 
L 106 4122 
L 106 4238 
L 1659 4238 
Q 2228 4238 2556 4120 
Q 2884 4003 3109 3725 
Q 3334 3447 3334 3066 
Q 3334 2547 2992 2222 
Q 2650 1897 2025 1897 
Q 1872 1897 1694 1919 
Q 1516 1941 1313 1984 
z
M 1313 2163 
Q 1478 2131 1606 2115 
Q 1734 2100 1825 2100 
Q 2150 2100 2386 2351 
Q 2622 2603 2622 3003 
Q 2622 3278 2509 3514 
Q 2397 3750 2190 3867 
Q 1984 3984 1722 3984 
Q 1563 3984 1313 3925 
L 1313 2163 
z
" transform="scale(0.015625)"/>
       <path id="TimesNewRomanPSMT-77" d="M 41 2863 
L 1241 2863 
L 1241 2747 
Q 1075 2734 1023 2687 
Q 972 2641 972 2553 
Q 972 2456 1025 2319 
L 1638 672 
L 2253 2013 
L 2091 2434 
Q 2016 2622 1894 2694 
Q 1825 2738 1638 2747 
L 1638 2863 
L 3000 2863 
L 3000 2747 
Q 2775 2738 2681 2666 
Q 2619 2616 2619 2506 
Q 2619 2444 2644 2378 
L 3294 734 
L 3897 2319 
Q 3959 2488 3959 2588 
Q 3959 2647 3898 2694 
Q 3838 2741 3659 2747 
L 3659 2863 
L 4563 2863 
L 4563 2747 
Q 4291 2706 4163 2378 
L 3206 -88 
L 3078 -88 
L 2363 1741 
L 1528 -88 
L 1413 -88 
L 494 2319 
Q 403 2547 315 2626 
Q 228 2706 41 2747 
L 41 2863 
z
" transform="scale(0.015625)"/>
       <path id="TimesNewRomanPSMT-66" d="M 1319 2638 
L 1319 756 
Q 1319 356 1406 250 
Q 1522 113 1716 113 
L 1975 113 
L 1975 0 
L 266 0 
L 266 113 
L 394 113 
Q 519 113 622 175 
Q 725 238 764 344 
Q 803 450 803 756 
L 803 2638 
L 247 2638 
L 247 2863 
L 803 2863 
L 803 3050 
Q 803 3478 940 3775 
Q 1078 4072 1361 4255 
Q 1644 4438 1997 4438 
Q 2325 4438 2600 4225 
Q 2781 4084 2781 3909 
Q 2781 3816 2700 3733 
Q 2619 3650 2525 3650 
Q 2453 3650 2373 3701 
Q 2294 3753 2178 3923 
Q 2063 4094 1966 4153 
Q 1869 4213 1750 4213 
Q 1606 4213 1506 4136 
Q 1406 4059 1362 3898 
Q 1319 3738 1319 3069 
L 1319 2863 
L 2056 2863 
L 2056 2638 
L 1319 2638 
z
" transform="scale(0.015625)"/>
       <path id="TimesNewRomanPSMT-61" d="M 1822 413 
Q 1381 72 1269 19 
Q 1100 -59 909 -59 
Q 613 -59 420 144 
Q 228 347 228 678 
Q 228 888 322 1041 
Q 450 1253 767 1440 
Q 1084 1628 1822 1897 
L 1822 2009 
Q 1822 2438 1686 2597 
Q 1550 2756 1291 2756 
Q 1094 2756 978 2650 
Q 859 2544 859 2406 
L 866 2225 
Q 866 2081 792 2003 
Q 719 1925 600 1925 
Q 484 1925 411 2006 
Q 338 2088 338 2228 
Q 338 2497 613 2722 
Q 888 2947 1384 2947 
Q 1766 2947 2009 2819 
Q 2194 2722 2281 2516 
Q 2338 2381 2338 1966 
L 2338 994 
Q 2338 584 2353 492 
Q 2369 400 2405 369 
Q 2441 338 2488 338 
Q 2538 338 2575 359 
Q 2641 400 2828 588 
L 2828 413 
Q 2478 -56 2159 -56 
Q 2006 -56 1915 50 
Q 1825 156 1822 413 
z
M 1822 616 
L 1822 1706 
Q 1350 1519 1213 1441 
Q 966 1303 859 1153 
Q 753 1003 753 825 
Q 753 600 887 451 
Q 1022 303 1197 303 
Q 1434 303 1822 616 
z
" transform="scale(0.015625)"/>
       <path id="TimesNewRomanPSMT-63" d="M 2631 1088 
Q 2516 522 2178 217 
Q 1841 -88 1431 -88 
Q 944 -88 581 321 
Q 219 731 219 1428 
Q 219 2103 620 2525 
Q 1022 2947 1584 2947 
Q 2006 2947 2278 2723 
Q 2550 2500 2550 2259 
Q 2550 2141 2473 2067 
Q 2397 1994 2259 1994 
Q 2075 1994 1981 2113 
Q 1928 2178 1911 2362 
Q 1894 2547 1784 2644 
Q 1675 2738 1481 2738 
Q 1169 2738 978 2506 
Q 725 2200 725 1697 
Q 725 1184 976 792 
Q 1228 400 1656 400 
Q 1963 400 2206 609 
Q 2378 753 2541 1131 
L 2631 1088 
z
" transform="scale(0.015625)"/>
       <path id="TimesNewRomanPSMT-74" d="M 1031 3803 
L 1031 2863 
L 1700 2863 
L 1700 2644 
L 1031 2644 
L 1031 788 
Q 1031 509 1111 412 
Q 1191 316 1316 316 
Q 1419 316 1516 380 
Q 1613 444 1666 569 
L 1788 569 
Q 1678 263 1478 108 
Q 1278 -47 1066 -47 
Q 922 -47 784 33 
Q 647 113 581 261 
Q 516 409 516 719 
L 516 2644 
L 63 2644 
L 63 2747 
Q 234 2816 414 2980 
Q 594 3144 734 3369 
Q 806 3488 934 3803 
L 1031 3803 
z
" transform="scale(0.015625)"/>
       <path id="TimesNewRomanPSMT-2d" d="M 259 1672 
L 1875 1672 
L 1875 1200 
L 259 1200 
L 259 1672 
z
" transform="scale(0.015625)"/>
      </defs>
      <use xlink:href="#TimesNewRomanPSMT-50"/>
      <use xlink:href="#TimesNewRomanPSMT-6f" x="55.615234"/>
      <use xlink:href="#TimesNewRomanPSMT-77" x="105.615234"/>
      <use xlink:href="#TimesNewRomanPSMT-65" x="177.832031"/>
      <use xlink:href="#TimesNewRomanPSMT-72" x="222.216797"/>
      <use xlink:href="#TimesNewRomanPSMT-20" x="255.517578"/>
      <use xlink:href="#TimesNewRomanPSMT-66" x="280.517578"/>
      <use xlink:href="#TimesNewRomanPSMT-61" x="313.818359"/>
      <use xlink:href="#TimesNewRomanPSMT-63" x="358.203125"/>
      <use xlink:href="#TimesNewRomanPSMT-74" x="402.587891"/>
      <use xlink:href="#TimesNewRomanPSMT-6f" x="430.371094"/>
      <use xlink:href="#TimesNewRomanPSMT-72" x="480.371094"/>
      <use xlink:href="#TimesNewRomanPSMT-20" x="513.671875"/>
      <use xlink:href="#TimesNewRomanPSMT-28" x="538.671875"/>
      <use xlink:href="#TimesNewRomanPSMT-2d" x="571.972656"/>
      <use xlink:href="#TimesNewRomanPSMT-29" x="605.273438"/>
     </g>
    </g>
   </g>
   <g id="LineCollection_3"/>
   <g id="LineCollection_4">
    <path d="M 281.664 256.32 
L 292.752 256.32 
" clip-path="url(#pdc515b58ba)" style="fill: none; stroke: #008066; stroke-width: 1.5"/>
    <path d="M 281.664 228.6 
L 292.752 228.6 
" clip-path="url(#pdc515b58ba)" style="fill: none; stroke: #209066; stroke-width: 1.5"/>
    <path d="M 281.664 200.88 
L 292.752 200.88 
" clip-path="url(#pdc515b58ba)" style="fill: none; stroke: #40a066; stroke-width: 1.5"/>
    <path d="M 281.664 173.16 
L 292.752 173.16 
" clip-path="url(#pdc515b58ba)" style="fill: none; stroke: #60b066; stroke-width: 1.5"/>
    <path d="M 281.664 145.44 
L 292.752 145.44 
" clip-path="url(#pdc515b58ba)" style="fill: none; stroke: #80c066; stroke-width: 1.5"/>
    <path d="M 281.664 117.72 
L 292.752 117.72 
" clip-path="url(#pdc515b58ba)" style="fill: none; stroke: #9fcf66; stroke-width: 1.5"/>
    <path d="M 281.664 90 
L 292.752 90 
" clip-path="url(#pdc515b58ba)" style="fill: none; stroke: #bfdf66; stroke-width: 1.5"/>
    <path d="M 281.664 62.28 
L 292.752 62.28 
" clip-path="url(#pdc515b58ba)" style="fill: none; stroke: #dfef66; stroke-width: 1.5"/>
    <path d="M 281.664 34.56 
L 292.752 34.56 
" clip-path="url(#pdc515b58ba)" style="fill: none; stroke: #ffff66; stroke-width: 1.5"/>
   </g>
   <g id="patch_10">
    <path d="M 281.664 256.32 
L 287.208 256.32 
L 292.752 256.32 
L 292.752 34.56 
L 287.208 34.56 
L 281.664 34.56 
L 281.664 256.32 
z
" style="fill: none; stroke: #000000; stroke-width: 0.8; stroke-linejoin: miter; stroke-linecap: square"/>
   </g>
  </g>
 </g>
 <defs>
  <clipPath id="pbbc1adbc13">
   <rect x="54" y="34.56" width="214.272" height="221.76"/>
  </clipPath>
  <clipPath id="p51e80e0565">
   <path d="M 338.58 257.82 
L 349.668 257.82 
L 349.668 33.06 
L 338.58 33.06 
z
"/>
  </clipPath>
  <clipPath id="pdc515b58ba">
   <path d="M 281.664 257.82 
L 292.752 257.82 
L 292.752 33.06 
L 281.664 33.06 
z
"/>
  </clipPath>
 </defs>
</svg>
