<?xml version="1.0" encoding="utf-8" standalone="no"?>
<!DOCTYPE svg PUBLIC "-//W3C//DTD SVG 1.1//EN"
  "http://www.w3.org/Graphics/SVG/1.1/DTD/svg11.dtd">
<svg xmlns:xlink="http://www.w3.org/1999/xlink" width="460.8pt" height="345.6pt" viewBox="0 0 460.8 345.6" xmlns="http://www.w3.org/2000/svg" version="1.1">
 <metadata>
  <rdf:RDF xmlns:dc="http://purl.org/dc/elements/1.1/" xmlns:cc="http://creativecommons.org/ns#" xmlns:rdf="http://www.w3.org/1999/02/22-rdf-syntax-ns#">
   <cc:Work>
    <dc:type rdf:resource="http://purl.org/dc/dcmitype/StillImage"/>
    <dc:date>2023-09-18T13:28:48.294804</dc:date>
    <dc:format>image/svg+xml</dc:format>
    <dc:creator>
     <cc:Agent>
      <dc:title>Matplotlib v3.7.1, https://matplotlib.org/</dc:title>
     </cc:Agent>
    </dc:creator>
   </cc:Work>
  </rdf:RDF>
 </metadata>
 <defs>
  <style type="text/css">*{stroke-linejoin: round; stroke-linecap: butt}</style>
 </defs>
 <g id="figure_1">
  <g id="patch_1">
   <path d="M 0 345.6 
L 460.8 345.6 
L 460.8 0 
L 0 0 
z
" style="fill: #ffffff"/>
  </g>
  <g id="axes_1">
   <g id="patch_2">
    <path d="M 74.848438 304.44375 
L 450 304.44375 
L 450 25.918125 
L 74.848438 25.918125 
z
" style="fill: #ffffff"/>
   </g>
   <g id="patch_3">
    <path d="M 91.900781 187.263511 
L 99.869166 187.263511 
L 107.837551 187.263511 
L 107.837551 187.263511 
L 111.024905 190.949235 
L 114.212259 194.634959 
L 114.212259 194.634959 
L 259.727667 201.563245 
L 405.243075 208.491531 
L 405.243075 208.491531 
L 405.67824 208.488125 
L 406.113297 208.47791 
L 406.54814 208.460888 
L 406.98266 208.437062 
L 407.416752 208.406439 
L 407.850307 208.369027 
L 408.283218 208.324834 
L 408.71538 208.273871 
L 409.146685 208.216152 
L 409.577026 208.151689 
L 410.006299 208.0805 
L 410.434396 208.002602 
L 410.861212 207.918013 
L 411.286642 207.826756 
L 411.710581 207.728852 
L 412.132924 207.624325 
L 412.553567 207.513201 
L 412.972407 207.395509 
L 413.389339 207.271276 
L 413.804262 207.140533 
L 414.217072 207.003313 
L 414.627667 206.85965 
L 415.035948 206.709578 
L 415.441812 206.553136 
L 415.845159 206.390361 
L 416.245891 206.221294 
L 416.643908 206.045976 
L 417.039112 205.864451 
L 417.431406 205.676764 
L 417.820692 205.48296 
L 418.206875 205.283088 
L 418.589859 205.077197 
L 418.96955 204.865338 
L 419.345854 204.647563 
L 419.718679 204.423925 
L 420.087932 204.194481 
L 420.453522 203.959286 
L 420.81536 203.718398 
L 421.173355 203.471878 
L 421.527419 203.219785 
L 421.877466 202.962183 
L 422.223408 202.699134 
L 422.565161 202.430704 
L 422.90264 202.156958 
L 423.235761 201.877965 
L 423.564443 201.593792 
L 423.888605 201.304511 
L 424.208166 201.010193 
L 424.523048 200.71091 
L 424.833172 200.406736 
L 425.138463 200.097746 
L 425.438846 199.784016 
L 425.734245 199.465624 
L 426.024588 199.142649 
L 426.309804 198.815169 
L 426.589822 198.483266 
L 426.864573 198.147022 
L 427.133989 197.80652 
L 427.398004 197.461843 
L 427.656552 197.113078 
L 427.90957 196.760308 
L 428.156996 196.403623 
L 428.398768 196.04311 
L 428.634827 195.678857 
L 428.865114 195.310955 
L 429.089572 194.939494 
L 429.308147 194.564567 
L 429.520785 194.186265 
L 429.727432 193.804682 
L 429.928038 193.419912 
L 430.122553 193.03205 
L 430.31093 192.641192 
L 430.493121 192.247434 
L 430.669083 191.850873 
L 430.838771 191.451607 
L 431.002143 191.049736 
L 431.15916 190.645356 
L 431.309783 190.23857 
L 431.453974 189.829476 
L 431.591698 189.418177 
L 431.72292 189.004773 
L 431.847609 188.589366 
L 431.965734 188.172059 
L 432.077266 187.752955 
L 432.182176 187.332157 
L 432.28044 186.909769 
L 432.372033 186.485895 
L 432.456932 186.060641 
L 432.535116 185.63411 
L 432.606567 185.206408 
L 432.671266 184.777641 
L 432.729197 184.347914 
L 432.780347 183.917334 
L 432.824702 183.486006 
L 432.862252 183.054037 
L 432.892988 182.621534 
L 432.916901 182.188603 
L 432.933986 181.755352 
L 432.944238 181.321886 
L 432.947656 180.888314 
L 432.947656 180.888314 
L 432.947656 165.180937 
L 432.947656 149.473561 
L 432.947656 149.473561 
L 432.944238 149.039989 
L 432.933986 148.606523 
L 432.916901 148.173272 
L 432.892988 147.740341 
L 432.862252 147.307838 
L 432.824702 146.875869 
L 432.780347 146.444541 
L 432.729197 146.013961 
L 432.671266 145.584234 
L 432.606567 145.155467 
L 432.535116 144.727765 
L 432.456932 144.301234 
L 432.372033 143.87598 
L 432.28044 143.452106 
L 432.182176 143.029718 
L 432.077266 142.60892 
L 431.965734 142.189816 
L 431.847609 141.772509 
L 431.72292 141.357102 
L 431.591698 140.943698 
L 431.453974 140.532399 
L 431.309783 140.123305 
L 431.15916 139.716519 
L 431.002143 139.312139 
L 430.838771 138.910268 
L 430.669083 138.511002 
L 430.493121 138.114441 
L 430.31093 137.720683 
L 430.122553 137.329825 
L 429.928038 136.941963 
L 429.727432 136.557193 
L 429.520785 136.17561 
L 429.308147 135.797308 
L 429.089572 135.422381 
L 428.865114 135.05092 
L 428.634827 134.683018 
L 428.398768 134.318765 
L 428.156996 133.958252 
L 427.90957 133.601567 
L 427.656552 133.248797 
L 427.398004 132.900032 
L 427.133989 132.555355 
L 426.864573 132.214853 
L 426.589822 131.878609 
L 426.309804 131.546706 
L 426.024588 131.219226 
L 425.734245 130.896251 
L 425.438846 130.577859 
L 425.138463 130.264129 
L 424.833172 129.955139 
L 424.523048 129.650965 
L 424.208166 129.351682 
L 423.888605 129.057364 
L 423.564443 128.768083 
L 423.235761 128.48391 
L 422.90264 128.204917 
L 422.565161 127.931171 
L 422.223408 127.662741 
L 421.877466 127.399692 
L 421.527419 127.14209 
L 421.173355 126.889997 
L 420.81536 126.643477 
L 420.453522 126.402589 
L 420.087932 126.167394 
L 419.718679 125.93795 
L 419.345854 125.714312 
L 418.96955 125.496537 
L 418.589859 125.284678 
L 418.206875 125.078787 
L 417.820692 124.878915 
L 417.431406 124.685111 
L 417.039112 124.497424 
L 416.643908 124.315899 
L 416.245891 124.140581 
L 415.845159 123.971514 
L 415.441812 123.808739 
L 415.035948 123.652297 
L 414.627667 123.502225 
L 414.217072 123.358562 
L 413.804262 123.221342 
L 413.389339 123.090599 
L 412.972407 122.966366 
L 412.553567 122.848674 
L 412.132924 122.73755 
L 411.710581 122.633023 
L 411.286642 122.535119 
L 410.861212 122.443862 
L 410.434396 122.359273 
L 410.006299 122.281375 
L 409.577026 122.210186 
L 409.146685 122.145723 
L 408.71538 122.088004 
L 408.283218 122.037041 
L 407.850307 121.992848 
L 407.416752 121.955436 
L 406.98266 121.924813 
L 406.54814 121.900987 
L 406.113297 121.883965 
L 405.67824 121.87375 
L 405.243075 121.870344 
L 405.243075 121.870344 
L 259.727667 128.79863 
L 114.212259 135.726916 
L 114.212259 135.726916 
L 111.024905 139.41264 
L 107.837551 143.098364 
L 107.837551 143.098364 
L 99.869166 143.098364 
L 91.900781 143.098364 
L 91.900781 143.098364 
L 91.915486 143.539855 
L 91.929893 143.981356 
L 91.944004 144.422866 
L 91.957817 144.864386 
L 91.971334 145.305915 
L 91.984554 145.747452 
L 91.997476 146.188999 
L 92.010102 146.630554 
L 92.022431 147.072117 
L 92.034462 147.513688 
L 92.046197 147.955268 
L 92.057635 148.396855 
L 92.068775 148.83845 
L 92.079619 149.280051 
L 92.090166 149.721661 
L 92.100415 150.163277 
L 92.110368 150.604899 
L 92.120023 151.046529 
L 92.129381 151.488165 
L 92.138443 151.929806 
L 92.147207 152.371454 
L 92.155674 152.813108 
L 92.163845 153.254767 
L 92.171718 153.696431 
L 92.179294 154.138101 
L 92.186573 154.579776 
L 92.193555 155.021455 
L 92.20024 155.463139 
L 92.206627 155.904827 
L 92.212718 156.346519 
L 92.218511 156.788216 
L 92.224008 157.229916 
L 92.229207 157.67162 
L 92.23411 158.113327 
L 92.238715 158.555037 
L 92.243023 158.99675 
L 92.247034 159.438466 
L 92.250748 159.880185 
L 92.254165 160.321906 
L 92.257284 160.763629 
L 92.260107 161.205354 
L 92.262632 161.647081 
L 92.264861 162.08881 
L 92.266792 162.53054 
L 92.268426 162.972271 
L 92.269763 163.414003 
L 92.270803 163.855736 
L 92.271546 164.29747 
L 92.271991 164.739203 
L 92.27214 165.180937 
L 92.271991 165.622672 
L 92.271546 166.064405 
L 92.270803 166.506139 
L 92.269763 166.947872 
L 92.268426 167.389604 
L 92.266792 167.831335 
L 92.264861 168.273065 
L 92.262632 168.714794 
L 92.260107 169.156521 
L 92.257284 169.598246 
L 92.254165 170.039969 
L 92.250748 170.48169 
L 92.247034 170.923409 
L 92.243023 171.365125 
L 92.238715 171.806838 
L 92.23411 172.248548 
L 92.229207 172.690255 
L 92.224008 173.131959 
L 92.218511 173.573659 
L 92.212718 174.015356 
L 92.206627 174.457048 
L 92.20024 174.898736 
L 92.193555 175.34042 
L 92.186573 175.782099 
L 92.179294 176.223774 
L 92.171718 176.665444 
L 92.163845 177.107108 
L 92.155674 177.548767 
L 92.147207 177.990421 
L 92.138443 178.432069 
L 92.129381 178.87371 
L 92.120023 179.315346 
L 92.110368 179.756976 
L 92.100415 180.198598 
L 92.090166 180.640214 
L 92.079619 181.081824 
L 92.068775 181.523425 
L 92.057635 181.96502 
L 92.046197 182.406607 
L 92.034462 182.848187 
L 92.022431 183.289758 
L 92.010102 183.731321 
L 91.997476 184.172876 
L 91.984554 184.614423 
L 91.971334 185.05596 
L 91.957817 185.497489 
L 91.944004 185.939009 
L 91.929893 186.380519 
L 91.915486 186.82202 
L 91.900781 187.263511 
z
" clip-path="url(#p7cb71bf423)" style="fill: #0000ff; stroke: #000000; stroke-linejoin: miter"/>
   </g>
   <g id="matplotlib.axis_1">
    <g id="xtick_1">
     <g id="line2d_1">
      <defs>
       <path id="m1b91cf4e74" d="M 0 0 
L 0 3.5 
" style="stroke: #000000; stroke-width: 0.8"/>
      </defs>
      <g>
       <use xlink:href="#m1b91cf4e74" x="119.923921" y="304.44375" style="stroke: #000000; stroke-width: 0.8"/>
      </g>
     </g>
     <g id="text_1">
      <!-- 0.055 -->
      <g transform="translate(105.609859 319.042187) scale(0.1 -0.1)">
       <defs>
        <path id="DejaVuSans-30" d="M 2034 4250 
Q 1547 4250 1301 3770 
Q 1056 3291 1056 2328 
Q 1056 1369 1301 889 
Q 1547 409 2034 409 
Q 2525 409 2770 889 
Q 3016 1369 3016 2328 
Q 3016 3291 2770 3770 
Q 2525 4250 2034 4250 
z
M 2034 4750 
Q 2819 4750 3233 4129 
Q 3647 3509 3647 2328 
Q 3647 1150 3233 529 
Q 2819 -91 2034 -91 
Q 1250 -91 836 529 
Q 422 1150 422 2328 
Q 422 3509 836 4129 
Q 1250 4750 2034 4750 
z
" transform="scale(0.015625)"/>
        <path id="DejaVuSans-2e" d="M 684 794 
L 1344 794 
L 1344 0 
L 684 0 
L 684 794 
z
" transform="scale(0.015625)"/>
        <path id="DejaVuSans-35" d="M 691 4666 
L 3169 4666 
L 3169 4134 
L 1269 4134 
L 1269 2991 
Q 1406 3038 1543 3061 
Q 1681 3084 1819 3084 
Q 2600 3084 3056 2656 
Q 3513 2228 3513 1497 
Q 3513 744 3044 326 
Q 2575 -91 1722 -91 
Q 1428 -91 1123 -41 
Q 819 9 494 109 
L 494 744 
Q 775 591 1075 516 
Q 1375 441 1709 441 
Q 2250 441 2565 725 
Q 2881 1009 2881 1497 
Q 2881 1984 2565 2268 
Q 2250 2553 1709 2553 
Q 1456 2553 1204 2497 
Q 953 2441 691 2322 
L 691 4666 
z
" transform="scale(0.015625)"/>
       </defs>
       <use xlink:href="#DejaVuSans-30"/>
       <use xlink:href="#DejaVuSans-2e" x="63.623047"/>
       <use xlink:href="#DejaVuSans-30" x="95.410156"/>
       <use xlink:href="#DejaVuSans-35" x="159.033203"/>
       <use xlink:href="#DejaVuSans-35" x="222.65625"/>
      </g>
     </g>
    </g>
    <g id="xtick_2">
     <g id="line2d_2">
      <g>
       <use xlink:href="#m1b91cf4e74" x="182.581223" y="304.44375" style="stroke: #000000; stroke-width: 0.8"/>
      </g>
     </g>
     <g id="text_2">
      <!-- 0.060 -->
      <g transform="translate(168.267161 319.042187) scale(0.1 -0.1)">
       <defs>
        <path id="DejaVuSans-36" d="M 2113 2584 
Q 1688 2584 1439 2293 
Q 1191 2003 1191 1497 
Q 1191 994 1439 701 
Q 1688 409 2113 409 
Q 2538 409 2786 701 
Q 3034 994 3034 1497 
Q 3034 2003 2786 2293 
Q 2538 2584 2113 2584 
z
M 3366 4563 
L 3366 3988 
Q 3128 4100 2886 4159 
Q 2644 4219 2406 4219 
Q 1781 4219 1451 3797 
Q 1122 3375 1075 2522 
Q 1259 2794 1537 2939 
Q 1816 3084 2150 3084 
Q 2853 3084 3261 2657 
Q 3669 2231 3669 1497 
Q 3669 778 3244 343 
Q 2819 -91 2113 -91 
Q 1303 -91 875 529 
Q 447 1150 447 2328 
Q 447 3434 972 4092 
Q 1497 4750 2381 4750 
Q 2619 4750 2861 4703 
Q 3103 4656 3366 4563 
z
" transform="scale(0.015625)"/>
       </defs>
       <use xlink:href="#DejaVuSans-30"/>
       <use xlink:href="#DejaVuSans-2e" x="63.623047"/>
       <use xlink:href="#DejaVuSans-30" x="95.410156"/>
       <use xlink:href="#DejaVuSans-36" x="159.033203"/>
       <use xlink:href="#DejaVuSans-30" x="222.65625"/>
      </g>
     </g>
    </g>
    <g id="xtick_3">
     <g id="line2d_3">
      <g>
       <use xlink:href="#m1b91cf4e74" x="245.238526" y="304.44375" style="stroke: #000000; stroke-width: 0.8"/>
      </g>
     </g>
     <g id="text_3">
      <!-- 0.065 -->
      <g transform="translate(230.924463 319.042187) scale(0.1 -0.1)">
       <use xlink:href="#DejaVuSans-30"/>
       <use xlink:href="#DejaVuSans-2e" x="63.623047"/>
       <use xlink:href="#DejaVuSans-30" x="95.410156"/>
       <use xlink:href="#DejaVuSans-36" x="159.033203"/>
       <use xlink:href="#DejaVuSans-35" x="222.65625"/>
      </g>
     </g>
    </g>
    <g id="xtick_4">
     <g id="line2d_4">
      <g>
       <use xlink:href="#m1b91cf4e74" x="307.895828" y="304.44375" style="stroke: #000000; stroke-width: 0.8"/>
      </g>
     </g>
     <g id="text_4">
      <!-- 0.070 -->
      <g transform="translate(293.581765 319.042187) scale(0.1 -0.1)">
       <defs>
        <path id="DejaVuSans-37" d="M 525 4666 
L 3525 4666 
L 3525 4397 
L 1831 0 
L 1172 0 
L 2766 4134 
L 525 4134 
L 525 4666 
z
" transform="scale(0.015625)"/>
       </defs>
       <use xlink:href="#DejaVuSans-30"/>
       <use xlink:href="#DejaVuSans-2e" x="63.623047"/>
       <use xlink:href="#DejaVuSans-30" x="95.410156"/>
       <use xlink:href="#DejaVuSans-37" x="159.033203"/>
       <use xlink:href="#DejaVuSans-30" x="222.65625"/>
      </g>
     </g>
    </g>
    <g id="xtick_5">
     <g id="line2d_5">
      <g>
       <use xlink:href="#m1b91cf4e74" x="370.55313" y="304.44375" style="stroke: #000000; stroke-width: 0.8"/>
      </g>
     </g>
     <g id="text_5">
      <!-- 0.075 -->
      <g transform="translate(356.239067 319.042187) scale(0.1 -0.1)">
       <use xlink:href="#DejaVuSans-30"/>
       <use xlink:href="#DejaVuSans-2e" x="63.623047"/>
       <use xlink:href="#DejaVuSans-30" x="95.410156"/>
       <use xlink:href="#DejaVuSans-37" x="159.033203"/>
       <use xlink:href="#DejaVuSans-35" x="222.65625"/>
      </g>
     </g>
    </g>
    <g id="xtick_6">
     <g id="line2d_6">
      <g>
       <use xlink:href="#m1b91cf4e74" x="433.210432" y="304.44375" style="stroke: #000000; stroke-width: 0.8"/>
      </g>
     </g>
     <g id="text_6">
      <!-- 0.080 -->
      <g transform="translate(418.89637 319.042187) scale(0.1 -0.1)">
       <defs>
        <path id="DejaVuSans-38" d="M 2034 2216 
Q 1584 2216 1326 1975 
Q 1069 1734 1069 1313 
Q 1069 891 1326 650 
Q 1584 409 2034 409 
Q 2484 409 2743 651 
Q 3003 894 3003 1313 
Q 3003 1734 2745 1975 
Q 2488 2216 2034 2216 
z
M 1403 2484 
Q 997 2584 770 2862 
Q 544 3141 544 3541 
Q 544 4100 942 4425 
Q 1341 4750 2034 4750 
Q 2731 4750 3128 4425 
Q 3525 4100 3525 3541 
Q 3525 3141 3298 2862 
Q 3072 2584 2669 2484 
Q 3125 2378 3379 2068 
Q 3634 1759 3634 1313 
Q 3634 634 3220 271 
Q 2806 -91 2034 -91 
Q 1263 -91 848 271 
Q 434 634 434 1313 
Q 434 1759 690 2068 
Q 947 2378 1403 2484 
z
M 1172 3481 
Q 1172 3119 1398 2916 
Q 1625 2713 2034 2713 
Q 2441 2713 2670 2916 
Q 2900 3119 2900 3481 
Q 2900 3844 2670 4047 
Q 2441 4250 2034 4250 
Q 1625 4250 1398 4047 
Q 1172 3844 1172 3481 
z
" transform="scale(0.015625)"/>
       </defs>
       <use xlink:href="#DejaVuSans-30"/>
       <use xlink:href="#DejaVuSans-2e" x="63.623047"/>
       <use xlink:href="#DejaVuSans-30" x="95.410156"/>
       <use xlink:href="#DejaVuSans-38" x="159.033203"/>
       <use xlink:href="#DejaVuSans-30" x="222.65625"/>
      </g>
     </g>
    </g>
    <g id="text_7">
     <!-- [m] -->
     <g transform="translate(253.652344 332.720312) scale(0.1 -0.1)">
      <defs>
       <path id="DejaVuSans-5b" d="M 550 4863 
L 1875 4863 
L 1875 4416 
L 1125 4416 
L 1125 -397 
L 1875 -397 
L 1875 -844 
L 550 -844 
L 550 4863 
z
" transform="scale(0.015625)"/>
       <path id="DejaVuSans-6d" d="M 3328 2828 
Q 3544 3216 3844 3400 
Q 4144 3584 4550 3584 
Q 5097 3584 5394 3201 
Q 5691 2819 5691 2113 
L 5691 0 
L 5113 0 
L 5113 2094 
Q 5113 2597 4934 2840 
Q 4756 3084 4391 3084 
Q 3944 3084 3684 2787 
Q 3425 2491 3425 1978 
L 3425 0 
L 2847 0 
L 2847 2094 
Q 2847 2600 2669 2842 
Q 2491 3084 2119 3084 
Q 1678 3084 1418 2786 
Q 1159 2488 1159 1978 
L 1159 0 
L 581 0 
L 581 3500 
L 1159 3500 
L 1159 2956 
Q 1356 3278 1631 3431 
Q 1906 3584 2284 3584 
Q 2666 3584 2933 3390 
Q 3200 3197 3328 2828 
z
" transform="scale(0.015625)"/>
       <path id="DejaVuSans-5d" d="M 1947 4863 
L 1947 -844 
L 622 -844 
L 622 -397 
L 1369 -397 
L 1369 4416 
L 622 4416 
L 622 4863 
L 1947 4863 
z
" transform="scale(0.015625)"/>
      </defs>
      <use xlink:href="#DejaVuSans-5b"/>
      <use xlink:href="#DejaVuSans-6d" x="39.013672"/>
      <use xlink:href="#DejaVuSans-5d" x="136.425781"/>
     </g>
    </g>
   </g>
   <g id="matplotlib.axis_2">
    <g id="ytick_1">
     <g id="line2d_7">
      <defs>
       <path id="m5687818a60" d="M 0 0 
L -3.5 0 
" style="stroke: #000000; stroke-width: 0.8"/>
      </defs>
      <g>
       <use xlink:href="#m5687818a60" x="74.848438" y="290.037047" style="stroke: #000000; stroke-width: 0.8"/>
      </g>
     </g>
     <g id="text_8">
      <!-- −0.0100 -->
      <g transform="translate(24.478125 293.836266) scale(0.1 -0.1)">
       <defs>
        <path id="DejaVuSans-2212" d="M 678 2272 
L 4684 2272 
L 4684 1741 
L 678 1741 
L 678 2272 
z
" transform="scale(0.015625)"/>
        <path id="DejaVuSans-31" d="M 794 531 
L 1825 531 
L 1825 4091 
L 703 3866 
L 703 4441 
L 1819 4666 
L 2450 4666 
L 2450 531 
L 3481 531 
L 3481 0 
L 794 0 
L 794 531 
z
" transform="scale(0.015625)"/>
       </defs>
       <use xlink:href="#DejaVuSans-2212"/>
       <use xlink:href="#DejaVuSans-30" x="83.789062"/>
       <use xlink:href="#DejaVuSans-2e" x="147.412109"/>
       <use xlink:href="#DejaVuSans-30" x="179.199219"/>
       <use xlink:href="#DejaVuSans-31" x="242.822266"/>
       <use xlink:href="#DejaVuSans-30" x="306.445312"/>
       <use xlink:href="#DejaVuSans-30" x="370.068359"/>
      </g>
     </g>
    </g>
    <g id="ytick_2">
     <g id="line2d_8">
      <g>
       <use xlink:href="#m5687818a60" x="74.848438" y="258.82302" style="stroke: #000000; stroke-width: 0.8"/>
      </g>
     </g>
     <g id="text_9">
      <!-- −0.0075 -->
      <g transform="translate(24.478125 262.622239) scale(0.1 -0.1)">
       <use xlink:href="#DejaVuSans-2212"/>
       <use xlink:href="#DejaVuSans-30" x="83.789062"/>
       <use xlink:href="#DejaVuSans-2e" x="147.412109"/>
       <use xlink:href="#DejaVuSans-30" x="179.199219"/>
       <use xlink:href="#DejaVuSans-30" x="242.822266"/>
       <use xlink:href="#DejaVuSans-37" x="306.445312"/>
       <use xlink:href="#DejaVuSans-35" x="370.068359"/>
      </g>
     </g>
    </g>
    <g id="ytick_3">
     <g id="line2d_9">
      <g>
       <use xlink:href="#m5687818a60" x="74.848438" y="227.608992" style="stroke: #000000; stroke-width: 0.8"/>
      </g>
     </g>
     <g id="text_10">
      <!-- −0.0050 -->
      <g transform="translate(24.478125 231.408211) scale(0.1 -0.1)">
       <use xlink:href="#DejaVuSans-2212"/>
       <use xlink:href="#DejaVuSans-30" x="83.789062"/>
       <use xlink:href="#DejaVuSans-2e" x="147.412109"/>
       <use xlink:href="#DejaVuSans-30" x="179.199219"/>
       <use xlink:href="#DejaVuSans-30" x="242.822266"/>
       <use xlink:href="#DejaVuSans-35" x="306.445312"/>
       <use xlink:href="#DejaVuSans-30" x="370.068359"/>
      </g>
     </g>
    </g>
    <g id="ytick_4">
     <g id="line2d_10">
      <g>
       <use xlink:href="#m5687818a60" x="74.848438" y="196.394965" style="stroke: #000000; stroke-width: 0.8"/>
      </g>
     </g>
     <g id="text_11">
      <!-- −0.0025 -->
      <g transform="translate(24.478125 200.194184) scale(0.1 -0.1)">
       <defs>
        <path id="DejaVuSans-32" d="M 1228 531 
L 3431 531 
L 3431 0 
L 469 0 
L 469 531 
Q 828 903 1448 1529 
Q 2069 2156 2228 2338 
Q 2531 2678 2651 2914 
Q 2772 3150 2772 3378 
Q 2772 3750 2511 3984 
Q 2250 4219 1831 4219 
Q 1534 4219 1204 4116 
Q 875 4013 500 3803 
L 500 4441 
Q 881 4594 1212 4672 
Q 1544 4750 1819 4750 
Q 2544 4750 2975 4387 
Q 3406 4025 3406 3419 
Q 3406 3131 3298 2873 
Q 3191 2616 2906 2266 
Q 2828 2175 2409 1742 
Q 1991 1309 1228 531 
z
" transform="scale(0.015625)"/>
       </defs>
       <use xlink:href="#DejaVuSans-2212"/>
       <use xlink:href="#DejaVuSans-30" x="83.789062"/>
       <use xlink:href="#DejaVuSans-2e" x="147.412109"/>
       <use xlink:href="#DejaVuSans-30" x="179.199219"/>
       <use xlink:href="#DejaVuSans-30" x="242.822266"/>
       <use xlink:href="#DejaVuSans-32" x="306.445312"/>
       <use xlink:href="#DejaVuSans-35" x="370.068359"/>
      </g>
     </g>
    </g>
    <g id="ytick_5">
     <g id="line2d_11">
      <g>
       <use xlink:href="#m5687818a60" x="74.848438" y="165.180937" style="stroke: #000000; stroke-width: 0.8"/>
      </g>
     </g>
     <g id="text_12">
      <!-- 0.0000 -->
      <g transform="translate(32.857813 168.980156) scale(0.1 -0.1)">
       <use xlink:href="#DejaVuSans-30"/>
       <use xlink:href="#DejaVuSans-2e" x="63.623047"/>
       <use xlink:href="#DejaVuSans-30" x="95.410156"/>
       <use xlink:href="#DejaVuSans-30" x="159.033203"/>
       <use xlink:href="#DejaVuSans-30" x="222.65625"/>
       <use xlink:href="#DejaVuSans-30" x="286.279297"/>
      </g>
     </g>
    </g>
    <g id="ytick_6">
     <g id="line2d_12">
      <g>
       <use xlink:href="#m5687818a60" x="74.848438" y="133.96691" style="stroke: #000000; stroke-width: 0.8"/>
      </g>
     </g>
     <g id="text_13">
      <!-- 0.0025 -->
      <g transform="translate(32.857813 137.766129) scale(0.1 -0.1)">
       <use xlink:href="#DejaVuSans-30"/>
       <use xlink:href="#DejaVuSans-2e" x="63.623047"/>
       <use xlink:href="#DejaVuSans-30" x="95.410156"/>
       <use xlink:href="#DejaVuSans-30" x="159.033203"/>
       <use xlink:href="#DejaVuSans-32" x="222.65625"/>
       <use xlink:href="#DejaVuSans-35" x="286.279297"/>
      </g>
     </g>
    </g>
    <g id="ytick_7">
     <g id="line2d_13">
      <g>
       <use xlink:href="#m5687818a60" x="74.848438" y="102.752883" style="stroke: #000000; stroke-width: 0.8"/>
      </g>
     </g>
     <g id="text_14">
      <!-- 0.0050 -->
      <g transform="translate(32.857813 106.552101) scale(0.1 -0.1)">
       <use xlink:href="#DejaVuSans-30"/>
       <use xlink:href="#DejaVuSans-2e" x="63.623047"/>
       <use xlink:href="#DejaVuSans-30" x="95.410156"/>
       <use xlink:href="#DejaVuSans-30" x="159.033203"/>
       <use xlink:href="#DejaVuSans-35" x="222.65625"/>
       <use xlink:href="#DejaVuSans-30" x="286.279297"/>
      </g>
     </g>
    </g>
    <g id="ytick_8">
     <g id="line2d_14">
      <g>
       <use xlink:href="#m5687818a60" x="74.848438" y="71.538855" style="stroke: #000000; stroke-width: 0.8"/>
      </g>
     </g>
     <g id="text_15">
      <!-- 0.0075 -->
      <g transform="translate(32.857813 75.338074) scale(0.1 -0.1)">
       <use xlink:href="#DejaVuSans-30"/>
       <use xlink:href="#DejaVuSans-2e" x="63.623047"/>
       <use xlink:href="#DejaVuSans-30" x="95.410156"/>
       <use xlink:href="#DejaVuSans-30" x="159.033203"/>
       <use xlink:href="#DejaVuSans-37" x="222.65625"/>
       <use xlink:href="#DejaVuSans-35" x="286.279297"/>
      </g>
     </g>
    </g>
    <g id="ytick_9">
     <g id="line2d_15">
      <g>
       <use xlink:href="#m5687818a60" x="74.848438" y="40.324828" style="stroke: #000000; stroke-width: 0.8"/>
      </g>
     </g>
     <g id="text_16">
      <!-- 0.0100 -->
      <g transform="translate(32.857813 44.124047) scale(0.1 -0.1)">
       <use xlink:href="#DejaVuSans-30"/>
       <use xlink:href="#DejaVuSans-2e" x="63.623047"/>
       <use xlink:href="#DejaVuSans-30" x="95.410156"/>
       <use xlink:href="#DejaVuSans-31" x="159.033203"/>
       <use xlink:href="#DejaVuSans-30" x="222.65625"/>
       <use xlink:href="#DejaVuSans-30" x="286.279297"/>
      </g>
     </g>
    </g>
    <g id="text_17">
     <!-- [m] -->
     <g transform="translate(18.398438 173.952812) rotate(-90) scale(0.1 -0.1)">
      <use xlink:href="#DejaVuSans-5b"/>
      <use xlink:href="#DejaVuSans-6d" x="39.013672"/>
      <use xlink:href="#DejaVuSans-5d" x="136.425781"/>
     </g>
    </g>
   </g>
   <g id="patch_4">
    <path d="M 74.848438 304.44375 
L 74.848438 25.918125 
" style="fill: none; stroke: #000000; stroke-width: 0.8; stroke-linejoin: miter; stroke-linecap: square"/>
   </g>
   <g id="patch_5">
    <path d="M 450 304.44375 
L 450 25.918125 
" style="fill: none; stroke: #000000; stroke-width: 0.8; stroke-linejoin: miter; stroke-linecap: square"/>
   </g>
   <g id="patch_6">
    <path d="M 74.848438 304.44375 
L 450 304.44375 
" style="fill: none; stroke: #000000; stroke-width: 0.8; stroke-linejoin: miter; stroke-linecap: square"/>
   </g>
   <g id="patch_7">
    <path d="M 74.848438 25.918125 
L 450 25.918125 
" style="fill: none; stroke: #000000; stroke-width: 0.8; stroke-linejoin: miter; stroke-linecap: square"/>
   </g>
   <g id="text_18">
    <!-- Slot -->
    <g transform="translate(250.924844 19.918125) scale(0.12 -0.12)">
     <defs>
      <path id="DejaVuSans-53" d="M 3425 4513 
L 3425 3897 
Q 3066 4069 2747 4153 
Q 2428 4238 2131 4238 
Q 1616 4238 1336 4038 
Q 1056 3838 1056 3469 
Q 1056 3159 1242 3001 
Q 1428 2844 1947 2747 
L 2328 2669 
Q 3034 2534 3370 2195 
Q 3706 1856 3706 1288 
Q 3706 609 3251 259 
Q 2797 -91 1919 -91 
Q 1588 -91 1214 -16 
Q 841 59 441 206 
L 441 856 
Q 825 641 1194 531 
Q 1563 422 1919 422 
Q 2459 422 2753 634 
Q 3047 847 3047 1241 
Q 3047 1584 2836 1778 
Q 2625 1972 2144 2069 
L 1759 2144 
Q 1053 2284 737 2584 
Q 422 2884 422 3419 
Q 422 4038 858 4394 
Q 1294 4750 2059 4750 
Q 2388 4750 2728 4690 
Q 3069 4631 3425 4513 
z
" transform="scale(0.015625)"/>
      <path id="DejaVuSans-6c" d="M 603 4863 
L 1178 4863 
L 1178 0 
L 603 0 
L 603 4863 
z
" transform="scale(0.015625)"/>
      <path id="DejaVuSans-6f" d="M 1959 3097 
Q 1497 3097 1228 2736 
Q 959 2375 959 1747 
Q 959 1119 1226 758 
Q 1494 397 1959 397 
Q 2419 397 2687 759 
Q 2956 1122 2956 1747 
Q 2956 2369 2687 2733 
Q 2419 3097 1959 3097 
z
M 1959 3584 
Q 2709 3584 3137 3096 
Q 3566 2609 3566 1747 
Q 3566 888 3137 398 
Q 2709 -91 1959 -91 
Q 1206 -91 779 398 
Q 353 888 353 1747 
Q 353 2609 779 3096 
Q 1206 3584 1959 3584 
z
" transform="scale(0.015625)"/>
      <path id="DejaVuSans-74" d="M 1172 4494 
L 1172 3500 
L 2356 3500 
L 2356 3053 
L 1172 3053 
L 1172 1153 
Q 1172 725 1289 603 
Q 1406 481 1766 481 
L 2356 481 
L 2356 0 
L 1766 0 
Q 1100 0 847 248 
Q 594 497 594 1153 
L 594 3053 
L 172 3053 
L 172 3500 
L 594 3500 
L 594 4494 
L 1172 4494 
z
" transform="scale(0.015625)"/>
     </defs>
     <use xlink:href="#DejaVuSans-53"/>
     <use xlink:href="#DejaVuSans-6c" x="63.476562"/>
     <use xlink:href="#DejaVuSans-6f" x="91.259766"/>
     <use xlink:href="#DejaVuSans-74" x="152.441406"/>
    </g>
   </g>
  </g>
 </g>
 <defs>
  <clipPath id="p7cb71bf423">
   <rect x="74.848438" y="25.918125" width="375.151562" height="278.525625"/>
  </clipPath>
 </defs>
</svg>
